<svg id="Layer_1" data-name="Layer 1" xmlns="http://www.w3.org/2000/svg" viewBox="0 0 101.59 232.46"><defs><style>.cls-1{fill:#faf9e1;}</style></defs><title>Untitled-2icecream_arrow</title><path class="cls-1" d="M54.63,31.19A55.27,55.27,0,0,0,49,68c.54,2.84,4.86,2.07,4.91-.67A624.65,624.65,0,0,1,58.53,2.53L54.27,4.3l24.1,25.31c5.69,6,12,15.83,21.41,14.39,3.18-.49,1.83-5.31-1.32-4.82C93.36,40,89,33.53,85.93,30.3l-9.38-9.85L57.8.76c-1.65-1.73-4-.23-4.27,1.77a624.65,624.65,0,0,0-4.61,64.83l4.91-.66a49.77,49.77,0,0,1,5.11-33c1.52-2.84-2.79-5.37-4.31-2.53Z"/><path class="cls-1" d="M55.08,13.36c16.74,58.17,7.61,122.46-23.23,174.4A212.3,212.3,0,0,1,.72,228.17c-2.25,2.3,1.28,5.84,3.54,3.54,43.3-44.11,66.44-106.38,64-168A218.35,218.35,0,0,0,59.9,12C59,9,54.19,10.26,55.08,13.36Z"/></svg>