<svg id="Layer_1" data-name="Layer 1" xmlns="http://www.w3.org/2000/svg" xmlns:xlink="http://www.w3.org/1999/xlink" viewBox="0 0 659.68 819.85"><defs><style>.cls-1,.cls-14,.cls-15,.cls-16,.cls-17,.cls-18,.cls-19,.cls-20,.cls-21,.cls-24,.cls-29,.cls-30{fill:none;}.cls-2{fill:#7f8081;}.cls-10,.cls-3{fill:#ef9d8b;}.cls-4,.cls-8{fill:#6a92c7;}.cls-5{fill:#485da4;}.cls-10,.cls-12,.cls-15,.cls-17,.cls-21,.cls-23,.cls-24,.cls-25,.cls-27,.cls-29,.cls-30,.cls-32,.cls-33,.cls-34,.cls-5,.cls-8{stroke:#000;}.cls-10,.cls-12,.cls-13,.cls-14,.cls-15,.cls-16,.cls-18,.cls-19,.cls-20,.cls-21,.cls-24,.cls-25,.cls-27,.cls-29,.cls-30,.cls-5,.cls-8{stroke-miterlimit:10;}.cls-12,.cls-13,.cls-6{fill:#bfbfbf;}.cls-25,.cls-7{fill:#a7c0e4;}.cls-9{fill:#cddbf0;}.cls-10,.cls-23,.cls-27,.cls-29{stroke-width:4px;}.cls-11,.cls-33{fill:#fff;}.cls-12,.cls-13,.cls-14,.cls-15{stroke-width:2px;}.cls-13,.cls-14,.cls-16,.cls-19,.cls-20{stroke:#231f20;}.cls-16,.cls-17,.cls-24,.cls-25,.cls-34{stroke-width:3px;}.cls-17,.cls-23,.cls-32,.cls-33,.cls-34{stroke-linecap:round;stroke-linejoin:round;}.cls-18{stroke:#f9d07b;stroke-width:106px;}.cls-19,.cls-21,.cls-32,.cls-33{stroke-width:5px;}.cls-20,.cls-30{stroke-width:8px;}.cls-22{font-size:81px;font-family:Averta-Bold, Averta;font-weight:700;}.cls-23{fill:#f26241;}.cls-26{fill:#dfa187;}.cls-27,.cls-28,.cls-34{fill:#f15a52;}.cls-31{clip-path:url(#clip-path);}.cls-32{fill:#f7941d;}</style><clipPath id="clip-path" transform="translate(-1.36 99.33)"><circle class="cls-1" cx="331.2" cy="331.2" r="219.27"/></clipPath></defs><title>BiddefordSeal</title><rect class="cls-2" x="112.84" y="461.53" width="453" height="35"/><rect class="cls-3" x="110.34" y="447.03" width="442.74" height="81.76"/><polygon class="cls-4" points="234.04 530.23 190.09 530.23 192.59 507.2 234.04 507.2 234.04 530.23"/><polygon class="cls-5" points="233.19 509.3 192.34 509.3 192.34 497.53 229.7 497.53 233.19 509.3"/><path class="cls-6" d="M500.58,398.05c.09-4.48,1.69-8.8,3.66-12.83,2.64-5.36,6.31-10.63,11.81-13a15.75,15.75,0,0,1,16.31,2.79c2.35,2.13,4,5,6.65,6.79a4.78,4.78,0,0,1,1.52,1.33,3.85,3.85,0,0,1,.33,2.13c-.14,4.49-.7,9-3.26,12.72Z" transform="translate(-1.36 99.33)"/><path class="cls-6" d="M423.68,398.23c0-6,2.82-11.56,6.16-16.51,3.21-4.75,7.43-9.44,13.09-10.4a15.84,15.84,0,0,1,10.92,2.61,34.65,34.65,0,0,1,8.24,7.93,27.22,27.22,0,0,1,2.58,3.73c2.14,3.94,2.52,8.68,4.7,12.61Z" transform="translate(-1.36 99.33)"/><path class="cls-6" d="M346.68,397.9c0-6,2.82-11.57,6.16-16.51,3.21-4.75,7.43-9.45,13.09-10.4a15.83,15.83,0,0,1,10.92,2.6,34.7,34.7,0,0,1,8.24,7.94,27.12,27.12,0,0,1,2.58,3.72c2.14,3.95,2.52,8.69,4.7,12.62Z" transform="translate(-1.36 99.33)"/><polygon class="cls-7" points="475.09 530.23 418.09 530.23 419.59 507.2 470.84 507.2 475.09 530.23"/><polygon class="cls-8" points="472.59 509.3 419.59 509.3 422.87 497.53 468.35 497.53 472.59 509.3"/><polygon class="cls-7" points="398.09 530.23 341.09 530.23 342.59 507.2 393.84 507.2 398.09 530.23"/><polygon class="cls-8" points="395.59 509.3 342.59 509.3 345.87 497.53 391.35 497.53 395.59 509.3"/><polygon class="cls-7" points="551.84 530.23 494.84 530.23 496.34 507.2 547.59 507.2 551.84 530.23"/><polygon class="cls-8" points="549.34 509.3 496.34 509.3 499.62 497.53 545.1 497.53 549.34 509.3"/><rect class="cls-7" x="125.84" y="507.2" width="43.95" height="23.03"/><path class="cls-6" d="M122.45,391a22.74,22.74,0,0,1,3.54-7.08c3.33-4.17,6.88-8.49,11.79-10.57a19.45,19.45,0,0,1,7.54-1.44,10.11,10.11,0,0,1,5.07,1.05c2,1.15,3.28,3.29,4.87,5,1.2,1.3,2.63,2.38,3.71,3.77a19.79,19.79,0,0,1,2.17,3.83c1.88,4,3.51,8.06,5.39,12H145C138.72,397.53,119.62,402.45,122.45,391Z" transform="translate(-1.36 99.33)"/><rect class="cls-9" x="121.17" y="206.53" width="418" height="155.33"/><rect class="cls-10" x="108.84" y="363.53" width="71" height="70.5"/><polygon class="cls-8" points="168.94 509.3 123.84 509.3 123.84 497.53 165.09 497.53 168.94 509.3"/><rect class="cls-10" x="288.97" y="308.2" width="259.32" height="126.33"/><path class="cls-11" d="M240.45,222.2c-.68-.78-3.71-5.35-3.88-6.38a17,17,0,0,1,.75-4.37c1.69-5.22,5.53-8,6.38-13.38.48-3.1,1.05-6.69,3.18-9,3.25-3.53,10.66-1.57,12.55-6a10.85,10.85,0,0,0,.55-2.66,15,15,0,0,1,15.48-12.19,2.77,2.77,0,0,1,1.74.59c.34.33-.25.92-.13,1.38,1.13,4-.09,7.9-.62,12s.6,8.93,3.53,11.83,7.79,3.06,11.9,2.19c1.52-.32,3.49-.56,4.25.79s-.25,2.78.12,4.12c.22.82-1.77,1.71-1.18,2.32,2.54,2.6,6.81,5.88,6.72,9.52a11,11,0,0,1-5.1,9.1c-2.88,1.71-4.27,3.55-7.62,3.63-11.15.27-24.43-1.18-35.59-.91C247.93,224.92,244.08,226.36,240.45,222.2Z" transform="translate(-1.36 99.33)"/><rect class="cls-10" x="110.34" y="434.53" width="439.5" height="12.5"/><rect class="cls-12" x="341.73" y="324.87" width="95.34" height="9.66"/><rect class="cls-12" x="458.3" y="324.37" width="63.84" height="9.47"/><rect class="cls-12" x="301.41" y="324.2" width="21.43" height="10"/><rect class="cls-10" x="179.84" y="325.34" width="121.2" height="109.19"/><path class="cls-4" d="M137.53,429.87h386s-21.86,43-67.33,79.33c-59.92,47.91-176.93,71.09-273.33-14C161.78,476.59,159.29,460.73,137.53,429.87Z" transform="translate(-1.36 99.33)"/><path class="cls-11" d="M413.58,282.36c-3.46-.87-2.21-4.07-3-7.54-.86-3.77-3.22-6.76-1.13-10a11.78,11.78,0,0,1,2.93-3.49c.8-.56,1.73-.92,2.52-1.49,2.77-2,3.1-6,3-9.39s-.2-7.26,2.14-9.76c1.29-1.39,3.06-2,4.52-3.22a14.1,14.1,0,0,1,7.38-3c1.83-.25,3.72-.7,4.65-2.29.85-1.44.74-3.22.89-4.88a16.27,16.27,0,0,1,8.1-12.22c4.4-2.54,10.56-3.83,15.48-2.61.58,6.89-1.41,13.84-1.16,21.45.15,4.49-1.21,9.6,1.86,12.88,2.79,3,7.45,3,11.47,2.43,3.49-.52,6.63-2.74,10-3.89-1,4.41-2.64,13.35,1.8,14.22,3.61.71,2.54,1.46,2.94,2.48a17,17,0,0,1,1.44,5.24c.34,5.31.08,11.77-4.56,14.37A13.77,13.77,0,0,1,479,283a313.52,313.52,0,0,1-34.68.79c-5.72-.19-11.42-.57-17.12-1C422.67,282.37,418,283.47,413.58,282.36Z" transform="translate(-1.36 99.33)"/><rect class="cls-13" x="154.79" y="379.65" width="9.72" height="44.77"/><rect class="cls-13" x="203.09" y="338.03" width="14.5" height="70.28"/><rect class="cls-12" x="267.09" y="338.03" width="15.25" height="49.29"/><line class="cls-14" x1="202.34" y1="347.53" x2="218.34" y2="347.53"/><line class="cls-14" x1="202.84" y1="357.28" x2="217.59" y2="357.28"/><line class="cls-14" x1="202.84" y1="367.28" x2="217.59" y2="367.28"/><line class="cls-14" x1="202.59" y1="377.28" x2="217.34" y2="377.28"/><line class="cls-14" x1="202.84" y1="387.03" x2="217.84" y2="387.03"/><line class="cls-14" x1="203.09" y1="397.28" x2="217.09" y2="397.28"/><line class="cls-15" x1="267.34" y1="347.78" x2="282.09" y2="347.78"/><line class="cls-15" x1="266.59" y1="357.03" x2="282.59" y2="357.03"/><line class="cls-12" x1="266.84" y1="367.53" x2="282.84" y2="367.53"/><line class="cls-15" x1="266.84" y1="377.03" x2="282.59" y2="377.03"/><line class="cls-15" x1="306.34" y1="325.03" x2="306.34" y2="334.28"/><line class="cls-15" x1="319.09" y1="324.53" x2="319.09" y2="334.53"/><line class="cls-15" x1="358.84" y1="325.03" x2="358.84" y2="334.78"/><line class="cls-15" x1="373.09" y1="325.28" x2="373.09" y2="334.28"/><line class="cls-15" x1="386.09" y1="325.03" x2="386.09" y2="334.53"/><line class="cls-15" x1="400.09" y1="325.03" x2="400.09" y2="334.28"/><line class="cls-15" x1="412.59" y1="325.03" x2="412.59" y2="334.53"/><line class="cls-15" x1="425.34" y1="325.03" x2="425.34" y2="334.28"/><line class="cls-15" x1="478.84" y1="325.03" x2="478.84" y2="333.53"/><line class="cls-15" x1="491.59" y1="325.03" x2="491.59" y2="334.28"/><line class="cls-15" x1="506.09" y1="325.03" x2="506.09" y2="334.28"/><line class="cls-14" x1="278.84" y1="403.78" x2="278.84" y2="416.03"/><line class="cls-14" x1="291.84" y1="404.03" x2="291.84" y2="416.03"/><line class="cls-14" x1="306.59" y1="403.78" x2="306.59" y2="416.03"/><line class="cls-14" x1="319.09" y1="404.03" x2="319.09" y2="416.03"/><polygon class="cls-6" points="542.59 404.03 542.59 416.28 532.59 416.28 532.59 415.78 532.59 404.03 542.59 404.03"/><polygon class="cls-6" points="532.59 415.78 532.59 416.28 519.09 416.28 519.09 415.53 519.09 404.03 532.59 404.03 532.59 415.78"/><polygon class="cls-6" points="519.09 415.53 519.09 416.28 505.84 416.28 505.84 404.28 505.84 404.03 519.09 404.03 519.09 415.53"/><polygon class="cls-6" points="505.84 404.28 505.84 416.28 491.84 416.28 491.84 415.53 491.84 404.03 505.84 404.03 505.84 404.28"/><polygon class="cls-6" points="491.84 415.53 491.84 416.28 478.59 416.28 478.59 415.28 478.59 404.03 491.84 404.03 491.84 415.53"/><polygon class="cls-6" points="478.59 415.28 478.59 416.28 465.59 416.28 465.59 415.78 465.59 404.03 478.59 404.03 478.59 415.28"/><polygon class="cls-6" points="465.59 415.78 465.59 416.28 452.59 416.28 452.59 404.03 465.59 404.03 465.59 415.78"/><polygon class="cls-6" points="452.59 404.03 452.59 416.28 439.84 416.28 439.84 416.03 439.84 404.03 452.59 404.03"/><polygon class="cls-6" points="439.84 416.03 439.84 416.28 425.59 416.28 425.59 415.78 425.59 404.03 439.84 404.03 439.84 416.03"/><polygon class="cls-6" points="425.59 415.78 425.59 416.28 412.34 416.28 412.34 416.03 412.34 404.03 425.59 404.03 425.59 415.78"/><polygon class="cls-6" points="412.34 416.03 412.34 416.28 399.59 416.28 399.59 404.03 412.34 404.03 412.34 416.03"/><polygon class="cls-6" points="399.59 404.03 399.59 416.28 385.59 416.28 385.59 416.03 385.59 404.03 399.59 404.03"/><polygon class="cls-6" points="385.59 416.03 385.59 416.28 373.09 416.28 373.09 415.78 373.09 404.03 385.59 404.03 385.59 416.03"/><polygon class="cls-6" points="373.09 415.78 373.09 416.28 358.84 416.28 358.84 415.78 358.84 404.03 373.09 404.03 373.09 415.78"/><polygon class="cls-6" points="358.84 415.78 358.84 416.28 345.59 416.28 345.59 415.78 345.59 404.03 358.84 404.03 358.84 415.78"/><polygon class="cls-6" points="345.59 415.78 345.59 416.28 332.09 416.28 332.09 404.03 345.59 404.03 345.59 415.78"/><rect class="cls-6" x="265.59" y="404.03" width="66.5" height="12.25"/><polygon class="cls-14" points="532.59 404.03 542.59 404.03 542.59 416.28 532.59 416.28 519.09 416.28 505.84 416.28 491.84 416.28 478.59 416.28 465.59 416.28 452.59 416.28 439.84 416.28 425.59 416.28 412.34 416.28 399.59 416.28 385.59 416.28 373.09 416.28 358.84 416.28 345.59 416.28 332.09 416.28 265.59 416.28 265.59 404.03 332.09 404.03 345.59 404.03 358.84 404.03 373.09 404.03 385.59 404.03 399.59 404.03 412.34 404.03 425.59 404.03 439.84 404.03 452.59 404.03 465.59 404.03 478.59 404.03 491.84 404.03 505.84 404.03 519.09 404.03 532.59 404.03"/><polyline class="cls-14" points="332.09 403.78 332.09 404.03 332.09 416.28 332.09 416.53"/><polyline class="cls-14" points="345.59 403.78 345.59 404.03 345.59 415.78"/><line class="cls-14" x1="358.84" y1="404.03" x2="358.84" y2="415.78"/><polyline class="cls-14" points="373.09 403.78 373.09 404.03 373.09 415.78"/><line class="cls-14" x1="385.59" y1="404.03" x2="385.59" y2="416.03"/><line class="cls-14" x1="399.59" y1="404.03" x2="399.59" y2="416.28"/><line class="cls-14" x1="412.34" y1="404.03" x2="412.34" y2="416.03"/><polyline class="cls-14" points="425.59 403.78 425.59 404.03 425.59 415.78"/><line class="cls-14" x1="439.84" y1="404.03" x2="439.84" y2="416.03"/><line class="cls-14" x1="452.59" y1="404.03" x2="452.59" y2="416.28"/><polyline class="cls-14" points="465.59 403.78 465.59 404.03 465.59 415.78"/><line class="cls-14" x1="478.59" y1="404.03" x2="478.59" y2="415.28"/><line class="cls-14" x1="491.84" y1="404.03" x2="491.84" y2="415.53"/><polyline class="cls-14" points="505.84 404.28 505.84 416.28 505.84 416.78"/><polyline class="cls-14" points="519.09 403.53 519.09 404.03 519.09 415.53"/><line class="cls-14" x1="532.59" y1="404.03" x2="532.59" y2="415.78"/><path class="cls-16" d="M265.32,428.07s2.21-60,26.88-58,29.87,58,29.87,58" transform="translate(-1.36 99.33)"/><line class="cls-16" x1="141.84" y1="535.53" x2="518.34" y2="535.53"/><line class="cls-16" x1="145.84" y1="543.53" x2="515.34" y2="543.53"/><line class="cls-16" x1="151.34" y1="553.03" x2="507.34" y2="553.03"/><line class="cls-16" x1="157.84" y1="562.53" x2="499.34" y2="562.53"/><line class="cls-16" x1="490.34" y1="575.03" x2="166.34" y2="575.03"/><line class="cls-16" x1="477.34" y1="588.53" x2="180.84" y2="588.53"/><line class="cls-16" x1="459.84" y1="602.53" x2="199.34" y2="602.53"/><line class="cls-16" x1="437.84" y1="618.03" x2="221.84" y2="618.03"/><line class="cls-16" x1="404.34" y1="634.53" x2="244.34" y2="634.53"/><line class="cls-14" x1="465.84" y1="325.03" x2="465.84" y2="333.53"/><path class="cls-17" d="M289.92,182.53S292,166,305.43,160.05" transform="translate(-1.36 99.33)"/><circle class="cls-18" cx="328.45" cy="429.14" r="272.25"/><circle class="cls-19" cx="329.84" cy="430.53" r="314.26"/><circle class="cls-20" cx="329.84" cy="430.53" r="325.84"/><circle class="cls-21" cx="330.92" cy="429.45" r="230.28"/><text x="-1.36" y="99.33"></text><text class="cls-22" transform="matrix(0.48, -0.88, 0.88, 0.48, 102.16, 339.37)">H</text><text class="cls-22" transform="matrix(0.67, -0.74, 0.74, 0.67, 130.5, 287.83)">A</text><text class="cls-22" transform="matrix(0.83, -0.56, 0.56, 0.83, 168.01, 246.09)">N</text><text class="cls-22" transform="translate(218.38 212.08) rotate(-20.19)">D</text><text class="cls-22" transform="translate(272.86 191.12) rotate(-5.05)">M</text><text class="cls-22" transform="translate(342.93 185.81) rotate(9.66)">A</text><text class="cls-22" transform="translate(398.42 195.09) rotate(23.08)">D</text><text class="cls-22" transform="translate(452.67 218.87) rotate(35.77)">E</text><text class="cls-22" transform="translate(492.94 249.37) rotate(44.48)"> </text><text class="cls-22" transform="matrix(0.63, 0.77, -0.77, 0.63, 510.16, 266.39)">I</text><text class="cls-22" transform="translate(528.02 285.87) rotate(60.95)">N</text><text x="-1.36" y="99.33"></text><line class="cls-23" x1="416.64" y1="386.25" x2="480.01" y2="386.95"/><path class="cls-24" d="M419.32,429.57s2.21-60,26.88-58,29.87,58,29.87,58" transform="translate(-1.36 99.33)"/><path class="cls-24" d="M143.2,371c24.67,2,29.87,58,29.87,58" transform="translate(-1.36 99.33)"/><path class="cls-24" d="M495.82,428.57s2.21-60,26.88-58" transform="translate(-1.36 99.33)"/><path class="cls-24" d="M342.32,428.58s2.21-60.05,26.88-58.05,29.88,58.05,29.88,58.05" transform="translate(-1.36 99.33)"/><polyline class="cls-24" points="521.84 529.03 397.72 529.03 340.96 529.03 135.34 529.03"/><path class="cls-25" d="M191.32,428.07s2.21-60,26.88-58,29.87,58,29.87,58" transform="translate(-1.36 99.33)"/><polygon class="cls-8" points="236.94 509.3 192.59 509.3 193.59 500.78 233.09 497.53 236.94 509.3"/><path class="cls-24" d="M143.58,371c-9.25.75-16.18,9.44-20.71,19.59" transform="translate(-1.36 99.33)"/><path class="cls-26" d="M306.77,290.21h-7.54s2.71,1.36,4.79,2.67c1.34.84,2.24,1.43,2.58,1.66S306.77,290.21,306.77,290.21Z" transform="translate(-1.36 99.33)"/><path class="cls-24" d="M522.7,370.53c5.24.43,9.61,3.3,13.23,7.55A47.6,47.6,0,0,1,542.64,389" transform="translate(-1.36 99.33)"/><rect class="cls-27" x="323.84" y="256.53" width="18" height="130.5"/><rect class="cls-11" x="324.7" y="209.01" width="18.75" height="7.25" transform="translate(-45.72 195.33) rotate(-15.35)"/><rect class="cls-11" x="324.7" y="228.16" width="18.75" height="7.25" transform="translate(-50.79 196.02) rotate(-15.35)"/><rect class="cls-11" x="324.7" y="247.32" width="18.75" height="7.25" transform="translate(-55.86 196.7) rotate(-15.35)"/><rect class="cls-11" x="324.7" y="189.85" width="18.75" height="7.25" transform="translate(-40.65 194.65) rotate(-15.35)"/><rect class="cls-11" x="324.7" y="170.7" width="18.75" height="7.25" transform="translate(-35.58 193.97) rotate(-15.35)"/><rect class="cls-11" x="324.7" y="266.47" width="18.75" height="7.25" transform="translate(-60.93 197.38) rotate(-15.35)"/><path class="cls-28" d="M483.73,230.75c2.32,3.64,1.69,11.79-5.11,15.67-8.7,5-20.1,1.22-20-9.87s6.21-14.94,11.76-14.89,5.05,7.73,5.05,7.73l.52-.17C477.46,228.76,481.83,227.75,483.73,230.75Z" transform="translate(-1.36 99.33)"/><path class="cls-17" d="M418,280.91s-8.72-2.86-8.64-12.25,8.88-13.77,8.88-13.77-3.66-10,3.66-17.24,15.1-4.56,15.1-4.56-1.05-25.82,25.37-22.17c0,0-4.4,9.53-1.83,15.84" transform="translate(-1.36 99.33)"/><path class="cls-17" d="M481.36,281.61A13.43,13.43,0,0,0,490.21,269c.09-9.81-9.48-13.1-9.48-13.1s4.67-4.09,1.77-12" transform="translate(-1.36 99.33)"/><path class="cls-17" d="M475.43,229.39s.49-7.67-5.05-7.73-11.66,3.8-11.76,14.89,11.3,14.82,20,9.87c6.8-3.88,7.43-12,5.11-15.67-1.9-3-6.27-2-7.78-1.53Z" transform="translate(-1.36 99.33)"/><path class="cls-17" d="M476,229.22s2.6-20.56,19.33-28" transform="translate(-1.36 99.33)"/><rect class="cls-29" x="323.84" y="256.7" width="18" height="130.5"/><circle class="cls-1" cx="329.84" cy="430.53" r="219.27"/><circle class="cls-30" cx="329.84" cy="430.53" r="219.27"/><text class="cls-22" transform="translate(527.68 574.85) rotate(132.15)">B</text><text class="cls-22" transform="translate(490.7 613.82) rotate(141.63)">I</text><text class="cls-22" transform="translate(470.89 631.28) rotate(151.88)">D</text><text class="cls-22" transform="matrix(-0.97, 0.25, -0.25, -0.97, 418.97, 659)">D</text><text class="cls-22" transform="matrix(-1, 0.03, -0.03, -1, 361.45, 673.21)">E</text><text class="cls-22" transform="matrix(-0.99, -0.17, 0.17, -0.99, 312.18, 674.6)">F</text><text class="cls-22" transform="matrix(-0.92, -0.38, 0.38, -0.92, 266.96, 668.1)">O</text><text class="cls-22" transform="translate(206.28 641.99) rotate(-143.54)">R</text><text class="cls-22" transform="translate(163.28 610.64) rotate(-130.37)">D</text><text x="-1.36" y="99.33"></text><polyline points="504.51 363.2 520.51 382.2 538.84 377.87 541.84 389.53 292.84 389.53 278.51 384.87 348.18 366.87 359.18 379.53 436.18 360.53 450.18 377.87"/><g class="cls-31"><path class="cls-32" d="M265.24,287.88m-62,123.45,50.18,200.06,3.25,13c2.23,8.88,14.84,8.88,17.06,0l53.43-213" transform="translate(-1.36 99.33)"/></g><circle class="cls-30" cx="329.84" cy="430.53" r="219.27"/><path class="cls-33" d="M197.85,377.17c-4.15,5-6.48,7.88-6.48,13.75,0,22.18,37.77,25.33,73.87,25.33s73.87-3.15,73.87-25.33c0-5.87-2.33-8.73-6.48-13.75a70.74,70.74,0,1,0-134.78,0ZM327.2,408.33" transform="translate(-1.36 99.33)"/><path class="cls-17" d="M243.41,224s-7-2.3-6.92-9.84,7.12-11.05,7.12-11.05-2.94-8.06,2.94-13.83,12.11-3.66,12.11-3.66-.84-20.72,20.37-17.79c0,0-3.54,7.64-1.48,12.71" transform="translate(-1.36 99.33)"/><path class="cls-34" d="M289.5,182.67s.4-6.16-4.05-6.2-9.35,3-9.44,11.95,9.08,11.89,16.06,7.91c5.45-3.11,6-9.65,4.1-12.57S289.5,182.67,289.5,182.67Z" transform="translate(-1.36 99.33)"/><path class="cls-17" d="M294.27,224.58a10.8,10.8,0,0,0,7.1-10.13c.07-7.88-7.61-10.51-7.61-10.51s3.75-3.29,1.42-9.6" transform="translate(-1.36 99.33)"/></svg>