<svg id="Layer_1" data-name="Layer 1" xmlns="http://www.w3.org/2000/svg" viewBox="0 0 613.9 538.63"><defs><style>.cls-1{fill:#fff;}.cls-2{fill:#3c2415;}.cls-3{fill:#e4c1c0;}</style></defs><title>Artboard 1EVENTS_CAKES</title><path class="cls-1" d="M421.34,216.75l-89,173.73,281.6-65.87S567.57,246.43,421.34,216.75Z"/><polyline class="cls-2" points="332.3 528.05 332.89 538.63 563.23 485.51 613.31 473.96 613.31 462.21"/><polygon class="cls-3" points="331.71 428.11 561.58 372.26 562.16 435.16 331.12 493.36 331.71 428.11"/><path class="cls-1" d="M189.1,0l87.18,170.1L.58,105.6S45.94,29.06,189.1,0Z"/><polyline class="cls-2" points="276.28 304.78 275.7 315.14 1.15 251.83 1.15 240.32"/><path class="cls-3" d="M276,276s-29.38-5.91-39.17-7.93c-9-1.86-27-5.69-36.06-7.3-25.17-4.48-76.15-11.71-100.24-20.3-7.31-2.61-21.33-17.85-28.86-19.72-12.24-3-37.24,5.06-49.8,3.79C16.39,224,.29,220.17.29,220.17L0,238.59l276.28,66.19Z"/><path class="cls-3" d="M276,210.68s-44-15.16-58.71-18.13c-26.3-5.33-78.89-9.74-105.19-15.06-18.37-3.72-58.9-20.36-77.27-24.08-4.06-.83-10.9,3.7-15,2.87C14.34,155.17.29,154.85.29,154.85L0,173.26l42.42,10.17,80.92,19.39,15.75,3.77c17,4.06,48.56,26.21,65.53,30.28,17.32,4.15,71.66,2.59,71.66,2.59Z"/></svg>