<svg id="Layer_1" data-name="Layer 1" xmlns="http://www.w3.org/2000/svg" viewBox="0 0 502.01 603.45"><defs><style>.cls-1{fill:#58595b;}.cls-2{fill:#414042;}.cls-3{fill:#d1d3d4;}.cls-4{fill:#faf9e1;}.cls-5{fill:#e4c1c0;}</style></defs><title>Artboard 1EVENTS_CART</title><path class="cls-1" d="M71.21,570.94c0,8.61-1.82,16.19-8.75,20.26-3.47,2-10.34,3.14-14.65,3.14a23.41,23.41,0,1,1,23.4-23.4Z"/><path class="cls-1" d="M285.55,573c0,6.16-.65,13-4.54,17.22-4.27,4.59-12.1,6.18-18.86,6.18a23.4,23.4,0,1,1,23.4-23.4Z"/><path class="cls-2" d="M50.9,577.94a23.41,23.41,0,1,1-23.41-23.4c7.24,0,14.16,1.21,18.45,6.36C52.38,568.61,51,572.34,50.9,577.94Z"/><path class="cls-2" d="M265.24,580a23.41,23.41,0,0,1-23.4,23.41c-7.78,0-15.65-1.52-19.9-7.35-2.83-3.87-3.51-10.9-3.51-16.06a23.41,23.41,0,0,1,46.81,0Z"/><rect class="cls-3" x="32.58" y="353.67" width="143.36" height="4.04"/><rect class="cls-3" x="275.71" y="120.48" width="7.71" height="412.57"/><rect class="cls-4" y="369.85" width="288.1" height="171.85"/><rect class="cls-5" y="369.85" width="290.48" height="71.71"/><polygon class="cls-3" points="293.62 556.64 8.76 556.64 9.34 540.76 293.62 542.16 293.62 556.64"/><rect class="cls-2" x="120.21" y="81.95" width="229.05" height="38.53" rx="12" ry="12"/><path class="cls-2" d="M487.25,91.76c0,18.49-68.69,5.56-138.63-1.34-20.79-2-41.69-3.56-60.93-3.56-84,0-220,40.79-220,16.81,0-2.36,2-5.67,5.5-9.67,17-19.29,70.43-54.53,115-75.09C228.44.32,251.73,0,287.69,0,371.66,0,487.25,67.78,487.25,91.76Z"/><path class="cls-2" d="M480.44,124.68H371.49c-4.13,0-14.4-2.07-14.4-7.79l-8.77-35.47c0-5.71,19.46-3.46,23.59-3.46l108.53,5.19c4.13,0,7.51,4.67,7.51,10.38V114.3C488,120,484.57,124.68,480.44,124.68Z"/><rect class="cls-2" x="221.17" y="114.88" width="207.53" height="38.53" rx="12" ry="12"/><path class="cls-2" d="M206.54,152.54,92.07,144.81a8.32,8.32,0,0,1-7.6-8.94l1.47-21.66a8.33,8.33,0,0,1,8.73-7.84l114.47,7.73c4.49.31,20-3.14,19.64,1.48l-13.5,29.13A8.32,8.32,0,0,1,206.54,152.54Z"/><rect class="cls-2" x="333.85" y="84.06" width="32.22" height="36.42" rx="12" ry="12"/><path class="cls-2" d="M465.54,146.4H450.12c-4.62,0-11.2,7.42-11.2,2.8l-15.41-28c0-4.62,22-11.21,26.61-11.21h15.42c4.62,0,21.71-22.83,21.71-18.21l14.76,39C502,135.33,470.16,146.4,465.54,146.4Z"/><path class="cls-2" d="M62.3,141.14c.56,8.83,21.21-6.3,21.21-6.3l7.63-37.12-22.28,2.1S60.28,109.62,62.3,141.14Z"/><polygon class="cls-3" points="12.03 357.71 274.94 357.71 274.94 369.85 11.56 371.72 12.03 357.71"/></svg>