<svg id="Layer_1" data-name="Layer 1" xmlns="http://www.w3.org/2000/svg" viewBox="0 0 715.91 849.49"><defs><style>.cls-1{fill:#58595b;}.cls-2{fill:#231f20;}.cls-3{fill:#f8f5b6;}.cls-4{fill:#f6f6ca;}.cls-5{fill:#fdc06c;}.cls-6{fill:#d1d3d4;}.cls-7{fill:#b7daf3;}</style></defs><title>cartcart</title><path class="cls-1" d="M101.66,803.08c0,12.29-2.59,23.12-12.49,28.92-5,2.9-14.76,4.49-20.92,4.49a33.41,33.41,0,1,1,33.41-33.41Z"/><path class="cls-1" d="M407.66,806.08c0,8.8-.93,18.62-6.49,24.59-6.1,6.54-17.27,8.82-26.92,8.82a33.41,33.41,0,1,1,33.41-33.41Z"/><path class="cls-2" d="M72.66,813.08a33.41,33.41,0,1,1-33.41-33.41c10.33,0,20.2,1.73,26.34,9.08C74.78,799.76,72.77,805.08,72.66,813.08Z"/><path class="cls-2" d="M378.66,816.08a33.41,33.41,0,0,1-33.41,33.41c-11.1,0-22.33-2.16-28.41-10.49-4-5.52-5-15.57-5-22.92a33.41,33.41,0,0,1,66.82,0Z"/><rect class="cls-2" x="46.51" y="492.9" width="204.67" height="5.76"/><rect class="cls-3" x="392.84" y="172" width="11" height="589"/><rect class="cls-4" y="516" width="411.3" height="245.33"/><rect class="cls-5" y="516" width="414.69" height="102.38"/><polygon class="cls-6" points="419.17 782.67 12.51 782.67 13.34 760 419.17 762 419.17 782.67"/><rect class="cls-7" x="170.84" y="117" width="327" height="55" rx="12" ry="12"/><path class="cls-7" d="M694.84,131c0,26.4-98.06,7.94-197.91-1.91-29.68-2.92-59.51-5.09-87-5.09-119.88,0-314.11,58.24-314.11,24,0-3.36,2.81-8.09,7.85-13.8C128,106.66,204.24,56.35,267.84,27,325.36.45,358.61,0,410,0,529.83,0,694.84,96.76,694.84,131Z"/><path class="cls-7" d="M685.11,178H529.58c-5.9,0-20.56-3-20.56-11.12l-12.51-50.65c0-8.15,27.77-4.94,33.67-4.94l154.93,7.41c5.9,0,10.73,6.67,10.73,14.83v29.65C695.84,171.33,691,178,685.11,178Z"/><rect class="cls-7" x="314.98" y="164" width="296.28" height="55" rx="12" ry="12"/><path class="cls-7" d="M294.1,217.77l-163.42-11A11.89,11.89,0,0,1,119.83,194l2.09-30.93a11.88,11.88,0,0,1,12.47-11.19l163.41,11c6.42.43,28.48-4.48,28,2.1l-19.27,41.59A11.88,11.88,0,0,1,294.1,217.77Z"/><rect class="cls-7" x="475.84" y="120" width="46" height="52" rx="12" ry="12"/><path class="cls-7" d="M663.84,209h-22c-6.6,0-16,10.6-16,4l-22-40c0-6.6,31.4-16,38-16h22c6.6,0,31-32.6,31-26l21.07,55.6C715.91,193.2,670.44,209,663.84,209Z"/><path class="cls-7" d="M88.17,201.5c.81,12.6,30.29-9,30.29-9l10.88-53-31.8,3S85.29,156.5,88.17,201.5Z"/><polygon class="cls-6" points="17.17 498.67 392.51 498.67 392.51 516 16.51 518.67 17.17 498.67"/></svg>