<svg id="Layer_1" data-name="Layer 1" xmlns="http://www.w3.org/2000/svg" viewBox="0 0 734.22 597.96"><defs><style>.cls-1{fill:#faf9e1;}.cls-2,.cls-6,.cls-8{fill:none;}.cls-2,.cls-3{stroke:#89cff2;}.cls-2,.cls-3,.cls-6,.cls-8{stroke-miterlimit:10;}.cls-3{fill:#caebf8;}.cls-4{fill:#cc2227;}.cls-5{fill:#c2c4c6;}.cls-6{stroke:#119b48;}.cls-7{fill:#119b48;}.cls-8{stroke:#cc2227;}</style></defs><title>Untitled-20 copychart</title><text></text><path class="cls-1" d="M438,.5c-162.94,0-295,132.09-295,295,0,160.42,128,290.93,287.49,294.93a6.49,6.49,0,0,1,.78-.06,5.46,5.46,0,0,1,.93.08c1.94,0,3.88.08,5.82.08,162.94,0,295-132.09,295-295S600.89.5,438,.5Zm1.67,349.88a59.19,59.19,0,1,1,59.18-59.19A59.18,59.18,0,0,1,439.62,350.38Z"/><path class="cls-2" d="M498.5,301.38c79.37,21.69,150.37,72.69,192.79,144.15"/><path class="cls-2" d="M486.09,329.91c59.78,57.16,93.78,139.16,94.56,222.58"/><path class="cls-2" d="M460.85,347.58c20,64.49,15,133.49-8,196.49-1,3-3,5-4,8-4,13-11,25-17.12,37.15"/><path class="cls-2" d="M430.93,349.71c-1.17,4.69-2.62,9.32-4.13,13.91a360.86,360.86,0,0,1-13.89,35.49,372.56,372.56,0,0,1-25.74,47.58,319.53,319.53,0,0,1-39.84,50.52A265.65,265.65,0,0,1,291,541.58c-2.71,1.58-5.46,3.11-8.22,4.59"/><path class="cls-2" d="M402.25,338.25c-60.38,56.82-141.38,96.82-225.7,93.75"/><path class="cls-2" d="M384.35,312.85c-80.48,19.22-169.48,12.22-240.16-30.47"/><path class="cls-2" d="M381.32,279.14a271,271,0,0,1-87.86-35.77,310,310,0,0,1-71.65-62.32,327.88,327.88,0,0,1-31.35-43.78"/><path class="cls-2" d="M393.7,253.33a217.92,217.92,0,0,1-18.83-19.26c-11-15-21-29-31-45-3-5-6-11-9-16-23-43-35-90-33.89-137.54"/><path class="cls-2" d="M419.64,235.23c-10.57-29.74-14.47-61.52-12.87-93S415.31,79.59,426,49.92A392.25,392.25,0,0,1,447.11,1.63"/><path class="cls-2" d="M448.78,232.21c5.09-26.14,16.09-50.14,29.09-74.14l9-15c11-16,22-29,35-43,22-22,45-41,71.62-55.91"/><path class="cls-2" d="M477.47,244.86C482.06,240,487,235.41,492,231a312.68,312.68,0,0,1,29.43-22.87,321.2,321.2,0,0,1,43.19-25,300.49,300.49,0,0,1,55.83-20.33A285.21,285.21,0,0,1,687.75,154c3,0,6.06,0,9.09,0"/><path class="cls-2" d="M495.9,270.88c46-13.81,94-13.81,143-5.81,35,7,66,20,95.1,37"/><circle class="cls-2" cx="437.95" cy="295.53" r="79.44"/><circle class="cls-2" cx="437.95" cy="295.53" r="101.88"/><circle class="cls-2" cx="437.95" cy="295.53" r="126.42"/><circle class="cls-2" cx="437.95" cy="295.53" r="147.09"/><circle class="cls-2" cx="437.95" cy="295.53" r="169.74"/><circle class="cls-2" cx="437.95" cy="295.53" r="191.26"/><circle class="cls-2" cx="437.95" cy="295.53" r="214.44"/><circle class="cls-2" cx="437.95" cy="295.53" r="235.99"/><circle class="cls-2" cx="437.95" cy="295.53" r="256.47"/><circle class="cls-2" cx="437.95" cy="295.53" r="280.9"/><path class="cls-3" d="M438,.5c-162.94,0-295,132.09-295,295,0,160.42,128,290.93,287.49,294.93a6.49,6.49,0,0,1,.78-.06,5.46,5.46,0,0,1,.93.08c1.94,0,3.88.08,5.82.08,162.94,0,295-132.09,295-295S600.89.5,438,.5Zm0,573.63c-153.86,0-278.6-124.73-278.6-278.6S284.09,16.93,438,16.93s278.61,124.73,278.61,278.6S591.82,574.13,438,574.13Z"/><polygon class="cls-4" points="272.52 408.86 262.05 427.64 301.83 444.42 311.37 425.79 272.52 408.86"/><polygon class="cls-5" points="8.96 280.84 221.56 434.66 214.99 442.99 0 299.72 8.96 280.84"/><path class="cls-6" d="M418.2,347.51S328.87,476.17,238.87,454.84"/><polygon class="cls-7" points="224.1 430.68 210.48 447.32 246.68 470.85 259.35 454.19 224.1 430.68"/><path class="cls-8" d="M426,348.25s-47.8,103.26-124.46,85.26"/><path class="cls-8" d="M418.2,347.51"/><polygon class="cls-5" points="34.32 299.32 270.72 413.23 265.72 422.58 28.83 319.48 34.32 299.32"/></svg>