<svg id="Layer_1" data-name="Layer 1" xmlns="http://www.w3.org/2000/svg" viewBox="0 0 359.65 358.9"><defs><style>.cls-1{fill:#fff;}.cls-2{fill:#bbd8f1;}.cls-3,.cls-4{fill:none;stroke:#bcd8f1;stroke-miterlimit:10;}.cls-3{stroke-width:0.61px;}.cls-4{stroke-width:0.62px;}</style></defs><title>Artboard 1ICECREAM_CHARTS</title><path class="cls-1" d="M179.45,0a179.45,179.45,0,0,0-4.58,358.84,3.57,3.57,0,0,1,.47,0,3.45,3.45,0,0,1,.57.05c1.18,0,2.36,0,3.54,0a179.45,179.45,0,0,0,0-358.9Zm1,212.81a36,36,0,1,1,36-36A36,36,0,0,1,180.46,212.81Z"/><path class="cls-2" d="M179.45,0a179.45,179.45,0,0,0-4.58,358.84,3.57,3.57,0,0,1,.47,0,3.45,3.45,0,0,1,.57.05c1.18,0,2.36,0,3.54,0a179.45,179.45,0,0,0,0-358.9Zm0,348.91A169.46,169.46,0,1,1,348.91,179.45,169.46,169.46,0,0,1,179.45,348.91Z"/><path class="cls-3" d="M216.27,183c48.28,13.19,91.47,44.21,117.27,87.68"/><path class="cls-3" d="M208.73,200.36c36.36,34.77,57,84.64,57.51,135.38"/><path class="cls-3" d="M193.37,211.11c12.18,39.22,9.14,81.19-4.85,119.51-.61,1.83-1.82,3-2.43,4.87-2.43,7.91-6.69,15.2-10.41,22.6"/><path class="cls-3" d="M175.18,212.41c-.72,2.85-1.6,5.66-2.52,8.45a216,216,0,0,1-8.44,21.59,226.87,226.87,0,0,1-15.66,28.94,193.79,193.79,0,0,1-24.23,30.73,161.52,161.52,0,0,1-34.27,27c-1.65,1-3.31,1.89-5,2.79"/><path class="cls-3" d="M157.74,205.44c-36.73,34.55-86,58.88-137.29,57"/><path class="cls-3" d="M146.84,190C97.89,201.67,43.76,197.42.77,171.45"/><path class="cls-3" d="M145,169.48a165.07,165.07,0,0,1-53.44-21.75A189,189,0,0,1,48,109.82,200.09,200.09,0,0,1,28.91,83.19"/><path class="cls-3" d="M152.53,153.78a134.55,134.55,0,0,1-11.45-11.71c-6.69-9.13-12.77-17.64-18.86-27.37-1.82-3-3.65-6.7-5.47-9.74-14-26.15-21.29-54.74-20.61-83.65"/><path class="cls-3" d="M168.31,142.77a146.76,146.76,0,0,1-7.83-56.55,196.45,196.45,0,0,1,11.67-56.16A236.49,236.49,0,0,1,185,.69"/><path class="cls-3" d="M186,140.94c3.1-15.9,9.79-30.5,17.7-45.1l5.47-9.12a221.26,221.26,0,0,1,21.29-26.16c13.38-13.38,27.37-24.94,43.56-34"/><path class="cls-3" d="M203.48,148.63c2.8-3,5.78-5.75,8.83-8.44a191,191,0,0,1,17.9-13.92,195.65,195.65,0,0,1,26.27-15.22,183,183,0,0,1,34-12.36,172.9,172.9,0,0,1,40.95-5.33c1.84,0,3.68,0,5.53,0"/><path class="cls-3" d="M214.69,164.46c28-8.4,57.16-8.4,87-3.54,21.28,4.26,40.14,12.17,57.84,22.5"/><circle class="cls-3" cx="179.45" cy="179.45" r="48.32"/><circle class="cls-3" cx="179.45" cy="179.45" r="61.97"/><circle class="cls-3" cx="179.45" cy="179.45" r="76.89"/><circle class="cls-3" cx="179.45" cy="179.45" r="89.47"/><circle class="cls-3" cx="179.45" cy="179.45" r="103.24"/><circle class="cls-3" cx="179.45" cy="179.45" r="116.33"/><circle class="cls-3" cx="179.45" cy="179.45" r="130.43"/><circle class="cls-3" cx="179.45" cy="179.45" r="143.54"/><circle class="cls-3" cx="179.45" cy="179.45" r="155.99"/><circle class="cls-4" cx="180.67" cy="176.91" r="35.9"/></svg>