<svg id="Layer_1" data-name="Layer 1" xmlns="http://www.w3.org/2000/svg" viewBox="0 0 591.8 591.06"><defs><style>.cls-1{fill:#faf9e1;}.cls-2,.cls-4,.cls-5{fill:none;}.cls-2,.cls-3{stroke:#89cff2;}.cls-2,.cls-3,.cls-4,.cls-5{stroke-miterlimit:10;}.cls-3{fill:#caebf8;}.cls-4{stroke:#119b48;}.cls-5{stroke:#cc2227;}</style></defs><title>Artboard 1chart_only</title><path class="cls-1" d="M295.53.5C132.59.5.5,132.59.5,295.53.5,456,128.54,586.46,288,590.46a6.5,6.5,0,0,1,.79-.06,5.55,5.55,0,0,1,.93.08c1.93,0,3.87.08,5.82.08,162.94,0,295-132.09,295-295S458.47.5,295.53.5Zm1.66,349.88a59.19,59.19,0,1,1,59.19-59.19A59.19,59.19,0,0,1,297.19,350.38Z"/><path class="cls-2" d="M356.07,301.38c79.37,21.69,150.37,72.69,192.79,144.15"/><path class="cls-2" d="M343.66,329.91c59.78,57.16,93.78,139.16,94.56,222.58"/><path class="cls-2" d="M318.42,347.58c20,64.49,15,133.49-8,196.49-1,3-3,5-4,8-4,13-11,25-17.12,37.15"/><path class="cls-2" d="M288.5,349.71c-1.17,4.69-2.62,9.32-4.13,13.91a358.31,358.31,0,0,1-13.88,35.49,372.62,372.62,0,0,1-25.75,47.58,320.05,320.05,0,0,1-39.83,50.52,265.71,265.71,0,0,1-56.34,44.37q-4.06,2.37-8.22,4.59"/><path class="cls-2" d="M259.83,338.25C199.44,395.07,118.44,435.07,34.13,432"/><path class="cls-2" d="M241.92,312.85C161.44,332.07,72.44,325.07,1.77,282.38"/><path class="cls-2" d="M238.9,279.14A271,271,0,0,1,151,243.37a310,310,0,0,1-71.65-62.32A328,328,0,0,1,48,137.27"/><path class="cls-2" d="M251.28,253.33a216.65,216.65,0,0,1-18.84-19.26c-11-15-21-29-31-45-3-5-6-11-9-16-23-43-35-90-33.88-137.54"/><path class="cls-2" d="M277.21,235.23c-10.57-29.74-14.47-61.52-12.87-93s8.55-62.66,19.19-92.33A390.74,390.74,0,0,1,304.69,1.63"/><path class="cls-2" d="M306.35,232.21c5.09-26.14,16.09-50.14,29.09-74.14l9-15c11-16,22-29,35-43,22-22,45-41,71.62-55.91"/><path class="cls-2" d="M335,244.86c4.59-4.87,9.5-9.45,14.52-13.88A312.55,312.55,0,0,1,379,208.11a321.82,321.82,0,0,1,43.19-25A300.49,300.49,0,0,1,478,162.75,285.21,285.21,0,0,1,545.32,154c3,0,6.07,0,9.1,0"/><path class="cls-2" d="M353.47,270.88c46-13.81,94-13.81,143-5.81,35,7,66,20,95.11,37"/><circle class="cls-2" cx="295.53" cy="295.53" r="79.44"/><circle class="cls-2" cx="295.53" cy="295.53" r="101.88"/><circle class="cls-2" cx="295.53" cy="295.53" r="126.42"/><circle class="cls-2" cx="295.53" cy="295.53" r="147.09"/><circle class="cls-2" cx="295.53" cy="295.53" r="169.74"/><circle class="cls-2" cx="295.53" cy="295.53" r="191.26"/><circle class="cls-2" cx="295.53" cy="295.53" r="214.44"/><circle class="cls-2" cx="295.53" cy="295.53" r="235.99"/><circle class="cls-2" cx="295.53" cy="295.53" r="256.47"/><circle class="cls-2" cx="295.53" cy="295.53" r="280.9"/><path class="cls-3" d="M295.53.5C132.59.5.5,132.59.5,295.53.5,456,128.54,586.46,288,590.46a6.5,6.5,0,0,1,.79-.06,5.55,5.55,0,0,1,.93.08c1.93,0,3.87.08,5.82.08,162.94,0,295-132.09,295-295S458.47.5,295.53.5Zm0,573.63c-153.87,0-278.6-124.73-278.6-278.6s124.73-278.6,278.6-278.6,278.6,124.73,278.6,278.6S449.4,574.13,295.53,574.13Z"/><path class="cls-4" d="M275.78,347.51S186.45,476.17,96.45,454.84"/><path class="cls-5" d="M283.57,348.25s-47.79,103.26-124.46,85.26"/></svg>