<svg id="Layer_1" data-name="Layer 1" xmlns="http://www.w3.org/2000/svg" viewBox="0 0 324.44 636.71"><defs><style>.cls-1{fill:#3b3428;}.cls-2{fill:#fff;}.cls-3{fill:#fee7a4;}</style></defs><title>Artboard 1HOME_CONE</title><path class="cls-1" d="M185,377.5s-41.8-5.81-61.73-27.19S60.12,279.14,92.32,210.94c33.41-70.78,114.9-64,114.9-64s44.88,20,52.84,29.42c22.51,26.58,32.7,52.58,38.73,84.69,5.53,29.45-21.85,81.77-21.85,81.77Z"/><path class="cls-2" d="M100.4,221.88c-15.94,2.51-39.78-6.88-58.16-27.95S-21.22,115.23,11.71,51C45.88-15.58,128.89,2.13,128.89,2.13S188,17.75,195.33,27C216,53.1,210.7,88.79,215.45,119.68c4.36,28.33-26.06,71.93-26.06,71.93S127.3,217.63,100.4,221.88Z"/><path class="cls-3" d="M322,636.58,240.72,498,139.92,374.86c-2.81-5.3.89-7.56,3.54-7.5,16.12.36,73.37-10.48,98.08-30.86,19.8-16.33,33.08,28.85,36.76-29.38.87-13.83,19.11-23.42,24.35-28.2,2-1.85,4.77-.71,5.15,2.13L324,581.65l.48,50.94C324.29,633.57,322.5,637.44,322,636.58Z"/></svg>