<svg id="Layer_1" data-name="Layer 1" xmlns="http://www.w3.org/2000/svg" xmlns:xlink="http://www.w3.org/1999/xlink" viewBox="0 0 322.11 350.94"><defs><style>.cls-1,.cls-13,.cls-15,.cls-16,.cls-17,.cls-18,.cls-20,.cls-24{fill:none;}.cls-2{clip-path:url(#clip-path);}.cls-26,.cls-3{fill:#e4c1c0;}.cls-14,.cls-21,.cls-25,.cls-4{fill:#fff;}.cls-5{fill:#7f8081;}.cls-10,.cls-11,.cls-12,.cls-27,.cls-28,.cls-6,.cls-9{fill:#404041;}.cls-7{fill:#6a92c7;}.cls-8{fill:#485ea4;}.cls-19,.cls-8{stroke:#000;}.cls-10,.cls-11,.cls-12,.cls-13,.cls-14,.cls-15,.cls-16,.cls-17,.cls-20,.cls-21,.cls-24,.cls-26,.cls-8,.cls-9{stroke-miterlimit:10;}.cls-8,.cls-9{stroke-width:0.32px;}.cls-10,.cls-11,.cls-12,.cls-13,.cls-14,.cls-17,.cls-23,.cls-26,.cls-9{stroke:#fff;}.cls-10,.cls-19,.cls-20,.cls-21{stroke-width:1.29px;}.cls-11,.cls-13,.cls-14,.cls-15{stroke-width:0.65px;}.cls-12{stroke-width:1.3px;}.cls-15,.cls-16{stroke:#221f1f;}.cls-16,.cls-17,.cls-18,.cls-25{stroke-width:0.97px;}.cls-18,.cls-20,.cls-21,.cls-24,.cls-25{stroke:#404041;}.cls-18,.cls-19,.cls-23,.cls-25{stroke-linecap:round;stroke-linejoin:round;}.cls-19{fill:#f16241;}.cls-22{clip-path:url(#clip-path-2);}.cls-23{fill:#fde5a1;stroke-width:1.62px;}.cls-24{stroke-width:2.59px;}.cls-26{stroke-width:1.62px;}.cls-27{font-size:23.27px;}.cls-27,.cls-28{font-family:Averta-Semibold, Averta;font-weight:700;}.cls-28{font-size:23.27px;}</style><clipPath id="clip-path"><rect class="cls-1" x="0.13" y="0.15" width="321.84" height="350.64"/></clipPath><clipPath id="clip-path-2"><circle class="cls-1" cx="191.09" cy="198.67" r="70.88"/></clipPath></defs><title>Artboard 1CORNER_EVENTS</title><g class="cls-2"><path class="cls-3" d="M54.81,85.87,173,11.73c50.38-27.41,98.58,42.18,142.88,41.14,3.26-.08,6.31,24.61,6,62.07h3.66V356.27H244.11v-4.33H109c-32.5-12-94.64-40.88-105.17-131.06C-1.25,177.64,35.79,130.28,54.81,85.87Z"/></g><rect class="cls-1" x="0.13" y="0.15" width="321.84" height="350.64"/><path class="cls-4" d="M161.75,163.44a11.21,11.21,0,0,1-1.25-2.06,5.71,5.71,0,0,1,.24-1.42c.55-1.69,1.79-2.57,2.07-4.32a5.4,5.4,0,0,1,1-2.91c1-1.15,3.45-.51,4.06-1.94a4.11,4.11,0,0,0,.18-.86,4.85,4.85,0,0,1,5-3.94.9.9,0,0,1,.56.19c.12.11-.08.3,0,.45.37,1.28,0,2.55-.2,3.88a4.7,4.7,0,0,0,1.14,3.82,4.22,4.22,0,0,0,3.85.71c.49-.11,1.13-.18,1.37.25s-.08.9,0,1.34c.07.26-.57.55-.38.75.82.84,2.2,1.9,2.17,3.07a3.57,3.57,0,0,1-1.65,3c-.93.55-1.38,1.14-2.46,1.17-3.6.08-7.9-.38-11.5-.3C164.17,164.31,162.93,164.78,161.75,163.44Z"/><rect class="cls-5" x="120.94" y="208.69" width="146.43" height="11.31"/><rect class="cls-6" x="120.14" y="204" width="143.12" height="26.43"/><polygon class="cls-7" points="160.12 230.9 145.91 230.9 146.72 223.45 160.12 223.45 160.12 230.9"/><polygon class="cls-8" points="159.84 224.13 146.64 224.13 146.64 220.33 158.72 220.33 159.84 224.13"/><path class="cls-4" d="M245.84,220.28a10,10,0,0,1,1.19-4.15,8.16,8.16,0,0,1,3.81-4.18,5.07,5.07,0,0,1,5.27.9,23.43,23.43,0,0,0,2.15,2.19,1.73,1.73,0,0,1,.5.43,1.36,1.36,0,0,1,.1.69,7.38,7.38,0,0,1-1.05,4.11Z"/><path class="cls-4" d="M221,220.34a9.89,9.89,0,0,1,2-5.34c1-1.53,2.41-3.05,4.24-3.36a5.12,5.12,0,0,1,3.53.84,11.38,11.38,0,0,1,2.66,2.57,8.27,8.27,0,0,1,.83,1.2c.7,1.28.82,2.81,1.52,4.08Z"/><path class="cls-4" d="M196.09,220.23a9.89,9.89,0,0,1,2-5.34c1-1.53,2.41-3,4.24-3.36a5.17,5.17,0,0,1,3.53.84,11.38,11.38,0,0,1,2.66,2.57,8.27,8.27,0,0,1,.83,1.2c.7,1.28.82,2.81,1.52,4.08Z"/><polygon class="cls-6" points="238.04 230.9 219.62 230.9 220.1 223.45 236.67 223.45 238.04 230.9"/><polygon class="cls-9" points="237.23 224.13 220.1 224.13 221.16 220.33 235.86 220.33 237.23 224.13"/><polygon class="cls-9" points="212.34 224.13 195.21 224.13 196.27 220.33 210.97 220.33 212.34 224.13"/><polygon class="cls-6" points="262.85 230.9 244.43 230.9 244.91 223.45 261.48 223.45 262.85 230.9"/><polygon class="cls-9" points="262.04 224.13 244.91 224.13 245.97 220.33 260.67 220.33 262.04 224.13"/><rect class="cls-6" x="125.15" y="223.45" width="14.21" height="7.45"/><path class="cls-4" d="M123.61,218a7.51,7.51,0,0,1,1.14-2.28,10.51,10.51,0,0,1,3.82-3.42,6.3,6.3,0,0,1,2.43-.47,3.38,3.38,0,0,1,1.64.34,7.6,7.6,0,0,1,1.58,1.62c.38.42.85.77,1.2,1.22a7.1,7.1,0,0,1,.7,1.23c.61,1.28,1.13,2.61,1.74,3.89h-7C128.87,220.11,122.7,221.7,123.61,218Z"/><rect class="cls-4" x="123.64" y="126.26" width="135.12" height="50.21"/><rect class="cls-10" x="177.88" y="159.13" width="83.83" height="40.84"/><rect class="cls-10" x="119.65" y="177.01" width="22.95" height="22.79"/><polygon class="cls-9" points="139.08 224.13 124.5 224.13 124.5 220.33 137.83 220.33 139.08 224.13"/><rect class="cls-10" x="120.14" y="199.96" width="142.07" height="4.04"/><rect class="cls-11" x="194.93" y="164.52" width="30.82" height="3.12"/><rect class="cls-11" x="232.61" y="164.35" width="20.63" height="3.06"/><rect class="cls-11" x="181.9" y="164.3" width="6.93" height="3.23"/><path class="cls-12" d="M127.52,230.46H254.23a88.39,88.39,0,0,1-22.1,25.71c-19.67,15.53-58.09,23-89.73-4.54C135.48,245.6,134.66,240.46,127.52,230.46Z"/><path class="cls-4" d="M217.72,182.88c-1.12-.28-.72-1.31-1-2.43s-1-2.19-.37-3.24a3.72,3.72,0,0,1,1-1.13c.25-.18.56-.3.81-.48.9-.65,1-1.93,1-3s-.07-2.35.69-3.15a12.47,12.47,0,0,1,1.46-1,4.49,4.49,0,0,1,2.39-1,1.92,1.92,0,0,0,1.5-.75,3.72,3.72,0,0,0,.29-1.57,5.24,5.24,0,0,1,2.62-4,7.25,7.25,0,0,1,5-.85c.19,2.23-.46,4.48-.37,6.94,0,1.45-.4,3.1.6,4.16s2.4,1,3.7.79a19.19,19.19,0,0,0,3.22-1.26c-.33,1.43-.85,4.32.59,4.6,1.16.22.82.47.95.8a5.89,5.89,0,0,1,.46,1.69c.11,1.72,0,3.81-1.47,4.65a4.51,4.51,0,0,1-1.89.43,102.27,102.27,0,0,1-11.21.26c-1.85-.06-3.69-.19-5.53-.34C220.66,182.89,219.15,183.24,217.72,182.88Z"/><rect class="cls-11" x="134.5" y="182.22" width="3.14" height="14.47"/><rect class="cls-10" x="142.6" y="164.67" width="39.18" height="35.29"/><rect class="cls-11" x="150.12" y="168.77" width="4.69" height="22.72"/><rect class="cls-11" x="170.81" y="168.77" width="4.93" height="15.93"/><line class="cls-13" x1="149.88" y1="171.84" x2="155.05" y2="171.84"/><line class="cls-13" x1="150.04" y1="174.99" x2="154.8" y2="174.99"/><line class="cls-13" x1="150.04" y1="178.22" x2="154.8" y2="178.22"/><line class="cls-13" x1="149.96" y1="181.46" x2="154.72" y2="181.46"/><line class="cls-13" x1="150.04" y1="184.61" x2="154.89" y2="184.61"/><line class="cls-13" x1="150.12" y1="187.92" x2="154.64" y2="187.92"/><line class="cls-14" x1="170.89" y1="171.92" x2="175.65" y2="171.92"/><line class="cls-14" x1="170.64" y1="174.91" x2="175.82" y2="174.91"/><line class="cls-14" x1="170.72" y1="178.31" x2="175.9" y2="178.31"/><line class="cls-14" x1="170.72" y1="181.38" x2="175.82" y2="181.38"/><line class="cls-13" x1="183.49" y1="164.57" x2="183.49" y2="167.56"/><line class="cls-13" x1="187.61" y1="164.41" x2="187.61" y2="167.64"/><line class="cls-13" x1="200.46" y1="164.57" x2="200.46" y2="167.72"/><line class="cls-13" x1="205.07" y1="164.65" x2="205.07" y2="167.56"/><line class="cls-14" x1="209.27" y1="164.57" x2="209.27" y2="167.64"/><line class="cls-13" x1="213.8" y1="164.57" x2="213.8" y2="167.56"/><line class="cls-13" x1="217.84" y1="164.57" x2="217.84" y2="167.64"/><line class="cls-13" x1="221.96" y1="164.57" x2="221.96" y2="167.56"/><line class="cls-13" x1="239.25" y1="164.57" x2="239.25" y2="167.32"/><line class="cls-13" x1="243.37" y1="164.57" x2="243.37" y2="167.56"/><line class="cls-13" x1="248.06" y1="164.57" x2="248.06" y2="167.56"/><line class="cls-15" x1="174.6" y1="190.02" x2="174.6" y2="193.98"/><line class="cls-15" x1="178.81" y1="190.1" x2="178.81" y2="193.98"/><line class="cls-15" x1="183.57" y1="190.02" x2="183.57" y2="193.98"/><line class="cls-15" x1="187.61" y1="190.1" x2="187.61" y2="193.98"/><polygon class="cls-6" points="259.86 190.1 259.86 194.06 256.63 194.06 256.63 193.9 256.63 190.1 259.86 190.1"/><polygon class="cls-6" points="256.63 193.9 256.63 194.06 252.26 194.06 252.26 193.82 252.26 190.1 256.63 190.1 256.63 193.9"/><polygon class="cls-6" points="252.26 193.82 252.26 194.06 247.98 194.06 247.98 190.18 247.98 190.1 252.26 190.1 252.26 193.82"/><polygon class="cls-6" points="247.98 190.18 247.98 194.06 243.46 194.06 243.46 193.82 243.46 190.1 247.98 190.1 247.98 190.18"/><polygon class="cls-6" points="243.46 193.82 243.46 194.06 239.17 194.06 239.17 193.74 239.17 190.1 243.46 190.1 243.46 193.82"/><polygon class="cls-6" points="239.17 193.74 239.17 194.06 234.97 194.06 234.97 193.9 234.97 190.1 239.17 190.1 239.17 193.74"/><polygon class="cls-6" points="234.97 193.9 234.97 194.06 230.77 194.06 230.77 190.1 234.97 190.1 234.97 193.9"/><polygon class="cls-6" points="230.77 190.1 230.77 194.06 226.65 194.06 226.65 193.98 226.65 190.1 230.77 190.1"/><polygon class="cls-6" points="226.65 193.98 226.65 194.06 222.04 194.06 222.04 193.9 222.04 190.1 226.65 190.1 226.65 193.98"/><polygon class="cls-6" points="222.04 193.9 222.04 194.06 217.76 194.06 217.76 193.98 217.76 190.1 222.04 190.1 222.04 193.9"/><polygon class="cls-6" points="217.76 193.98 217.76 194.06 213.63 194.06 213.63 190.1 217.76 190.1 217.76 193.98"/><polygon class="cls-6" points="213.63 190.1 213.63 194.06 209.11 194.06 209.11 193.98 209.11 190.1 213.63 190.1"/><polygon class="cls-6" points="209.11 193.98 209.11 194.06 205.07 194.06 205.07 193.9 205.07 190.1 209.11 190.1 209.11 193.98"/><polygon class="cls-6" points="205.07 193.9 205.07 194.06 200.46 194.06 200.46 193.9 200.46 190.1 205.07 190.1 205.07 193.9"/><polygon class="cls-6" points="200.46 193.9 200.46 194.06 196.18 194.06 196.18 193.9 196.18 190.1 200.46 190.1 200.46 193.9"/><polygon class="cls-6" points="196.18 193.9 196.18 194.06 191.82 194.06 191.82 190.1 196.18 190.1 196.18 193.9"/><rect class="cls-6" x="170.32" y="190.1" width="21.5" height="3.96"/><polygon class="cls-13" points="256.63 190.1 259.86 190.1 259.86 194.06 256.63 194.06 252.26 194.06 247.98 194.06 243.46 194.06 239.17 194.06 234.97 194.06 230.77 194.06 226.65 194.06 222.04 194.06 217.76 194.06 213.63 194.06 209.11 194.06 205.07 194.06 200.46 194.06 196.18 194.06 191.82 194.06 170.32 194.06 170.32 190.1 191.82 190.1 196.18 190.1 200.46 190.1 205.07 190.1 209.11 190.1 213.63 190.1 217.76 190.1 222.04 190.1 226.65 190.1 230.77 190.1 234.97 190.1 239.17 190.1 243.46 190.1 247.98 190.1 252.26 190.1 256.63 190.1"/><polyline class="cls-13" points="191.82 190.02 191.82 190.1 191.82 194.06 191.82 194.14"/><polyline class="cls-13" points="196.18 190.02 196.18 190.1 196.18 193.9"/><line class="cls-13" x1="200.46" y1="190.1" x2="200.46" y2="193.9"/><polyline class="cls-13" points="205.07 190.02 205.07 190.1 205.07 193.9"/><line class="cls-13" x1="209.11" y1="190.1" x2="209.11" y2="193.98"/><line class="cls-13" x1="213.64" y1="190.1" x2="213.64" y2="194.06"/><line class="cls-13" x1="217.76" y1="190.1" x2="217.76" y2="193.98"/><polyline class="cls-13" points="222.04 190.02 222.04 190.1 222.04 193.9"/><line class="cls-13" x1="226.65" y1="190.1" x2="226.65" y2="193.98"/><line class="cls-13" x1="230.77" y1="190.1" x2="230.77" y2="194.06"/><polyline class="cls-13" points="234.97 190.02 234.97 190.1 234.97 193.9"/><line class="cls-13" x1="239.17" y1="190.1" x2="239.17" y2="193.74"/><line class="cls-13" x1="243.46" y1="190.1" x2="243.46" y2="193.82"/><polyline class="cls-13" points="247.98 190.18 247.98 194.06 247.98 194.22"/><polyline class="cls-13" points="252.26 189.94 252.26 190.1 252.26 193.82"/><line class="cls-13" x1="256.63" y1="190.1" x2="256.63" y2="193.9"/><path class="cls-16" d="M169.8,230s.71-19.4,8.68-18.76S188.14,230,188.14,230"/><line class="cls-17" x1="130.32" y1="232.61" x2="252.02" y2="232.61"/><line class="cls-17" x1="131.61" y1="235.2" x2="251.05" y2="235.2"/><line class="cls-17" x1="133.39" y1="238.27" x2="248.47" y2="238.27"/><line class="cls-17" x1="135.49" y1="241.34" x2="245.88" y2="241.34"/><line class="cls-17" x1="242.97" y1="245.38" x2="138.24" y2="245.38"/><line class="cls-17" x1="238.77" y1="249.74" x2="142.93" y2="249.74"/><line class="cls-17" x1="233.11" y1="254.27" x2="148.91" y2="254.27"/><line class="cls-17" x1="226" y1="259.28" x2="156.18" y2="259.28"/><line class="cls-17" x1="215.17" y1="264.61" x2="163.45" y2="264.61"/><line class="cls-15" x1="235.05" y1="164.57" x2="235.05" y2="167.32"/><path class="cls-18" d="M177.75,150.61s.67-5.33,5-7.26"/><path class="cls-3" d="M190.64,302.71a104.22,104.22,0,1,1,40.68-8.22A103.91,103.91,0,0,1,190.64,302.71Zm0-174.93a70.44,70.44,0,1,0,49.81,20.63A70,70,0,0,0,190.64,127.78Z"/><line class="cls-19" x1="219.15" y1="184.35" x2="239.63" y2="184.58"/><path class="cls-17" d="M219.58,230.47s.71-19.41,8.68-18.76,9.66,18.76,9.66,18.76"/><path class="cls-17" d="M130.32,211.55c8,.64,9.66,18.76,9.66,18.76"/><path class="cls-17" d="M244.3,230.15s.72-19.41,8.69-18.77"/><path class="cls-17" d="M194.69,230.15s.71-19.41,8.68-18.76S213,230.15,213,230.15"/><polyline class="cls-17" points="253.15 230.51 213.03 230.51 194.69 230.51 128.22 230.51"/><path class="cls-17" d="M130.44,211.55c-3,.24-5.23,3-6.69,6.33"/><path class="cls-17" d="M253,211.38a6.33,6.33,0,0,1,4.28,2.44,15.58,15.58,0,0,1,2.17,3.53"/><rect class="cls-6" x="189.15" y="142.43" width="5.82" height="42.18"/><rect class="cls-4" x="188.99" y="159.17" width="6.06" height="2.34" transform="translate(-35.59 56.54) rotate(-15.35)"/><rect class="cls-4" x="188.99" y="165.36" width="6.06" height="2.34" transform="translate(-37.23 56.76) rotate(-15.35)"/><rect class="cls-4" x="188.99" y="171.55" width="6.06" height="2.34" transform="matrix(0.96, -0.26, 0.26, 0.96, -38.87, 56.98)"/><rect class="cls-4" x="188.99" y="152.98" width="6.06" height="2.34" transform="translate(-33.95 56.32) rotate(-15.35)"/><rect class="cls-4" x="188.99" y="146.79" width="6.06" height="2.34" transform="translate(-32.31 56.1) rotate(-15.35)"/><rect class="cls-4" x="188.99" y="177.75" width="6.06" height="2.34" transform="translate(-40.51 57.2) rotate(-15.35)"/><path class="cls-18" d="M173.75,149.25c-.67-1.64.47-4.11.47-4.11-6.85-.95-6.58,5.75-6.58,5.75a4,4,0,0,0-3.91,1.18,4.49,4.49,0,0,0-1,4.48,4.33,4.33,0,0,0-2.3,3.57,3.39,3.39,0,0,0,2.24,3.18l16.44.18a3.5,3.5,0,0,0,2.3-3.28,3.74,3.74,0,0,0-2.46-3.4,2.78,2.78,0,0,0,.46-3.1"/><path class="cls-4" d="M240.4,166.2a3.88,3.88,0,0,1-1.66,5.06c-2.81,1.6-6.5.4-6.46-3.19s2-4.82,3.8-4.81,1.63,2.5,1.63,2.5l.17-.06C238.37,165.56,239.78,165.23,240.4,166.2Z"/><path class="cls-18" d="M219.15,182.42a4.23,4.23,0,0,1-2.8-4,5.41,5.41,0,0,1,2.87-4.46,5.56,5.56,0,0,1,1.19-5.57,5,5,0,0,1,4.88-1.47s-.34-8.35,8.2-7.17c0,0-1.42,3.08-.59,5.12"/><path class="cls-18" d="M239.63,182.64a4.35,4.35,0,0,0,2.86-4.08,4.64,4.64,0,0,0-3.07-4.23,3.48,3.48,0,0,0,.58-3.87"/><path class="cls-18" d="M237.71,165.76s.16-2.48-1.63-2.5-3.77,1.23-3.8,4.81,3.65,4.79,6.46,3.19a3.88,3.88,0,0,0,1.66-5.06c-.62-1-2-.64-2.52-.5Z"/><path class="cls-18" d="M237.88,165.7s.84-6.64,6.25-9"/><rect class="cls-6" x="143.03" y="216.31" width="13.15" height="13.47"/><rect class="cls-20" x="189.15" y="142.48" width="5.82" height="42.18"/><polygon class="cls-21" points="247.55 176.91 252.72 183.05 258.65 181.65 259.62 185.42 179.13 185.42 174.5 183.91 197.02 178.09 200.57 182.19 225.46 176.04 229.99 181.65 247.55 176.91"/><circle class="cls-1" cx="191.09" cy="198.67" r="70.88"/><g class="cls-22"><path class="cls-23" d="M169.77,184.67m-20,39.9L166,289.24l1,4.19a2.85,2.85,0,0,0,5.52,0l17.27-68.86"/></g><circle class="cls-1" cx="191.09" cy="198.67" r="70.88"/><circle class="cls-24" cx="191.09" cy="198.67" r="70.88"/><path class="cls-25" d="M177.61,150.66s.13-2-1.31-2-3,1-3.05,3.87,2.93,3.84,5.19,2.55a3.11,3.11,0,0,0,1.33-4.06C179.17,150.06,177.61,150.66,177.61,150.66Z"/><path class="cls-26" d="M148,213.53c-1.35,1.62-2.1,2.55-2.1,4.44,0,7.18,12.21,8.19,23.88,8.19s23.88-1,23.88-8.19c0-1.89-.76-2.82-2.1-4.44a22.87,22.87,0,1,0-44.65-7A22.64,22.64,0,0,0,148,213.53ZM189.8,223.6"/><text class="cls-27" transform="translate(119.07 162.48) rotate(-57.38)">H</text><text class="cls-27" transform="translate(128.84 147.46) rotate(-44.77)">A</text><text class="cls-27" transform="translate(140.91 135.5) rotate(-31.98)">N</text><text class="cls-27" transform="translate(156.68 125.79) rotate(-19.05)">D</text><text class="cls-27" transform="translate(173.43 119.86) rotate(-4.97)">M</text><text class="cls-27" transform="translate(194.65 118.36) rotate(8.73)">A</text><text class="cls-27" transform="matrix(0.93, 0.36, -0.36, 0.93, 211.46, 120.99)">D</text><text class="cls-27" transform="translate(228.15 127.72) rotate(33.03)">E</text><text class="cls-27" transform="translate(240.92 136.49) rotate(41.4)"> </text><text class="cls-27" transform="translate(246.82 141.78) rotate(47.45)">I</text><text class="cls-27" transform="matrix(0.54, 0.84, -0.84, 0.54, 252.68, 147.64)">N</text><text class="cls-28" transform="translate(118.24 261.74) rotate(44.6)">B</text><text class="cls-28" transform="translate(132.14 274.6) rotate(35.74)">I</text><text class="cls-28" transform="translate(141.06 281.12) rotate(26.2)">D</text><text class="cls-28" transform="translate(160.65 290.2) rotate(13.29)">D</text><text class="cls-28" transform="translate(181.63 294.54) rotate(1.37)">E</text><text class="cls-28" transform="translate(199.88 294.57) rotate(-9.3)">F</text><text class="cls-28" transform="translate(217.1 291.66) rotate(-21.33)">O</text><text class="cls-28" transform="matrix(0.83, -0.56, 0.56, 0.83, 238.9, 282.36)">R</text><text class="cls-28" transform="translate(254.94 270.95) rotate(-46.57)">D</text><ellipse class="cls-4" cx="178.37" cy="160.09" rx="2.73" ry="2.82"/></svg>