<svg id="Layer_1" data-name="Layer 1" xmlns="http://www.w3.org/2000/svg" xmlns:xlink="http://www.w3.org/1999/xlink" viewBox="0 0 322.11 350.94"><defs><style>.cls-1,.cls-13,.cls-15,.cls-16,.cls-17,.cls-18,.cls-20,.cls-24{fill:none;}.cls-2{clip-path:url(#clip-path);}.cls-10,.cls-11,.cls-12,.cls-3,.cls-6,.cls-9{fill:#e4a88c;}.cls-3{stroke:#e0a187;}.cls-10,.cls-11,.cls-12,.cls-13,.cls-14,.cls-15,.cls-16,.cls-17,.cls-20,.cls-21,.cls-24,.cls-3,.cls-8,.cls-9{stroke-miterlimit:10;}.cls-14,.cls-21,.cls-25,.cls-27,.cls-4{fill:#fff;}.cls-5{fill:#7f8081;}.cls-7{fill:#6a92c7;}.cls-8{fill:#485ea4;}.cls-19,.cls-8{stroke:#010101;}.cls-8,.cls-9{stroke-width:0.32px;}.cls-10,.cls-11,.cls-12,.cls-13,.cls-14,.cls-17,.cls-23,.cls-24,.cls-26,.cls-9{stroke:#fff;}.cls-10,.cls-19,.cls-20,.cls-21{stroke-width:1.29px;}.cls-11,.cls-13,.cls-14,.cls-15{stroke-width:0.64px;}.cls-12{stroke-width:1.3px;}.cls-15,.cls-16{stroke:#231f20;}.cls-16,.cls-17,.cls-18,.cls-25{stroke-width:0.97px;}.cls-18,.cls-20,.cls-21,.cls-25{stroke:#e4a88c;}.cls-18,.cls-19,.cls-23,.cls-25,.cls-26{stroke-linecap:round;stroke-linejoin:round;}.cls-19{fill:#f26342;}.cls-22{clip-path:url(#clip-path-2);}.cls-23{fill:#fee7a2;stroke-width:1.61px;}.cls-24{stroke-width:2.58px;}.cls-26{fill:#3b2416;stroke-width:1.93px;}.cls-27{font-size:23.21px;font-family:Averta-Semibold, Averta;font-weight:700;}</style><clipPath id="clip-path"><rect class="cls-1" x="0.14" y="0.15" width="321.84" height="350.64" transform="translate(322.11 350.94) rotate(-180)"/></clipPath><clipPath id="clip-path-2"><circle class="cls-1" cx="190.94" cy="198.32" r="70.68"/></clipPath></defs><title>Artboard 1EVENTS_corner</title><g class="cls-2"><path class="cls-3" d="M54.81,85.87,173,11.73c50.38-27.41,98.58,42.18,142.88,41.14,3.26-.08,6.31,24.61,6,62.07h3.66V356.27H244.11v-4.33H109c-32.5-12-94.64-40.88-105.17-131.06C-1.25,177.64,35.79,130.28,54.81,85.87Z"/></g><path class="cls-4" d="M161.69,163.18a10.32,10.32,0,0,1-1.25-2.05,5.28,5.28,0,0,1,.24-1.41c.54-1.68,1.78-2.57,2.06-4.31a5.46,5.46,0,0,1,1-2.91c1.05-1.14,3.44-.5,4-1.93a3.07,3.07,0,0,0,.18-.85,4.84,4.84,0,0,1,5-3.93.85.85,0,0,1,.56.19c.11.1-.08.29,0,.44.37,1.28,0,2.55-.2,3.87a4.67,4.67,0,0,0,1.14,3.81,4.19,4.19,0,0,0,3.84.71c.48-.1,1.12-.18,1.36.25s-.08.9,0,1.33c.08.27-.57.55-.37.75.81.84,2.19,1.9,2.16,3.07a3.54,3.54,0,0,1-1.65,2.93c-.92.55-1.37,1.15-2.45,1.17-3.6.09-7.88-.38-11.47-.29C164.1,164.06,162.86,164.52,161.69,163.18Z"/><rect class="cls-5" x="120.99" y="208.31" width="146.02" height="11.28"/><rect class="cls-6" x="120.19" y="203.64" width="142.71" height="26.35"/><polygon class="cls-7" points="160.06 230.46 145.89 230.46 146.7 223.03 160.06 223.03 160.06 230.46"/><polygon class="cls-8" points="159.78 223.71 146.62 223.71 146.62 219.91 158.66 219.91 159.78 223.71"/><path class="cls-4" d="M245.54,219.87a10,10,0,0,1,1.18-4.14,8.11,8.11,0,0,1,3.81-4.17,5,5,0,0,1,5.25.9,24.49,24.49,0,0,0,2.14,2.18,1.73,1.73,0,0,1,.5.43,1.36,1.36,0,0,1,.1.69,7.35,7.35,0,0,1-1,4.1Z"/><path class="cls-4" d="M220.75,219.93a9.78,9.78,0,0,1,2-5.33c1-1.53,2.39-3,4.21-3.35a5.17,5.17,0,0,1,3.53.84,11.1,11.1,0,0,1,2.65,2.56,8.27,8.27,0,0,1,.83,1.2c.69,1.27.82,2.8,1.52,4.06Z"/><path class="cls-4" d="M195.93,219.82a9.75,9.75,0,0,1,2-5.32c1-1.54,2.39-3.05,4.21-3.36a5.17,5.17,0,0,1,3.53.84,11.29,11.29,0,0,1,2.65,2.56,8.27,8.27,0,0,1,.83,1.2c.69,1.27.82,2.8,1.52,4.07Z"/><polygon class="cls-6" points="237.76 230.46 219.39 230.46 219.87 223.03 236.39 223.03 237.76 230.46"/><polygon class="cls-9" points="236.95 223.71 219.87 223.71 220.93 219.91 235.59 219.91 236.95 223.71"/><polygon class="cls-9" points="212.13 223.71 195.05 223.71 196.1 219.91 210.77 219.91 212.13 223.71"/><polygon class="cls-6" points="262.5 230.46 244.13 230.46 244.61 223.03 261.13 223.03 262.5 230.46"/><polygon class="cls-9" points="261.69 223.71 244.61 223.71 245.66 219.91 260.33 219.91 261.69 223.71"/><rect class="cls-6" x="125.18" y="223.03" width="14.17" height="7.42"/><path class="cls-4" d="M123.65,217.58a7.39,7.39,0,0,1,1.14-2.28,10.5,10.5,0,0,1,3.8-3.41,6.33,6.33,0,0,1,2.43-.47,3.38,3.38,0,0,1,1.64.34,7.33,7.33,0,0,1,1.57,1.62c.38.41.84.76,1.19,1.21a6,6,0,0,1,.7,1.23c.61,1.28,1.14,2.6,1.74,3.88h-6.93C128.89,219.7,122.74,221.28,123.65,217.58Z"/><rect class="cls-4" x="123.19" y="127.78" width="134.74" height="50.07"/><rect class="cls-10" x="177.77" y="158.89" width="83.59" height="40.72"/><rect class="cls-6" x="119.7" y="176.72" width="22.89" height="22.72"/><polygon class="cls-9" points="139.07 223.71 124.54 223.71 124.54 219.91 137.83 219.91 139.07 223.71"/><rect class="cls-10" x="120.19" y="199.61" width="141.67" height="4.03"/><rect class="cls-11" x="194.77" y="164.26" width="30.73" height="3.11"/><rect class="cls-11" x="232.35" y="164.1" width="20.58" height="3.05"/><rect class="cls-11" x="181.77" y="164.04" width="6.91" height="3.22"/><path class="cls-12" d="M127.55,230H253.9a88.13,88.13,0,0,1-22,25.65c-19.61,15.48-57.92,23-89.47-4.53C135.48,245.12,134.67,240,127.55,230Z"/><path class="cls-4" d="M217.49,182.57c-1.11-.27-.71-1.31-1-2.42s-1-2.18-.37-3.24a3.93,3.93,0,0,1,.94-1.12c.26-.18.56-.3.82-.48.89-.65,1-1.92,1-3a4.32,4.32,0,0,1,.69-3.14,11.68,11.68,0,0,1,1.46-1,4.54,4.54,0,0,1,2.38-1,1.9,1.9,0,0,0,1.49-.74,3.57,3.57,0,0,0,.29-1.57,5.25,5.25,0,0,1,2.61-3.94,7.22,7.22,0,0,1,5-.84c.19,2.22-.45,4.46-.37,6.91,0,1.45-.39,3.1.6,4.16s2.4,1,3.7.78a19.73,19.73,0,0,0,3.21-1.25c-.33,1.42-.85,4.3.58,4.58,1.16.23.81.47.94.8a5.53,5.53,0,0,1,.47,1.69c.11,1.71,0,3.79-1.47,4.63a4.5,4.5,0,0,1-1.88.43,101.72,101.72,0,0,1-11.18.26c-1.84-.06-3.68-.19-5.52-.33C220.43,182.58,218.92,182.93,217.49,182.57Z"/><rect class="cls-11" x="134.51" y="181.92" width="3.13" height="14.43"/><rect class="cls-6" x="142.59" y="164.41" width="39.07" height="35.2"/><rect class="cls-11" x="150.08" y="168.5" width="4.67" height="22.65"/><rect class="cls-11" x="170.71" y="168.5" width="4.92" height="15.89"/><line class="cls-13" x1="149.84" y1="171.56" x2="155" y2="171.56"/><line class="cls-13" x1="150" y1="174.71" x2="154.76" y2="174.71"/><line class="cls-13" x1="150" y1="177.93" x2="154.76" y2="177.93"/><line class="cls-13" x1="149.92" y1="181.15" x2="154.68" y2="181.15"/><line class="cls-13" x1="150" y1="184.3" x2="154.84" y2="184.3"/><line class="cls-13" x1="150.08" y1="187.6" x2="154.6" y2="187.6"/><line class="cls-14" x1="170.79" y1="171.64" x2="175.55" y2="171.64"/><line class="cls-14" x1="170.55" y1="174.63" x2="175.71" y2="174.63"/><line class="cls-14" x1="170.63" y1="178.01" x2="175.79" y2="178.01"/><line class="cls-14" x1="170.63" y1="181.07" x2="175.71" y2="181.07"/><line class="cls-13" x1="183.36" y1="164.31" x2="183.36" y2="167.29"/><line class="cls-13" x1="187.47" y1="164.15" x2="187.47" y2="167.37"/><line class="cls-13" x1="200.29" y1="164.31" x2="200.29" y2="167.45"/><line class="cls-13" x1="204.88" y1="164.39" x2="204.88" y2="167.29"/><line class="cls-14" x1="209.07" y1="164.31" x2="209.07" y2="167.37"/><line class="cls-13" x1="213.58" y1="164.31" x2="213.58" y2="167.29"/><line class="cls-13" x1="217.61" y1="164.31" x2="217.61" y2="167.37"/><line class="cls-13" x1="221.72" y1="164.31" x2="221.72" y2="167.29"/><line class="cls-13" x1="238.97" y1="164.31" x2="238.97" y2="167.05"/><line class="cls-13" x1="243.08" y1="164.31" x2="243.08" y2="167.29"/><line class="cls-13" x1="247.75" y1="164.31" x2="247.75" y2="167.29"/><line class="cls-15" x1="174.5" y1="189.7" x2="174.5" y2="193.64"/><line class="cls-15" x1="178.69" y1="189.78" x2="178.69" y2="193.64"/><line class="cls-15" x1="183.45" y1="189.7" x2="183.45" y2="193.64"/><line class="cls-15" x1="187.47" y1="189.78" x2="187.47" y2="193.64"/><polygon class="cls-6" points="259.52 189.78 259.52 193.72 256.29 193.72 256.29 193.56 256.29 189.78 259.52 189.78"/><polygon class="cls-6" points="256.29 193.56 256.29 193.72 251.94 193.72 251.94 193.48 251.94 189.78 256.29 189.78 256.29 193.56"/><polygon class="cls-6" points="251.94 193.48 251.94 193.72 247.67 193.72 247.67 189.86 247.67 189.78 251.94 189.78 251.94 193.48"/><polygon class="cls-6" points="247.67 189.86 247.67 193.72 243.16 193.72 243.16 193.48 243.16 189.78 247.67 189.78 247.67 189.86"/><polygon class="cls-6" points="243.16 193.48 243.16 193.72 238.89 193.72 238.89 193.4 238.89 189.78 243.16 189.78 243.16 193.48"/><polygon class="cls-6" points="238.89 193.4 238.89 193.72 234.7 193.72 234.7 193.56 234.7 189.78 238.89 189.78 238.89 193.4"/><polygon class="cls-6" points="234.7 193.56 234.7 193.72 230.51 193.72 230.51 189.78 234.7 189.78 234.7 193.56"/><polygon class="cls-6" points="230.51 189.78 230.51 193.72 226.4 193.72 226.4 193.64 226.4 189.78 230.51 189.78"/><polygon class="cls-6" points="226.4 193.64 226.4 193.72 221.8 193.72 221.8 193.56 221.8 189.78 226.4 189.78 226.4 193.64"/><polygon class="cls-6" points="221.8 193.56 221.8 193.72 217.53 193.72 217.53 193.64 217.53 189.78 221.8 189.78 221.8 193.56"/><polygon class="cls-6" points="217.53 193.64 217.53 193.72 213.42 193.72 213.42 189.78 217.53 189.78 217.53 193.64"/><polygon class="cls-6" points="213.42 189.78 213.42 193.72 208.91 193.72 208.91 193.64 208.91 189.78 213.42 189.78"/><polygon class="cls-6" points="208.91 193.64 208.91 193.72 204.88 193.72 204.88 193.56 204.88 189.78 208.91 189.78 208.91 193.64"/><polygon class="cls-6" points="204.88 193.56 204.88 193.72 200.29 193.72 200.29 193.56 200.29 189.78 204.88 189.78 204.88 193.56"/><polygon class="cls-6" points="200.29 193.56 200.29 193.72 196.02 193.72 196.02 193.56 196.02 189.78 200.29 189.78 200.29 193.56"/><polygon class="cls-6" points="196.02 193.56 196.02 193.72 191.66 193.72 191.66 189.78 196.02 189.78 196.02 193.56"/><rect class="cls-6" x="170.23" y="189.78" width="21.44" height="3.95"/><polygon class="cls-13" points="256.29 189.78 259.52 189.78 259.52 193.72 256.29 193.72 251.94 193.72 247.67 193.72 243.16 193.72 238.89 193.72 234.7 193.72 230.51 193.72 226.4 193.72 221.8 193.72 217.53 193.72 213.42 193.72 208.91 193.72 204.88 193.72 200.29 193.72 196.02 193.72 191.66 193.72 170.23 193.72 170.23 189.78 191.66 189.78 196.02 189.78 200.29 189.78 204.88 189.78 208.91 189.78 213.42 189.78 217.53 189.78 221.8 189.78 226.4 189.78 230.51 189.78 234.7 189.78 238.89 189.78 243.16 189.78 247.67 189.78 251.94 189.78 256.29 189.78"/><polyline class="cls-13" points="191.66 189.69 191.66 189.78 191.66 193.72 191.66 193.81"/><polyline class="cls-13" points="196.02 189.69 196.02 189.78 196.02 193.56"/><line class="cls-13" x1="200.29" y1="189.78" x2="200.29" y2="193.56"/><polyline class="cls-13" points="204.88 189.69 204.88 189.78 204.88 193.56"/><line class="cls-13" x1="208.91" y1="189.78" x2="208.91" y2="193.64"/><line class="cls-13" x1="213.42" y1="189.78" x2="213.42" y2="193.72"/><line class="cls-13" x1="217.53" y1="189.78" x2="217.53" y2="193.64"/><polyline class="cls-13" points="221.8 189.69 221.8 189.78 221.8 193.56"/><line class="cls-13" x1="226.4" y1="189.78" x2="226.4" y2="193.64"/><line class="cls-13" x1="230.51" y1="189.78" x2="230.51" y2="193.72"/><polyline class="cls-13" points="234.7 189.69 234.7 189.78 234.7 193.56"/><line class="cls-13" x1="238.89" y1="189.78" x2="238.89" y2="193.4"/><line class="cls-13" x1="243.16" y1="189.78" x2="243.16" y2="193.48"/><polyline class="cls-13" points="247.67 189.86 247.67 193.72 247.67 193.88"/><polyline class="cls-13" points="251.94 189.61 251.94 189.78 251.94 193.48"/><line class="cls-13" x1="256.29" y1="189.78" x2="256.29" y2="193.56"/><path class="cls-16" d="M169.71,229.54s.71-19.35,8.66-18.7,9.63,18.7,9.63,18.7"/><line class="cls-17" x1="130.34" y1="232.16" x2="251.7" y2="232.16"/><line class="cls-17" x1="131.63" y1="234.74" x2="250.73" y2="234.74"/><line class="cls-17" x1="133.4" y1="237.8" x2="248.15" y2="237.8"/><line class="cls-17" x1="135.5" y1="240.87" x2="245.58" y2="240.87"/><line class="cls-17" x1="242.67" y1="244.9" x2="138.24" y2="244.9"/><line class="cls-17" x1="238.48" y1="249.25" x2="142.91" y2="249.25"/><line class="cls-17" x1="232.84" y1="253.76" x2="148.87" y2="253.76"/><line class="cls-17" x1="225.75" y1="258.76" x2="156.13" y2="258.76"/><line class="cls-17" x1="214.95" y1="264.08" x2="163.38" y2="264.08"/><line class="cls-15" x1="234.78" y1="164.31" x2="234.78" y2="167.05"/><path class="cls-18" d="M177.31,152s.67-5.32,5-7.25"/><path class="cls-6" d="M190.49,302.71a104.49,104.49,0,1,1,40.82-8.24A104.17,104.17,0,0,1,190.49,302.71Zm0-175.51a70.67,70.67,0,1,0,50,20.7A70.19,70.19,0,0,0,190.49,127.2Z"/><line class="cls-19" x1="218.92" y1="184.04" x2="239.34" y2="184.27"/><path class="cls-17" d="M219.35,230s.71-19.36,8.66-18.71S237.64,230,237.64,230"/><path class="cls-17" d="M130.34,211.16c7.95.64,9.63,18.71,9.63,18.71"/><path class="cls-17" d="M244,229.71s.72-19.36,8.67-18.71"/><path class="cls-17" d="M194.53,229.71s.71-19.36,8.66-18.71,9.63,18.71,9.63,18.71"/><polyline class="cls-17" points="252.83 230.07 212.82 230.07 194.53 230.07 128.24 230.07"/><path class="cls-17" d="M130.46,211.16c-3,.24-5.21,3-6.67,6.31"/><path class="cls-17" d="M252.67,211a6.25,6.25,0,0,1,4.26,2.43,14.93,14.93,0,0,1,2.16,3.52"/><rect class="cls-6" x="189.01" y="142.23" width="5.8" height="42.07"/><rect class="cls-4" x="188.84" y="158.93" width="6.04" height="2.34" transform="translate(-35.53 56.49) rotate(-15.35)"/><rect class="cls-4" x="188.84" y="165.11" width="6.04" height="2.34" transform="translate(-37.17 56.71) rotate(-15.35)"/><rect class="cls-4" x="188.84" y="171.28" width="6.04" height="2.34" transform="translate(-38.8 56.93) rotate(-15.35)"/><rect class="cls-4" x="188.84" y="152.76" width="6.04" height="2.34" transform="translate(-33.9 56.27) rotate(-15.35)"/><rect class="cls-4" x="188.84" y="146.58" width="6.04" height="2.34" transform="translate(-32.26 56.05) rotate(-15.35)"/><rect class="cls-4" x="188.84" y="177.45" width="6.04" height="2.34" transform="translate(-40.43 57.15) rotate(-15.35)"/><path class="cls-18" d="M173.33,150.65c-.67-1.64.47-4.1.47-4.1-6.83-1-6.56,5.73-6.56,5.73a4,4,0,0,0-3.91,1.18,4.47,4.47,0,0,0-1,4.46,4.33,4.33,0,0,0-2.29,3.57,3.38,3.38,0,0,0,2.23,3.17l16.39.18a3.48,3.48,0,0,0,2.29-3.27,3.72,3.72,0,0,0-2.45-3.39,2.77,2.77,0,0,0,.46-3.09"/><path class="cls-4" d="M240.11,165.94a3.88,3.88,0,0,1-1.65,5.05c-2.81,1.6-6.48.4-6.45-3.18s2-4.81,3.79-4.8,1.63,2.49,1.63,2.49l.17-.05C238.08,165.3,239.49,165,240.11,165.94Z"/><path class="cls-18" d="M218.92,182.11a4.21,4.21,0,0,1-2.79-4,5.38,5.38,0,0,1,2.87-4.44,5.53,5.53,0,0,1,1.18-5.55,5,5,0,0,1,4.86-1.48s-.34-8.32,8.18-7.14c0,0-1.42,3.07-.59,5.1"/><path class="cls-18" d="M239.34,182.34a4.33,4.33,0,0,0,2.85-4.08,4.62,4.62,0,0,0-3.05-4.22,3.46,3.46,0,0,0,.57-3.85"/><path class="cls-18" d="M237.43,165.5s.16-2.47-1.63-2.49-3.76,1.22-3.79,4.8,3.64,4.78,6.45,3.18a3.88,3.88,0,0,0,1.65-5.05c-.62-1-2-.64-2.51-.49Z"/><path class="cls-18" d="M237.6,165.45s.84-6.63,6.23-9"/><rect class="cls-6" x="143.02" y="215.91" width="13.11" height="13.43"/><rect class="cls-20" x="189.01" y="142.29" width="5.8" height="42.07"/><polygon class="cls-21" points="247.24 176.61 252.4 182.74 258.31 181.34 259.27 185.1 179.01 185.1 174.39 183.6 196.85 177.8 200.4 181.88 225.22 175.75 229.73 181.34 247.24 176.61"/><circle class="cls-1" cx="190.94" cy="198.32" r="70.68"/><g class="cls-22"><path class="cls-23" d="M169.68,184.35m-20,39.8,16.17,64.48,1.05,4.19a2.84,2.84,0,0,0,5.5,0l17.22-68.67"/></g><circle class="cls-1" cx="190.94" cy="198.32" r="70.68"/><circle class="cls-24" cx="190.94" cy="198.32" r="70.68"/><path class="cls-25" d="M177.18,152.05s.13-2-1.31-2-3,1-3,3.85,2.92,3.84,5.17,2.56a3.12,3.12,0,0,0,1.33-4.06C178.73,151.46,177.18,152.05,177.18,152.05Z"/><path class="cls-26" d="M148,213.13c-1.34,1.62-2.09,2.55-2.09,4.44,0,7.15,12.17,8.16,23.81,8.16s23.81-1,23.81-8.16c0-1.89-.75-2.82-2.09-4.44a22.8,22.8,0,1,0-43.44,0Zm41.69,10.05"/><text class="cls-27" transform="translate(119.12 162.23) rotate(-57.38)">H</text><text class="cls-27" transform="matrix(0.71, -0.7, 0.7, 0.71, 128.88, 147.25)">A</text><text class="cls-27" transform="translate(140.9 135.32) rotate(-31.98)">N</text><text class="cls-27" transform="matrix(0.95, -0.33, 0.33, 0.95, 156.63, 125.64)">D</text><text class="cls-27" transform="matrix(1, -0.09, 0.09, 1, 173.34, 119.72)">M</text><text class="cls-27" transform="translate(194.49 118.23) rotate(8.73)">A</text><text class="cls-27" transform="matrix(0.93, 0.36, -0.36, 0.93, 211.26, 120.85)">D</text><text class="cls-27" transform="matrix(0.84, 0.55, -0.55, 0.84, 227.9, 127.56)">E</text><text class="cls-27" transform="translate(240.64 136.31) rotate(41.4)"> </text><text class="cls-27" transform="translate(246.52 141.58) rotate(47.45)">I</text><text class="cls-27" transform="translate(252.36 147.43) rotate(57.25)">N</text><text class="cls-27" transform="matrix(0.71, 0.7, -0.7, 0.71, 118.26, 261.23)">B</text><text class="cls-27" transform="translate(132.12 274.05) rotate(35.74)">I</text><text class="cls-27" transform="translate(141.01 280.56) rotate(26.2)">D</text><text class="cls-27" transform="translate(160.55 289.61) rotate(13.29)">D</text><text class="cls-27" transform="translate(181.47 293.93) rotate(1.37)">E</text><text class="cls-27" transform="translate(199.67 293.97) rotate(-9.3)">F</text><text class="cls-27" transform="matrix(0.93, -0.36, 0.36, 0.93, 216.85, 291.06)">O</text><text class="cls-27" transform="translate(238.58 281.79) rotate(-34.35)">R</text><text class="cls-27" transform="matrix(0.69, -0.73, 0.73, 0.69, 254.58, 270.41)">D</text><ellipse class="cls-4" cx="177.77" cy="161.38" rx="2.72" ry="2.82"/></svg>