<?xml version="1.0" encoding="utf-8"?>
<!-- Generator: Adobe Illustrator 22.1.0, SVG Export Plug-In . SVG Version: 6.00 Build 0)  -->
<svg version="1.1" id="Layer_1" xmlns="http://www.w3.org/2000/svg" xmlns:xlink="http://www.w3.org/1999/xlink" x="0px" y="0px"
	 viewBox="0 0 322.1 350.9" style="enable-background:new 0 0 322.1 350.9;" xml:space="preserve">
<style type="text/css">
	.st0{clip-path:url(#SVGID_2_);}
	.st1{fill:#E4C1C0;}
	.st2{fill:none;}
	.st3{fill:#FFFFFF;}
	.st4{fill:#7F8081;}
	.st5{fill:#404041;}
	.st6{fill:#6A92C7;}
	.st7{fill:#485EA4;stroke:#000000;stroke-width:0.32;stroke-miterlimit:10;}
	.st8{fill:#404041;stroke:#FFFFFF;stroke-width:0.32;stroke-miterlimit:10;}
	.st9{fill:#404041;stroke:#FFFFFF;stroke-width:1.29;stroke-miterlimit:10;}
	.st10{fill:#404041;stroke:#FFFFFF;stroke-width:0.65;stroke-miterlimit:10;}
	.st11{fill:#404041;stroke:#FFFFFF;stroke-width:1.3;stroke-miterlimit:10;}
	.st12{fill:none;stroke:#FFFFFF;stroke-width:0.65;stroke-miterlimit:10;}
	.st13{fill:none;stroke:#221F1F;stroke-width:0.65;stroke-miterlimit:10;}
	.st14{fill:none;stroke:#221F1F;stroke-width:0.97;stroke-miterlimit:10;}
	.st15{fill:none;stroke:#FFFFFF;stroke-width:0.97;stroke-miterlimit:10;}
	.st16{fill:none;stroke:#404041;stroke-width:0.97;stroke-linecap:round;stroke-linejoin:round;}
	.st17{fill:none;stroke:#000000;stroke-width:1.29;stroke-linecap:round;stroke-linejoin:round;}
	.st18{fill:none;stroke:#404041;stroke-width:1.29;stroke-miterlimit:10;}
	.st19{fill:#FFFFFF;stroke:#404041;stroke-width:1.29;stroke-miterlimit:10;}
	.st20{clip-path:url(#SVGID_4_);}
	.st21{fill:#FDE5A1;stroke:#FFFFFF;stroke-width:1.62;stroke-linecap:round;stroke-linejoin:round;}
	.st22{fill:none;stroke:#404041;stroke-width:2.59;stroke-miterlimit:10;}
	.st23{fill:#FFFFFF;stroke:#404041;stroke-width:0.97;stroke-linecap:round;stroke-linejoin:round;}
	.st24{fill:#E4C1C0;stroke:#FFFFFF;stroke-width:1.62;stroke-miterlimit:10;}
	.st25{enable-background:new    ;}
</style>
<title>Artboard 1CORNER_EVENTS</title>
<g>
	<defs>
		<rect id="SVGID_1_" x="0.1" y="0.2" width="321.8" height="350.6"/>
	</defs>
	<clipPath id="SVGID_2_">
		<use xlink:href="#SVGID_1_"  style="overflow:visible;"/>
	</clipPath>
	<g class="st0">
		<path class="st1" d="M54.8,85.9L173,11.7c50.4-27.4,98.6,42.2,142.9,41.1c3.3-0.1,6.3,24.6,6,62.1h3.7v241.3h-81.4v-4.3H109
			c-32.5-12-94.6-40.9-105.2-131.1C-1.2,177.6,35.8,130.3,54.8,85.9z"/>
	</g>
</g>
<rect x="0.1" y="0.2" class="st2" width="321.8" height="350.6"/>
<path class="st3" d="M161.8,163.4c-0.5-0.6-0.9-1.3-1.2-2.1c0-0.5,0.1-1,0.2-1.4c0.6-1.7,1.8-2.6,2.1-4.3c0-1,0.4-2.1,1-2.9
	c1-1.1,3.4-0.5,4.1-1.9c0.1-0.3,0.2-0.6,0.2-0.9c0.5-2.4,2.6-4.1,5-3.9c0.2,0,0.4,0.1,0.6,0.2c0.1,0.1-0.1,0.3,0,0.4
	c0.4,1.3,0,2.6-0.2,3.9c-0.2,1.4,0.2,2.8,1.1,3.8c1.1,0.9,2.5,1.1,3.9,0.7c0.5-0.1,1.1-0.2,1.4,0.2s-0.1,0.9,0,1.3
	c0.1,0.3-0.6,0.6-0.4,0.8c0.8,0.8,2.2,1.9,2.2,3.1c0,1.2-0.6,2.3-1.6,3c-0.9,0.6-1.4,1.1-2.5,1.2c-3.6,0.1-7.9-0.4-11.5-0.3
	C164.2,164.3,162.9,164.8,161.8,163.4z"/>
<rect x="120.9" y="208.7" class="st4" width="146.4" height="11.3"/>
<rect x="120.1" y="204" class="st5" width="143.1" height="26.4"/>
<polygon class="st6" points="160.1,230.9 145.9,230.9 146.7,223.4 160.1,223.4 "/>
<polygon class="st7" points="159.8,224.1 146.6,224.1 146.6,220.3 158.7,220.3 "/>
<path class="st3" d="M245.8,220.3c0.1-1.5,0.5-2.9,1.2-4.1c0.7-1.8,2.1-3.3,3.8-4.2c1.8-0.7,3.8-0.4,5.3,0.9
	c0.7,0.8,1.4,1.5,2.1,2.2c0.2,0.1,0.4,0.3,0.5,0.4c0.1,0.2,0.1,0.5,0.1,0.7c0.1,1.4-0.3,2.9-1,4.1L245.8,220.3z"/>
<path class="st3" d="M221,220.3c0.1-1.9,0.8-3.8,2-5.3c1-1.5,2.4-3.1,4.2-3.4c1.2-0.2,2.5,0.1,3.5,0.8c1,0.7,1.9,1.6,2.7,2.6
	c0.3,0.4,0.6,0.8,0.8,1.2c0.7,1.3,0.8,2.8,1.5,4.1L221,220.3z"/>
<path class="st3" d="M196.1,220.2c0.1-1.9,0.8-3.8,2-5.3c1-1.5,2.4-3,4.2-3.4c1.2-0.2,2.5,0.1,3.5,0.8c1,0.7,1.9,1.6,2.7,2.6
	c0.3,0.4,0.6,0.8,0.8,1.2c0.7,1.3,0.8,2.8,1.5,4.1L196.1,220.2z"/>
<polygon class="st5" points="238,230.9 219.6,230.9 220.1,223.4 236.7,223.4 "/>
<polygon class="st8" points="237.2,224.1 220.1,224.1 221.2,220.3 235.9,220.3 "/>
<polygon class="st8" points="212.3,224.1 195.2,224.1 196.3,220.3 211,220.3 "/>
<polygon class="st5" points="262.9,230.9 244.4,230.9 244.9,223.4 261.5,223.4 "/>
<polygon class="st8" points="262,224.1 244.9,224.1 246,220.3 260.7,220.3 "/>
<rect x="125.2" y="223.4" class="st5" width="14.2" height="7.4"/>
<path class="st3" d="M123.6,218c0.2-0.8,0.6-1.6,1.1-2.3c1-1.4,2.3-2.6,3.8-3.4c0.8-0.3,1.6-0.5,2.4-0.5c0.6,0,1.1,0.1,1.6,0.3
	c0.6,0.5,1.1,1,1.6,1.6c0.4,0.4,0.9,0.8,1.2,1.2c0.3,0.4,0.5,0.8,0.7,1.2c0.6,1.3,1.1,2.6,1.7,3.9h-7
	C128.9,220.1,122.7,221.7,123.6,218z"/>
<rect x="123.6" y="126.3" class="st3" width="135.1" height="50.2"/>
<rect x="177.9" y="159.1" class="st9" width="83.8" height="40.8"/>
<rect x="119.7" y="177" class="st9" width="23" height="22.8"/>
<polygon class="st8" points="139.1,224.1 124.5,224.1 124.5,220.3 137.8,220.3 "/>
<rect x="120.1" y="200" class="st9" width="142.1" height="4"/>
<rect x="194.9" y="164.5" class="st10" width="30.8" height="3.1"/>
<rect x="232.6" y="164.4" class="st10" width="20.6" height="3.1"/>
<rect x="181.9" y="164.3" class="st10" width="6.9" height="3.2"/>
<path class="st11" d="M127.5,230.5h126.7c-5.6,9.9-13.1,18.6-22.1,25.7c-19.7,15.5-58.1,23-89.7-4.5
	C135.5,245.6,134.7,240.5,127.5,230.5z"/>
<path class="st3" d="M217.7,182.9c-1.1-0.3-0.7-1.3-1-2.4s-1-2.2-0.4-3.2c0.3-0.4,0.6-0.8,1-1.1c0.2-0.2,0.6-0.3,0.8-0.5
	c0.9-0.6,1-1.9,1-3s-0.1-2.4,0.7-3.1c0.5-0.4,1-0.7,1.5-1c0.7-0.6,1.5-0.9,2.4-1c0.6,0,1.1-0.3,1.5-0.8c0.2-0.5,0.3-1,0.3-1.6
	c0.2-1.7,1.2-3.2,2.6-4c1.5-0.9,3.3-1.2,5-0.9c0.2,2.2-0.5,4.5-0.4,6.9c0,1.4-0.4,3.1,0.6,4.2s2.4,1,3.7,0.8
	c1.1-0.3,2.2-0.7,3.2-1.3c-0.3,1.4-0.9,4.3,0.6,4.6c1.2,0.2,0.8,0.5,0.9,0.8c0.2,0.5,0.4,1.1,0.5,1.7c0.1,1.7,0,3.8-1.5,4.6
	c-0.6,0.3-1.2,0.4-1.9,0.4c-3.7,0.3-7.5,0.4-11.2,0.3c-1.9-0.1-3.7-0.2-5.5-0.3C220.7,182.9,219.1,183.2,217.7,182.9z"/>
<rect x="134.5" y="182.2" class="st10" width="3.1" height="14.5"/>
<rect x="142.6" y="164.7" class="st9" width="39.2" height="35.3"/>
<rect x="150.1" y="168.8" class="st10" width="4.7" height="22.7"/>
<rect x="170.8" y="168.8" class="st10" width="4.9" height="15.9"/>
<line class="st12" x1="149.9" y1="171.8" x2="155.1" y2="171.8"/>
<line class="st12" x1="150" y1="175" x2="154.8" y2="175"/>
<line class="st12" x1="150" y1="178.2" x2="154.8" y2="178.2"/>
<line class="st12" x1="150" y1="181.5" x2="154.7" y2="181.5"/>
<line class="st12" x1="150" y1="184.6" x2="154.9" y2="184.6"/>
<line class="st12" x1="150.1" y1="187.9" x2="154.6" y2="187.9"/>
<line class="st12" x1="170.9" y1="171.9" x2="175.6" y2="171.9"/>
<line class="st12" x1="170.6" y1="174.9" x2="175.8" y2="174.9"/>
<line class="st12" x1="170.7" y1="178.3" x2="175.9" y2="178.3"/>
<line class="st12" x1="170.7" y1="181.4" x2="175.8" y2="181.4"/>
<line class="st12" x1="183.5" y1="164.6" x2="183.5" y2="167.6"/>
<line class="st12" x1="187.6" y1="164.4" x2="187.6" y2="167.6"/>
<line class="st12" x1="200.5" y1="164.6" x2="200.5" y2="167.7"/>
<line class="st12" x1="205.1" y1="164.6" x2="205.1" y2="167.6"/>
<line class="st12" x1="209.3" y1="164.6" x2="209.3" y2="167.6"/>
<line class="st12" x1="213.8" y1="164.6" x2="213.8" y2="167.6"/>
<line class="st12" x1="217.8" y1="164.6" x2="217.8" y2="167.6"/>
<line class="st12" x1="222" y1="164.6" x2="222" y2="167.6"/>
<line class="st12" x1="239.2" y1="164.6" x2="239.2" y2="167.3"/>
<line class="st12" x1="243.4" y1="164.6" x2="243.4" y2="167.6"/>
<line class="st12" x1="248.1" y1="164.6" x2="248.1" y2="167.6"/>
<line class="st13" x1="174.6" y1="190" x2="174.6" y2="194"/>
<line class="st13" x1="178.8" y1="190.1" x2="178.8" y2="194"/>
<line class="st13" x1="183.6" y1="190" x2="183.6" y2="194"/>
<line class="st13" x1="187.6" y1="190.1" x2="187.6" y2="194"/>
<polygon class="st5" points="259.9,190.1 259.9,194.1 256.6,194.1 256.6,193.9 256.6,190.1 "/>
<polygon class="st5" points="256.6,193.9 256.6,194.1 252.3,194.1 252.3,193.8 252.3,190.1 256.6,190.1 "/>
<polygon class="st5" points="252.3,193.8 252.3,194.1 248,194.1 248,190.2 248,190.1 252.3,190.1 "/>
<polygon class="st5" points="248,190.2 248,194.1 243.5,194.1 243.5,193.8 243.5,190.1 248,190.1 "/>
<polygon class="st5" points="243.5,193.8 243.5,194.1 239.2,194.1 239.2,193.7 239.2,190.1 243.5,190.1 "/>
<polygon class="st5" points="239.2,193.7 239.2,194.1 235,194.1 235,193.9 235,190.1 239.2,190.1 "/>
<polygon class="st5" points="235,193.9 235,194.1 230.8,194.1 230.8,190.1 235,190.1 "/>
<polygon class="st5" points="230.8,190.1 230.8,194.1 226.6,194.1 226.6,194 226.6,190.1 "/>
<polygon class="st5" points="226.6,194 226.6,194.1 222,194.1 222,193.9 222,190.1 226.6,190.1 "/>
<polygon class="st5" points="222,193.9 222,194.1 217.8,194.1 217.8,194 217.8,190.1 222,190.1 "/>
<polygon class="st5" points="217.8,194 217.8,194.1 213.6,194.1 213.6,190.1 217.8,190.1 "/>
<polygon class="st5" points="213.6,190.1 213.6,194.1 209.1,194.1 209.1,194 209.1,190.1 "/>
<polygon class="st5" points="209.1,194 209.1,194.1 205.1,194.1 205.1,193.9 205.1,190.1 209.1,190.1 "/>
<polygon class="st5" points="205.1,193.9 205.1,194.1 200.5,194.1 200.5,193.9 200.5,190.1 205.1,190.1 "/>
<polygon class="st5" points="200.5,193.9 200.5,194.1 196.2,194.1 196.2,193.9 196.2,190.1 200.5,190.1 "/>
<polygon class="st5" points="196.2,193.9 196.2,194.1 191.8,194.1 191.8,190.1 196.2,190.1 "/>
<rect x="170.3" y="190.1" class="st5" width="21.5" height="4"/>
<polygon class="st12" points="256.6,190.1 259.9,190.1 259.9,194.1 256.6,194.1 252.3,194.1 248,194.1 243.5,194.1 239.2,194.1 
	235,194.1 230.8,194.1 226.6,194.1 222,194.1 217.8,194.1 213.6,194.1 209.1,194.1 205.1,194.1 200.5,194.1 196.2,194.1 
	191.8,194.1 170.3,194.1 170.3,190.1 191.8,190.1 196.2,190.1 200.5,190.1 205.1,190.1 209.1,190.1 213.6,190.1 217.8,190.1 
	222,190.1 226.6,190.1 230.8,190.1 235,190.1 239.2,190.1 243.5,190.1 248,190.1 252.3,190.1 "/>
<polyline class="st12" points="191.8,190 191.8,190.1 191.8,194.1 191.8,194.1 "/>
<polyline class="st12" points="196.2,190 196.2,190.1 196.2,193.9 "/>
<line class="st12" x1="200.5" y1="190.1" x2="200.5" y2="193.9"/>
<polyline class="st12" points="205.1,190 205.1,190.1 205.1,193.9 "/>
<line class="st12" x1="209.1" y1="190.1" x2="209.1" y2="194"/>
<line class="st12" x1="213.6" y1="190.1" x2="213.6" y2="194.1"/>
<line class="st12" x1="217.8" y1="190.1" x2="217.8" y2="194"/>
<polyline class="st12" points="222,190 222,190.1 222,193.9 "/>
<line class="st12" x1="226.6" y1="190.1" x2="226.6" y2="194"/>
<line class="st12" x1="230.8" y1="190.1" x2="230.8" y2="194.1"/>
<polyline class="st12" points="235,190 235,190.1 235,193.9 "/>
<line class="st12" x1="239.2" y1="190.1" x2="239.2" y2="193.7"/>
<line class="st12" x1="243.5" y1="190.1" x2="243.5" y2="193.8"/>
<polyline class="st12" points="248,190.2 248,194.1 248,194.2 "/>
<polyline class="st12" points="252.3,189.9 252.3,190.1 252.3,193.8 "/>
<line class="st12" x1="256.6" y1="190.1" x2="256.6" y2="193.9"/>
<path class="st14" d="M169.8,230c0,0,0.7-19.4,8.7-18.8s9.7,18.8,9.7,18.8"/>
<line class="st15" x1="130.3" y1="232.6" x2="252" y2="232.6"/>
<line class="st15" x1="131.6" y1="235.2" x2="251.1" y2="235.2"/>
<line class="st15" x1="133.4" y1="238.3" x2="248.5" y2="238.3"/>
<line class="st15" x1="135.5" y1="241.3" x2="245.9" y2="241.3"/>
<line class="st15" x1="243" y1="245.4" x2="138.2" y2="245.4"/>
<line class="st15" x1="238.8" y1="249.7" x2="142.9" y2="249.7"/>
<line class="st15" x1="233.1" y1="254.3" x2="148.9" y2="254.3"/>
<line class="st15" x1="226" y1="259.3" x2="156.2" y2="259.3"/>
<line class="st15" x1="215.2" y1="264.6" x2="163.4" y2="264.6"/>
<line class="st13" x1="235.1" y1="164.6" x2="235.1" y2="167.3"/>
<path class="st16" d="M177.8,150.6c0,0,0.7-5.3,5-7.3"/>
<path class="st1" d="M190.6,302.7c-57.6-0.1-104.2-46.8-104.1-104.3S133.3,94.2,190.9,94.3S295,141,295,198.6
	c0,41.8-25.1,79.6-63.7,95.9C218.5,299.9,204.6,302.7,190.6,302.7z M190.6,127.8c-38.9,0-70.4,31.5-70.4,70.4
	c0,38.9,31.5,70.4,70.4,70.4s70.4-31.5,70.4-70.4c0-18.7-7.4-36.6-20.6-49.8C227.3,135.2,209.3,127.7,190.6,127.8z"/>
<line class="st17" x1="219.1" y1="184.4" x2="239.6" y2="184.6"/>
<path class="st15" d="M219.6,230.5c0,0,0.7-19.4,8.7-18.8s9.7,18.8,9.7,18.8"/>
<path class="st15" d="M130.3,211.6c8,0.6,9.7,18.8,9.7,18.8"/>
<path class="st15" d="M244.3,230.1c0,0,0.7-19.4,8.7-18.8"/>
<path class="st15" d="M194.7,230.1c0,0,0.7-19.4,8.7-18.8s9.6,18.8,9.6,18.8"/>
<polyline class="st15" points="253.1,230.5 213,230.5 194.7,230.5 128.2,230.5 "/>
<path class="st15" d="M130.4,211.6c-3,0.2-5.2,3-6.7,6.3"/>
<path class="st15" d="M253,211.4c1.7,0.2,3.2,1.1,4.3,2.4c0.9,1.1,1.6,2.3,2.2,3.5"/>
<rect x="189.1" y="142.4" class="st5" width="5.8" height="42.2"/>
<rect x="189" y="159.2" transform="matrix(0.9643 -0.2647 0.2647 0.9643 -35.5915 56.5512)" class="st3" width="6.1" height="2.3"/>
<rect x="189" y="165.3" transform="matrix(0.9643 -0.2647 0.2647 0.9643 -37.2299 56.7716)" class="st3" width="6.1" height="2.3"/>
<rect x="187.4" y="171.7" transform="matrix(0.9652 -0.2614 0.2614 0.9652 -38.5698 55.7785)" class="st3" width="6" height="2.3"/>
<rect x="189" y="153" transform="matrix(0.9643 -0.2647 0.2647 0.9643 -33.9531 56.3307)" class="st3" width="6.1" height="2.3"/>
<rect x="189" y="146.8" transform="matrix(0.9643 -0.2647 0.2647 0.9643 -32.3146 56.1103)" class="st3" width="6.1" height="2.3"/>
<rect x="189" y="177.7" transform="matrix(0.9643 -0.2647 0.2647 0.9643 -40.5092 57.2134)" class="st3" width="6.1" height="2.3"/>
<path class="st16" d="M173.8,149.2c-0.7-1.6,0.5-4.1,0.5-4.1c-6.9-0.9-6.6,5.8-6.6,5.8c-1.4-0.4-2.9,0.1-3.9,1.2
	c-1.1,1.2-1.5,2.9-1,4.5c-1.3,0.7-2.2,2.1-2.3,3.6c0,1.4,0.9,2.7,2.2,3.2l16.4,0.2c1.4-0.5,2.3-1.8,2.3-3.3c0-1.5-1-2.9-2.5-3.4
	c0.8-0.8,1-2.1,0.5-3.1"/>
<path class="st3" d="M240.4,166.2c0.9,1.9,0.1,4.1-1.7,5.1c-2.8,1.6-6.5,0.4-6.5-3.2s2-4.8,3.8-4.8s1.6,2.5,1.6,2.5l0.2-0.1
	C238.4,165.6,239.8,165.2,240.4,166.2z"/>
<path class="st16" d="M219.1,182.4c-1.7-0.6-2.8-2.2-2.8-4c0.1-1.9,1.2-3.6,2.9-4.5c-0.7-1.9-0.2-4.1,1.2-5.6
	c1.2-1.3,3.1-1.9,4.9-1.5c0,0-0.3-8.4,8.2-7.2c0,0-1.4,3.1-0.6,5.1"/>
<path class="st16" d="M239.6,182.6c1.7-0.6,2.9-2.3,2.9-4.1c-0.1-1.9-1.3-3.6-3.1-4.2c1-1,1.2-2.6,0.6-3.9"/>
<path class="st16" d="M237.7,165.8c0,0,0.2-2.5-1.6-2.5s-3.8,1.2-3.8,4.8s3.6,4.8,6.5,3.2c1.8-1,2.5-3.2,1.7-5.1
	c-0.6-1-2-0.6-2.5-0.5L237.7,165.8z"/>
<path class="st16" d="M237.9,165.7c0,0,0.8-6.6,6.2-9"/>
<rect x="143" y="216.3" class="st5" width="13.1" height="13.5"/>
<rect x="189.1" y="142.5" class="st18" width="5.8" height="42.2"/>
<polygon class="st19" points="247.6,176.9 252.7,183.1 258.6,181.6 259.6,185.4 179.1,185.4 174.5,183.9 197,178.1 200.6,182.2 
	225.5,176 230,181.6 "/>
<circle class="st2" cx="191.1" cy="198.7" r="70.9"/>
<g>
	<defs>
		<circle id="SVGID_3_" cx="191.1" cy="198.7" r="70.9"/>
	</defs>
	<clipPath id="SVGID_4_">
		<use xlink:href="#SVGID_3_"  style="overflow:visible;"/>
	</clipPath>
	<g class="st20">
		<path class="st21" d="M149.8,224.6l16.2,64.7l1,4.2c0.4,1.5,1.9,2.4,3.5,2c1-0.3,1.8-1,2-2l17.3-68.9"/>
	</g>
</g>
<circle class="st2" cx="191.1" cy="198.7" r="70.9"/>
<circle class="st22" cx="191.1" cy="198.7" r="70.9"/>
<path class="st23" d="M177.6,150.7c0,0,0.1-2-1.3-2s-3,1-3.1,3.9s2.9,3.8,5.2,2.6c1.4-0.8,2-2.6,1.3-4.1
	C179.2,150.1,177.6,150.7,177.6,150.7z"/>
<path class="st24" d="M148,213.5c-1.4,1.6-2.1,2.6-2.1,4.4c0,7.2,12.2,8.2,23.9,8.2s23.9-1,23.9-8.2c0-1.9-0.8-2.8-2.1-4.4
	c3.9-12-2.8-24.9-14.8-28.8s-24.9,2.8-28.8,14.8c-0.7,2.2-1.1,4.6-1.1,7C146.9,208.9,147.3,211.3,148,213.5z"/>
<g class="st25">
	<path class="st5" d="M106.1,152.1l1.8-2.8l6,3.9l3.6-5.7l-6-3.9l1.8-2.8l13.9,8.9l-1.8,2.8L120,149l-3.6,5.7l5.4,3.5L120,161
		L106.1,152.1z"/>
</g>
<g class="st25">
	<path class="st5" d="M121.8,131.2l2.2-2.2l16,7.4l-2.4,2.4l-3.1-1.5l-4.5,4.5l1.5,3.1l-2.4,2.4L121.8,131.2z M131.9,135.9l-6.1-3
		l0,0l3,6.1L131.9,135.9z"/>
</g>
<g class="st25">
	<path class="st5" d="M133.7,120.5l2.7-1.7l12.2,5.5l0,0l-5.9-9.5l2.7-1.7l8.8,14l-2.8,1.7l-12-5.4l0,0l5.8,9.3l-2.8,1.7
		L133.7,120.5z"/>
</g>
<g class="st25">
	<path class="st5" d="M153,109.6l5.2-1.8c4.9-1.7,9.2,0.4,10.8,5c1.6,4.6-0.3,8.8-5.4,10.6l-5.2,1.8L153,109.6z M162.5,120.7
		c3-1,4.3-3.9,3.3-6.8c-1-2.9-3.8-4.4-6.6-3.4l-2.2,0.7l3.5,10.1L162.5,120.7z"/>
</g>
<g class="st25">
	<path class="st5" d="M173.8,103.2l3.3-0.3l5.9,8.9l0,0l4.2-9.8l3.3-0.3l1.4,16.5l-3.2,0.3l-0.9-10.2l0,0l-3.4,7.4l-2.1,0.2
		l-4.6-6.7l0,0l0.9,10.2l-3.2,0.3L173.8,103.2z"/>
</g>
<g class="st25">
	<path class="st5" d="M203.6,103l3.1,0.5l3.6,17.3l-3.4-0.5l-0.6-3.4l-6.3-1l-1.6,3.1l-3.4-0.5L203.6,103z M205.8,113.9l-1.2-6.7
		l0,0l-3.2,6.1L205.8,113.9z"/>
</g>
<g class="st25">
	<path class="st5" d="M219.1,106.3l5.1,2c4.9,1.9,6.8,6.3,5,10.8c-1.8,4.5-6,6.5-10.9,4.6l-5.2-2L219.1,106.3z M219.1,120.8
		c3,1.2,5.8-0.2,6.9-3c1.1-2.9,0-5.8-2.8-6.8l-2.1-0.8l-3.9,10L219.1,120.8z"/>
</g>
<g class="st25">
	<path class="st5" d="M238.7,114.8l8.9,5.8l-1.6,2.4l-6.1-4l-2.2,3.3l4.9,3.2L241,128l-4.9-3.2l-2.1,3.2l6.6,4.3l-1.6,2.4l-9.3-6
		L238.7,114.8z"/>
</g>
<g class="st25">
	<path class="st5" d="M260.3,132l2.2,2.5l-12.2,11.2l-2.2-2.5L260.3,132z"/>
</g>
<g class="st25">
	<path class="st5" d="M267.5,140.2l1.7,2.7l-5.4,12.3l0,0l9.4-6l1.7,2.7l-13.9,8.9l-1.8-2.8l5.2-12.1l0,0l-9.2,5.9l-1.8-2.7
		L267.5,140.2z"/>
</g>
<g class="st25">
	<path class="st5" d="M131.1,251.2l4.2,4.2c2.5,2.5,2.9,4.8,1,6.7c-1,1.1-2.6,1.6-4.4,0.9l0,0c1.1,1.9,1,3.8-0.6,5.3
		c-1.8,1.9-4.5,2-7.1-0.6l-4.8-4.8L131.1,251.2z M126,265.4c1.1,1.1,2.3,1.3,3.3,0.3c0.9-0.9,0.8-2.2-0.5-3.5l-2-1.9l-3,3L126,265.4
		z M130.4,260c1,1,2.1,1.3,3,0.3c0.8-0.8,0.8-1.9-0.4-3.1l-1.7-1.6l-2.7,2.8L130.4,260z"/>
</g>
<g class="st25">
	<path class="st5" d="M143.3,262.3l2.7,1.9l-9.7,13.4l-2.7-1.9L143.3,262.3z"/>
</g>
<g class="st25">
	<path class="st5" d="M150,267.1l4.9,2.4c4.7,2.3,6.2,6.8,4,11.2c-2.1,4.4-6.5,6-11.3,3.6l-5-2.4L150,267.1z M148.7,281.7
		c2.9,1.4,5.8,0.3,7.1-2.4c1.4-2.8,0.5-5.8-2.2-7.1l-2-1l-4.7,9.6L148.7,281.7z"/>
</g>
<g class="st25">
	<path class="st5" d="M166.2,274.5l5.3,1.3c5.1,1.2,7.6,5.3,6.5,10c-1.1,4.7-5,7.3-10.2,6.1l-5.4-1.3L166.2,274.5z M168.2,289
		c3.1,0.7,5.7-1,6.4-4c0.7-3-0.8-5.7-3.7-6.4l-2.2-0.5l-2.5,10.4L168.2,289z"/>
</g>
<g class="st25">
	<path class="st5" d="M183.8,278.1l10.6,0.3l-0.1,2.9l-7.3-0.2l-0.1,4l5.9,0.1l-0.1,2.9l-5.9-0.1l-0.1,3.9l7.8,0.2l-0.1,2.9l-11-0.3
		L183.8,278.1z"/>
</g>
<g class="st25">
	<path class="st5" d="M199,278l10.8-1.8l0.5,2.9l-7.6,1.2l0.7,4.4l6.4-1l0.5,2.9l-6.4,1l1,6.2l-3.2,0.5L199,278z"/>
</g>
<g class="st25">
	<path class="st5" d="M215.1,283.6c-1.8-4.6,0.1-9.1,4.8-11c4.5-1.8,9.1,0.1,10.9,4.8c1.8,4.7-0.2,9.2-4.7,10.9
		C221.4,290.2,216.9,288.1,215.1,283.6z M227.6,278.7c-1.1-2.9-4-4.2-6.6-3.2c-2.8,1.1-3.8,4.1-2.7,6.9s3.9,4.3,6.6,3.2
		C227.6,284.5,228.8,281.6,227.6,278.7z"/>
</g>
<g class="st25">
	<path class="st5" d="M231.1,267.6l5.2-3.5c3.3-2.2,6.1-1.3,7.8,1.3c1.4,2.1,1.4,4.2-0.1,6.1l6.8,2.7l-3.2,2.2l-6.2-2.6l-1.6,1.1
		l3.2,4.7l-2.7,1.8L231.1,267.6z M240.3,271.1c1.7-1.1,1.9-2.5,1.1-3.8c-0.9-1.3-2.3-1.5-3.8-0.5l-2.1,1.4l2.8,4.2L240.3,271.1z"/>
</g>
<g class="st25">
	<path class="st5" d="M244.2,258.3l3.8-4c3.6-3.8,8.4-3.9,11.9-0.5c3.5,3.3,3.8,8,0.1,11.8l-3.8,4L244.2,258.3z M257.7,263.8
		c2.2-2.3,2-5.4-0.2-7.5c-2.2-2.1-5.4-2.2-7.4,0l-1.6,1.7l7.8,7.4L257.7,263.8z"/>
</g>
<ellipse class="st3" cx="178.4" cy="160.1" rx="2.7" ry="2.8"/>
</svg>
