<svg id="Layer_1" data-name="Layer 1" xmlns="http://www.w3.org/2000/svg" xmlns:xlink="http://www.w3.org/1999/xlink" viewBox="0 0 319.49 424.41"><defs><style>.cls-1,.cls-12,.cls-14,.cls-15,.cls-16,.cls-17,.cls-19,.cls-23{fill:none;}.cls-10,.cls-11,.cls-2,.cls-5,.cls-8,.cls-9{fill:#e4a88c;}.cls-2{stroke:#e0a187;}.cls-10,.cls-11,.cls-12,.cls-13,.cls-14,.cls-15,.cls-16,.cls-19,.cls-2,.cls-20,.cls-23,.cls-7,.cls-8,.cls-9{stroke-miterlimit:10;}.cls-13,.cls-20,.cls-24,.cls-26,.cls-3{fill:#fff;}.cls-4{fill:#7f8081;}.cls-6{fill:#6a92c7;}.cls-7{fill:#485ea4;}.cls-18,.cls-7{stroke:#010101;}.cls-7,.cls-8{stroke-width:0.32px;}.cls-10,.cls-11,.cls-12,.cls-13,.cls-16,.cls-22,.cls-23,.cls-25,.cls-8,.cls-9{stroke:#fff;}.cls-18,.cls-19,.cls-20,.cls-9{stroke-width:1.29px;}.cls-10,.cls-12,.cls-13,.cls-14{stroke-width:0.64px;}.cls-11{stroke-width:1.3px;}.cls-14,.cls-15{stroke:#231f20;}.cls-15,.cls-16,.cls-17,.cls-24{stroke-width:0.97px;}.cls-17,.cls-19,.cls-20,.cls-24{stroke:#e4a88c;}.cls-17,.cls-18,.cls-22,.cls-24,.cls-25{stroke-linecap:round;stroke-linejoin:round;}.cls-18{fill:#f26342;}.cls-21{clip-path:url(#clip-path);}.cls-22{fill:#fee7a2;stroke-width:1.61px;}.cls-23{stroke-width:2.58px;}.cls-25{fill:#3b2416;stroke-width:1.93px;}.cls-26{font-size:23.21px;font-family:Averta-Semibold, Averta;font-weight:700;}</style><clipPath id="clip-path" transform="translate(0.5 0.5)"><circle class="cls-1" cx="159.34" cy="181.5" r="70.68"/></clipPath></defs><title>Untitled-22events_corner</title><path class="cls-2" d="M51.47,80.54c-19,44.41-56,91.77-51,135,16.23,139,155,132.28,119,142.9s-117.79,21-88.08,29.2C97,405.74,209.23,445.48,239,407.58c91.84-117,83.74-360.29,73.52-360C268.19,48.57,220-21,169.62,6.4" transform="translate(0.5 0.5)"/><path class="cls-3" d="M130.09,146.37a10.89,10.89,0,0,1-1.25-2.06,5.36,5.36,0,0,1,.25-1.41c.54-1.68,1.78-2.56,2-4.31a5.49,5.49,0,0,1,1-2.9c1-1.14,3.43-.51,4-1.93a4.11,4.11,0,0,0,.18-.86,4.84,4.84,0,0,1,5-3.93.92.92,0,0,1,.56.19c.11.11-.08.3,0,.45a9.54,9.54,0,0,1-.2,3.86,4.72,4.72,0,0,0,1.13,3.82,4.22,4.22,0,0,0,3.84.7c.49-.1,1.12-.18,1.37.26s-.08.89,0,1.33c.07.26-.57.55-.38.74.82.84,2.19,1.9,2.17,3.07a3.55,3.55,0,0,1-1.65,2.94c-.93.55-1.38,1.14-2.45,1.17-3.6.08-7.88-.38-11.48-.3C132.5,147.24,131.26,147.71,130.09,146.37Z" transform="translate(0.5 0.5)"/><rect class="cls-4" x="89.9" y="192" width="146.02" height="11.28"/><rect class="cls-5" x="89.09" y="187.32" width="142.71" height="26.35"/><polygon class="cls-6" points="128.96 214.14 114.8 214.14 115.6 206.72 128.96 206.72 128.96 214.14"/><polygon class="cls-7" points="128.69 207.39 115.52 207.39 115.52 203.6 127.57 203.6 128.69 207.39"/><path class="cls-3" d="M213.94,203.05a10.06,10.06,0,0,1,1.18-4.13,8.21,8.21,0,0,1,3.81-4.18,5.08,5.08,0,0,1,5.26.9,22.15,22.15,0,0,0,2.14,2.19,1.45,1.45,0,0,1,.49.43,1.23,1.23,0,0,1,.11.69,7.46,7.46,0,0,1-1.06,4.1Z" transform="translate(0.5 0.5)"/><path class="cls-3" d="M189.15,203.11a9.75,9.75,0,0,1,2-5.32c1-1.53,2.4-3,4.22-3.35a5,5,0,0,1,3.52.84,11.3,11.3,0,0,1,2.66,2.55,9.86,9.86,0,0,1,.83,1.2c.69,1.28.81,2.8,1.51,4.07Z" transform="translate(0.5 0.5)"/><path class="cls-3" d="M164.33,203a9.75,9.75,0,0,1,2-5.32c1-1.53,2.4-3,4.22-3.35a5,5,0,0,1,3.52.84,11.14,11.14,0,0,1,2.66,2.56,9.14,9.14,0,0,1,.83,1.2c.69,1.27.81,2.8,1.51,4.06Z" transform="translate(0.5 0.5)"/><polygon class="cls-5" points="206.66 214.14 188.29 214.14 188.77 206.72 205.29 206.72 206.66 214.14"/><polygon class="cls-8" points="205.86 207.39 188.77 207.39 189.83 203.6 204.49 203.6 205.86 207.39"/><polygon class="cls-8" points="181.04 207.39 163.95 207.39 165.01 203.6 179.67 203.6 181.04 207.39"/><polygon class="cls-5" points="231.4 214.14 213.03 214.14 213.51 206.72 230.03 206.72 231.4 214.14"/><polygon class="cls-8" points="230.6 207.39 213.51 207.39 214.57 203.6 229.23 203.6 230.6 207.39"/><rect class="cls-5" x="94.09" y="206.72" width="14.17" height="7.42"/><path class="cls-3" d="M92.06,200.76a7.08,7.08,0,0,1,1.14-2.28,10.43,10.43,0,0,1,3.8-3.41,6.29,6.29,0,0,1,2.43-.46,3.26,3.26,0,0,1,1.63.34,7.28,7.28,0,0,1,1.57,1.61c.39.42.85.77,1.2,1.22a6.21,6.21,0,0,1,.7,1.23c.6,1.27,1.13,2.6,1.74,3.87H99.34C97.3,202.88,91.14,204.47,92.06,200.76Z" transform="translate(0.5 0.5)"/><rect class="cls-3" x="92.1" y="111.46" width="134.74" height="50.07"/><rect class="cls-9" x="146.67" y="142.57" width="83.59" height="40.72"/><rect class="cls-5" x="88.61" y="160.41" width="22.89" height="22.72"/><polygon class="cls-8" points="107.98 207.39 93.44 207.39 93.44 203.6 106.74 203.6 107.98 207.39"/><rect class="cls-9" x="89.09" y="183.29" width="141.67" height="4.03"/><rect class="cls-10" x="163.68" y="147.95" width="30.73" height="3.11"/><rect class="cls-10" x="201.25" y="147.78" width="20.58" height="3.05"/><rect class="cls-10" x="150.68" y="147.73" width="6.91" height="3.22"/><path class="cls-11" d="M96,213.2H222.31a88.17,88.17,0,0,1-22,25.64c-19.62,15.49-57.92,23-89.48-4.52C103.89,228.3,103.07,223.18,96,213.2Z" transform="translate(0.5 0.5)"/><path class="cls-3" d="M185.9,165.76c-1.12-.28-.71-1.31-1-2.43s-1-2.18-.37-3.23a3.83,3.83,0,0,1,.95-1.12c.26-.19.56-.3.81-.49.89-.64,1-1.92,1-3s-.06-2.34.69-3.15a15.37,15.37,0,0,1,1.46-1,4.55,4.55,0,0,1,2.38-1,1.94,1.94,0,0,0,1.5-.74,3.78,3.78,0,0,0,.29-1.57,5.23,5.23,0,0,1,2.61-3.94,7.16,7.16,0,0,1,5-.84c.18,2.21-.46,4.46-.38,6.91,0,1.45-.39,3.09.6,4.15s2.4,1,3.7.78a18.54,18.54,0,0,0,3.21-1.25c-.33,1.42-.85,4.31.58,4.59,1.16.22.82.46,1,.79a5.38,5.38,0,0,1,.46,1.69c.11,1.71,0,3.8-1.47,4.64A4.58,4.58,0,0,1,207,166a101.66,101.66,0,0,1-11.18.25c-1.84-.06-3.68-.18-5.51-.33C188.83,165.76,187.33,166.12,185.9,165.76Z" transform="translate(0.5 0.5)"/><rect class="cls-10" x="103.42" y="165.6" width="3.13" height="14.43"/><rect class="cls-5" x="111.49" y="148.1" width="39.07" height="35.2"/><rect class="cls-10" x="118.99" y="152.19" width="4.67" height="22.65"/><rect class="cls-10" x="139.62" y="152.19" width="4.92" height="15.89"/><line class="cls-12" x1="118.75" y1="155.25" x2="123.9" y2="155.25"/><line class="cls-12" x1="118.91" y1="158.39" x2="123.66" y2="158.39"/><line class="cls-12" x1="118.91" y1="161.62" x2="123.66" y2="161.62"/><line class="cls-12" x1="118.83" y1="164.84" x2="123.58" y2="164.84"/><line class="cls-12" x1="118.91" y1="167.98" x2="123.74" y2="167.98"/><line class="cls-12" x1="118.99" y1="171.29" x2="123.5" y2="171.29"/><line class="cls-13" x1="139.7" y1="155.33" x2="144.45" y2="155.33"/><line class="cls-13" x1="139.46" y1="158.31" x2="144.61" y2="158.31"/><line class="cls-13" x1="139.54" y1="161.7" x2="144.69" y2="161.7"/><line class="cls-13" x1="139.54" y1="164.76" x2="144.61" y2="164.76"/><line class="cls-12" x1="152.27" y1="148" x2="152.27" y2="150.98"/><line class="cls-12" x1="156.38" y1="147.84" x2="156.38" y2="151.06"/><line class="cls-12" x1="169.19" y1="148" x2="169.19" y2="151.14"/><line class="cls-12" x1="173.79" y1="148.08" x2="173.79" y2="150.98"/><line class="cls-13" x1="177.98" y1="148" x2="177.98" y2="151.06"/><line class="cls-12" x1="182.49" y1="148" x2="182.49" y2="150.98"/><line class="cls-12" x1="186.52" y1="148" x2="186.52" y2="151.06"/><line class="cls-12" x1="190.63" y1="148" x2="190.63" y2="150.98"/><line class="cls-12" x1="207.87" y1="148" x2="207.87" y2="150.74"/><line class="cls-12" x1="211.98" y1="148" x2="211.98" y2="150.98"/><line class="cls-12" x1="216.66" y1="148" x2="216.66" y2="150.98"/><line class="cls-14" x1="143.41" y1="173.38" x2="143.41" y2="177.33"/><line class="cls-14" x1="147.6" y1="173.46" x2="147.6" y2="177.33"/><line class="cls-14" x1="152.35" y1="173.38" x2="152.35" y2="177.33"/><line class="cls-14" x1="156.38" y1="173.46" x2="156.38" y2="177.33"/><polygon class="cls-5" points="228.42 173.46 228.42 177.41 225.2 177.41 225.2 177.25 225.2 173.46 228.42 173.46"/><polygon class="cls-5" points="225.2 177.25 225.2 177.41 220.85 177.41 220.85 177.17 220.85 173.46 225.2 173.46 225.2 177.25"/><polygon class="cls-5" points="220.85 177.17 220.85 177.41 216.57 177.41 216.57 173.54 216.57 173.46 220.85 173.46 220.85 177.17"/><polygon class="cls-5" points="216.57 173.54 216.57 177.41 212.06 177.41 212.06 177.17 212.06 173.46 216.57 173.46 216.57 173.54"/><polygon class="cls-5" points="212.06 177.17 212.06 177.41 207.79 177.41 207.79 177.09 207.79 173.46 212.06 173.46 212.06 177.17"/><polygon class="cls-5" points="207.79 177.09 207.79 177.41 203.6 177.41 203.6 177.25 203.6 173.46 207.79 173.46 207.79 177.09"/><polygon class="cls-5" points="203.6 177.25 203.6 177.41 199.41 177.41 199.41 173.46 203.6 173.46 203.6 177.25"/><polygon class="cls-5" points="199.41 173.46 199.41 177.41 195.3 177.41 195.3 177.33 195.3 173.46 199.41 173.46"/><polygon class="cls-5" points="195.3 177.33 195.3 177.41 190.71 177.41 190.71 177.25 190.71 173.46 195.3 173.46 195.3 177.33"/><polygon class="cls-5" points="190.71 177.25 190.71 177.41 186.44 177.41 186.44 177.33 186.44 173.46 190.71 173.46 190.71 177.25"/><polygon class="cls-5" points="186.44 177.33 186.44 177.41 182.33 177.41 182.33 173.46 186.44 173.46 186.44 177.33"/><polygon class="cls-5" points="182.33 173.46 182.33 177.41 177.81 177.41 177.81 177.33 177.81 173.46 182.33 173.46"/><polygon class="cls-5" points="177.81 177.33 177.81 177.41 173.78 177.41 173.78 177.25 173.78 173.46 177.81 173.46 177.81 177.33"/><polygon class="cls-5" points="173.78 177.25 173.78 177.41 169.19 177.41 169.19 177.25 169.19 173.46 173.78 173.46 173.78 177.25"/><polygon class="cls-5" points="169.19 177.25 169.19 177.41 164.92 177.41 164.92 177.25 164.92 173.46 169.19 173.46 169.19 177.25"/><polygon class="cls-5" points="164.92 177.25 164.92 177.41 160.57 177.41 160.57 173.46 164.92 173.46 164.92 177.25"/><rect class="cls-5" x="139.13" y="173.46" width="21.44" height="3.95"/><polygon class="cls-12" points="225.2 173.46 228.42 173.46 228.42 177.41 225.2 177.41 220.85 177.41 216.57 177.41 212.06 177.41 207.79 177.41 203.6 177.41 199.41 177.41 195.3 177.41 190.71 177.41 186.44 177.41 182.33 177.41 177.81 177.41 173.78 177.41 169.19 177.41 164.92 177.41 160.57 177.41 139.13 177.41 139.13 173.46 160.57 173.46 164.92 173.46 169.19 173.46 173.78 173.46 177.81 173.46 182.33 173.46 186.44 173.46 190.71 173.46 195.3 173.46 199.41 173.46 203.6 173.46 207.79 173.46 212.06 173.46 216.57 173.46 220.85 173.46 225.2 173.46"/><polyline class="cls-12" points="160.57 173.38 160.57 173.46 160.57 177.41 160.57 177.49"/><polyline class="cls-12" points="164.92 173.38 164.92 173.46 164.92 177.25"/><line class="cls-12" x1="169.19" y1="173.46" x2="169.19" y2="177.25"/><polyline class="cls-12" points="173.78 173.38 173.78 173.46 173.78 177.25"/><line class="cls-12" x1="177.81" y1="173.46" x2="177.81" y2="177.33"/><line class="cls-12" x1="182.33" y1="173.46" x2="182.33" y2="177.41"/><line class="cls-12" x1="186.44" y1="173.46" x2="186.44" y2="177.33"/><polyline class="cls-12" points="190.71 173.38 190.71 173.46 190.71 177.25"/><line class="cls-12" x1="195.3" y1="173.46" x2="195.3" y2="177.33"/><line class="cls-12" x1="199.41" y1="173.46" x2="199.41" y2="177.41"/><polyline class="cls-12" points="203.6 173.38 203.6 173.46 203.6 177.25"/><line class="cls-12" x1="207.79" y1="173.46" x2="207.79" y2="177.09"/><line class="cls-12" x1="212.06" y1="173.46" x2="212.06" y2="177.17"/><polyline class="cls-12" points="216.57 173.54 216.57 177.41 216.57 177.57"/><polyline class="cls-12" points="220.85 173.3 220.85 173.46 220.85 177.17"/><line class="cls-12" x1="225.2" y1="173.46" x2="225.2" y2="177.25"/><path class="cls-15" d="M138.11,212.73s.71-19.35,8.66-18.71,9.63,18.71,9.63,18.71" transform="translate(0.5 0.5)"/><line class="cls-16" x1="99.25" y1="215.85" x2="220.61" y2="215.85"/><line class="cls-16" x1="100.53" y1="218.43" x2="219.64" y2="218.43"/><line class="cls-16" x1="102.31" y1="221.49" x2="217.06" y2="221.49"/><line class="cls-16" x1="104.4" y1="224.55" x2="214.48" y2="224.55"/><line class="cls-16" x1="211.58" y1="228.58" x2="107.14" y2="228.58"/><line class="cls-16" x1="207.39" y1="232.93" x2="111.82" y2="232.93"/><line class="cls-16" x1="201.75" y1="237.45" x2="117.78" y2="237.45"/><line class="cls-16" x1="194.66" y1="242.44" x2="125.03" y2="242.44"/><line class="cls-16" x1="183.86" y1="247.76" x2="132.28" y2="247.76"/><line class="cls-14" x1="203.68" y1="148" x2="203.68" y2="150.74"/><path class="cls-17" d="M145.72,135.19s.67-5.32,5-7.24" transform="translate(0.5 0.5)"/><path class="cls-5" d="M158.9,285.9a104.6,104.6,0,1,1,40.81-8.25A104.26,104.26,0,0,1,158.9,285.9Zm0-175.52a70.67,70.67,0,1,0,50,20.7A70.22,70.22,0,0,0,158.9,110.38Z" transform="translate(0.5 0.5)"/><line class="cls-18" x1="187.82" y1="167.73" x2="208.25" y2="167.95"/><path class="cls-16" d="M187.75,213.21s.71-19.35,8.66-18.71S206,213.21,206,213.21" transform="translate(0.5 0.5)"/><path class="cls-16" d="M98.75,194.34c8,.65,9.62,18.71,9.62,18.71" transform="translate(0.5 0.5)"/><path class="cls-16" d="M212.41,212.89s.71-19.35,8.66-18.71" transform="translate(0.5 0.5)"/><path class="cls-16" d="M162.93,212.89s.71-19.35,8.66-18.71,9.63,18.71,9.63,18.71" transform="translate(0.5 0.5)"/><polyline class="cls-16" points="221.73 213.75 181.72 213.75 163.43 213.75 97.15 213.75"/><path class="cls-16" d="M98.87,194.34c-3,.24-5.22,3-6.68,6.32" transform="translate(0.5 0.5)"/><path class="cls-16" d="M221.07,194.18a6.31,6.31,0,0,1,4.27,2.43,15.48,15.48,0,0,1,2.16,3.52" transform="translate(0.5 0.5)"/><rect class="cls-5" x="157.91" y="125.92" width="5.8" height="42.07"/><rect class="cls-3" x="157.25" y="142.12" width="6.04" height="2.34" transform="translate(-31.71 48.03) rotate(-15.35)"/><rect class="cls-3" x="157.25" y="148.29" width="6.04" height="2.34" transform="translate(-33.34 48.25) rotate(-15.35)"/><rect class="cls-3" x="157.25" y="154.46" width="6.04" height="2.34" transform="translate(-34.98 48.47) rotate(-15.35)"/><rect class="cls-3" x="157.25" y="135.94" width="6.04" height="2.34" transform="translate(-30.07 47.81) rotate(-15.35)"/><rect class="cls-3" x="157.25" y="129.77" width="6.04" height="2.34" transform="translate(-28.44 47.59) rotate(-15.35)"/><rect class="cls-3" x="157.25" y="160.64" width="6.04" height="2.34" transform="translate(-36.61 48.69) rotate(-15.35)"/><path class="cls-17" d="M141.73,133.83c-.66-1.63.47-4.09.47-4.09-6.83-1-6.56,5.73-6.56,5.73a4,4,0,0,0-3.9,1.18,4.44,4.44,0,0,0-1,4.46,4.31,4.31,0,0,0-2.3,3.56,3.37,3.37,0,0,0,2.24,3.17l16.39.18a3.49,3.49,0,0,0,2.29-3.26,3.72,3.72,0,0,0-2.46-3.39,2.78,2.78,0,0,0,.46-3.1" transform="translate(0.5 0.5)"/><path class="cls-3" d="M208.51,149.12a3.86,3.86,0,0,1-1.65,5c-2.8,1.6-6.48.4-6.44-3.18s2-4.81,3.79-4.8,1.62,2.5,1.62,2.5S207.77,148,208.51,149.12Z" transform="translate(0.5 0.5)"/><path class="cls-17" d="M187.32,165.29a4.19,4.19,0,0,1-2.78-3.95,5.38,5.38,0,0,1,2.86-4.43,5.55,5.55,0,0,1,1.18-5.56,5,5,0,0,1,4.87-1.47s-.34-8.32,8.17-7.15c0,0-1.41,3.07-.59,5.11" transform="translate(0.5 0.5)"/><path class="cls-17" d="M207.75,165.52a4.34,4.34,0,0,0,2.85-4.07,4.63,4.63,0,0,0-3.06-4.22,3.45,3.45,0,0,0,.57-3.86" transform="translate(0.5 0.5)"/><path class="cls-17" d="M205.83,148.69s.17-2.48-1.62-2.5-3.76,1.23-3.79,4.8,3.64,4.78,6.44,3.18a3.86,3.86,0,0,0,1.65-5C207.77,148,205.83,148.69,205.83,148.69Z" transform="translate(0.5 0.5)"/><path class="cls-17" d="M206,148.63s.84-6.63,6.23-9" transform="translate(0.5 0.5)"/><rect class="cls-5" x="111.92" y="199.6" width="13.11" height="13.43"/><rect class="cls-19" x="157.91" y="125.97" width="5.8" height="42.07"/><polygon class="cls-20" points="216.15 160.3 221.3 166.42 227.21 165.03 228.18 168.79 147.92 168.79 143.3 167.28 165.75 161.48 169.3 165.56 194.12 159.44 198.63 165.03 216.15 160.3"/><circle class="cls-1" cx="159.84" cy="182" r="70.68"/><g class="cls-21"><path class="cls-22" d="M138.08,167.54m-20,39.79,16.17,64.49,1.05,4.18a2.84,2.84,0,0,0,5.5,0l17.23-68.67" transform="translate(0.5 0.5)"/></g><circle class="cls-1" cx="159.84" cy="182" r="70.68"/><circle class="cls-23" cx="159.84" cy="182" r="70.68"/><path class="cls-24" d="M145.58,135.24s.13-2-1.3-2-3,1-3.05,3.85,2.93,3.83,5.18,2.55a3.1,3.1,0,0,0,1.32-4C147.13,134.64,145.58,135.24,145.58,135.24Z" transform="translate(0.5 0.5)"/><path class="cls-25" d="M116.36,196.32c-1.34,1.62-2.09,2.54-2.09,4.43,0,7.15,12.18,8.17,23.81,8.17s23.81-1,23.81-8.17c0-1.89-.75-2.81-2.08-4.43a22.81,22.81,0,1,0-43.45,0Zm41.7,10.05" transform="translate(0.5 0.5)"/><text class="cls-26" transform="translate(88.03 145.91) rotate(-57.38)">H</text><text class="cls-26" transform="matrix(0.71, -0.7, 0.7, 0.71, 97.78, 130.93)">A</text><text class="cls-26" transform="translate(109.81 119.01) rotate(-31.98)">N</text><text class="cls-26" transform="matrix(0.95, -0.33, 0.33, 0.95, 125.54, 109.32)">D</text><text class="cls-26" transform="matrix(1, -0.09, 0.09, 1, 142.24, 103.41)">M</text><text class="cls-26" transform="translate(163.4 101.92) rotate(8.73)">A</text><text class="cls-26" transform="matrix(0.93, 0.36, -0.36, 0.93, 180.17, 104.53)">D</text><text class="cls-26" transform="matrix(0.84, 0.55, -0.55, 0.84, 196.8, 111.25)">E</text><text class="cls-26" transform="translate(209.54 120) rotate(41.4)"> </text><text class="cls-26" transform="translate(215.42 125.26) rotate(47.45)">I</text><text class="cls-26" transform="translate(221.27 131.11) rotate(57.25)">N</text><text class="cls-26" transform="matrix(0.71, 0.7, -0.7, 0.71, 87.17, 244.91)">B</text><text class="cls-26" transform="translate(101.03 257.74) rotate(35.74)">I</text><text class="cls-26" transform="translate(109.92 264.24) rotate(26.2)">D</text><text class="cls-26" transform="translate(129.45 273.3) rotate(13.29)">D</text><text class="cls-26" transform="translate(150.38 277.62) rotate(1.37)">E</text><text class="cls-26" transform="translate(168.58 277.65) rotate(-9.3)">F</text><text class="cls-26" transform="matrix(0.93, -0.36, 0.36, 0.93, 185.75, 274.75)">O</text><text class="cls-26" transform="translate(207.49 265.48) rotate(-34.35)">R</text><text class="cls-26" transform="matrix(0.69, -0.73, 0.73, 0.69, 223.48, 254.09)">D</text><ellipse class="cls-3" cx="146.67" cy="145.06" rx="2.72" ry="2.82"/></svg>