<svg id="Layer_1" data-name="Layer 1" xmlns="http://www.w3.org/2000/svg" xmlns:xlink="http://www.w3.org/1999/xlink" viewBox="0 0 322.11 350.94"><defs><style>.cls-1,.cls-12,.cls-14,.cls-15,.cls-16,.cls-17,.cls-19,.cls-23{fill:none;}.cls-2{clip-path:url(#clip-path);}.cls-10,.cls-11,.cls-3,.cls-8,.cls-9{fill:#b7ddba;}.cls-13,.cls-20,.cls-24,.cls-26,.cls-4{fill:#fff;}.cls-5{fill:#7f8081;}.cls-6{fill:#6a92c7;}.cls-7{fill:#485ea4;}.cls-18,.cls-7{stroke:#010101;}.cls-10,.cls-11,.cls-12,.cls-13,.cls-14,.cls-15,.cls-16,.cls-19,.cls-20,.cls-23,.cls-7,.cls-8,.cls-9{stroke-miterlimit:10;}.cls-7,.cls-8{stroke-width:0.35px;}.cls-10,.cls-11,.cls-12,.cls-13,.cls-16,.cls-22,.cls-23,.cls-25,.cls-8,.cls-9{stroke:#fff;}.cls-18,.cls-19,.cls-20,.cls-9{stroke-width:1.42px;}.cls-10,.cls-12,.cls-13,.cls-14{stroke-width:0.71px;}.cls-11{stroke-width:1.43px;}.cls-14,.cls-15{stroke:#231f20;}.cls-15,.cls-16,.cls-17,.cls-24{stroke-width:1.06px;}.cls-17,.cls-19,.cls-20,.cls-24{stroke:#b7ddba;}.cls-17,.cls-18,.cls-22,.cls-24,.cls-25{stroke-linecap:round;stroke-linejoin:round;}.cls-18{fill:#f26342;}.cls-21{clip-path:url(#clip-path-2);}.cls-22{fill:#fee7a2;}.cls-22,.cls-25{stroke-width:1.77px;}.cls-23{stroke-width:2.84px;}.cls-25{fill:#eac2dc;}.cls-26{font-size:25.53px;font-family:Averta-Semibold, Averta;font-weight:700;}</style><clipPath id="clip-path"><rect class="cls-1" x="0.14" y="0.15" width="321.84" height="350.64" transform="translate(322.11 350.94) rotate(-180)"/></clipPath><clipPath id="clip-path-2"><circle class="cls-1" cx="187.34" cy="193" r="77.74"/></clipPath></defs><title>Artboard 1FINDUS_corner</title><g class="cls-2"><path class="cls-3" d="M54.81,85.87,173,11.73c50.38-27.41,98.58,42.18,142.88,41.14,3.26-.08,6.31,24.61,6,62.07h3.66V356.27H244.11v-4.33H109c-32.5-12-94.64-40.88-105.17-131.06C-1.25,177.64,35.79,130.28,54.81,85.87Z"/></g><path class="cls-4" d="M155.16,154.36a12,12,0,0,1-1.37-2.26,5.85,5.85,0,0,1,.26-1.55c.6-1.86,2-2.83,2.27-4.75a6.07,6.07,0,0,1,1.12-3.19c1.16-1.25,3.78-.56,4.45-2.12a3.83,3.83,0,0,0,.2-1,5.31,5.31,0,0,1,5.49-4.32,1,1,0,0,1,.61.21c.12.12-.09.33,0,.49.4,1.41,0,2.8-.22,4.25a5.16,5.16,0,0,0,1.25,4.2c1.06,1,2.76,1.08,4.22.77.54-.11,1.23-.19,1.5.29s-.09,1,0,1.46c.08.29-.63.6-.42.82.9.92,2.41,2.09,2.38,3.37a3.89,3.89,0,0,1-1.81,3.23c-1,.61-1.51,1.26-2.7,1.29-4,.09-8.66-.42-12.62-.33C157.81,155.32,156.45,155.83,155.16,154.36Z"/><rect class="cls-5" x="110.4" y="204" width="160.62" height="12.41"/><rect class="cls-3" x="109.51" y="198.85" width="156.98" height="28.99"/><polygon class="cls-6" points="153.37 228.35 137.79 228.35 138.68 220.19 153.37 220.19 153.37 228.35"/><polygon class="cls-7" points="153.07 220.93 138.59 220.93 138.59 216.76 151.83 216.76 153.07 220.93"/><path class="cls-4" d="M247.4,216.71a11,11,0,0,1,1.29-4.55,9,9,0,0,1,4.19-4.59,5.57,5.57,0,0,1,5.78,1A26.75,26.75,0,0,0,261,211a1.67,1.67,0,0,1,.54.48,1.36,1.36,0,0,1,.12.75,8.16,8.16,0,0,1-1.16,4.51Z"/><path class="cls-4" d="M220.13,216.77a10.78,10.78,0,0,1,2.18-5.85c1.14-1.69,2.64-3.35,4.64-3.69a5.6,5.6,0,0,1,3.88.92,12.4,12.4,0,0,1,2.92,2.82,9.11,9.11,0,0,1,.91,1.32c.76,1.4.9,3.08,1.67,4.47Z"/><path class="cls-4" d="M192.83,216.65A10.7,10.7,0,0,1,195,210.8c1.14-1.69,2.64-3.35,4.64-3.69a5.66,5.66,0,0,1,3.88.93,12.56,12.56,0,0,1,2.92,2.81,10,10,0,0,1,.91,1.32c.76,1.4.9,3.08,1.67,4.47Z"/><polygon class="cls-3" points="238.84 228.35 218.63 228.35 219.16 220.19 237.33 220.19 238.84 228.35"/><polygon class="cls-8" points="237.95 220.93 219.16 220.93 220.32 216.76 236.45 216.76 237.95 220.93"/><polygon class="cls-8" points="210.65 220.93 191.86 220.93 193.02 216.76 209.15 216.76 210.65 220.93"/><polygon class="cls-3" points="266.05 228.35 245.84 228.35 246.37 220.19 264.55 220.19 266.05 228.35"/><polygon class="cls-8" points="265.17 220.93 246.37 220.93 247.54 216.76 263.66 216.76 265.17 220.93"/><rect class="cls-3" x="115.01" y="220.19" width="15.58" height="8.17"/><path class="cls-4" d="M113.32,214.19a8.23,8.23,0,0,1,1.26-2.51,11.54,11.54,0,0,1,4.18-3.75,6.78,6.78,0,0,1,2.67-.51,3.69,3.69,0,0,1,1.8.37,8.36,8.36,0,0,1,1.73,1.78c.42.46.93.84,1.31,1.33a7,7,0,0,1,.77,1.36c.67,1.4,1.25,2.86,1.91,4.26h-7.62C119.09,216.52,112.32,218.27,113.32,214.19Z"/><rect class="cls-4" x="113.35" y="113.58" width="148.21" height="55.08"/><rect class="cls-9" x="172.85" y="149.63" width="91.95" height="44.79"/><rect class="cls-9" x="108.98" y="169.25" width="25.17" height="25"/><polygon class="cls-8" points="130.29 220.93 114.3 220.93 114.3 216.76 128.93 216.76 130.29 220.93"/><rect class="cls-9" x="109.51" y="194.42" width="155.83" height="4.43"/><rect class="cls-10" x="191.55" y="155.54" width="33.81" height="3.42"/><rect class="cls-10" x="232.88" y="155.36" width="22.63" height="3.36"/><rect class="cls-10" x="177.26" y="155.3" width="7.6" height="3.55"/><path class="cls-11" d="M117.61,227.87h139a97.08,97.08,0,0,1-24.25,28.21c-21.57,17-63.71,25.27-98.42-5C126.34,244.48,125.44,238.84,117.61,227.87Z"/><path class="cls-4" d="M216.55,175.69c-1.23-.31-.78-1.44-1.07-2.67s-1.14-2.4-.4-3.56a4.13,4.13,0,0,1,1-1.23c.28-.2.61-.33.89-.53,1-.72,1.1-2.12,1.07-3.33s-.07-2.58.76-3.47a15.52,15.52,0,0,1,1.61-1.14,4.93,4.93,0,0,1,2.61-1.06,2.1,2.1,0,0,0,1.65-.81,4.16,4.16,0,0,0,.32-1.73,5.77,5.77,0,0,1,2.87-4.34,7.94,7.94,0,0,1,5.49-.92c.2,2.44-.51,4.91-.41,7.6.05,1.6-.43,3.41.66,4.57s2.64,1.07,4.06.86a21.11,21.11,0,0,0,3.53-1.37c-.36,1.56-.93,4.73.64,5,1.28.25.9.51,1,.88a6,6,0,0,1,.51,1.85c.12,1.88,0,4.18-1.61,5.1a4.86,4.86,0,0,1-2.07.47,109.75,109.75,0,0,1-12.3.28c-2-.06-4.05-.2-6.07-.36C219.77,175.69,218.12,176.08,216.55,175.69Z"/><rect class="cls-10" x="125.27" y="174.97" width="3.45" height="15.87"/><rect class="cls-9" x="134.15" y="155.71" width="42.97" height="38.71"/><rect class="cls-10" x="142.4" y="160.21" width="5.14" height="24.92"/><rect class="cls-10" x="165.09" y="160.21" width="5.41" height="17.48"/><line class="cls-12" x1="142.13" y1="163.58" x2="147.81" y2="163.58"/><line class="cls-12" x1="142.31" y1="167.03" x2="147.54" y2="167.03"/><line class="cls-12" x1="142.31" y1="170.58" x2="147.54" y2="170.58"/><line class="cls-12" x1="142.22" y1="174.12" x2="147.45" y2="174.12"/><line class="cls-12" x1="142.31" y1="177.58" x2="147.63" y2="177.58"/><line class="cls-12" x1="142.4" y1="181.22" x2="147.36" y2="181.22"/><line class="cls-13" x1="165.18" y1="163.66" x2="170.41" y2="163.66"/><line class="cls-13" x1="164.91" y1="166.94" x2="170.59" y2="166.94"/><line class="cls-13" x1="165" y1="170.67" x2="170.67" y2="170.67"/><line class="cls-13" x1="165" y1="174.04" x2="170.59" y2="174.04"/><line class="cls-12" x1="179.01" y1="155.6" x2="179.01" y2="158.88"/><line class="cls-12" x1="183.53" y1="155.42" x2="183.53" y2="158.97"/><line class="cls-12" x1="197.62" y1="155.6" x2="197.62" y2="159.05"/><line class="cls-12" x1="202.67" y1="155.69" x2="202.67" y2="158.88"/><line class="cls-13" x1="207.28" y1="155.6" x2="207.28" y2="158.97"/><line class="cls-12" x1="212.25" y1="155.6" x2="212.25" y2="158.88"/><line class="cls-12" x1="216.68" y1="155.6" x2="216.68" y2="158.97"/><line class="cls-12" x1="221.2" y1="155.6" x2="221.2" y2="158.88"/><line class="cls-12" x1="240.17" y1="155.6" x2="240.17" y2="158.61"/><line class="cls-12" x1="244.69" y1="155.6" x2="244.69" y2="158.88"/><line class="cls-12" x1="249.83" y1="155.6" x2="249.83" y2="158.88"/><line class="cls-14" x1="169.26" y1="183.52" x2="169.26" y2="187.86"/><line class="cls-14" x1="173.87" y1="183.61" x2="173.87" y2="187.86"/><line class="cls-14" x1="179.1" y1="183.52" x2="179.1" y2="187.86"/><line class="cls-14" x1="183.53" y1="183.61" x2="183.53" y2="187.86"/><polygon class="cls-3" points="262.77 183.61 262.77 187.95 259.23 187.95 259.23 187.77 259.23 183.61 262.77 183.61"/><polygon class="cls-3" points="259.23 187.77 259.23 187.95 254.44 187.95 254.44 187.69 254.44 183.61 259.23 183.61 259.23 187.77"/><polygon class="cls-3" points="254.44 187.69 254.44 187.95 249.74 187.95 249.74 183.7 249.74 183.61 254.44 183.61 254.44 187.69"/><polygon class="cls-3" points="249.74 183.7 249.74 187.95 244.78 187.95 244.78 187.69 244.78 183.61 249.74 183.61 249.74 183.7"/><polygon class="cls-3" points="244.78 187.69 244.78 187.95 240.08 187.95 240.08 187.6 240.08 183.61 244.78 183.61 244.78 187.69"/><polygon class="cls-3" points="240.08 187.6 240.08 187.95 235.47 187.95 235.47 187.77 235.47 183.61 240.08 183.61 240.08 187.6"/><polygon class="cls-3" points="235.47 187.77 235.47 187.95 230.86 187.95 230.86 183.61 235.47 183.61 235.47 187.77"/><polygon class="cls-3" points="230.86 183.61 230.86 187.95 226.34 187.95 226.34 187.86 226.34 183.61 230.86 183.61"/><polygon class="cls-3" points="226.34 187.86 226.34 187.95 221.29 187.95 221.29 187.77 221.29 183.61 226.34 183.61 226.34 187.86"/><polygon class="cls-3" points="221.29 187.77 221.29 187.95 216.59 187.95 216.59 187.86 216.59 183.61 221.29 183.61 221.29 187.77"/><polygon class="cls-3" points="216.59 187.86 216.59 187.95 212.07 187.95 212.07 183.61 216.59 183.61 216.59 187.86"/><polygon class="cls-3" points="212.07 183.61 212.07 187.95 207.1 187.95 207.1 187.86 207.1 183.61 212.07 183.61"/><polygon class="cls-3" points="207.1 187.86 207.1 187.95 202.67 187.95 202.67 187.77 202.67 183.61 207.1 183.61 207.1 187.86"/><polygon class="cls-3" points="202.67 187.77 202.67 187.95 197.62 187.95 197.62 187.77 197.62 183.61 202.67 183.61 202.67 187.77"/><polygon class="cls-3" points="197.62 187.77 197.62 187.95 192.92 187.95 192.92 187.77 192.92 183.61 197.62 183.61 197.62 187.77"/><polygon class="cls-3" points="192.92 187.77 192.92 187.95 188.14 187.95 188.14 183.61 192.92 183.61 192.92 187.77"/><rect class="cls-3" x="164.56" y="183.61" width="23.58" height="4.34"/><polygon class="cls-12" points="259.23 183.61 262.77 183.61 262.77 187.95 259.23 187.95 254.44 187.95 249.74 187.95 244.78 187.95 240.08 187.95 235.47 187.95 230.86 187.95 226.34 187.95 221.29 187.95 216.59 187.95 212.07 187.95 207.1 187.95 202.67 187.95 197.62 187.95 192.92 187.95 188.14 187.95 164.56 187.95 164.56 183.61 188.14 183.61 192.92 183.61 197.62 183.61 202.67 183.61 207.1 183.61 212.07 183.61 216.59 183.61 221.29 183.61 226.34 183.61 230.86 183.61 235.47 183.61 240.08 183.61 244.78 183.61 249.74 183.61 254.44 183.61 259.23 183.61"/><polyline class="cls-12" points="188.14 183.52 188.14 183.61 188.14 187.95 188.14 188.04"/><polyline class="cls-12" points="192.92 183.52 192.92 183.61 192.92 187.77"/><line class="cls-12" x1="197.62" y1="183.61" x2="197.62" y2="187.77"/><polyline class="cls-12" points="202.67 183.52 202.67 183.61 202.67 187.77"/><line class="cls-12" x1="207.11" y1="183.61" x2="207.11" y2="187.86"/><line class="cls-12" x1="212.07" y1="183.61" x2="212.07" y2="187.95"/><line class="cls-12" x1="216.59" y1="183.61" x2="216.59" y2="187.86"/><polyline class="cls-12" points="221.29 183.52 221.29 183.61 221.29 187.77"/><line class="cls-12" x1="226.34" y1="183.61" x2="226.34" y2="187.86"/><line class="cls-12" x1="230.86" y1="183.61" x2="230.86" y2="187.95"/><polyline class="cls-12" points="235.47 183.52 235.47 183.61 235.47 187.77"/><line class="cls-12" x1="240.08" y1="183.61" x2="240.08" y2="187.6"/><line class="cls-12" x1="244.78" y1="183.61" x2="244.78" y2="187.69"/><polyline class="cls-12" points="249.74 183.7 249.74 187.95 249.74 188.13"/><polyline class="cls-12" points="254.44 183.43 254.44 183.61 254.44 187.69"/><line class="cls-12" x1="259.23" y1="183.61" x2="259.23" y2="187.77"/><path class="cls-15" d="M164,227.35s.79-21.29,9.53-20.58,10.59,20.58,10.59,20.58"/><line class="cls-16" x1="120.68" y1="230.23" x2="254.17" y2="230.23"/><line class="cls-16" x1="122.1" y1="233.07" x2="253.11" y2="233.07"/><line class="cls-16" x1="124.05" y1="236.44" x2="250.27" y2="236.44"/><line class="cls-16" x1="126.35" y1="239.81" x2="247.44" y2="239.81"/><line class="cls-16" x1="244.25" y1="244.24" x2="129.37" y2="244.24"/><line class="cls-16" x1="239.64" y1="249.03" x2="134.51" y2="249.03"/><line class="cls-16" x1="233.43" y1="253.99" x2="141.07" y2="253.99"/><line class="cls-16" x1="225.63" y1="259.49" x2="149.05" y2="259.49"/><line class="cls-16" x1="213.75" y1="265.34" x2="157.02" y2="265.34"/><line class="cls-14" x1="235.56" y1="155.6" x2="235.56" y2="158.61"/><path class="cls-17" d="M172.7,140.29s.74-5.85,5.5-8"/><path class="cls-3" d="M186.85,307.83a115,115,0,1,1,44.89-9.07A114.62,114.62,0,0,1,186.85,307.83Zm0-193.06a77.74,77.74,0,1,0,55,22.77A77.23,77.23,0,0,0,186.85,114.77Z"/><line class="cls-18" x1="218.11" y1="177.3" x2="240.58" y2="177.55"/><path class="cls-16" d="M218.59,227.88s.78-21.28,9.52-20.57,10.6,20.57,10.6,20.57"/><path class="cls-16" d="M120.68,207.13c8.75.71,10.59,20.58,10.59,20.58"/><path class="cls-16" d="M245.71,227.53s.78-21.29,9.53-20.58"/><path class="cls-16" d="M191.28,227.53s.79-21.29,9.53-20.58,10.6,20.58,10.6,20.58"/><polyline class="cls-16" points="255.41 227.93 211.41 227.93 191.28 227.93 118.38 227.93"/><path class="cls-16" d="M120.81,207.13c-3.28.26-5.73,3.34-7.34,6.94"/><path class="cls-16" d="M255.24,207a6.89,6.89,0,0,1,4.69,2.68,17,17,0,0,1,2.38,3.87"/><rect class="cls-3" x="185.21" y="131.31" width="6.38" height="46.27"/><rect class="cls-4" x="185.03" y="149.68" width="6.65" height="2.57" transform="translate(-33.24 55.24) rotate(-15.35)"/><rect class="cls-4" x="185.03" y="156.47" width="6.65" height="2.57" transform="translate(-35.04 55.48) rotate(-15.35)"/><rect class="cls-4" x="185.03" y="163.26" width="6.65" height="2.57" transform="translate(-36.83 55.72) rotate(-15.35)"/><rect class="cls-4" x="185.03" y="142.89" width="6.65" height="2.57" transform="translate(-31.44 54.99) rotate(-15.35)"/><rect class="cls-4" x="185.03" y="136.1" width="6.65" height="2.57" transform="translate(-29.64 54.75) rotate(-15.35)"/><rect class="cls-4" x="185.03" y="170.05" width="6.65" height="2.57" transform="translate(-38.63 55.96) rotate(-15.35)"/><path class="cls-17" d="M168.32,138.79c-.73-1.79.52-4.5.52-4.5-7.52-1-7.22,6.31-7.22,6.31a4.4,4.4,0,0,0-4.3,1.29,4.91,4.91,0,0,0-1,4.91,4.75,4.75,0,0,0-2.52,3.92,3.69,3.69,0,0,0,2.45,3.48l18,.2a3.82,3.82,0,0,0,2.52-3.59,4.09,4.09,0,0,0-2.7-3.73,3,3,0,0,0,.51-3.4"/><path class="cls-4" d="M241.42,157.39a4.25,4.25,0,0,1-1.81,5.55c-3.08,1.76-7.13.44-7.09-3.5s2.2-5.29,4.17-5.27,1.79,2.74,1.79,2.74l.18-.06C239.2,156.68,240.75,156.32,241.42,157.39Z"/><path class="cls-17" d="M218.11,175.18a4.63,4.63,0,0,1-3.06-4.35A5.91,5.91,0,0,1,218.2,166s-1.3-3.57,1.3-6.12a5.47,5.47,0,0,1,5.35-1.61s-.37-9.16,9-7.86c0,0-1.56,3.38-.65,5.61"/><path class="cls-17" d="M240.58,175.42a4.75,4.75,0,0,0,3.14-4.47,5.1,5.1,0,0,0-3.36-4.65s1.65-1.45.62-4.24"/><path class="cls-17" d="M238.48,156.91s.17-2.72-1.79-2.74-4.14,1.34-4.17,5.27,4,5.26,7.09,3.5a4.25,4.25,0,0,0,1.81-5.55c-.67-1.07-2.22-.71-2.76-.54Z"/><path class="cls-17" d="M238.66,156.85s.92-7.29,6.86-9.94"/><rect class="cls-3" x="134.63" y="212.36" width="14.42" height="14.77"/><rect class="cls-19" x="185.21" y="131.37" width="6.38" height="46.27"/><polygon class="cls-20" points="249.27 169.13 254.94 175.87 261.44 174.33 262.51 178.47 174.22 178.47 169.14 176.81 193.84 170.43 197.74 174.92 225.04 168.19 230 174.33 249.27 169.13"/><circle class="cls-1" cx="187.34" cy="193" r="77.74"/><g class="cls-21"><path class="cls-22" d="M164,177.64m-22,43.78,17.79,70.93,1.16,4.6a3.12,3.12,0,0,0,6,0l18.94-75.53"/></g><circle class="cls-1" cx="187.34" cy="193" r="77.74"/><circle class="cls-23" cx="187.34" cy="193" r="77.74"/><path class="cls-24" d="M172.56,140.34s.14-2.18-1.44-2.2-3.32,1.08-3.35,4.24,3.22,4.21,5.69,2.8a3.4,3.4,0,0,0,1.46-4.45C174.26,139.69,172.56,140.34,172.56,140.34Z"/><path class="cls-25" d="M140.06,209.3c-1.47,1.78-2.3,2.8-2.3,4.88,0,7.86,13.39,9,26.19,9s26.19-1.12,26.19-9c0-2.08-.82-3.1-2.29-4.88a25.09,25.09,0,1,0-47.79,0Zm45.86,11"/><text class="cls-26" transform="translate(108.34 153.31) rotate(-57.38)">H</text><text class="cls-26" transform="translate(119.06 136.83) rotate(-44.77)">A</text><text class="cls-26" transform="translate(132.3 123.72) rotate(-31.98)">N</text><text class="cls-26" transform="translate(149.6 113.07) rotate(-19.05)">D</text><text class="cls-26" transform="matrix(1, -0.09, 0.09, 1, 167.97, 106.56)">M</text><text class="cls-26" transform="matrix(0.99, 0.15, -0.15, 0.99, 191.24, 104.92)">A</text><text class="cls-26" transform="translate(209.69 107.8) rotate(21.21)">D</text><text class="cls-26" transform="matrix(0.84, 0.55, -0.55, 0.84, 227.99, 115.18)">E</text><text class="cls-26" transform="translate(242 124.8) rotate(41.4)"> </text><text class="cls-26" transform="translate(248.47 130.6) rotate(47.45)">I</text><text class="cls-26" transform="translate(254.9 137.04) rotate(57.25)">N</text><text class="cls-26" transform="matrix(0.71, 0.7, -0.7, 0.71, 107.43, 262.18)">B</text><text class="cls-26" transform="translate(122.68 276.29) rotate(35.74)">I</text><text class="cls-26" transform="translate(132.46 283.45) rotate(26.2)">D</text><text class="cls-26" transform="matrix(0.97, 0.23, -0.23, 0.97, 153.95, 293.41)">D</text><text class="cls-26" transform="matrix(1, 0.02, -0.02, 1, 176.96, 298.16)">E</text><text class="cls-26" transform="translate(196.99 298.2) rotate(-9.3)">F</text><text class="cls-26" transform="matrix(0.93, -0.36, 0.36, 0.93, 215.88, 295)">O</text><text class="cls-26" transform="matrix(0.83, -0.56, 0.56, 0.83, 239.79, 284.8)">R</text><text class="cls-26" transform="matrix(0.69, -0.73, 0.73, 0.69, 257.38, 272.28)">D</text><ellipse class="cls-4" cx="173.38" cy="150.68" rx="3" ry="3.1"/></svg>