<svg id="Layer_1" data-name="Layer 1" xmlns="http://www.w3.org/2000/svg" xmlns:xlink="http://www.w3.org/1999/xlink" viewBox="0 0 318.49 423.41"><defs><style>.cls-1,.cls-11,.cls-13,.cls-14,.cls-15,.cls-16,.cls-18,.cls-22{fill:none;}.cls-12,.cls-19,.cls-2,.cls-23,.cls-25{fill:#fff;}.cls-3{fill:#7f8081;}.cls-10,.cls-4,.cls-7,.cls-8,.cls-9{fill:#b7ddba;}.cls-5{fill:#6a92c7;}.cls-6{fill:#485ea4;}.cls-17,.cls-6{stroke:#010101;}.cls-10,.cls-11,.cls-12,.cls-13,.cls-14,.cls-15,.cls-18,.cls-19,.cls-22,.cls-6,.cls-7,.cls-8,.cls-9{stroke-miterlimit:10;}.cls-6,.cls-7{stroke-width:0.35px;}.cls-10,.cls-11,.cls-12,.cls-15,.cls-21,.cls-22,.cls-24,.cls-7,.cls-8,.cls-9{stroke:#fff;}.cls-17,.cls-18,.cls-19,.cls-8{stroke-width:1.42px;}.cls-11,.cls-12,.cls-13,.cls-9{stroke-width:0.71px;}.cls-10{stroke-width:1.43px;}.cls-13,.cls-14{stroke:#231f20;}.cls-14,.cls-15,.cls-16,.cls-23{stroke-width:1.06px;}.cls-16,.cls-18,.cls-19,.cls-23{stroke:#b7ddba;}.cls-16,.cls-17,.cls-21,.cls-23,.cls-24{stroke-linecap:round;stroke-linejoin:round;}.cls-17{fill:#f26342;}.cls-20{clip-path:url(#clip-path);}.cls-21{fill:#fee7a2;}.cls-21,.cls-24{stroke-width:1.77px;}.cls-22{stroke-width:2.84px;}.cls-24{fill:#eac2dc;}.cls-25{font-size:25.53px;font-family:Averta-Semibold, Averta;font-weight:700;}</style><clipPath id="clip-path" transform="translate(0 0)"><circle class="cls-1" cx="164.82" cy="195.9" r="77.74"/></clipPath></defs><title>Untitled-22findus_corner</title><path class="cls-2" d="M51.47,80.54c-19,44.41-56,91.77-51,135,16.23,139,155,132.28,119,142.9s-117.79,21-88.08,29.2C97,405.74,209.23,445.48,239,407.58c91.84-117,83.74-360.29,73.52-360C268.19,48.57,220-21,169.62,6.4" transform="translate(0 0)"/><path class="cls-2" d="M132.65,157.25a12,12,0,0,1-1.38-2.26,5.93,5.93,0,0,1,.27-1.55c.6-1.85,2-2.82,2.26-4.74a6,6,0,0,1,1.13-3.2c1.15-1.25,3.78-.56,4.45-2.12a4.36,4.36,0,0,0,.19-.94,5.34,5.34,0,0,1,5.49-4.33,1,1,0,0,1,.62.21c.12.12-.09.33-.05.49.4,1.41,0,2.8-.22,4.26a5.15,5.15,0,0,0,1.25,4.19c1.06,1.05,2.76,1.09,4.22.78.54-.12,1.24-.2,1.51.28s-.09,1,0,1.46c.08.29-.62.61-.41.82.89.92,2.41,2.09,2.38,3.38a3.93,3.93,0,0,1-1.81,3.23c-1,.6-1.52,1.25-2.7,1.28-4,.09-8.67-.42-12.62-.32C135.3,158.21,133.94,158.72,132.65,157.25Z" transform="translate(0 0)"/><rect class="cls-3" x="87.88" y="206.89" width="160.62" height="12.41"/><rect class="cls-4" x="87" y="201.75" width="156.98" height="28.99"/><polygon class="cls-5" points="130.86 231.25 115.27 231.25 116.16 223.08 130.86 223.08 130.86 231.25"/><polygon class="cls-6" points="130.55 223.83 116.07 223.83 116.07 219.65 129.32 219.65 130.55 223.83"/><path class="cls-2" d="M224.88,219.6a11,11,0,0,1,1.3-4.55,8.93,8.93,0,0,1,4.19-4.59,5.58,5.58,0,0,1,5.78,1,26.77,26.77,0,0,0,2.35,2.41,1.66,1.66,0,0,1,.55.47,1.37,1.37,0,0,1,.11.75,8.07,8.07,0,0,1-1.16,4.51Z" transform="translate(0 0)"/><path class="cls-2" d="M197.61,219.66a10.79,10.79,0,0,1,2.19-5.85c1.14-1.68,2.63-3.35,4.64-3.69a5.62,5.62,0,0,1,3.87.93,12.18,12.18,0,0,1,2.92,2.81,9.18,9.18,0,0,1,.92,1.32c.76,1.4.89,3.08,1.66,4.47Z" transform="translate(0 0)"/><path class="cls-2" d="M170.31,219.55a10.75,10.75,0,0,1,2.19-5.86c1.13-1.68,2.63-3.35,4.64-3.68a5.56,5.56,0,0,1,3.87.92,12.18,12.18,0,0,1,2.92,2.81,10,10,0,0,1,.92,1.32c.76,1.4.89,3.08,1.66,4.47Z" transform="translate(0 0)"/><polygon class="cls-4" points="216.32 231.25 196.11 231.25 196.65 223.08 214.82 223.08 216.32 231.25"/><polygon class="cls-7" points="215.44 223.83 196.65 223.83 197.81 219.65 213.94 219.65 215.44 223.83"/><polygon class="cls-7" points="188.14 223.83 169.34 223.83 170.51 219.65 186.63 219.65 188.14 223.83"/><polygon class="cls-4" points="243.54 231.25 223.33 231.25 223.86 223.08 242.03 223.08 243.54 231.25"/><polygon class="cls-7" points="242.65 223.83 223.86 223.83 225.02 219.65 241.15 219.65 242.65 223.83"/><rect class="cls-4" x="92.49" y="223.08" width="15.58" height="8.17"/><path class="cls-2" d="M90.81,217.08a8,8,0,0,1,1.25-2.51,11.66,11.66,0,0,1,4.19-3.75,7.16,7.16,0,0,1,2.67-.51,3.59,3.59,0,0,1,1.8.38,7.82,7.82,0,0,1,1.72,1.77c.43.46.93.84,1.32,1.34a7.48,7.48,0,0,1,.77,1.35c.66,1.41,1.24,2.86,1.91,4.27H98.82C96.58,219.42,89.8,221.16,90.81,217.08Z" transform="translate(0 0)"/><rect class="cls-2" x="90.84" y="116.47" width="148.21" height="55.08"/><rect class="cls-8" x="150.33" y="152.52" width="91.95" height="44.79"/><rect class="cls-8" x="86.47" y="172.14" width="25.17" height="25"/><polygon class="cls-7" points="107.77 223.83 91.78 223.83 91.78 219.65 106.41 219.65 107.77 223.83"/><rect class="cls-8" x="87" y="197.32" width="155.83" height="4.43"/><rect class="cls-9" x="169.04" y="158.43" width="33.81" height="3.42"/><rect class="cls-9" x="210.37" y="158.26" width="22.63" height="3.36"/><rect class="cls-9" x="154.74" y="158.2" width="7.6" height="3.55"/><path class="cls-10" d="M95.09,230.76h139A96.94,96.94,0,0,1,209.84,259c-21.58,17-63.71,25.27-98.42-5C103.82,247.37,102.93,241.74,95.09,230.76Z" transform="translate(0 0)"/><path class="cls-2" d="M194,178.58c-1.22-.31-.78-1.44-1.06-2.67s-1.14-2.4-.4-3.56a4.23,4.23,0,0,1,1-1.23c.29-.2.62-.33.9-.53,1-.72,1.1-2.12,1.07-3.33s-.07-2.58.76-3.46a13.2,13.2,0,0,1,1.6-1.14,5.06,5.06,0,0,1,2.62-1.07,2.12,2.12,0,0,0,1.65-.81,4,4,0,0,0,.31-1.73,5.79,5.79,0,0,1,2.87-4.33,8,8,0,0,1,5.49-.93c.21,2.44-.5,4.91-.41,7.61,0,1.59-.43,3.4.66,4.56s2.64,1.08,4.07.86a20.6,20.6,0,0,0,3.53-1.37c-.36,1.56-.94,4.73.64,5,1.27.25.9.52,1,.88a6.05,6.05,0,0,1,.51,1.86c.12,1.88,0,4.17-1.62,5.09a5,5,0,0,1-2.06.48,112.18,112.18,0,0,1-12.3.28c-2-.07-4.05-.2-6.07-.37C197.26,178.58,195.6,179,194,178.58Z" transform="translate(0 0)"/><rect class="cls-9" x="102.76" y="177.86" width="3.45" height="15.87"/><rect class="cls-8" x="111.64" y="158.6" width="42.97" height="38.71"/><rect class="cls-9" x="119.88" y="163.1" width="5.14" height="24.92"/><rect class="cls-9" x="142.58" y="163.1" width="5.41" height="17.48"/><line class="cls-11" x1="119.62" y1="166.47" x2="125.29" y2="166.47"/><line class="cls-11" x1="119.79" y1="169.93" x2="125.02" y2="169.93"/><line class="cls-11" x1="119.79" y1="173.47" x2="125.02" y2="173.47"/><line class="cls-11" x1="119.71" y1="177.02" x2="124.94" y2="177.02"/><line class="cls-11" x1="119.79" y1="180.47" x2="125.11" y2="180.47"/><line class="cls-11" x1="119.88" y1="184.11" x2="124.85" y2="184.11"/><line class="cls-12" x1="142.66" y1="166.56" x2="147.89" y2="166.56"/><line class="cls-12" x1="142.4" y1="169.84" x2="148.07" y2="169.84"/><line class="cls-12" x1="142.49" y1="173.56" x2="148.16" y2="173.56"/><line class="cls-12" x1="142.49" y1="176.93" x2="148.07" y2="176.93"/><line class="cls-11" x1="156.49" y1="158.49" x2="156.49" y2="161.77"/><line class="cls-11" x1="161.01" y1="158.31" x2="161.01" y2="161.86"/><line class="cls-11" x1="175.11" y1="158.49" x2="175.11" y2="161.95"/><line class="cls-11" x1="180.16" y1="158.58" x2="180.16" y2="161.77"/><line class="cls-12" x1="184.77" y1="158.49" x2="184.77" y2="161.86"/><line class="cls-11" x1="189.73" y1="158.49" x2="189.73" y2="161.77"/><line class="cls-11" x1="194.16" y1="158.49" x2="194.16" y2="161.86"/><line class="cls-11" x1="198.68" y1="158.49" x2="198.68" y2="161.77"/><line class="cls-11" x1="217.65" y1="158.49" x2="217.65" y2="161.5"/><line class="cls-11" x1="222.17" y1="158.49" x2="222.17" y2="161.77"/><line class="cls-11" x1="227.32" y1="158.49" x2="227.32" y2="161.77"/><line class="cls-13" x1="146.74" y1="186.41" x2="146.74" y2="190.76"/><line class="cls-13" x1="151.35" y1="186.5" x2="151.35" y2="190.76"/><line class="cls-13" x1="156.58" y1="186.41" x2="156.58" y2="190.76"/><line class="cls-13" x1="161.01" y1="186.5" x2="161.01" y2="190.76"/><polygon class="cls-4" points="240.26 186.5 240.26 190.85 236.71 190.85 236.71 190.67 236.71 186.5 240.26 186.5"/><polygon class="cls-4" points="236.71 190.67 236.71 190.85 231.92 190.85 231.92 190.58 231.92 186.5 236.71 186.5 236.71 190.67"/><polygon class="cls-4" points="231.92 190.58 231.92 190.85 227.23 190.85 227.23 186.59 227.23 186.5 231.92 186.5 231.92 190.58"/><polygon class="cls-4" points="227.23 186.59 227.23 190.85 222.26 190.85 222.26 190.58 222.26 186.5 227.23 186.5 227.23 186.59"/><polygon class="cls-4" points="222.26 190.58 222.26 190.85 217.56 190.85 217.56 190.49 217.56 186.5 222.26 186.5 222.26 190.58"/><polygon class="cls-4" points="217.56 190.49 217.56 190.85 212.96 190.85 212.96 190.67 212.96 186.5 217.56 186.5 217.56 190.49"/><polygon class="cls-4" points="212.96 190.67 212.96 190.85 208.35 190.85 208.35 186.5 212.96 186.5 212.96 190.67"/><polygon class="cls-4" points="208.35 186.5 208.35 190.85 203.82 190.85 203.82 190.76 203.82 186.5 208.35 186.5"/><polygon class="cls-4" points="203.82 190.76 203.82 190.85 198.77 190.85 198.77 190.67 198.77 186.5 203.82 186.5 203.82 190.76"/><polygon class="cls-4" points="198.77 190.67 198.77 190.85 194.07 190.85 194.07 190.76 194.07 186.5 198.77 186.5 198.77 190.67"/><polygon class="cls-4" points="194.07 190.76 194.07 190.85 189.55 190.85 189.55 186.5 194.07 186.5 194.07 190.76"/><polygon class="cls-4" points="189.55 186.5 189.55 190.85 184.59 190.85 184.59 190.76 184.59 186.5 189.55 186.5"/><polygon class="cls-4" points="184.59 190.76 184.59 190.85 180.16 190.85 180.16 190.67 180.16 186.5 184.59 186.5 184.59 190.76"/><polygon class="cls-4" points="180.16 190.67 180.16 190.85 175.1 190.85 175.1 190.67 175.1 186.5 180.16 186.5 180.16 190.67"/><polygon class="cls-4" points="175.1 190.67 175.1 190.85 170.41 190.85 170.41 190.67 170.41 186.5 175.1 186.5 175.1 190.67"/><polygon class="cls-4" points="170.41 190.67 170.41 190.85 165.62 190.85 165.62 186.5 170.41 186.5 170.41 190.67"/><rect class="cls-4" x="142.04" y="186.5" width="23.58" height="4.34"/><polygon class="cls-11" points="236.71 186.5 240.26 186.5 240.26 190.85 236.71 190.85 231.92 190.85 227.23 190.85 222.26 190.85 217.56 190.85 212.96 190.85 208.35 190.85 203.82 190.85 198.77 190.85 194.07 190.85 189.55 190.85 184.59 190.85 180.16 190.85 175.1 190.85 170.41 190.85 165.62 190.85 142.04 190.85 142.04 186.5 165.62 186.5 170.41 186.5 175.1 186.5 180.16 186.5 184.59 186.5 189.55 186.5 194.07 186.5 198.77 186.5 203.82 186.5 208.35 186.5 212.96 186.5 217.56 186.5 222.26 186.5 227.23 186.5 231.92 186.5 236.71 186.5"/><polyline class="cls-11" points="165.62 186.41 165.62 186.5 165.62 190.85 165.62 190.94"/><polyline class="cls-11" points="170.41 186.41 170.41 186.5 170.41 190.67"/><line class="cls-11" x1="175.11" y1="186.5" x2="175.11" y2="190.67"/><polyline class="cls-11" points="180.16 186.41 180.16 186.5 180.16 190.67"/><line class="cls-11" x1="184.59" y1="186.5" x2="184.59" y2="190.76"/><line class="cls-11" x1="189.55" y1="186.5" x2="189.55" y2="190.85"/><line class="cls-11" x1="194.07" y1="186.5" x2="194.07" y2="190.76"/><polyline class="cls-11" points="198.77 186.41 198.77 186.5 198.77 190.67"/><line class="cls-11" x1="203.83" y1="186.5" x2="203.83" y2="190.76"/><line class="cls-11" x1="208.35" y1="186.5" x2="208.35" y2="190.85"/><polyline class="cls-11" points="212.96 186.41 212.96 186.5 212.96 190.67"/><line class="cls-11" x1="217.56" y1="186.5" x2="217.56" y2="190.49"/><line class="cls-11" x1="222.26" y1="186.5" x2="222.26" y2="190.58"/><polyline class="cls-11" points="227.23 186.59 227.23 190.85 227.23 191.02"/><polyline class="cls-11" points="231.92 186.32 231.92 186.5 231.92 190.58"/><line class="cls-11" x1="236.71" y1="186.5" x2="236.71" y2="190.67"/><path class="cls-14" d="M141.47,230.25s.78-21.29,9.53-20.58,10.59,20.58,10.59,20.58" transform="translate(0 0)"/><line class="cls-15" x1="98.17" y1="233.13" x2="231.66" y2="233.13"/><line class="cls-15" x1="99.58" y1="235.96" x2="230.6" y2="235.96"/><line class="cls-15" x1="101.53" y1="239.33" x2="227.76" y2="239.33"/><line class="cls-15" x1="103.84" y1="242.7" x2="224.92" y2="242.7"/><line class="cls-15" x1="221.73" y1="247.13" x2="106.85" y2="247.13"/><line class="cls-15" x1="217.12" y1="251.92" x2="111.99" y2="251.92"/><line class="cls-15" x1="210.92" y1="256.88" x2="118.55" y2="256.88"/><line class="cls-15" x1="203.12" y1="262.38" x2="126.53" y2="262.38"/><line class="cls-15" x1="191.24" y1="268.23" x2="134.51" y2="268.23"/><line class="cls-13" x1="213.04" y1="158.49" x2="213.04" y2="161.5"/><path class="cls-16" d="M150.19,143.18s.74-5.85,5.5-8" transform="translate(0 0)"/><path class="cls-4" d="M164.33,310.73a115,115,0,1,1,44.9-9.07A114.57,114.57,0,0,1,164.33,310.73Zm0-193.07a77.74,77.74,0,1,0,55,22.77A77.25,77.25,0,0,0,164.33,117.66Z" transform="translate(0 0)"/><line class="cls-17" x1="195.6" y1="180.2" x2="218.07" y2="180.44"/><path class="cls-15" d="M196.07,230.78s.78-21.29,9.53-20.58,10.59,20.58,10.59,20.58" transform="translate(0 0)"/><path class="cls-15" d="M98.17,210c8.74.71,10.59,20.58,10.59,20.58" transform="translate(0 0)"/><path class="cls-15" d="M223.19,230.42s.79-21.29,9.53-20.58" transform="translate(0 0)"/><path class="cls-15" d="M168.77,230.42s.78-21.29,9.53-20.58,10.59,20.58,10.59,20.58" transform="translate(0 0)"/><polyline class="cls-15" points="232.9 230.82 188.89 230.82 168.77 230.82 95.86 230.82"/><path class="cls-15" d="M98.3,210c-3.28.27-5.74,3.35-7.34,6.94" transform="translate(0 0)"/><path class="cls-15" d="M232.72,209.84a6.89,6.89,0,0,1,4.69,2.68,16.63,16.63,0,0,1,2.38,3.87" transform="translate(0 0)"/><rect class="cls-4" x="162.7" y="134.2" width="6.38" height="46.27"/><rect class="cls-2" x="162.52" y="152.57" width="6.65" height="2.57" transform="translate(-34.81 49.38) rotate(-15.35)"/><rect class="cls-2" x="162.52" y="159.36" width="6.65" height="2.57" transform="translate(-36.61 49.62) rotate(-15.35)"/><rect class="cls-2" x="162.52" y="166.16" width="6.65" height="2.57" transform="translate(-38.4 49.87) rotate(-15.35)"/><rect class="cls-2" x="162.52" y="145.78" width="6.65" height="2.57" transform="translate(-33.01 49.14) rotate(-15.35)"/><rect class="cls-2" x="162.52" y="138.99" width="6.65" height="2.57" transform="translate(-31.21 48.9) rotate(-15.35)"/><rect class="cls-2" x="162.52" y="172.95" width="6.65" height="2.57" transform="translate(-40.2 50.11) rotate(-15.35)"/><path class="cls-16" d="M145.8,141.69c-.73-1.8.52-4.51.52-4.51-7.51-1-7.22,6.31-7.22,6.31a4.37,4.37,0,0,0-4.29,1.3,4.89,4.89,0,0,0-1,4.9,4.77,4.77,0,0,0-2.53,3.92,3.72,3.72,0,0,0,2.46,3.49l18,.2a3.83,3.83,0,0,0,2.52-3.6,4.08,4.08,0,0,0-2.7-3.72,3.05,3.05,0,0,0,.5-3.41" transform="translate(0 0)"/><path class="cls-2" d="M218.91,160.28a4.25,4.25,0,0,1-1.82,5.55c-3.08,1.76-7.12.44-7.09-3.49s2.21-5.3,4.17-5.28S216,159.8,216,159.8,218.09,159,218.91,160.28Z" transform="translate(0 0)"/><path class="cls-16" d="M195.6,178.07a4.63,4.63,0,0,1-3.06-4.35,5.91,5.91,0,0,1,3.14-4.88s-1.29-3.56,1.3-6.11a5.48,5.48,0,0,1,5.36-1.62s-.37-9.15,9-7.86c0,0-1.56,3.38-.65,5.62" transform="translate(0 0)"/><path class="cls-16" d="M218.07,178.32a4.77,4.77,0,0,0,3.13-4.48,5.08,5.08,0,0,0-3.36-4.64,3.8,3.8,0,0,0,.63-4.24" transform="translate(0 0)"/><path class="cls-16" d="M216,159.8s.18-2.72-1.79-2.74-4.13,1.35-4.17,5.28,4,5.25,7.09,3.49a4.25,4.25,0,0,0,1.82-5.55C218.09,159,216,159.8,216,159.8Z" transform="translate(0 0)"/><path class="cls-16" d="M216.15,159.74s.92-7.29,6.85-9.93" transform="translate(0 0)"/><rect class="cls-4" x="112.11" y="215.25" width="14.42" height="14.77"/><rect class="cls-18" x="162.7" y="134.26" width="6.38" height="46.27"/><polygon class="cls-19" points="226.75 172.02 232.43 178.76 238.93 177.22 239.99 181.36 151.71 181.36 146.62 179.71 171.32 173.32 175.22 177.81 202.53 171.08 207.49 177.22 226.75 172.02"/><circle class="cls-1" cx="164.82" cy="195.9" r="77.74"/><g class="cls-20"><path class="cls-21" d="M141.44,180.54m-22,43.77,17.79,70.93,1.15,4.6a3.12,3.12,0,0,0,6.05,0l18.95-75.53" transform="translate(0 0)"/></g><circle class="cls-1" cx="164.82" cy="195.9" r="77.74"/><circle class="cls-22" cx="164.82" cy="195.9" r="77.74"/><path class="cls-23" d="M150,143.23s.14-2.18-1.44-2.2-3.31,1.08-3.34,4.24,3.21,4.22,5.69,2.81a3.42,3.42,0,0,0,1.45-4.46C151.75,142.58,150,143.23,150,143.23Z" transform="translate(0 0)"/><path class="cls-24" d="M117.54,212.2c-1.47,1.78-2.29,2.79-2.29,4.87,0,7.87,13.39,9,26.19,9s26.19-1.11,26.19-9c0-2.08-.83-3.09-2.3-4.87a25.08,25.08,0,1,0-47.79,0Zm45.87,11.05" transform="translate(0 0)"/><text class="cls-25" transform="translate(85.82 156.21) rotate(-57.38)">H</text><text class="cls-25" transform="translate(96.55 139.73) rotate(-44.77)">A</text><text class="cls-25" transform="matrix(0.85, -0.53, 0.53, 0.85, 109.78, 126.61)">N</text><text class="cls-25" transform="translate(127.08 115.96) rotate(-19.05)">D</text><text class="cls-25" transform="matrix(1, -0.09, 0.09, 1, 145.45, 109.45)">M</text><text class="cls-25" transform="translate(168.73 107.81) rotate(8.73)">A</text><text class="cls-25" transform="translate(187.16 110.69) rotate(21.2)">D</text><text class="cls-25" transform="matrix(0.84, 0.55, -0.55, 0.84, 205.47, 118.08)">E</text><text class="cls-25" transform="translate(219.49 127.7) rotate(41.4)"> </text><text class="cls-25" transform="matrix(0.68, 0.74, -0.74, 0.68, 225.95, 133.49)">I</text><text class="cls-25" transform="matrix(0.54, 0.84, -0.84, 0.54, 232.38, 139.93)">N</text><text class="cls-25" transform="matrix(0.71, 0.7, -0.7, 0.71, 84.92, 265.08)">B</text><text class="cls-25" transform="translate(100.17 279.18) rotate(35.74)">I</text><text class="cls-25" transform="translate(109.95 286.34) rotate(26.2)">D</text><text class="cls-25" transform="matrix(0.97, 0.23, -0.23, 0.97, 131.43, 296.3)">D</text><text class="cls-25" transform="matrix(1, 0.02, -0.02, 1, 154.45, 301.05)">E</text><text class="cls-25" transform="matrix(0.99, -0.16, 0.16, 0.99, 174.47, 301.09)">F</text><text class="cls-25" transform="matrix(0.93, -0.36, 0.36, 0.93, 193.34, 297.9)">O</text><text class="cls-25" transform="translate(217.27 287.69) rotate(-34.35)">R</text><text class="cls-25" transform="translate(234.86 275.17) rotate(-46.57)">D</text><ellipse class="cls-2" cx="150.87" cy="153.58" rx="3" ry="3.1"/></svg>