<svg id="Layer_1" data-name="Layer 1" xmlns="http://www.w3.org/2000/svg" xmlns:xlink="http://www.w3.org/1999/xlink" viewBox="0 0 322.11 350.94"><defs><style>.cls-1,.cls-13,.cls-15,.cls-16,.cls-17,.cls-18,.cls-20,.cls-24{fill:none;}.cls-2{clip-path:url(#clip-path);}.cls-3{fill:#faf9e1;}.cls-14,.cls-21,.cls-25,.cls-27,.cls-4{fill:#fff;}.cls-5{fill:#7f8081;}.cls-10,.cls-11,.cls-12,.cls-6,.cls-9{fill:#e4a88c;}.cls-7{fill:#6a92c7;}.cls-8{fill:#485ea4;}.cls-19,.cls-8{stroke:#010101;}.cls-10,.cls-11,.cls-12,.cls-13,.cls-14,.cls-15,.cls-16,.cls-17,.cls-20,.cls-21,.cls-24,.cls-8,.cls-9{stroke-miterlimit:10;}.cls-8,.cls-9{stroke-width:0.27px;}.cls-10,.cls-11,.cls-12,.cls-13,.cls-14,.cls-17,.cls-23,.cls-24,.cls-26,.cls-9{stroke:#fff;}.cls-10,.cls-19,.cls-20,.cls-21{stroke-width:1.07px;}.cls-11,.cls-13,.cls-14,.cls-15{stroke-width:0.54px;}.cls-12{stroke-width:1.08px;}.cls-15,.cls-16{stroke:#231f20;}.cls-16,.cls-17,.cls-18,.cls-25{stroke-width:0.81px;}.cls-18,.cls-20,.cls-21,.cls-25{stroke:#e4a88c;}.cls-18,.cls-19,.cls-23,.cls-25,.cls-26{stroke-linecap:round;stroke-linejoin:round;}.cls-19{fill:#f26342;}.cls-22{clip-path:url(#clip-path-2);}.cls-23{fill:#fee7a2;stroke-width:1.34px;}.cls-24{stroke-width:2.15px;}.cls-26{fill:#3b2416;stroke-width:1.61px;}.cls-27{font-size:19.35px;font-family:Averta-Semibold, Averta;font-weight:700;}</style><clipPath id="clip-path"><rect class="cls-1" x="0.14" y="0.15" width="321.84" height="350.64"/></clipPath><clipPath id="clip-path-2"><circle class="cls-1" cx="156.48" cy="192.62" r="58.92"/></clipPath></defs><title>Artboard 1ICECREAM_corner</title><g class="cls-2"><path class="cls-3" d="M267.31,85.87,149.16,11.73C98.78-15.68,50.58,53.91,6.28,52.87,3,52.79,0,77.48.32,114.94H-3.33V356.27H78v-4.33H213.14c32.5-12,94.64-40.88,105.17-131.06C323.36,177.64,286.32,130.28,267.31,85.87Z"/></g><path class="cls-4" d="M132.09,163.33a8.88,8.88,0,0,1-1-1.71,4.36,4.36,0,0,1,.2-1.18c.45-1.4,1.49-2.14,1.71-3.59a4.66,4.66,0,0,1,.86-2.43c.87-.94,2.86-.42,3.37-1.6a3,3,0,0,0,.15-.72,4,4,0,0,1,4.16-3.27.72.72,0,0,1,.47.16c.09.08-.07.24,0,.37a7.83,7.83,0,0,1-.17,3.22,3.92,3.92,0,0,0,1,3.18,3.51,3.51,0,0,0,3.2.59c.41-.09.94-.15,1.14.21s-.07.75,0,1.11-.47.46-.31.62c.68.7,1.83,1.58,1.8,2.56a3,3,0,0,1-1.37,2.45c-.77.45-1.15.95-2,1-3,.07-6.57-.32-9.57-.25C134.1,164.06,133.07,164.45,132.09,163.33Z"/><rect class="cls-5" x="98.16" y="200.95" width="121.73" height="9.41"/><rect class="cls-6" x="97.49" y="197.05" width="118.98" height="21.97"/><polygon class="cls-7" points="130.73 219.41 118.92 219.41 119.59 213.22 130.73 213.22 130.73 219.41"/><polygon class="cls-8" points="130.5 213.79 119.53 213.79 119.53 210.63 129.57 210.63 130.5 213.79"/><path class="cls-4" d="M202,210.59a8.41,8.41,0,0,1,1-3.45,6.8,6.8,0,0,1,3.17-3.48,4.2,4.2,0,0,1,4.38.75,20.53,20.53,0,0,0,1.79,1.82,1.3,1.3,0,0,1,.41.36,1,1,0,0,1,.09.57,6.2,6.2,0,0,1-.88,3.42Z"/><path class="cls-4" d="M181.33,210.63A8.2,8.2,0,0,1,183,206.2a5.83,5.83,0,0,1,3.52-2.8,4.28,4.28,0,0,1,2.94.7,9.71,9.71,0,0,1,2.21,2.13,6.93,6.93,0,0,1,.69,1c.58,1.06.68,2.33,1.27,3.38Z"/><path class="cls-4" d="M160.63,210.54a8.21,8.21,0,0,1,1.66-4.43,5.8,5.8,0,0,1,3.52-2.8,4.25,4.25,0,0,1,2.93.7,9.55,9.55,0,0,1,2.22,2.13,6.93,6.93,0,0,1,.69,1c.58,1.06.68,2.33,1.26,3.39Z"/><polygon class="cls-6" points="195.51 219.41 180.19 219.41 180.59 213.22 194.37 213.22 195.51 219.41"/><polygon class="cls-9" points="194.84 213.79 180.59 213.79 181.47 210.63 193.7 210.63 194.84 213.79"/><polygon class="cls-9" points="174.15 213.79 159.9 213.79 160.78 210.63 173.01 210.63 174.15 213.79"/><polygon class="cls-6" points="216.13 219.41 200.82 219.41 201.22 213.22 214.99 213.22 216.13 219.41"/><polygon class="cls-9" points="215.46 213.79 201.22 213.79 202.1 210.63 214.32 210.63 215.46 213.79"/><rect class="cls-6" x="101.66" y="213.22" width="11.81" height="6.19"/><path class="cls-4" d="M100.38,208.68a6.21,6.21,0,0,1,1-1.91,8.79,8.79,0,0,1,3.17-2.84,5.2,5.2,0,0,1,2-.38,2.75,2.75,0,0,1,1.36.28,6.17,6.17,0,0,1,1.31,1.34c.32.35.7.64,1,1a5.2,5.2,0,0,1,.59,1c.5,1.07.94,2.17,1.45,3.24h-5.78C104.75,210.45,99.62,211.77,100.38,208.68Z"/><rect class="cls-4" x="100" y="133.81" width="112.33" height="41.74"/><rect class="cls-10" x="145.49" y="159.75" width="69.69" height="33.95"/><rect class="cls-6" x="97.09" y="174.62" width="19.08" height="18.95"/><polygon class="cls-9" points="113.24 213.79 101.12 213.79 101.12 210.63 112.2 210.63 113.24 213.79"/><rect class="cls-10" x="97.49" y="193.7" width="118.11" height="3.36"/><rect class="cls-11" x="159.67" y="164.23" width="25.62" height="2.6"/><rect class="cls-11" x="191" y="164.09" width="17.15" height="2.55"/><rect class="cls-11" x="148.84" y="164.05" width="5.76" height="2.69"/><path class="cls-12" d="M103.63,219H209a73.39,73.39,0,0,1-18.38,21.38c-16.35,12.91-48.28,19.16-74.59-3.77C110.24,231.63,109.57,227.36,103.63,219Z"/><path class="cls-4" d="M178.61,179.5c-.92-.24-.59-1.1-.8-2s-.87-1.82-.31-2.69a3.12,3.12,0,0,1,.79-.94c.21-.15.46-.25.68-.4a2.94,2.94,0,0,0,.81-2.52,3.59,3.59,0,0,1,.57-2.63,10.67,10.67,0,0,1,1.22-.86,3.75,3.75,0,0,1,2-.81,1.59,1.59,0,0,0,1.25-.62,3,3,0,0,0,.24-1.3,4.39,4.39,0,0,1,2.18-3.29,6,6,0,0,1,4.16-.7c.15,1.85-.38,3.72-.32,5.76.05,1.21-.32,2.58.5,3.46a3.48,3.48,0,0,0,3.09.66,15.91,15.91,0,0,0,2.67-1.05c-.27,1.19-.71,3.59.49,3.82,1,.19.68.39.79.67a4.61,4.61,0,0,1,.38,1.41c.09,1.42,0,3.16-1.22,3.86a3.65,3.65,0,0,1-1.57.36,85.23,85.23,0,0,1-9.32.21c-1.54-.05-3.07-.15-4.6-.27A23.5,23.5,0,0,1,178.61,179.5Z"/><rect class="cls-11" x="109.43" y="178.95" width="2.61" height="12.03"/><rect class="cls-6" x="116.17" y="164.35" width="32.57" height="29.34"/><rect class="cls-11" x="122.42" y="167.76" width="3.9" height="18.89"/><rect class="cls-11" x="139.61" y="167.76" width="4.1" height="13.24"/><line class="cls-13" x1="122.21" y1="170.32" x2="126.51" y2="170.32"/><line class="cls-13" x1="122.35" y1="172.94" x2="126.31" y2="172.94"/><line class="cls-13" x1="122.35" y1="175.62" x2="126.31" y2="175.62"/><line class="cls-13" x1="122.28" y1="178.31" x2="126.24" y2="178.31"/><line class="cls-13" x1="122.35" y1="180.93" x2="126.38" y2="180.93"/><line class="cls-13" x1="122.42" y1="183.68" x2="126.18" y2="183.68"/><line class="cls-14" x1="139.68" y1="170.38" x2="143.64" y2="170.38"/><line class="cls-14" x1="139.48" y1="172.87" x2="143.78" y2="172.87"/><line class="cls-14" x1="139.55" y1="175.69" x2="143.85" y2="175.69"/><line class="cls-14" x1="139.55" y1="178.24" x2="143.78" y2="178.24"/><line class="cls-13" x1="150.16" y1="164.27" x2="150.16" y2="166.76"/><line class="cls-13" x1="153.59" y1="164.14" x2="153.59" y2="166.82"/><line class="cls-13" x1="164.27" y1="164.27" x2="164.27" y2="166.89"/><line class="cls-13" x1="168.1" y1="164.34" x2="168.1" y2="166.76"/><line class="cls-14" x1="171.59" y1="164.27" x2="171.59" y2="166.82"/><line class="cls-13" x1="175.35" y1="164.27" x2="175.35" y2="166.76"/><line class="cls-13" x1="178.71" y1="164.27" x2="178.71" y2="166.82"/><line class="cls-13" x1="182.14" y1="164.27" x2="182.14" y2="166.76"/><line class="cls-13" x1="196.52" y1="164.27" x2="196.52" y2="166.55"/><line class="cls-13" x1="199.94" y1="164.27" x2="199.94" y2="166.76"/><line class="cls-13" x1="203.84" y1="164.27" x2="203.84" y2="166.76"/><line class="cls-15" x1="142.77" y1="185.43" x2="142.77" y2="188.72"/><line class="cls-15" x1="146.26" y1="185.5" x2="146.26" y2="188.72"/><line class="cls-15" x1="150.23" y1="185.43" x2="150.23" y2="188.72"/><line class="cls-15" x1="153.59" y1="185.5" x2="153.59" y2="188.72"/><polygon class="cls-6" points="213.65 185.5 213.65 188.79 210.96 188.79 210.96 188.66 210.96 185.5 213.65 185.5"/><polygon class="cls-6" points="210.96 188.66 210.96 188.79 207.33 188.79 207.33 188.59 207.33 185.5 210.96 185.5 210.96 188.66"/><polygon class="cls-6" points="207.33 188.59 207.33 188.79 203.77 188.79 203.77 185.57 203.77 185.5 207.33 185.5 207.33 188.59"/><polygon class="cls-6" points="203.77 185.57 203.77 188.79 200.01 188.79 200.01 188.59 200.01 185.5 203.77 185.5 203.77 185.57"/><polygon class="cls-6" points="200.01 188.59 200.01 188.79 196.45 188.79 196.45 188.52 196.45 185.5 200.01 185.5 200.01 188.59"/><polygon class="cls-6" points="196.45 188.52 196.45 188.79 192.96 188.79 192.96 188.66 192.96 185.5 196.45 185.5 196.45 188.52"/><polygon class="cls-6" points="192.96 188.66 192.96 188.79 189.46 188.79 189.46 185.5 192.96 185.5 192.96 188.66"/><polygon class="cls-6" points="189.46 185.5 189.46 188.79 186.03 188.79 186.03 188.72 186.03 185.5 189.46 185.5"/><polygon class="cls-6" points="186.03 188.72 186.03 188.79 182.21 188.79 182.21 188.66 182.21 185.5 186.03 185.5 186.03 188.72"/><polygon class="cls-6" points="182.21 188.66 182.21 188.79 178.65 188.79 178.65 188.72 178.65 185.5 182.21 185.5 182.21 188.66"/><polygon class="cls-6" points="178.65 188.72 178.65 188.79 175.22 188.79 175.22 185.5 178.65 185.5 178.65 188.72"/><polygon class="cls-6" points="175.22 185.5 175.22 188.79 171.46 188.79 171.46 188.72 171.46 185.5 175.22 185.5"/><polygon class="cls-6" points="171.46 188.72 171.46 188.79 168.1 188.79 168.1 188.66 168.1 185.5 171.46 185.5 171.46 188.72"/><polygon class="cls-6" points="168.1 188.66 168.1 188.79 164.27 188.79 164.27 188.66 164.27 185.5 168.1 185.5 168.1 188.66"/><polygon class="cls-6" points="164.27 188.66 164.27 188.79 160.71 188.79 160.71 188.66 160.71 185.5 164.27 185.5 164.27 188.66"/><polygon class="cls-6" points="160.71 188.66 160.71 188.79 157.08 188.79 157.08 185.5 160.71 185.5 160.71 188.66"/><rect class="cls-6" x="139.21" y="185.5" width="17.87" height="3.29"/><polygon class="cls-13" points="210.96 185.5 213.65 185.5 213.65 188.79 210.96 188.79 207.33 188.79 203.77 188.79 200.01 188.79 196.45 188.79 192.96 188.79 189.46 188.79 186.03 188.79 182.21 188.79 178.65 188.79 175.22 188.79 171.46 188.79 168.1 188.79 164.27 188.79 160.71 188.79 157.08 188.79 139.21 188.79 139.21 185.5 157.08 185.5 160.71 185.5 164.27 185.5 168.1 185.5 171.46 185.5 175.22 185.5 178.65 185.5 182.21 185.5 186.03 185.5 189.46 185.5 192.96 185.5 196.45 185.5 200.01 185.5 203.77 185.5 207.33 185.5 210.96 185.5"/><polyline class="cls-13" points="157.08 185.43 157.08 185.5 157.08 188.79 157.08 188.86"/><polyline class="cls-13" points="160.71 185.43 160.71 185.5 160.71 188.66"/><line class="cls-13" x1="164.27" y1="185.5" x2="164.27" y2="188.66"/><polyline class="cls-13" points="168.1 185.43 168.1 185.5 168.1 188.66"/><line class="cls-13" x1="171.46" y1="185.5" x2="171.46" y2="188.72"/><line class="cls-13" x1="175.22" y1="185.5" x2="175.22" y2="188.79"/><line class="cls-13" x1="178.65" y1="185.5" x2="178.65" y2="188.72"/><polyline class="cls-13" points="182.21 185.43 182.21 185.5 182.21 188.66"/><line class="cls-13" x1="186.04" y1="185.5" x2="186.04" y2="188.72"/><line class="cls-13" x1="189.46" y1="185.5" x2="189.46" y2="188.79"/><polyline class="cls-13" points="192.96 185.43 192.96 185.5 192.96 188.66"/><line class="cls-13" x1="196.45" y1="185.5" x2="196.45" y2="188.52"/><line class="cls-13" x1="200.01" y1="185.5" x2="200.01" y2="188.59"/><polyline class="cls-13" points="203.77 185.57 203.77 188.79 203.77 188.93"/><polyline class="cls-13" points="207.33 185.37 207.33 185.5 207.33 188.59"/><line class="cls-13" x1="210.96" y1="185.5" x2="210.96" y2="188.66"/><path class="cls-16" d="M138.77,218.65s.6-16.13,7.23-15.59,8,15.59,8,15.59"/><line class="cls-17" x1="105.96" y1="220.84" x2="207.13" y2="220.84"/><line class="cls-17" x1="107.03" y1="222.99" x2="206.33" y2="222.99"/><line class="cls-17" x1="108.51" y1="225.54" x2="204.18" y2="225.54"/><line class="cls-17" x1="110.26" y1="228.09" x2="202.03" y2="228.09"/><line class="cls-17" x1="199.61" y1="231.45" x2="112.54" y2="231.45"/><line class="cls-17" x1="196.11" y1="235.08" x2="116.44" y2="235.08"/><line class="cls-17" x1="191.41" y1="238.84" x2="121.41" y2="238.84"/><line class="cls-17" x1="185.5" y1="243.01" x2="127.45" y2="243.01"/><line class="cls-17" x1="176.5" y1="247.44" x2="133.5" y2="247.44"/><line class="cls-15" x1="193.02" y1="164.27" x2="193.02" y2="166.55"/><path class="cls-18" d="M145.12,154s.56-4.43,4.16-6"/><path class="cls-6" d="M156.1,279.65a87.13,87.13,0,1,1,34-6.87A86.86,86.86,0,0,1,156.1,279.65Zm0-146.32a58.91,58.91,0,1,0,41.66,17.25A58.56,58.56,0,0,0,156.1,133.33Z"/><line class="cls-19" x1="179.8" y1="180.72" x2="196.83" y2="180.91"/><path class="cls-17" d="M180.16,219.06s.59-16.14,7.22-15.6,8,15.6,8,15.6"/><path class="cls-17" d="M106,203.32c6.62.54,8,15.6,8,15.6"/><path class="cls-17" d="M200.72,218.79s.59-16.14,7.22-15.6"/><path class="cls-17" d="M159.47,218.79s.59-16.14,7.22-15.6,8,15.6,8,15.6"/><polyline class="cls-17" points="208.07 219.09 174.72 219.09 159.47 219.09 104.21 219.09"/><path class="cls-17" d="M106.06,203.32c-2.49.21-4.35,2.54-5.57,5.27"/><path class="cls-17" d="M207.94,203.19a5.18,5.18,0,0,1,3.55,2,12.85,12.85,0,0,1,1.81,2.93"/><rect class="cls-6" x="154.86" y="145.86" width="4.84" height="35.07"/><rect class="cls-4" x="154.73" y="159.78" width="5.04" height="1.95" transform="translate(-36.94 47.35) rotate(-15.35)"/><rect class="cls-4" x="154.73" y="164.93" width="5.04" height="1.95" transform="translate(-38.3 47.54) rotate(-15.35)"/><rect class="cls-4" x="154.73" y="170.08" width="5.04" height="1.95" transform="translate(-39.66 47.72) rotate(-15.35)"/><rect class="cls-4" x="154.73" y="154.64" width="5.04" height="1.95" transform="translate(-35.58 47.17) rotate(-15.35)"/><rect class="cls-4" x="154.73" y="149.49" width="5.04" height="1.95" transform="translate(-34.22 46.98) rotate(-15.35)"/><rect class="cls-4" x="154.73" y="175.23" width="5.04" height="1.95" transform="translate(-41.03 47.9) rotate(-15.35)"/><path class="cls-18" d="M141.79,152.88c-.55-1.36.4-3.42.4-3.42-5.7-.79-5.48,4.78-5.48,4.78a3.33,3.33,0,0,0-3.25,1,3.7,3.7,0,0,0-.79,3.71,3.59,3.59,0,0,0-1.91,3,2.81,2.81,0,0,0,1.86,2.65l13.66.15a2.91,2.91,0,0,0,1.91-2.73,3.09,3.09,0,0,0-2-2.82,2.32,2.32,0,0,0,.38-2.58"/><path class="cls-4" d="M197.47,165.62a3.24,3.24,0,0,1-1.38,4.22c-2.33,1.33-5.4.33-5.37-2.65s1.67-4,3.16-4,1.35,2.08,1.35,2.08S196.84,164.65,197.47,165.62Z"/><path class="cls-18" d="M179.8,179.11a3.5,3.5,0,0,1-2.32-3.29,4.49,4.49,0,0,1,2.39-3.71,4.61,4.61,0,0,1,1-4.63,4.15,4.15,0,0,1,4.06-1.22s-.28-6.94,6.81-6c0,0-1.18,2.56-.49,4.26"/><path class="cls-18" d="M196.83,179.3a3.63,3.63,0,0,0,2.38-3.4,3.87,3.87,0,0,0-2.55-3.52,2.88,2.88,0,0,0,.47-3.21"/><path class="cls-18" d="M195.23,165.26s.14-2.06-1.35-2.08-3.14,1-3.16,4,3,4,5.37,2.65a3.24,3.24,0,0,0,1.38-4.22C196.84,164.65,195.23,165.26,195.23,165.26Z"/><path class="cls-18" d="M195.37,165.21s.7-5.52,5.2-7.52"/><rect class="cls-6" x="116.53" y="207.29" width="10.93" height="11.2"/><rect class="cls-20" x="154.86" y="145.91" width="4.84" height="35.07"/><polygon class="cls-21" points="203.41 174.53 207.71 179.63 212.64 178.47 213.45 181.6 146.53 181.6 142.68 180.35 161.4 175.51 164.36 178.91 185.05 173.81 188.81 178.47 203.41 174.53"/><circle class="cls-1" cx="156.48" cy="192.62" r="58.92"/><g class="cls-22"><path class="cls-23" d="M138.75,181,122.1,214.15l13.48,53.76.88,3.49a2.36,2.36,0,0,0,4.58,0l14.36-57.25"/></g><circle class="cls-1" cx="156.48" cy="192.62" r="58.92"/><circle class="cls-24" cx="156.48" cy="192.62" r="58.92"/><path class="cls-25" d="M145,154.05s.11-1.66-1.09-1.67-2.51.82-2.53,3.21,2.44,3.2,4.31,2.13a2.58,2.58,0,0,0,1.1-3.38C146.3,153.56,145,154.05,145,154.05Z"/><path class="cls-26" d="M120.64,205c-1.11,1.35-1.74,2.12-1.74,3.7,0,6,10.15,6.8,19.85,6.8s19.85-.84,19.85-6.8c0-1.58-.62-2.35-1.74-3.7a19,19,0,1,0-36.22,0Zm34.76,8.38"/><text class="cls-27" transform="matrix(0.54, -0.84, 0.84, 0.54, 96.6, 162.54)">H</text><text class="cls-27" transform="translate(104.73 150.05) rotate(-44.77)">A</text><text class="cls-27" transform="translate(114.76 140.11) rotate(-31.98)">N</text><text class="cls-27" transform="translate(127.85 132.05) rotate(-19.08)">D</text><text class="cls-27" transform="translate(141.8 127.1) rotate(-4.97)">M</text><text class="cls-27" transform="matrix(0.99, 0.15, -0.15, 0.99, 159.43, 125.86)">A</text><text class="cls-27" transform="translate(173.41 128.04) rotate(21.21)">D</text><text class="cls-27" transform="translate(187.28 133.64) rotate(33.03)">E</text><text class="cls-27" transform="matrix(0.75, 0.66, -0.66, 0.75, 197.91, 140.93)"> </text><text class="cls-27" transform="matrix(0.68, 0.74, -0.74, 0.68, 202.8, 145.32)">I</text><text class="cls-27" transform="matrix(0.54, 0.84, -0.84, 0.54, 207.68, 150.2)">N</text><text class="cls-27" transform="translate(95.93 245.07) rotate(44.58)">B</text><text class="cls-27" transform="translate(107.47 255.74) rotate(35.74)">I</text><text class="cls-27" transform="matrix(0.9, 0.44, -0.44, 0.9, 114.88, 261.17)">D</text><text class="cls-27" transform="translate(131.17 268.71) rotate(13.29)">D</text><text class="cls-27" transform="translate(148.61 272.32) rotate(1.37)">E</text><text class="cls-27" transform="matrix(0.99, -0.16, 0.16, 0.99, 163.79, 272.35)">F</text><text class="cls-27" transform="matrix(0.93, -0.36, 0.36, 0.93, 178.1, 269.92)">O</text><text class="cls-27" transform="translate(196.23 262.19) rotate(-34.35)">R</text><text class="cls-27" transform="translate(209.56 252.71) rotate(-46.57)">D</text><ellipse class="cls-4" cx="145.5" cy="161.82" rx="2.27" ry="2.35"/></svg>