<?xml version="1.0" encoding="utf-8"?>
<!-- Generator: Adobe Illustrator 22.1.0, SVG Export Plug-In . SVG Version: 6.00 Build 0)  -->
<svg version="1.1" id="Layer_1" xmlns="http://www.w3.org/2000/svg" xmlns:xlink="http://www.w3.org/1999/xlink" x="0px" y="0px"
	 viewBox="0 0 322.1 350.9" style="enable-background:new 0 0 322.1 350.9;" xml:space="preserve">
<style type="text/css">
	.st0{clip-path:url(#SVGID_2_);}
	.st1{fill:#FFFFFF;}
	.st2{fill:none;}
	.st3{fill:#7F8081;}
	.st4{fill:#404041;}
	.st5{fill:#6A92C7;}
	.st6{fill:#485EA4;stroke:#000000;stroke-width:0.32;stroke-miterlimit:10;}
	.st7{fill:#404041;stroke:#FFFFFF;stroke-width:0.32;stroke-miterlimit:10;}
	.st8{fill:#404041;stroke:#FFFFFF;stroke-width:1.29;stroke-miterlimit:10;}
	.st9{fill:#404041;stroke:#FFFFFF;stroke-width:0.65;stroke-miterlimit:10;}
	.st10{fill:#404041;stroke:#FFFFFF;stroke-width:1.3;stroke-miterlimit:10;}
	.st11{fill:none;stroke:#FFFFFF;stroke-width:0.65;stroke-miterlimit:10;}
	.st12{fill:none;stroke:#221F1F;stroke-width:0.65;stroke-miterlimit:10;}
	.st13{fill:none;stroke:#221F1F;stroke-width:0.97;stroke-miterlimit:10;}
	.st14{fill:none;stroke:#FFFFFF;stroke-width:0.97;stroke-miterlimit:10;}
	.st15{fill:none;stroke:#404041;stroke-width:0.97;stroke-linecap:round;stroke-linejoin:round;}
	.st16{fill:#DFDAEC;}
	.st17{fill:none;stroke:#000000;stroke-width:1.29;stroke-linecap:round;stroke-linejoin:round;}
	.st18{fill:none;stroke:#404041;stroke-width:1.29;stroke-miterlimit:10;}
	.st19{fill:#FFFFFF;stroke:#404041;stroke-width:1.29;stroke-miterlimit:10;}
	.st20{clip-path:url(#SVGID_4_);}
	.st21{fill:#FDE5A1;stroke:#FFFFFF;stroke-width:1.62;stroke-linecap:round;stroke-linejoin:round;}
	.st22{fill:none;stroke:#404041;stroke-width:2.59;stroke-miterlimit:10;}
	.st23{fill:#FFFFFF;stroke:#404041;stroke-width:0.97;stroke-linecap:round;stroke-linejoin:round;}
	.st24{fill:#DFDAEC;stroke:#FFFFFF;stroke-width:1.62;stroke-miterlimit:10;}
	.st25{enable-background:new    ;}
</style>
<title>Artboard 1CORNER_ICECREAM</title>
<g>
	<defs>
		<rect id="SVGID_1_" y="0.3" width="321.8" height="350.6"/>
	</defs>
	<clipPath id="SVGID_2_">
		<use xlink:href="#SVGID_1_"  style="overflow:visible;"/>
	</clipPath>
	<g class="st0">
		<path class="st1" d="M318.1,221c-10.5,90.2-72.7,119.1-105.1,131.1H77.9v4.3H-3.6V115.1h3.7c-0.3-37.5,2.7-62.1,6-62.1
			C50.4,54,98.6-15.6,149,11.9L267.2,86C286.2,130.4,323.2,177.8,318.1,221z"/>
	</g>
</g>
<rect x="-35.1" y="-1" class="st2" width="321.8" height="350.6"/>
<path class="st1" d="M117.5,162.3c-0.5-0.6-0.9-1.3-1.2-2.1c0-0.5,0.1-1,0.2-1.4c0.6-1.7,1.8-2.6,2.1-4.3c0-1,0.4-2.1,1-2.9
	c1-1.1,3.4-0.5,4.1-1.9c0.1-0.3,0.1-0.6,0.2-0.9c0.4-2.4,2.6-4.1,5-3.9c0.2,0,0.4,0.1,0.6,0.2c0.1,0.1-0.1,0.3,0,0.4
	c0.2,1.3,0.1,2.6-0.2,3.9c-0.2,1.4,0.2,2.8,1.1,3.8c1.1,0.9,2.5,1.1,3.9,0.7c0.5-0.1,1.1-0.2,1.4,0.2s-0.1,0.9,0,1.3
	c0.1,0.3-0.6,0.6-0.4,0.8c0.8,0.8,2.2,1.9,2.2,3.1c0,1.2-0.6,2.3-1.6,3c-0.9,0.6-1.4,1.1-2.5,1.2c-3.6,0.1-7.9-0.4-11.5-0.3
	C119.9,163.2,118.7,163.6,117.5,162.3z"/>
<rect x="76.7" y="207.6" class="st3" width="146.4" height="11.3"/>
<rect x="75.9" y="202.9" class="st4" width="143.1" height="26.4"/>
<polygon class="st5" points="115.9,229.8 101.7,229.8 102.5,222.3 115.9,222.3 "/>
<polygon class="st6" points="115.6,223 102.4,223 102.4,219.2 114.5,219.2 "/>
<path class="st1" d="M201.6,219.1c0.1-1.5,0.5-2.9,1.2-4.1c0.7-1.8,2.1-3.3,3.8-4.2c1.8-0.7,3.8-0.4,5.3,0.9
	c0.7,0.8,1.4,1.5,2.1,2.2c0.2,0.1,0.4,0.3,0.5,0.4c0.1,0.2,0.1,0.5,0.1,0.7c0.1,1.4-0.3,2.9-1,4.1L201.6,219.1z"/>
<path class="st1" d="M176.8,219.2c0.1-1.9,0.8-3.8,2-5.3c1-1.5,2.4-3.1,4.2-3.4c1.2-0.2,2.5,0.1,3.5,0.8c1,0.7,1.9,1.6,2.7,2.6
	c0.3,0.4,0.6,0.8,0.8,1.2c0.7,1.3,0.8,2.8,1.5,4.1L176.8,219.2z"/>
<path class="st1" d="M151.9,219.1c0.1-1.9,0.8-3.8,2-5.3c0.9-1.6,2.4-2.8,4.2-3.4c1.2-0.2,2.5,0.1,3.5,0.8c1,0.7,1.9,1.6,2.7,2.6
	c0.3,0.4,0.6,0.8,0.8,1.2c0.7,1.3,0.8,2.8,1.5,4.1L151.9,219.1z"/>
<polygon class="st4" points="193.8,229.8 175.4,229.8 175.9,222.3 192.4,222.3 "/>
<polygon class="st7" points="193,223 175.9,223 176.9,219.2 191.6,219.2 "/>
<polygon class="st7" points="168.1,223 151,223 152,219.2 166.7,219.2 "/>
<polygon class="st4" points="218.6,229.8 200.2,229.8 200.7,222.3 217.2,222.3 "/>
<polygon class="st7" points="217.8,223 200.7,223 201.7,219.2 216.4,219.2 "/>
<rect x="80.9" y="222.3" class="st4" width="14.2" height="7.4"/>
<path class="st1" d="M79.4,216.9c0.2-0.8,0.6-1.6,1.1-2.3c1-1.4,2.3-2.6,3.8-3.4c0.8-0.3,1.6-0.5,2.4-0.5c0.6,0,1.1,0.1,1.6,0.3
	c0.6,0.5,1.1,1,1.6,1.6c0.4,0.4,0.8,0.8,1.2,1.2c0.3,0.4,0.5,0.8,0.7,1.2c0.6,1.3,1.1,2.6,1.7,3.9h-7
	C84.6,219,78.5,220.6,79.4,216.9z"/>
<rect x="79.4" y="125.1" class="st1" width="135.1" height="50.2"/>
<rect x="133.6" y="158" class="st8" width="83.8" height="40.8"/>
<rect x="75.4" y="175.9" class="st8" width="22.9" height="22.8"/>
<polygon class="st7" points="94.8,223 80.3,223 80.3,219.2 93.6,219.2 "/>
<rect x="75.9" y="198.8" class="st8" width="142.1" height="4"/>
<rect x="150.7" y="163.4" class="st9" width="30.8" height="3.1"/>
<rect x="188.4" y="163.2" class="st9" width="20.6" height="3.1"/>
<rect x="137.7" y="163.2" class="st9" width="6.9" height="3.2"/>
<path class="st10" d="M83.3,229.3H210c-5.6,9.9-13.1,18.6-22.1,25.7c-19.7,15.5-58.1,23-89.7-4.5C91.2,244.5,90.4,239.3,83.3,229.3z
	"/>
<path class="st1" d="M173.5,181.8c-1.1-0.3-0.7-1.3-1-2.4s-1-2.2-0.4-3.2c0.3-0.4,0.6-0.8,1-1.1c0.2-0.2,0.6-0.3,0.8-0.5
	c0.9-0.6,1-1.9,1-3s-0.1-2.4,0.7-3.1c0.5-0.4,0.9-0.7,1.5-1c0.7-0.6,1.5-0.9,2.4-1c0.6,0,1.1-0.3,1.5-0.8c0.2-0.5,0.3-1,0.3-1.6
	c0.2-1.7,1.2-3.2,2.6-4c1.5-0.9,3.3-1.2,5-0.9c0.2,2.2-0.5,4.5-0.4,6.9c0,1.4-0.4,3.1,0.6,4.2s2.4,1,3.7,0.8
	c1.1-0.3,2.2-0.7,3.2-1.3c-0.3,1.4-0.9,4.3,0.6,4.6c1.2,0.2,0.8,0.5,0.9,0.8c0.2,0.5,0.4,1.1,0.5,1.7c0.1,1.7,0,3.8-1.5,4.6
	c-0.6,0.3-1.2,0.4-1.9,0.4c-3.7,0.3-7.5,0.4-11.2,0.3c-1.9-0.1-3.7-0.2-5.5-0.3C176.4,181.8,174.9,182.1,173.5,181.8z"/>
<rect x="90.3" y="181.1" class="st9" width="3.1" height="14.5"/>
<rect x="98.4" y="163.5" class="st8" width="39.2" height="35.3"/>
<rect x="105.9" y="167.6" class="st9" width="4.7" height="22.7"/>
<rect x="126.6" y="167.6" class="st9" width="4.9" height="15.9"/>
<line class="st11" x1="105.7" y1="170.7" x2="110.8" y2="170.7"/>
<line class="st11" x1="105.8" y1="173.9" x2="110.6" y2="173.9"/>
<line class="st11" x1="105.8" y1="177.1" x2="110.6" y2="177.1"/>
<line class="st11" x1="105.7" y1="180.3" x2="110.5" y2="180.3"/>
<line class="st11" x1="105.8" y1="183.5" x2="110.7" y2="183.5"/>
<line class="st11" x1="105.9" y1="186.8" x2="110.4" y2="186.8"/>
<line class="st11" x1="126.7" y1="170.8" x2="131.4" y2="170.8"/>
<line class="st11" x1="126.4" y1="173.8" x2="131.6" y2="173.8"/>
<line class="st11" x1="126.5" y1="177.2" x2="131.7" y2="177.2"/>
<line class="st11" x1="126.5" y1="180.2" x2="131.6" y2="180.2"/>
<line class="st11" x1="139.3" y1="163.4" x2="139.3" y2="166.4"/>
<line class="st11" x1="143.4" y1="163.3" x2="143.4" y2="166.5"/>
<line class="st11" x1="156.2" y1="163.4" x2="156.2" y2="166.6"/>
<line class="st11" x1="160.8" y1="163.5" x2="160.8" y2="166.4"/>
<line class="st11" x1="165" y1="163.4" x2="165" y2="166.5"/>
<line class="st11" x1="169.6" y1="163.4" x2="169.6" y2="166.4"/>
<line class="st11" x1="173.6" y1="163.4" x2="173.6" y2="166.5"/>
<line class="st11" x1="177.7" y1="163.4" x2="177.7" y2="166.4"/>
<line class="st11" x1="195" y1="163.4" x2="195" y2="166.2"/>
<line class="st11" x1="199.1" y1="163.4" x2="199.1" y2="166.4"/>
<line class="st11" x1="203.8" y1="163.4" x2="203.8" y2="166.4"/>
<line class="st12" x1="130.4" y1="188.9" x2="130.4" y2="192.9"/>
<line class="st12" x1="134.6" y1="189" x2="134.6" y2="192.9"/>
<line class="st12" x1="139.3" y1="188.9" x2="139.3" y2="192.9"/>
<line class="st12" x1="143.4" y1="189" x2="143.4" y2="192.9"/>
<polygon class="st4" points="215.6,189 215.6,192.9 212.4,192.9 212.4,192.8 212.4,189 "/>
<polygon class="st4" points="212.4,192.8 212.4,192.9 208,192.9 208,192.7 208,189 212.4,189 "/>
<polygon class="st4" points="208,192.7 208,192.9 203.8,192.9 203.8,189.1 203.8,189 208,189 "/>
<polygon class="st4" points="203.8,189.1 203.8,192.9 199.2,192.9 199.2,192.7 199.2,189 203.8,189 "/>
<polygon class="st4" points="199.2,192.7 199.2,192.9 194.9,192.9 194.9,192.6 194.9,189 199.2,189 "/>
<polygon class="st4" points="194.9,192.6 194.9,192.9 190.7,192.9 190.7,192.8 190.7,189 194.9,189 "/>
<polygon class="st4" points="190.7,192.8 190.7,192.9 186.5,192.9 186.5,189 190.7,189 "/>
<polygon class="st4" points="186.5,189 186.5,192.9 182.4,192.9 182.4,192.9 182.4,189 "/>
<polygon class="st4" points="182.4,192.9 182.4,192.9 177.8,192.9 177.8,192.8 177.8,189 182.4,189 "/>
<polygon class="st4" points="177.8,192.8 177.8,192.9 173.5,192.9 173.5,192.9 173.5,189 177.8,189 "/>
<polygon class="st4" points="173.5,192.9 173.5,192.9 169.4,192.9 169.4,189 173.5,189 "/>
<polygon class="st4" points="169.4,189 169.4,192.9 164.9,192.9 164.9,192.9 164.9,189 "/>
<polygon class="st4" points="164.9,192.9 164.9,192.9 160.8,192.9 160.8,192.8 160.8,189 164.9,189 "/>
<polygon class="st4" points="160.8,192.8 160.8,192.9 156.2,192.9 156.2,192.8 156.2,189 160.8,189 "/>
<polygon class="st4" points="156.2,192.8 156.2,192.9 151.9,192.9 151.9,192.8 151.9,189 156.2,189 "/>
<polygon class="st4" points="151.9,192.8 151.9,192.9 147.6,192.9 147.6,189 151.9,189 "/>
<rect x="126.1" y="189" class="st4" width="21.5" height="4"/>
<polygon class="st11" points="212.4,189 215.6,189 215.6,192.9 212.4,192.9 208,192.9 203.8,192.9 199.2,192.9 194.9,192.9 
	190.7,192.9 186.5,192.9 182.4,192.9 177.8,192.9 173.5,192.9 169.4,192.9 164.9,192.9 160.8,192.9 156.2,192.9 151.9,192.9 
	147.6,192.9 126.1,192.9 126.1,189 147.6,189 151.9,189 156.2,189 160.8,189 164.9,189 169.4,189 173.5,189 177.8,189 182.4,189 
	186.5,189 190.7,189 194.9,189 199.2,189 203.8,189 208,189 "/>
<polyline class="st11" points="147.6,188.9 147.6,189 147.6,192.9 147.6,193 "/>
<polyline class="st11" points="151.9,188.9 151.9,189 151.9,192.8 "/>
<line class="st11" x1="156.2" y1="189" x2="156.2" y2="192.8"/>
<polyline class="st11" points="160.8,188.9 160.8,189 160.8,192.8 "/>
<line class="st11" x1="164.9" y1="189" x2="164.9" y2="192.9"/>
<line class="st11" x1="169.4" y1="189" x2="169.4" y2="192.9"/>
<line class="st11" x1="173.5" y1="189" x2="173.5" y2="192.9"/>
<polyline class="st11" points="177.8,188.9 177.8,189 177.8,192.8 "/>
<line class="st11" x1="182.4" y1="189" x2="182.4" y2="192.9"/>
<line class="st11" x1="186.5" y1="189" x2="186.5" y2="192.9"/>
<polyline class="st11" points="190.7,188.9 190.7,189 190.7,192.8 "/>
<line class="st11" x1="194.9" y1="189" x2="194.9" y2="192.6"/>
<line class="st11" x1="199.2" y1="189" x2="199.2" y2="192.7"/>
<polyline class="st11" points="203.8,189.1 203.8,192.9 203.8,193.1 "/>
<polyline class="st11" points="208,188.8 208,189 208,192.7 "/>
<line class="st11" x1="212.4" y1="189" x2="212.4" y2="192.8"/>
<path class="st13" d="M125.6,228.9c0,0,0.7-19.4,8.7-18.8s9.7,18.8,9.7,18.8"/>
<line class="st14" x1="86.1" y1="231.5" x2="207.8" y2="231.5"/>
<line class="st14" x1="87.4" y1="234.1" x2="206.8" y2="234.1"/>
<line class="st14" x1="89.2" y1="237.1" x2="204.2" y2="237.1"/>
<line class="st14" x1="91.3" y1="240.2" x2="201.6" y2="240.2"/>
<line class="st14" x1="198.7" y1="244.2" x2="94" y2="244.2"/>
<line class="st14" x1="194.5" y1="248.6" x2="98.7" y2="248.6"/>
<line class="st14" x1="188.9" y1="253.1" x2="104.7" y2="253.1"/>
<line class="st14" x1="181.8" y1="258.1" x2="111.9" y2="258.1"/>
<line class="st14" x1="170.9" y1="263.5" x2="119.2" y2="263.5"/>
<line class="st12" x1="190.8" y1="163.4" x2="190.8" y2="166.2"/>
<path class="st15" d="M133.5,149.5c0,0,0.7-5.3,5-7.3"/>
<path class="st16" d="M146.4,301.6c-57.6-0.1-104.2-46.8-104.1-104.3c0.1-57.6,46.8-104.2,104.3-104.1
	c57.6,0.1,104.2,46.8,104.1,104.3c0,41.8-25.1,79.6-63.7,95.9C174.2,298.8,160.4,301.6,146.4,301.6z M146.4,126.6
	c-38.9,0-70.4,31.5-70.4,70.4c0,38.9,31.5,70.4,70.4,70.4s70.4-31.5,70.4-70.4c0-18.7-7.4-36.6-20.6-49.8
	C183,134.1,165.1,126.6,146.4,126.6z"/>
<line class="st17" x1="174.9" y1="183.2" x2="195.4" y2="183.4"/>
<path class="st14" d="M175.4,229.3c0,0,0.7-19.4,8.7-18.8s9.7,18.8,9.7,18.8"/>
<path class="st14" d="M86.1,210.4c8,0.6,9.7,18.8,9.7,18.8"/>
<path class="st14" d="M200.1,229c0,0,0.7-19.4,8.7-18.8"/>
<path class="st14" d="M150.5,229c0,0,0.7-19.4,8.7-18.8s9.6,18.8,9.6,18.8"/>
<polyline class="st14" points="208.9,229.4 168.8,229.4 150.5,229.4 84,229.4 "/>
<path class="st14" d="M86.2,210.4c-3,0.2-5.2,3-6.7,6.3"/>
<path class="st14" d="M208.8,210.2c1.7,0.2,3.2,1.1,4.3,2.4c0.9,1.1,1.6,2.3,2.2,3.5"/>
<rect x="144.9" y="141.3" class="st4" width="5.8" height="42.2"/>
<rect x="144.8" y="158" transform="matrix(0.9643 -0.2647 0.2647 0.9643 -36.8701 44.8014)" class="st1" width="6.1" height="2.3"/>
<rect x="144.8" y="164.2" transform="matrix(0.9643 -0.2647 0.2647 0.9643 -38.5085 45.0218)" class="st1" width="6.1" height="2.3"/>
<rect x="143.1" y="170.6" transform="matrix(0.9652 -0.2613 0.2613 0.9652 -39.8078 44.162)" class="st1" width="6" height="2.3"/>
<rect x="144.8" y="151.8" transform="matrix(0.9643 -0.2647 0.2647 0.9643 -35.2306 44.5835)" class="st1" width="6.1" height="2.3"/>
<rect x="144.8" y="145.6" transform="matrix(0.9643 -0.2647 0.2647 0.9643 -33.5922 44.3631)" class="st1" width="6.1" height="2.3"/>
<rect x="144.8" y="176.6" transform="matrix(0.9643 -0.2647 0.2647 0.9643 -41.7878 45.4637)" class="st1" width="6.1" height="2.3"/>
<path class="st15" d="M129.5,148.1c-0.7-1.6,0.5-4.1,0.5-4.1c-6.8-0.9-6.6,5.8-6.6,5.8c-1.4-0.4-2.9,0.1-3.9,1.2
	c-1.1,1.2-1.5,2.9-1,4.5c-1.3,0.7-2.2,2.1-2.3,3.6c0,1.4,0.9,2.7,2.2,3.2l16.4,0.2c1.4-0.5,2.3-1.8,2.3-3.3c0-1.5-1-2.9-2.5-3.4
	c0.8-0.8,1-2.1,0.5-3.1"/>
<path class="st1" d="M196.2,165.1c0.9,1.9,0.1,4.1-1.7,5.1c-2.8,1.6-6.5,0.4-6.5-3.2s2-4.8,3.8-4.8s1.6,2.5,1.6,2.5l0.2-0.1
	C194.1,164.4,195.6,164.1,196.2,165.1z"/>
<path class="st15" d="M174.9,181.3c-1.7-0.6-2.8-2.2-2.8-4c0.1-1.9,1.2-3.6,2.9-4.5c-0.7-1.9-0.2-4.1,1.2-5.6
	c1.2-1.3,3.1-1.9,4.9-1.5c0,0-0.3-8.4,8.2-7.2c0,0-1.4,3.1-0.6,5.1"/>
<path class="st15" d="M195.4,181.5c1.7-0.6,2.9-2.3,2.9-4.1c-0.1-1.9-1.3-3.6-3.1-4.2c1-1,1.2-2.6,0.6-3.9"/>
<path class="st15" d="M193.5,164.6c0,0,0.2-2.5-1.6-2.5s-3.8,1.2-3.8,4.8s3.6,4.8,6.5,3.2c1.8-1,2.5-3.2,1.7-5.1
	c-0.6-1-2-0.6-2.5-0.5L193.5,164.6z"/>
<path class="st15" d="M193.6,164.6c0,0,0.8-6.6,6.2-9"/>
<rect x="98.8" y="215.2" class="st4" width="13.2" height="13.5"/>
<rect x="144.9" y="141.4" class="st18" width="5.8" height="42.2"/>
<polygon class="st19" points="203.3,175.8 208.5,181.9 214.4,180.5 215.4,184.3 134.9,184.3 130.3,182.8 152.8,177 156.3,181.1 
	181.2,174.9 185.8,180.5 "/>
<circle class="st2" cx="146.9" cy="197.5" r="70.9"/>
<g>
	<defs>
		<circle id="SVGID_3_" cx="146.9" cy="197.5" r="70.9"/>
	</defs>
	<clipPath id="SVGID_4_">
		<use xlink:href="#SVGID_3_"  style="overflow:visible;"/>
	</clipPath>
	<g class="st20">
		<path class="st21" d="M105.5,223.4l16.2,64.7l1,4.2c0.4,1.5,1.9,2.4,3.5,2c1-0.3,1.8-1,2-2l17.3-68.9"/>
	</g>
</g>
<circle class="st2" cx="146.9" cy="197.5" r="70.9"/>
<circle class="st22" cx="146.9" cy="197.5" r="70.9"/>
<path class="st23" d="M133.4,149.5c0,0,0.1-2-1.3-2s-3,1-3,3.9s2.9,3.8,5.2,2.6c1.4-0.8,2-2.6,1.3-4.1
	C134.9,148.9,133.4,149.5,133.4,149.5z"/>
<path class="st24" d="M103.8,212.4c-1.3,1.6-2.1,2.6-2.1,4.4c0,7.2,12.2,8.2,23.9,8.2s23.9-1,23.9-8.2c0-1.9-0.8-2.8-2.1-4.4
	c3.9-12-2.8-24.9-14.8-28.8s-24.9,2.8-28.8,14.8c-0.7,2.2-1.1,4.6-1.1,7C102.7,207.8,103,210.1,103.8,212.4z"/>
<g class="st25">
	<path class="st4" d="M61.9,150.9l1.8-2.8l6,3.9l3.6-5.7l-6-3.9l1.8-2.8l13.9,8.9l-1.8,2.8l-5.4-3.5l-3.6,5.7l5.4,3.5l-1.8,2.8
		L61.9,150.9z"/>
</g>
<g class="st25">
	<path class="st4" d="M77.6,130l2.2-2.2l16,7.4l-2.4,2.4l-3.1-1.5l-4.5,4.5l1.5,3.1l-2.4,2.4L77.6,130z M87.6,134.7l-6.1-3l0,0
		l3,6.1L87.6,134.7z"/>
</g>
<g class="st25">
	<path class="st4" d="M89.4,119.4l2.7-1.7l12.2,5.5l0,0l-5.9-9.5l2.8-1.7l8.8,14l-2.8,1.7l-12-5.4l0,0l5.8,9.3l-2.8,1.7L89.4,119.4z
		"/>
</g>
<g class="st25">
	<path class="st4" d="M108.8,108.5l5.2-1.8c4.9-1.7,9.2,0.4,10.8,5c1.6,4.6-0.3,8.8-5.4,10.6l-5.2,1.8L108.8,108.5z M118.2,119.6
		c3-1,4.3-3.9,3.3-6.8c-1-2.9-3.8-4.4-6.6-3.4l-2.2,0.7l3.5,10.1L118.2,119.6z"/>
</g>
<g class="st25">
	<path class="st4" d="M129.6,102.1l3.3-0.3l5.9,8.9l0,0l4.2-9.8l3.3-0.3l1.4,16.5l-3.2,0.3l-0.9-10.2l0,0l-3.4,7.4l-2.1,0.2
		l-4.6-6.7l0,0l0.9,10.2l-3.2,0.3L129.6,102.1z"/>
</g>
<g class="st25">
	<path class="st4" d="M159.3,101.8l3.1,0.5l3.6,17.3l-3.4-0.5l-0.6-3.4l-6.3-0.9l-1.6,3.1l-3.4-0.5L159.3,101.8z M161.5,112.7
		l-1.2-6.7l0,0l-3.2,6.1L161.5,112.7z"/>
</g>
<g class="st25">
	<path class="st4" d="M174.8,105.1l5.1,2c4.9,1.9,6.8,6.3,5,10.8c-1.8,4.5-6,6.5-10.9,4.6l-5.2-2L174.8,105.1z M174.9,119.7
		c3,1.2,5.8-0.2,6.9-3c1.1-2.9,0-5.8-2.8-6.8l-2.1-0.8l-3.9,10L174.9,119.7z"/>
</g>
<g class="st25">
	<path class="st4" d="M194.4,113.7l8.9,5.8l-1.6,2.4l-6.1-4l-2.2,3.3l4.9,3.2l-1.6,2.4l-4.9-3.2l-2.1,3.2l6.6,4.3l-1.6,2.4l-9.3-6
		L194.4,113.7z"/>
</g>
<g class="st25">
	<path class="st4" d="M216,130.9l2.2,2.5l-12.2,11.2l-2.2-2.5L216,130.9z"/>
</g>
<g class="st25">
	<path class="st4" d="M223.3,139.1l1.7,2.7l-5.3,12.2l0,0l9.4-6l1.7,2.7l-13.9,8.9l-1.8-2.8l5.2-12l0,0l-9.2,5.9l-1.8-2.7
		L223.3,139.1z"/>
</g>
<g class="st25">
	<path class="st4" d="M86.9,250.1l4.2,4.2c2.5,2.5,2.9,4.8,1,6.7c-1,1.1-2.6,1.6-4.4,0.9l0,0c1.1,1.9,1,3.8-0.6,5.3
		c-1.8,1.9-4.5,2-7.1-0.6l-4.8-4.8L86.9,250.1z M81.8,264.2c1.1,1.1,2.3,1.3,3.3,0.3c0.9-0.9,0.8-2.2-0.5-3.5l-2-1.9l-3,3
		L81.8,264.2z M86.2,258.9c1,1,2.1,1.3,3,0.3c0.8-0.8,0.8-1.9-0.4-3.1l-1.7-1.6l-2.7,2.8L86.2,258.9z"/>
</g>
<g class="st25">
	<path class="st4" d="M99,261.2l2.7,1.9l-9.6,13.4l-2.7-1.9L99,261.2z"/>
</g>
<g class="st25">
	<path class="st4" d="M105.7,266l4.9,2.4c4.7,2.3,6.2,6.8,4,11.2c-2.1,4.4-6.5,6-11.3,3.6l-5-2.4L105.7,266z M104.5,280.5
		c2.9,1.4,5.8,0.3,7.1-2.4c1.4-2.8,0.5-5.8-2.2-7.1l-2-1l-4.7,9.6L104.5,280.5z"/>
</g>
<g class="st25">
	<path class="st4" d="M122,273.5l5.3,1.3c5.1,1.2,7.5,5.3,6.4,10c-1.1,4.7-5,7.3-10.2,6l-5.4-1.3L122,273.5z M124,287.9
		c3.1,0.7,5.7-1,6.4-3.9c0.7-3-0.8-5.7-3.7-6.4l-2.2-0.5l-2.5,10.4L124,287.9z"/>
</g>
<g class="st25">
	<path class="st4" d="M139.6,276.9l10.6,0.3l-0.1,2.9l-7.3-0.2l-0.1,4l5.9,0.1l-0.1,2.9l-5.9-0.1l-0.1,3.9l7.8,0.2l-0.1,2.9l-11-0.3
		L139.6,276.9z"/>
</g>
<g class="st25">
	<path class="st4" d="M154.7,276.8l10.8-1.8l0.5,2.9l-7.6,1.2l0.7,4.4l6.4-1l0.5,2.9l-6.4,1l1,6.2l-3.2,0.5L154.7,276.8z"/>
</g>
<g class="st25">
	<path class="st4" d="M170.9,282.4c-1.8-4.6,0.1-9.1,4.8-10.9c4.5-1.7,9,0.2,10.9,4.9c1.8,4.7-0.3,9.2-4.8,10.9
		C177.2,289.1,172.7,287,170.9,282.4z M183.4,277.6c-1.1-2.9-3.9-4.3-6.6-3.2c-2.8,1.1-3.8,4-2.7,6.8c1.1,2.8,3.8,4.3,6.6,3.2
		C183.4,283.4,184.5,280.5,183.4,277.6z"/>
</g>
<g class="st25">
	<path class="st4" d="M186.9,266.5l5.2-3.5c3.3-2.2,6.1-1.3,7.8,1.3c1.4,2.1,1.4,4.2-0.1,6.1l6.8,2.7l-3.2,2.2l-6.2-2.6l-1.6,1.1
		l3.2,4.7l-2.7,1.8L186.9,266.5z M196,270c1.7-1.1,1.9-2.5,1.1-3.8c-0.9-1.3-2.3-1.5-3.8-0.5l-2.1,1.4l2.8,4.2L196,270z"/>
</g>
<g class="st25">
	<path class="st4" d="M199.9,257.2l3.8-4c3.6-3.8,8.4-3.9,11.9-0.5c3.5,3.3,3.8,8,0.1,11.8l-3.8,4L199.9,257.2z M213.5,262.6
		c2.2-2.3,2-5.4-0.2-7.5c-2.2-2.1-5.4-2.2-7.4,0l-1.6,1.7l7.8,7.4L213.5,262.6z"/>
</g>
<ellipse class="st1" cx="134.1" cy="159" rx="2.7" ry="2.8"/>
</svg>
