<svg id="Layer_1" data-name="Layer 1" xmlns="http://www.w3.org/2000/svg" xmlns:xlink="http://www.w3.org/1999/xlink" viewBox="0 0 322.11 350.94"><defs><style>.cls-1,.cls-12,.cls-13,.cls-14,.cls-15,.cls-16,.cls-18,.cls-19,.cls-23{fill:none;}.cls-2{clip-path:url(#clip-path);}.cls-20,.cls-24,.cls-3{fill:#fff;}.cls-4{fill:#7f8081;}.cls-10,.cls-11,.cls-26,.cls-27,.cls-28,.cls-29,.cls-5,.cls-8,.cls-9{fill:#404041;}.cls-6{fill:#6a92c7;}.cls-7{fill:#485ea4;}.cls-18,.cls-7{stroke:#000;}.cls-10,.cls-11,.cls-12,.cls-13,.cls-14,.cls-15,.cls-19,.cls-20,.cls-23,.cls-25,.cls-7,.cls-8,.cls-9{stroke-miterlimit:10;}.cls-7,.cls-8{stroke-width:0.32px;}.cls-10,.cls-11,.cls-12,.cls-15,.cls-22,.cls-25,.cls-8,.cls-9{stroke:#fff;}.cls-18,.cls-19,.cls-20,.cls-9{stroke-width:1.29px;}.cls-10,.cls-12,.cls-13{stroke-width:0.65px;}.cls-11{stroke-width:1.3px;}.cls-13,.cls-14{stroke:#221f1f;}.cls-14,.cls-15,.cls-16,.cls-24{stroke-width:0.97px;}.cls-16,.cls-19,.cls-20,.cls-23,.cls-24{stroke:#404041;}.cls-16,.cls-18,.cls-22,.cls-24{stroke-linecap:round;stroke-linejoin:round;}.cls-17,.cls-25{fill:#dfdaec;}.cls-21{clip-path:url(#clip-path-2);}.cls-22{fill:#fde5a1;stroke-width:1.62px;}.cls-23{stroke-width:2.59px;}.cls-25{stroke-width:1.62px;}.cls-26,.cls-27,.cls-28,.cls-29{isolation:isolate;font-family:Averta-Bold, Averta;font-weight:700;}.cls-26{font-size:23.27px;}.cls-27{font-size:23.21px;}.cls-28{font-size:23.24px;}.cls-29{font-size:23.3px;}</style><clipPath id="clip-path"><rect class="cls-1" y="0.3" width="321.84" height="350.64"/></clipPath><clipPath id="clip-path-2"><circle class="cls-1" cx="146.86" cy="197.54" r="70.88"/></clipPath></defs><title>Artboard 1CORNER_ICECREAM</title><g class="cls-2"><path class="cls-3" d="M318.14,221C307.61,311.21,245.47,340.09,213,352.09H77.86v4.33H-3.57V115.09H.09C-.22,77.63,2.83,52.94,6.09,53c44.3,1,92.5-68.55,142.88-41.14L267.16,86C286.18,130.43,323.22,177.79,318.14,221Z"/></g><rect class="cls-1" x="-35.1" y="-0.98" width="321.84" height="350.64"/><path class="cls-3" d="M117.52,162.31a11.1,11.1,0,0,1-1.25-2.06,5.71,5.71,0,0,1,.24-1.42c.55-1.69,1.79-2.57,2.07-4.32a5.34,5.34,0,0,1,1-2.91c1-1.15,3.45-.51,4.06-1.94a4.25,4.25,0,0,0,.18-.86,4.84,4.84,0,0,1,5-3.94,1,1,0,0,1,.56.19c.12.11-.08.3,0,.45a9,9,0,0,1-.2,3.88,4.68,4.68,0,0,0,1.14,3.82,4.23,4.23,0,0,0,3.85.71c.49-.11,1.13-.18,1.37.25s-.08.9,0,1.34c.07.26-.57.55-.38.75.82.84,2.2,1.9,2.17,3.07a3.56,3.56,0,0,1-1.65,3c-.93.55-1.38,1.14-2.46,1.17-3.6.08-7.9-.38-11.5-.3C119.94,163.18,118.7,163.65,117.52,162.31Z"/><rect class="cls-4" x="76.71" y="207.56" width="146.43" height="11.31"/><rect class="cls-5" x="75.91" y="202.87" width="143.12" height="26.43"/><polygon class="cls-6" points="115.89 229.77 101.68 229.77 102.49 222.32 115.89 222.32 115.89 229.77"/><polygon class="cls-7" points="115.61 223 102.41 223 102.41 219.2 114.49 219.2 115.61 223"/><path class="cls-3" d="M201.61,219.15A10.08,10.08,0,0,1,202.8,215a8.14,8.14,0,0,1,3.81-4.18,5.06,5.06,0,0,1,5.27.9,23.41,23.41,0,0,0,2.15,2.19,1.87,1.87,0,0,1,.5.43,1.37,1.37,0,0,1,.1.69,7.43,7.43,0,0,1-1,4.11Z"/><path class="cls-3" d="M176.77,219.21a9.89,9.89,0,0,1,2-5.34c1-1.53,2.41-3.05,4.24-3.36a5.12,5.12,0,0,1,3.53.84,11.39,11.39,0,0,1,2.66,2.57,8.27,8.27,0,0,1,.83,1.2c.7,1.28.82,2.81,1.52,4.08Z"/><path class="cls-3" d="M151.86,219.1a9.89,9.89,0,0,1,2-5.34,7.08,7.08,0,0,1,4.24-3.36,5.14,5.14,0,0,1,3.53.84,11.39,11.39,0,0,1,2.66,2.57,8.27,8.27,0,0,1,.83,1.2c.7,1.28.82,2.81,1.52,4.08Z"/><polygon class="cls-5" points="193.81 229.77 175.39 229.77 175.87 222.32 192.44 222.32 193.81 229.77"/><polygon class="cls-8" points="193 223 175.87 223 176.93 219.2 191.63 219.2 193 223"/><polygon class="cls-8" points="168.11 223 150.98 223 152.04 219.2 166.74 219.2 168.11 223"/><polygon class="cls-5" points="218.62 229.77 200.2 229.77 200.68 222.32 217.25 222.32 218.62 229.77"/><polygon class="cls-8" points="217.81 223 200.68 223 201.74 219.2 216.44 219.2 217.81 223"/><rect class="cls-5" x="80.92" y="222.32" width="14.21" height="7.45"/><path class="cls-3" d="M79.38,216.87a7.51,7.51,0,0,1,1.14-2.28,10.47,10.47,0,0,1,3.82-3.42,6.15,6.15,0,0,1,2.43-.47,3.32,3.32,0,0,1,1.64.34A7.59,7.59,0,0,1,90,212.66c.38.42.85.77,1.2,1.22a7.49,7.49,0,0,1,.7,1.23c.61,1.28,1.13,2.61,1.74,3.89h-7C84.64,219,78.47,220.57,79.38,216.87Z"/><rect class="cls-3" x="79.41" y="125.13" width="135.12" height="50.21"/><rect class="cls-9" x="133.65" y="158" width="83.83" height="40.84"/><rect class="cls-9" x="75.42" y="175.88" width="22.95" height="22.79"/><polygon class="cls-8" points="94.85 223 80.27 223 80.27 219.2 93.6 219.2 94.85 223"/><rect class="cls-9" x="75.91" y="198.83" width="142.07" height="4.04"/><rect class="cls-10" x="150.7" y="163.39" width="30.82" height="3.12"/><rect class="cls-10" x="188.38" y="163.22" width="20.63" height="3.06"/><rect class="cls-10" x="137.67" y="163.17" width="6.93" height="3.23"/><path class="cls-11" d="M83.29,229.33H210A88.26,88.26,0,0,1,187.9,255c-19.67,15.53-58.09,23-89.73-4.54C91.25,244.47,90.43,239.33,83.29,229.33Z"/><path class="cls-3" d="M173.49,181.75c-1.12-.28-.72-1.31-1-2.43s-1-2.19-.37-3.24a3.61,3.61,0,0,1,1-1.13c.25-.18.56-.3.81-.48.9-.65,1-1.93,1-3s-.07-2.35.69-3.15a12.15,12.15,0,0,1,1.46-1,4.48,4.48,0,0,1,2.39-1,1.92,1.92,0,0,0,1.5-.75,3.68,3.68,0,0,0,.29-1.57,5.22,5.22,0,0,1,2.62-4,7.22,7.22,0,0,1,5-.85c.19,2.23-.46,4.48-.37,6.94,0,1.45-.4,3.1.6,4.16s2.4,1,3.7.79a18.54,18.54,0,0,0,3.22-1.26c-.33,1.43-.85,4.32.59,4.6,1.16.22.82.47.95.8a5.89,5.89,0,0,1,.46,1.69c.11,1.72,0,3.81-1.47,4.65a4.43,4.43,0,0,1-1.89.43,102.27,102.27,0,0,1-11.21.26c-1.85-.06-3.69-.19-5.53-.34C176.43,181.76,174.92,182.11,173.49,181.75Z"/><rect class="cls-10" x="90.27" y="181.09" width="3.14" height="14.47"/><rect class="cls-9" x="98.37" y="163.54" width="39.18" height="35.29"/><rect class="cls-10" x="105.89" y="167.64" width="4.69" height="22.72"/><rect class="cls-10" x="126.58" y="167.64" width="4.93" height="15.93"/><line class="cls-12" x1="105.65" y1="170.71" x2="110.82" y2="170.71"/><line class="cls-12" x1="105.81" y1="173.86" x2="110.57" y2="173.86"/><line class="cls-12" x1="105.81" y1="177.09" x2="110.57" y2="177.09"/><line class="cls-12" x1="105.73" y1="180.33" x2="110.49" y2="180.33"/><line class="cls-12" x1="105.81" y1="183.48" x2="110.66" y2="183.48"/><line class="cls-12" x1="105.89" y1="186.79" x2="110.41" y2="186.79"/><line class="cls-12" x1="126.66" y1="170.79" x2="131.42" y2="170.79"/><line class="cls-12" x1="126.41" y1="173.78" x2="131.59" y2="173.78"/><line class="cls-12" x1="126.49" y1="177.18" x2="131.67" y2="177.18"/><line class="cls-12" x1="126.49" y1="180.25" x2="131.59" y2="180.25"/><line class="cls-12" x1="139.26" y1="163.44" x2="139.26" y2="166.43"/><line class="cls-12" x1="143.38" y1="163.28" x2="143.38" y2="166.51"/><line class="cls-12" x1="156.23" y1="163.44" x2="156.23" y2="166.59"/><line class="cls-12" x1="160.84" y1="163.52" x2="160.84" y2="166.43"/><line class="cls-12" x1="165.04" y1="163.44" x2="165.04" y2="166.51"/><line class="cls-12" x1="169.57" y1="163.44" x2="169.57" y2="166.43"/><line class="cls-12" x1="173.61" y1="163.44" x2="173.61" y2="166.51"/><line class="cls-12" x1="177.73" y1="163.44" x2="177.73" y2="166.43"/><line class="cls-12" x1="195.02" y1="163.44" x2="195.02" y2="166.19"/><line class="cls-12" x1="199.14" y1="163.44" x2="199.14" y2="166.43"/><line class="cls-12" x1="203.83" y1="163.44" x2="203.83" y2="166.43"/><line class="cls-13" x1="130.37" y1="188.89" x2="130.37" y2="192.85"/><line class="cls-13" x1="134.58" y1="188.97" x2="134.58" y2="192.85"/><line class="cls-13" x1="139.34" y1="188.89" x2="139.34" y2="192.85"/><line class="cls-13" x1="143.38" y1="188.97" x2="143.38" y2="192.85"/><polygon class="cls-5" points="215.63 188.97 215.63 192.93 212.4 192.93 212.4 192.77 212.4 188.97 215.63 188.97"/><polygon class="cls-5" points="212.4 192.77 212.4 192.93 208.03 192.93 208.03 192.69 208.03 188.97 212.4 188.97 212.4 192.77"/><polygon class="cls-5" points="208.03 192.69 208.03 192.93 203.75 192.93 203.75 189.05 203.75 188.97 208.03 188.97 208.03 192.69"/><polygon class="cls-5" points="203.75 189.05 203.75 192.93 199.23 192.93 199.23 192.69 199.23 188.97 203.75 188.97 203.75 189.05"/><polygon class="cls-5" points="199.23 192.69 199.23 192.93 194.94 192.93 194.94 192.61 194.94 188.97 199.23 188.97 199.23 192.69"/><polygon class="cls-5" points="194.94 192.61 194.94 192.93 190.74 192.93 190.74 192.77 190.74 188.97 194.94 188.97 194.94 192.61"/><polygon class="cls-5" points="190.74 192.77 190.74 192.93 186.54 192.93 186.54 188.97 190.74 188.97 190.74 192.77"/><polygon class="cls-5" points="186.54 188.97 186.54 192.93 182.42 192.93 182.42 192.85 182.42 188.97 186.54 188.97"/><polygon class="cls-5" points="182.42 192.85 182.42 192.93 177.81 192.93 177.81 192.77 177.81 188.97 182.42 188.97 182.42 192.85"/><polygon class="cls-5" points="177.81 192.77 177.81 192.93 173.53 192.93 173.53 192.85 173.53 188.97 177.81 188.97 177.81 192.77"/><polygon class="cls-5" points="173.53 192.85 173.53 192.93 169.4 192.93 169.4 188.97 173.53 188.97 173.53 192.85"/><polygon class="cls-5" points="169.4 188.97 169.4 192.93 164.88 192.93 164.88 192.85 164.88 188.97 169.4 188.97"/><polygon class="cls-5" points="164.88 192.85 164.88 192.93 160.84 192.93 160.84 192.77 160.84 188.97 164.88 188.97 164.88 192.85"/><polygon class="cls-5" points="160.84 192.77 160.84 192.93 156.23 192.93 156.23 192.77 156.23 188.97 160.84 188.97 160.84 192.77"/><polygon class="cls-5" points="156.23 192.77 156.23 192.93 151.95 192.93 151.95 192.77 151.95 188.97 156.23 188.97 156.23 192.77"/><polygon class="cls-5" points="151.95 192.77 151.95 192.93 147.59 192.93 147.59 188.97 151.95 188.97 151.95 192.77"/><rect class="cls-5" x="126.09" y="188.97" width="21.5" height="3.96"/><polygon class="cls-12" points="212.4 188.97 215.63 188.97 215.63 192.93 212.4 192.93 208.03 192.93 203.75 192.93 199.23 192.93 194.94 192.93 190.74 192.93 186.54 192.93 182.42 192.93 177.81 192.93 173.53 192.93 169.4 192.93 164.88 192.93 160.84 192.93 156.23 192.93 151.95 192.93 147.59 192.93 126.09 192.93 126.09 188.97 147.59 188.97 151.95 188.97 156.23 188.97 160.84 188.97 164.88 188.97 169.4 188.97 173.53 188.97 177.81 188.97 182.42 188.97 186.54 188.97 190.74 188.97 194.94 188.97 199.23 188.97 203.75 188.97 208.03 188.97 212.4 188.97"/><polyline class="cls-12" points="147.59 188.89 147.59 188.97 147.59 192.93 147.59 193.01"/><polyline class="cls-12" points="151.95 188.89 151.95 188.97 151.95 192.77"/><line class="cls-12" x1="156.23" y1="188.97" x2="156.23" y2="192.77"/><polyline class="cls-12" points="160.84 188.89 160.84 188.97 160.84 192.77"/><line class="cls-12" x1="164.88" y1="188.97" x2="164.88" y2="192.85"/><line class="cls-12" x1="169.41" y1="188.97" x2="169.41" y2="192.93"/><line class="cls-12" x1="173.53" y1="188.97" x2="173.53" y2="192.85"/><polyline class="cls-12" points="177.81 188.89 177.81 188.97 177.81 192.77"/><line class="cls-12" x1="182.42" y1="188.97" x2="182.42" y2="192.85"/><line class="cls-12" x1="186.54" y1="188.97" x2="186.54" y2="192.93"/><polyline class="cls-12" points="190.74 188.89 190.74 188.97 190.74 192.77"/><line class="cls-12" x1="194.94" y1="188.97" x2="194.94" y2="192.61"/><line class="cls-12" x1="199.23" y1="188.97" x2="199.23" y2="192.69"/><polyline class="cls-12" points="203.75 189.05 203.75 192.93 203.75 193.09"/><polyline class="cls-12" points="208.03 188.81 208.03 188.97 208.03 192.69"/><line class="cls-12" x1="212.4" y1="188.97" x2="212.4" y2="192.77"/><path class="cls-14" d="M125.57,228.87s.71-19.4,8.68-18.76,9.66,18.76,9.66,18.76"/><line class="cls-15" x1="86.09" y1="231.48" x2="207.79" y2="231.48"/><line class="cls-15" x1="87.38" y1="234.07" x2="206.82" y2="234.07"/><line class="cls-15" x1="89.16" y1="237.14" x2="204.24" y2="237.14"/><line class="cls-15" x1="91.26" y1="240.21" x2="201.65" y2="240.21"/><line class="cls-15" x1="198.74" y1="244.25" x2="94.01" y2="244.25"/><line class="cls-15" x1="194.54" y1="248.61" x2="98.7" y2="248.61"/><line class="cls-15" x1="188.88" y1="253.14" x2="104.68" y2="253.14"/><line class="cls-15" x1="181.77" y1="258.15" x2="111.95" y2="258.15"/><line class="cls-15" x1="170.94" y1="263.48" x2="119.22" y2="263.48"/><line class="cls-13" x1="190.82" y1="163.44" x2="190.82" y2="166.19"/><path class="cls-16" d="M133.52,149.48s.67-5.33,5-7.26"/><path class="cls-17" d="M146.41,301.58a104.22,104.22,0,1,1,40.68-8.22A104.22,104.22,0,0,1,146.41,301.58Zm0-174.93a70.44,70.44,0,1,0,49.81,20.63A70.44,70.44,0,0,0,146.41,126.65Z"/><line class="cls-18" x1="174.92" y1="183.22" x2="195.4" y2="183.45"/><path class="cls-15" d="M175.35,229.34s.71-19.41,8.68-18.76,9.66,18.76,9.66,18.76"/><path class="cls-15" d="M86.09,210.42c8,.64,9.66,18.76,9.66,18.76"/><path class="cls-15" d="M200.07,229s.72-19.41,8.69-18.77"/><path class="cls-15" d="M150.46,229s.71-19.41,8.68-18.76S168.77,229,168.77,229"/><polyline class="cls-15" points="208.92 229.38 168.8 229.38 150.46 229.38 83.99 229.38"/><path class="cls-15" d="M86.21,210.42c-3,.24-5.23,3-6.69,6.33"/><path class="cls-15" d="M208.77,210.25a6.31,6.31,0,0,1,4.28,2.44,15.24,15.24,0,0,1,2.17,3.53"/><rect class="cls-5" x="144.92" y="141.3" width="5.82" height="42.18"/><rect class="cls-3" x="144.76" y="158.03" width="6.06" height="2.34" transform="translate(-36.87 44.8) rotate(-15.35)"/><rect class="cls-3" x="144.76" y="164.22" width="6.06" height="2.34" transform="translate(-38.51 45.02) rotate(-15.35)"/><rect class="cls-3" x="143.13" y="170.57" width="6.03" height="2.33" transform="translate(-39.81 44.18) rotate(-15.15)"/><rect class="cls-3" x="144.77" y="151.84" width="6.06" height="2.34" transform="translate(-35.23 44.58) rotate(-15.35)"/><rect class="cls-3" x="144.77" y="145.65" width="6.06" height="2.34" transform="translate(-33.59 44.36) rotate(-15.35)"/><rect class="cls-3" x="144.76" y="176.61" width="6.06" height="2.34" transform="translate(-41.79 45.46) rotate(-15.35)"/><path class="cls-16" d="M129.52,148.12c-.67-1.64.47-4.11.47-4.11-6.85-.95-6.58,5.75-6.58,5.75a4,4,0,0,0-3.91,1.18,4.5,4.5,0,0,0-1,4.48,4.33,4.33,0,0,0-2.3,3.57,3.38,3.38,0,0,0,2.24,3.18l16.44.18a3.49,3.49,0,0,0,2.3-3.28,3.74,3.74,0,0,0-2.46-3.4,2.77,2.77,0,0,0,.46-3.1"/><path class="cls-3" d="M196.17,165.07a3.88,3.88,0,0,1-1.66,5.06c-2.81,1.6-6.5.4-6.46-3.19s2-4.82,3.8-4.81,1.63,2.5,1.63,2.5l.17-.06C194.14,164.43,195.55,164.1,196.17,165.07Z"/><path class="cls-16" d="M174.92,181.29a4.23,4.23,0,0,1-2.8-4,5.39,5.39,0,0,1,2.87-4.46,5.56,5.56,0,0,1,1.19-5.57,5,5,0,0,1,4.88-1.47s-.34-8.35,8.2-7.17c0,0-1.42,3.08-.59,5.12"/><path class="cls-16" d="M195.4,181.51a4.35,4.35,0,0,0,2.86-4.08,4.63,4.63,0,0,0-3.07-4.23,3.48,3.48,0,0,0,.58-3.87"/><path class="cls-16" d="M193.48,164.63s.16-2.48-1.63-2.5-3.77,1.23-3.8,4.81,3.65,4.79,6.46,3.19a3.88,3.88,0,0,0,1.66-5.06c-.62-1-2-.64-2.52-.5Z"/><path class="cls-16" d="M193.65,164.57s.84-6.64,6.25-9"/><rect class="cls-5" x="98.8" y="215.18" width="13.15" height="13.47"/><rect class="cls-19" x="144.92" y="141.35" width="5.82" height="42.18"/><polygon class="cls-20" points="203.32 175.78 208.49 181.92 214.42 180.52 215.39 184.29 134.9 184.29 130.27 182.78 152.79 176.96 156.34 181.06 181.23 174.91 185.76 180.52 203.32 175.78"/><circle class="cls-1" cx="146.86" cy="197.54" r="70.88"/><g class="cls-21"><path class="cls-22" d="M105.54,223.44l16.23,64.67,1,4.19a2.85,2.85,0,0,0,5.52,0l17.27-68.86"/></g><circle class="cls-1" cx="146.86" cy="197.54" r="70.88"/><circle class="cls-23" cx="146.86" cy="197.54" r="70.88"/><path class="cls-24" d="M133.38,149.53s.13-2-1.31-2-3,1-3,3.87,2.93,3.84,5.19,2.55a3.11,3.11,0,0,0,1.33-4.06C134.94,148.93,133.38,149.53,133.38,149.53Z"/><path class="cls-25" d="M103.77,212.4c-1.35,1.62-2.1,2.55-2.1,4.44,0,7.18,12.21,8.19,23.88,8.19s23.88-1,23.88-8.19c0-1.89-.76-2.82-2.1-4.44a22.87,22.87,0,1,0-44.65-7A22.46,22.46,0,0,0,103.77,212.4Z"/><text class="cls-26" transform="matrix(0.54, -0.84, 0.84, 0.54, 74.84, 161.35)">H</text><text class="cls-26" transform="translate(84.61 146.33) rotate(-44.77)">A</text><text class="cls-26" transform="matrix(0.85, -0.53, 0.53, 0.85, 96.68, 134.37)">N</text><text class="cls-26" transform="translate(112.45 124.66) rotate(-19.05)">D</text><text class="cls-26" transform="translate(129.2 118.73) rotate(-4.97)">M</text><text class="cls-26" transform="matrix(0.99, 0.15, -0.15, 0.99, 150.42, 117.23)">A</text><text class="cls-27" transform="translate(167.23 119.86) rotate(21.16)">D</text><text class="cls-26" transform="translate(183.92 126.59) rotate(33.03)">E</text><text class="cls-26" transform="translate(202.59 140.65) rotate(47.45)">I</text><text class="cls-28" transform="matrix(0.54, 0.84, -0.84, 0.54, 208.45, 146.51)">N</text><text class="cls-26" transform="translate(74.01 260.61) rotate(44.6)">B</text><text class="cls-26" transform="matrix(0.81, 0.58, -0.58, 0.81, 87.91, 273.47)">I</text><text class="cls-26" transform="translate(96.83 279.99) rotate(26.2)">D</text><text class="cls-26" transform="matrix(0.97, 0.23, -0.23, 0.97, 116.42, 289.07)">D</text><text class="cls-26" transform="translate(137.4 293.41) rotate(1.37)">E</text><text class="cls-26" transform="translate(155.65 293.44) rotate(-9.3)">F</text><text class="cls-26" transform="matrix(0.93, -0.36, 0.36, 0.93, 172.87, 290.53)">O</text><text class="cls-29" transform="translate(194.67 281.23) rotate(-34.01)">R</text><text class="cls-26" transform="translate(210.71 269.82) rotate(-46.57)">D</text><ellipse class="cls-3" cx="134.14" cy="158.96" rx="2.73" ry="2.82"/></svg>