<svg id="Layer_1" data-name="Layer 1" xmlns="http://www.w3.org/2000/svg" xmlns:xlink="http://www.w3.org/1999/xlink" viewBox="0 0 318.49 423.41"><defs><style>.cls-1,.cls-12,.cls-14,.cls-15,.cls-16,.cls-17,.cls-19,.cls-23{fill:none;}.cls-2{fill:#faf9e1;}.cls-13,.cls-20,.cls-24,.cls-26,.cls-3{fill:#fff;}.cls-4{fill:#7f8081;}.cls-10,.cls-11,.cls-5,.cls-8,.cls-9{fill:#e4a88c;}.cls-6{fill:#6a92c7;}.cls-7{fill:#485ea4;}.cls-18,.cls-7{stroke:#010101;}.cls-10,.cls-11,.cls-12,.cls-13,.cls-14,.cls-15,.cls-16,.cls-19,.cls-20,.cls-23,.cls-7,.cls-8,.cls-9{stroke-miterlimit:10;}.cls-7,.cls-8{stroke-width:0.27px;}.cls-10,.cls-11,.cls-12,.cls-13,.cls-16,.cls-22,.cls-23,.cls-25,.cls-8,.cls-9{stroke:#fff;}.cls-18,.cls-19,.cls-20,.cls-9{stroke-width:1.07px;}.cls-10,.cls-12,.cls-13,.cls-14{stroke-width:0.54px;}.cls-11{stroke-width:1.08px;}.cls-14,.cls-15{stroke:#231f20;}.cls-15,.cls-16,.cls-17,.cls-24{stroke-width:0.81px;}.cls-17,.cls-19,.cls-20,.cls-24{stroke:#e4a88c;}.cls-17,.cls-18,.cls-22,.cls-24,.cls-25{stroke-linecap:round;stroke-linejoin:round;}.cls-18{fill:#f26342;}.cls-21{clip-path:url(#clip-path);}.cls-22{fill:#fee7a2;stroke-width:1.34px;}.cls-23{stroke-width:2.15px;}.cls-25{fill:#3b2416;stroke-width:1.61px;}.cls-26{font-size:19.35px;font-family:Averta-Semibold, Averta;font-weight:700;}</style><clipPath id="clip-path" transform="translate(0.65 -0.75)"><circle class="cls-1" cx="155.48" cy="180.62" r="58.92"/></clipPath></defs><title>Untitled-22icecream_corner</title><path class="cls-2" d="M266.36,81.29c19,44.41,56.05,91.77,51,135-16.23,139-155,132.28-119,142.9s117.79,21,88.08,29.21C220.8,406.49,108.6,446.24,78.86,408.33-13,291.29-4.89,48.05,5.33,48.29c44.31,1,92.5-68.55,142.88-41.14" transform="translate(0.65 -0.75)"/><path class="cls-3" d="M131.09,151.33a8.88,8.88,0,0,1-1-1.71,4.36,4.36,0,0,1,.2-1.18c.45-1.4,1.49-2.14,1.71-3.59a4.66,4.66,0,0,1,.86-2.43c.87-.94,2.86-.42,3.37-1.6a3,3,0,0,0,.15-.72,4,4,0,0,1,4.16-3.27.72.72,0,0,1,.47.16c.09.08-.07.24,0,.37a7.83,7.83,0,0,1-.17,3.22,3.92,3.92,0,0,0,1,3.18,3.51,3.51,0,0,0,3.2.59c.41-.09.94-.15,1.14.21s-.07.75,0,1.11-.47.46-.31.62c.68.7,1.83,1.58,1.8,2.56a3,3,0,0,1-1.37,2.45c-.77.45-1.15.95-2,1-3,.07-6.57-.32-9.57-.25C133.1,152.06,132.07,152.45,131.09,151.33Z" transform="translate(0.65 -0.75)"/><rect class="cls-4" x="97.82" y="188.2" width="121.73" height="9.41"/><rect class="cls-5" x="97.15" y="184.3" width="118.98" height="21.97"/><polygon class="cls-6" points="130.39 206.66 118.58 206.66 119.25 200.47 130.39 200.47 130.39 206.66"/><polygon class="cls-7" points="130.16 201.03 119.18 201.03 119.18 197.87 129.22 197.87 130.16 201.03"/><path class="cls-3" d="M201,198.59a8.41,8.41,0,0,1,1-3.45,6.8,6.8,0,0,1,3.17-3.48,4.2,4.2,0,0,1,4.38.75,20.53,20.53,0,0,0,1.79,1.82,1.3,1.3,0,0,1,.41.36,1,1,0,0,1,.09.57,6.2,6.2,0,0,1-.88,3.42Z" transform="translate(0.65 -0.75)"/><path class="cls-3" d="M180.33,198.63A8.2,8.2,0,0,1,182,194.2a5.83,5.83,0,0,1,3.52-2.8,4.28,4.28,0,0,1,2.94.7,9.71,9.71,0,0,1,2.21,2.13,6.93,6.93,0,0,1,.69,1c.58,1.06.68,2.33,1.27,3.38Z" transform="translate(0.65 -0.75)"/><path class="cls-3" d="M159.63,198.54a8.21,8.21,0,0,1,1.66-4.43,5.8,5.8,0,0,1,3.52-2.8,4.25,4.25,0,0,1,2.93.7,9.55,9.55,0,0,1,2.22,2.13,6.93,6.93,0,0,1,.69,1c.58,1.06.68,2.33,1.26,3.39Z" transform="translate(0.65 -0.75)"/><polygon class="cls-5" points="195.16 206.66 179.85 206.66 180.25 200.47 194.02 200.47 195.16 206.66"/><polygon class="cls-8" points="194.49 201.03 180.25 201.03 181.13 197.87 193.35 197.87 194.49 201.03"/><polygon class="cls-8" points="173.8 201.03 159.56 201.03 160.44 197.87 172.66 197.87 173.8 201.03"/><polygon class="cls-5" points="215.79 206.66 200.47 206.66 200.87 200.47 214.65 200.47 215.79 206.66"/><polygon class="cls-8" points="215.12 201.03 200.87 201.03 201.75 197.87 213.98 197.87 215.12 201.03"/><rect class="cls-5" x="101.31" y="200.47" width="11.81" height="6.19"/><path class="cls-3" d="M99.38,196.68a6.21,6.21,0,0,1,1-1.91,8.79,8.79,0,0,1,3.17-2.84,5.2,5.2,0,0,1,2-.38,2.75,2.75,0,0,1,1.36.28,6.17,6.17,0,0,1,1.31,1.34c.32.35.7.64,1,1a5.2,5.2,0,0,1,.59,1c.5,1.07.94,2.17,1.45,3.24h-5.78C103.75,198.45,98.62,199.77,99.38,196.68Z" transform="translate(0.65 -0.75)"/><rect class="cls-3" x="99.65" y="121.06" width="112.33" height="41.74"/><rect class="cls-9" x="145.15" y="146.99" width="69.69" height="33.95"/><rect class="cls-5" x="96.74" y="161.86" width="19.08" height="18.95"/><polygon class="cls-8" points="112.89 201.03 100.77 201.03 100.77 197.87 111.86 197.87 112.89 201.03"/><rect class="cls-9" x="97.15" y="180.94" width="118.11" height="3.36"/><rect class="cls-10" x="159.32" y="151.47" width="25.62" height="2.6"/><rect class="cls-10" x="190.65" y="151.34" width="17.15" height="2.55"/><rect class="cls-10" x="148.49" y="151.29" width="5.76" height="2.69"/><path class="cls-11" d="M102.63,207H208a73.39,73.39,0,0,1-18.38,21.38c-16.35,12.91-48.28,19.16-74.59-3.77C109.24,219.63,108.57,215.36,102.63,207Z" transform="translate(0.65 -0.75)"/><path class="cls-3" d="M177.61,167.5c-.92-.24-.59-1.1-.8-2s-.87-1.82-.31-2.69a3.12,3.12,0,0,1,.79-.94c.21-.15.46-.25.68-.4a2.94,2.94,0,0,0,.81-2.52,3.59,3.59,0,0,1,.57-2.63,10.67,10.67,0,0,1,1.22-.86,3.75,3.75,0,0,1,2-.81,1.59,1.59,0,0,0,1.25-.62,3,3,0,0,0,.24-1.3,4.39,4.39,0,0,1,2.18-3.29,6,6,0,0,1,4.16-.7c.15,1.85-.38,3.72-.32,5.76.05,1.21-.32,2.58.5,3.46a3.48,3.48,0,0,0,3.09.66,15.91,15.91,0,0,0,2.67-1.05c-.27,1.19-.71,3.59.49,3.82,1,.19.68.39.79.67a4.61,4.61,0,0,1,.38,1.41c.09,1.42,0,3.16-1.22,3.86a3.8,3.8,0,0,1-1.57.36,85.23,85.23,0,0,1-9.32.21c-1.54-.05-3.07-.15-4.6-.27A23.5,23.5,0,0,1,177.61,167.5Z" transform="translate(0.65 -0.75)"/><rect class="cls-10" x="109.09" y="166.19" width="2.61" height="12.03"/><rect class="cls-5" x="115.82" y="151.6" width="32.57" height="29.34"/><rect class="cls-10" x="122.07" y="155.01" width="3.9" height="18.89"/><rect class="cls-10" x="139.27" y="155.01" width="4.1" height="13.24"/><line class="cls-12" x1="121.87" y1="157.56" x2="126.17" y2="157.56"/><line class="cls-12" x1="122" y1="160.18" x2="125.97" y2="160.18"/><line class="cls-12" x1="122" y1="162.87" x2="125.97" y2="162.87"/><line class="cls-12" x1="121.94" y1="165.56" x2="125.9" y2="165.56"/><line class="cls-12" x1="122" y1="168.18" x2="126.03" y2="168.18"/><line class="cls-12" x1="122.07" y1="170.93" x2="125.83" y2="170.93"/><line class="cls-13" x1="139.34" y1="157.63" x2="143.3" y2="157.63"/><line class="cls-13" x1="139.13" y1="160.12" x2="143.43" y2="160.12"/><line class="cls-13" x1="139.2" y1="162.94" x2="143.5" y2="162.94"/><line class="cls-13" x1="139.2" y1="165.49" x2="143.43" y2="165.49"/><line class="cls-12" x1="149.82" y1="151.52" x2="149.82" y2="154"/><line class="cls-12" x1="153.24" y1="151.38" x2="153.24" y2="154.07"/><line class="cls-12" x1="163.92" y1="151.52" x2="163.92" y2="154.14"/><line class="cls-12" x1="167.75" y1="151.58" x2="167.75" y2="154"/><line class="cls-13" x1="171.25" y1="151.52" x2="171.25" y2="154.07"/><line class="cls-12" x1="175.01" y1="151.52" x2="175.01" y2="154"/><line class="cls-12" x1="178.37" y1="151.52" x2="178.37" y2="154.07"/><line class="cls-12" x1="181.79" y1="151.52" x2="181.79" y2="154"/><line class="cls-12" x1="196.17" y1="151.52" x2="196.17" y2="153.8"/><line class="cls-12" x1="199.6" y1="151.52" x2="199.6" y2="154"/><line class="cls-12" x1="203.49" y1="151.52" x2="203.49" y2="154"/><line class="cls-14" x1="142.43" y1="172.68" x2="142.43" y2="175.97"/><line class="cls-14" x1="145.92" y1="172.75" x2="145.92" y2="175.97"/><line class="cls-14" x1="149.88" y1="172.68" x2="149.88" y2="175.97"/><line class="cls-14" x1="153.24" y1="172.75" x2="153.24" y2="175.97"/><polygon class="cls-5" points="213.3 172.75 213.3 176.04 210.61 176.04 210.61 175.9 210.61 172.75 213.3 172.75"/><polygon class="cls-5" points="210.61 175.9 210.61 176.04 206.99 176.04 206.99 175.84 206.99 172.75 210.61 172.75 210.61 175.9"/><polygon class="cls-5" points="206.99 175.84 206.99 176.04 203.43 176.04 203.43 172.81 203.43 172.75 206.99 172.75 206.99 175.84"/><polygon class="cls-5" points="203.43 172.81 203.43 176.04 199.66 176.04 199.66 175.84 199.66 172.75 203.43 172.75 203.43 172.81"/><polygon class="cls-5" points="199.66 175.84 199.66 176.04 196.1 176.04 196.1 175.77 196.1 172.75 199.66 172.75 199.66 175.84"/><polygon class="cls-5" points="196.1 175.77 196.1 176.04 192.61 176.04 192.61 175.9 192.61 172.75 196.1 172.75 196.1 175.77"/><polygon class="cls-5" points="192.61 175.9 192.61 176.04 189.12 176.04 189.12 172.75 192.61 172.75 192.61 175.9"/><polygon class="cls-5" points="189.12 172.75 189.12 176.04 185.69 176.04 185.69 175.97 185.69 172.75 189.12 172.75"/><polygon class="cls-5" points="185.69 175.97 185.69 176.04 181.86 176.04 181.86 175.9 181.86 172.75 185.69 172.75 185.69 175.97"/><polygon class="cls-5" points="181.86 175.9 181.86 176.04 178.3 176.04 178.3 175.97 178.3 172.75 181.86 172.75 181.86 175.9"/><polygon class="cls-5" points="178.3 175.97 178.3 176.04 174.87 176.04 174.87 172.75 178.3 172.75 178.3 175.97"/><polygon class="cls-5" points="174.87 172.75 174.87 176.04 171.11 176.04 171.11 175.97 171.11 172.75 174.87 172.75"/><polygon class="cls-5" points="171.11 175.97 171.11 176.04 167.75 176.04 167.75 175.9 167.75 172.75 171.11 172.75 171.11 175.97"/><polygon class="cls-5" points="167.75 175.9 167.75 176.04 163.92 176.04 163.92 175.9 163.92 172.75 167.75 172.75 167.75 175.9"/><polygon class="cls-5" points="163.92 175.9 163.92 176.04 160.36 176.04 160.36 175.9 160.36 172.75 163.92 172.75 163.92 175.9"/><polygon class="cls-5" points="160.36 175.9 160.36 176.04 156.74 176.04 156.74 172.75 160.36 172.75 160.36 175.9"/><rect class="cls-5" x="138.86" y="172.75" width="17.87" height="3.29"/><polygon class="cls-12" points="210.61 172.75 213.3 172.75 213.3 176.04 210.61 176.04 206.99 176.04 203.43 176.04 199.66 176.04 196.1 176.04 192.61 176.04 189.12 176.04 185.69 176.04 181.86 176.04 178.3 176.04 174.87 176.04 171.11 176.04 167.75 176.04 163.92 176.04 160.36 176.04 156.74 176.04 138.87 176.04 138.87 172.75 156.74 172.75 160.36 172.75 163.92 172.75 167.75 172.75 171.11 172.75 174.87 172.75 178.3 172.75 181.86 172.75 185.69 172.75 189.12 172.75 192.61 172.75 196.1 172.75 199.66 172.75 203.43 172.75 206.99 172.75 210.61 172.75"/><polyline class="cls-12" points="156.74 172.68 156.74 172.75 156.74 176.04 156.74 176.1"/><polyline class="cls-12" points="160.36 172.68 160.36 172.75 160.36 175.9"/><line class="cls-12" x1="163.92" y1="172.75" x2="163.92" y2="175.9"/><polyline class="cls-12" points="167.75 172.68 167.75 172.75 167.75 175.9"/><line class="cls-12" x1="171.11" y1="172.75" x2="171.11" y2="175.97"/><line class="cls-12" x1="174.87" y1="172.75" x2="174.87" y2="176.04"/><line class="cls-12" x1="178.3" y1="172.75" x2="178.3" y2="175.97"/><polyline class="cls-12" points="181.86 172.68 181.86 172.75 181.86 175.9"/><line class="cls-12" x1="185.69" y1="172.75" x2="185.69" y2="175.97"/><line class="cls-12" x1="189.12" y1="172.75" x2="189.12" y2="176.04"/><polyline class="cls-12" points="192.61 172.68 192.61 172.75 192.61 175.9"/><line class="cls-12" x1="196.1" y1="172.75" x2="196.1" y2="175.77"/><line class="cls-12" x1="199.66" y1="172.75" x2="199.66" y2="175.84"/><polyline class="cls-12" points="203.43 172.81 203.43 176.04 203.43 176.17"/><polyline class="cls-12" points="206.99 172.61 206.99 172.75 206.99 175.84"/><line class="cls-12" x1="210.61" y1="172.75" x2="210.61" y2="175.9"/><path class="cls-15" d="M137.77,206.65s.6-16.13,7.23-15.59,8,15.59,8,15.59" transform="translate(0.65 -0.75)"/><line class="cls-16" x1="105.61" y1="208.08" x2="206.79" y2="208.08"/><line class="cls-16" x1="106.69" y1="210.23" x2="205.98" y2="210.23"/><line class="cls-16" x1="108.16" y1="212.79" x2="203.83" y2="212.79"/><line class="cls-16" x1="109.91" y1="215.34" x2="201.68" y2="215.34"/><line class="cls-16" x1="199.26" y1="218.7" x2="112.19" y2="218.7"/><line class="cls-16" x1="195.77" y1="222.33" x2="116.09" y2="222.33"/><line class="cls-16" x1="191.07" y1="226.09" x2="121.06" y2="226.09"/><line class="cls-16" x1="185.15" y1="230.25" x2="127.11" y2="230.25"/><line class="cls-16" x1="176.15" y1="234.69" x2="133.15" y2="234.69"/><line class="cls-14" x1="192.68" y1="151.52" x2="192.68" y2="153.8"/><path class="cls-17" d="M144.12,142s.56-4.43,4.16-6" transform="translate(0.65 -0.75)"/><path class="cls-5" d="M155.1,267.65a87.13,87.13,0,1,1,34-6.87A86.86,86.86,0,0,1,155.1,267.65Zm0-146.32a58.91,58.91,0,1,0,41.66,17.25A58.56,58.56,0,0,0,155.1,121.33Z" transform="translate(0.65 -0.75)"/><line class="cls-18" x1="179.46" y1="167.97" x2="196.48" y2="168.15"/><path class="cls-16" d="M179.16,207.06s.59-16.14,7.22-15.6,8,15.6,8,15.6" transform="translate(0.65 -0.75)"/><path class="cls-16" d="M105,191.32c6.62.54,8,15.6,8,15.6" transform="translate(0.65 -0.75)"/><path class="cls-16" d="M199.72,206.79s.59-16.14,7.22-15.6" transform="translate(0.65 -0.75)"/><path class="cls-16" d="M158.47,206.79s.59-16.14,7.22-15.6,8,15.6,8,15.6" transform="translate(0.65 -0.75)"/><polyline class="cls-16" points="207.73 206.34 174.37 206.34 159.12 206.34 103.86 206.34"/><path class="cls-16" d="M105.06,191.32c-2.49.21-4.35,2.54-5.57,5.27" transform="translate(0.65 -0.75)"/><path class="cls-16" d="M206.94,191.19a5.18,5.18,0,0,1,3.55,2,12.85,12.85,0,0,1,1.81,2.93" transform="translate(0.65 -0.75)"/><rect class="cls-5" x="154.52" y="133.11" width="4.84" height="35.07"/><rect class="cls-3" x="153.73" y="147.78" width="5.04" height="1.95" transform="translate(-33.15 45.91) rotate(-15.35)"/><rect class="cls-3" x="153.73" y="152.93" width="5.04" height="1.95" transform="translate(-34.51 46.09) rotate(-15.35)"/><rect class="cls-3" x="153.73" y="158.08" width="5.04" height="1.95" transform="translate(-35.87 46.27) rotate(-15.35)"/><rect class="cls-3" x="153.73" y="142.64" width="5.04" height="1.95" transform="translate(-31.78 45.72) rotate(-15.35)"/><rect class="cls-3" x="153.73" y="137.49" width="5.04" height="1.95" transform="translate(-30.42 45.54) rotate(-15.35)"/><rect class="cls-3" x="153.73" y="163.23" width="5.04" height="1.95" transform="translate(-37.23 46.46) rotate(-15.35)"/><path class="cls-17" d="M140.79,140.88c-.55-1.36.4-3.42.4-3.42-5.7-.79-5.48,4.78-5.48,4.78a3.33,3.33,0,0,0-3.25,1,3.7,3.7,0,0,0-.79,3.71,3.59,3.59,0,0,0-1.91,3,2.81,2.81,0,0,0,1.86,2.65l13.66.15a2.91,2.91,0,0,0,1.91-2.73,3.09,3.09,0,0,0-2-2.82,2.32,2.32,0,0,0,.38-2.58" transform="translate(0.65 -0.75)"/><path class="cls-3" d="M196.47,153.62a3.24,3.24,0,0,1-1.38,4.22c-2.33,1.33-5.4.33-5.37-2.65s1.67-4,3.16-4,1.35,2.08,1.35,2.08S195.84,152.65,196.47,153.62Z" transform="translate(0.65 -0.75)"/><path class="cls-17" d="M178.8,167.11a3.51,3.51,0,0,1-2.32-3.3,4.49,4.49,0,0,1,2.39-3.7,4.61,4.61,0,0,1,1-4.63,4.15,4.15,0,0,1,4.06-1.22s-.29-6.94,6.81-6c0,0-1.18,2.56-.49,4.25" transform="translate(0.65 -0.75)"/><path class="cls-17" d="M195.83,167.29a3.61,3.61,0,0,0,2.38-3.39,3.87,3.87,0,0,0-2.55-3.52,2.88,2.88,0,0,0,.47-3.21" transform="translate(0.65 -0.75)"/><path class="cls-17" d="M194.23,153.26s.14-2.06-1.35-2.08-3.14,1-3.16,4,3,4,5.37,2.65a3.24,3.24,0,0,0,1.38-4.22C195.84,152.65,194.23,153.26,194.23,153.26Z" transform="translate(0.65 -0.75)"/><path class="cls-17" d="M194.37,153.21s.7-5.52,5.2-7.52" transform="translate(0.65 -0.75)"/><rect class="cls-5" x="116.18" y="194.53" width="10.93" height="11.2"/><rect class="cls-19" x="154.52" y="133.15" width="4.84" height="35.07"/><polygon class="cls-20" points="203.07 161.77 207.37 166.88 212.29 165.71 213.1 168.85 146.19 168.85 142.34 167.59 161.06 162.76 164.01 166.16 184.71 161.06 188.47 165.71 203.07 161.77"/><circle class="cls-1" cx="156.13" cy="179.87" r="58.92"/><g class="cls-21"><path class="cls-22" d="M137.75,169,121.1,202.15l13.48,53.76.88,3.49a2.36,2.36,0,0,0,4.58,0l14.36-57.25" transform="translate(0.65 -0.75)"/></g><circle class="cls-1" cx="156.13" cy="179.87" r="58.92"/><circle class="cls-23" cx="156.13" cy="179.87" r="58.92"/><path class="cls-24" d="M144,142.05s.11-1.66-1.09-1.67-2.51.82-2.53,3.21,2.44,3.2,4.31,2.13a2.58,2.58,0,0,0,1.1-3.38C145.3,141.56,144,142.05,144,142.05Z" transform="translate(0.65 -0.75)"/><path class="cls-25" d="M119.64,193c-1.11,1.35-1.74,2.12-1.74,3.7,0,6,10.15,6.8,19.85,6.8s19.85-.84,19.85-6.8c0-1.58-.62-2.35-1.74-3.7a19,19,0,1,0-36.22,0Zm34.76,8.38" transform="translate(0.65 -0.75)"/><text class="cls-26" transform="translate(96.26 149.78) rotate(-57.38)">H</text><text class="cls-26" transform="matrix(0.71, -0.7, 0.7, 0.71, 104.39, 137.29)">A</text><text class="cls-26" transform="matrix(0.85, -0.53, 0.53, 0.85, 114.42, 127.35)">N</text><text class="cls-26" transform="translate(127.53 119.27) rotate(-19.05)">D</text><text class="cls-26" transform="matrix(1, -0.09, 0.09, 1, 141.45, 114.34)">M</text><text class="cls-26" transform="translate(159.09 113.1) rotate(8.73)">A</text><text class="cls-26" transform="translate(173.07 115.28) rotate(21.21)">D</text><text class="cls-26" transform="matrix(0.84, 0.55, -0.55, 0.84, 186.94, 120.88)">E</text><text class="cls-26" transform="matrix(0.75, 0.66, -0.66, 0.75, 197.56, 128.17)"> </text><text class="cls-26" transform="translate(202.46 132.56) rotate(47.45)">I</text><text class="cls-26" transform="translate(207.34 137.44) rotate(57.25)">N</text><text class="cls-26" transform="translate(95.55 232.33) rotate(44.58)">B</text><text class="cls-26" transform="translate(107.09 243) rotate(35.74)">I</text><text class="cls-26" transform="translate(114.5 248.43) rotate(26.2)">D</text><text class="cls-26" transform="translate(130.79 255.98) rotate(13.29)">D</text><text class="cls-26" transform="matrix(1, 0.02, -0.02, 1, 148.23, 259.58)">E</text><text class="cls-26" transform="translate(163.41 259.61) rotate(-9.3)">F</text><text class="cls-26" transform="translate(177.72 257.18) rotate(-21.33)">O</text><text class="cls-26" transform="translate(195.84 249.45) rotate(-34.35)">R</text><text class="cls-26" transform="translate(209.18 239.97) rotate(-46.57)">D</text><ellipse class="cls-3" cx="145.15" cy="149.07" rx="2.27" ry="2.35"/></svg>