<svg id="Layer_1" data-name="Layer 1" xmlns="http://www.w3.org/2000/svg" xmlns:xlink="http://www.w3.org/1999/xlink" viewBox="0 0 208.44 208.44"><defs><style>.cls-1,.cls-11,.cls-12,.cls-13,.cls-14,.cls-15,.cls-16,.cls-17,.cls-21{fill:none;}.cls-18,.cls-2,.cls-22{fill:#fff;}.cls-3{fill:#7f8081;}.cls-10,.cls-24,.cls-25,.cls-26,.cls-27,.cls-4,.cls-7,.cls-8,.cls-9{fill:#404041;}.cls-5{fill:#6a92c7;}.cls-6{fill:#485ea4;}.cls-16,.cls-6{stroke:#000;}.cls-10,.cls-11,.cls-12,.cls-13,.cls-14,.cls-17,.cls-18,.cls-21,.cls-23,.cls-6,.cls-7,.cls-8,.cls-9{stroke-miterlimit:10;}.cls-6,.cls-7{stroke-width:0.32px;}.cls-10,.cls-11,.cls-14,.cls-20,.cls-23,.cls-7,.cls-8,.cls-9{stroke:#fff;}.cls-16,.cls-17,.cls-18,.cls-8{stroke-width:1.29px;}.cls-11,.cls-12,.cls-9{stroke-width:0.65px;}.cls-10{stroke-width:1.3px;}.cls-12,.cls-13{stroke:#221f1f;}.cls-13,.cls-14,.cls-15,.cls-22{stroke-width:0.97px;}.cls-15,.cls-17,.cls-18,.cls-21,.cls-22{stroke:#404041;}.cls-15,.cls-16,.cls-20,.cls-22{stroke-linecap:round;stroke-linejoin:round;}.cls-19{clip-path:url(#clip-path);}.cls-20{fill:#fde5a1;}.cls-20,.cls-23{stroke-width:1.62px;}.cls-21{stroke-width:2.59px;}.cls-23{fill:#e4c1c0;}.cls-24,.cls-25,.cls-26,.cls-27{isolation:isolate;font-family:Averta-Bold, Averta;font-weight:700;}.cls-24{font-size:23.27px;}.cls-25{font-size:23.21px;}.cls-26{font-size:23.24px;}.cls-27{font-size:23.3px;}</style><clipPath id="clip-path"><circle class="cls-1" cx="104.56" cy="104.4" r="70.88"/></clipPath></defs><title>Artboard 1CORNER_HOME</title><path class="cls-2" d="M75.22,69.17A11.1,11.1,0,0,1,74,67.11a5.71,5.71,0,0,1,.24-1.42c.55-1.69,1.79-2.57,2.07-4.32a5.34,5.34,0,0,1,1-2.91c1-1.15,3.45-.51,4.06-1.94a4.25,4.25,0,0,0,.18-.86,4.84,4.84,0,0,1,5-3.94,1,1,0,0,1,.56.19c.12.11-.08.3,0,.45a9,9,0,0,1-.2,3.88A4.68,4.68,0,0,0,88,60.06a4.23,4.23,0,0,0,3.85.71c.49-.11,1.13-.18,1.37.25s-.08.9,0,1.34c.07.26-.57.55-.38.75.82.84,2.2,1.9,2.17,3.07a3.56,3.56,0,0,1-1.65,3c-.93.55-1.38,1.14-2.46,1.17-3.6.08-7.9-.38-11.5-.3C77.64,70,76.4,70.51,75.22,69.17Z"/><rect class="cls-3" x="34.41" y="114.42" width="146.43" height="11.31"/><rect class="cls-4" x="33.61" y="109.73" width="143.12" height="26.43"/><polygon class="cls-5" points="73.59 136.63 59.38 136.63 60.19 129.18 73.59 129.18 73.59 136.63"/><polygon class="cls-6" points="73.31 129.86 60.11 129.86 60.11 126.06 72.19 126.06 73.31 129.86"/><path class="cls-2" d="M159.31,126a9.93,9.93,0,0,1,1.19-4.15,8.14,8.14,0,0,1,3.81-4.18,5.06,5.06,0,0,1,5.27.9,22.23,22.23,0,0,0,2.15,2.19,1.87,1.87,0,0,1,.5.43,1.37,1.37,0,0,1,.1.69,7.43,7.43,0,0,1-1.05,4.11Z"/><path class="cls-2" d="M134.47,126.07a9.86,9.86,0,0,1,2-5.34c1-1.53,2.41-3,4.24-3.36a5.14,5.14,0,0,1,3.53.84,11.39,11.39,0,0,1,2.66,2.57,8.27,8.27,0,0,1,.83,1.2c.7,1.28.82,2.81,1.52,4.08Z"/><path class="cls-2" d="M109.56,126a9.86,9.86,0,0,1,2-5.34,7.08,7.08,0,0,1,4.24-3.36,5.14,5.14,0,0,1,3.53.84,11.39,11.39,0,0,1,2.66,2.57,8.27,8.27,0,0,1,.83,1.2c.7,1.28.82,2.81,1.52,4.08Z"/><polygon class="cls-4" points="151.51 136.63 133.09 136.63 133.57 129.18 150.14 129.18 151.51 136.63"/><polygon class="cls-7" points="150.7 129.86 133.57 129.86 134.63 126.06 149.33 126.06 150.7 129.86"/><polygon class="cls-7" points="125.81 129.86 108.68 129.86 109.74 126.06 124.44 126.06 125.81 129.86"/><polygon class="cls-4" points="176.32 136.63 157.9 136.63 158.38 129.18 174.95 129.18 176.32 136.63"/><polygon class="cls-7" points="175.51 129.86 158.38 129.86 159.44 126.06 174.14 126.06 175.51 129.86"/><rect class="cls-4" x="38.62" y="129.18" width="14.21" height="7.45"/><path class="cls-2" d="M37.08,123.73a7.51,7.51,0,0,1,1.14-2.28A10.47,10.47,0,0,1,42,118a6.15,6.15,0,0,1,2.43-.47,3.32,3.32,0,0,1,1.64.34,7.59,7.59,0,0,1,1.58,1.62c.38.42.85.77,1.2,1.22a7.49,7.49,0,0,1,.7,1.23c.61,1.28,1.13,2.61,1.74,3.89h-7C42.34,125.84,36.17,127.43,37.08,123.73Z"/><rect class="cls-2" x="37.11" y="31.99" width="135.12" height="50.21"/><rect class="cls-8" x="91.35" y="64.86" width="83.83" height="40.84"/><rect class="cls-8" x="33.12" y="82.74" width="22.95" height="22.79"/><polygon class="cls-7" points="52.55 129.86 37.97 129.86 37.97 126.06 51.3 126.06 52.55 129.86"/><rect class="cls-8" x="33.61" y="105.69" width="142.07" height="4.04"/><rect class="cls-9" x="108.4" y="70.25" width="30.82" height="3.12"/><rect class="cls-9" x="146.08" y="70.08" width="20.63" height="3.06"/><rect class="cls-9" x="95.37" y="70.03" width="6.93" height="3.23"/><path class="cls-10" d="M41,136.19H167.7a88.26,88.26,0,0,1-22.1,25.71c-19.67,15.53-58.09,23-89.73-4.54C49,151.33,48.13,146.19,41,136.19Z"/><path class="cls-2" d="M131.19,88.61c-1.12-.28-.72-1.31-1-2.43s-1-2.19-.37-3.24a3.61,3.61,0,0,1,1-1.13c.25-.18.56-.3.81-.48.9-.65,1-1.93,1-3s-.07-2.35.69-3.15a12.15,12.15,0,0,1,1.46-1,4.48,4.48,0,0,1,2.39-1,1.92,1.92,0,0,0,1.5-.75,3.68,3.68,0,0,0,.29-1.57,5.22,5.22,0,0,1,2.62-4,7.21,7.21,0,0,1,5-.85c.19,2.23-.46,4.48-.37,6.94,0,1.45-.4,3.1.6,4.16s2.4,1,3.7.79a18.54,18.54,0,0,0,3.22-1.26c-.33,1.43-.85,4.32.59,4.6,1.16.22.82.47,1,.8a5.89,5.89,0,0,1,.46,1.69c.11,1.72,0,3.81-1.47,4.65a4.43,4.43,0,0,1-1.89.43,102.27,102.27,0,0,1-11.21.26c-1.85-.06-3.69-.19-5.53-.34C134.13,88.62,132.62,89,131.19,88.61Z"/><rect class="cls-9" x="47.97" y="87.95" width="3.14" height="14.47"/><rect class="cls-8" x="56.07" y="70.4" width="39.18" height="35.29"/><rect class="cls-9" x="63.59" y="74.5" width="4.69" height="22.72"/><rect class="cls-9" x="84.28" y="74.5" width="4.93" height="15.93"/><line class="cls-11" x1="63.35" y1="77.57" x2="68.52" y2="77.57"/><line class="cls-11" x1="63.51" y1="80.72" x2="68.27" y2="80.72"/><line class="cls-11" x1="63.51" y1="83.95" x2="68.27" y2="83.95"/><line class="cls-11" x1="63.43" y1="87.19" x2="68.19" y2="87.19"/><line class="cls-11" x1="63.51" y1="90.34" x2="68.36" y2="90.34"/><line class="cls-11" x1="63.59" y1="93.65" x2="68.11" y2="93.65"/><line class="cls-11" x1="84.36" y1="77.65" x2="89.12" y2="77.65"/><line class="cls-11" x1="84.11" y1="80.64" x2="89.29" y2="80.64"/><line class="cls-11" x1="84.19" y1="84.04" x2="89.37" y2="84.04"/><line class="cls-11" x1="84.19" y1="87.11" x2="89.29" y2="87.11"/><line class="cls-11" x1="96.96" y1="70.3" x2="96.96" y2="73.29"/><line class="cls-11" x1="101.08" y1="70.14" x2="101.08" y2="73.37"/><line class="cls-11" x1="113.93" y1="70.3" x2="113.93" y2="73.45"/><line class="cls-11" x1="118.54" y1="70.38" x2="118.54" y2="73.29"/><line class="cls-11" x1="122.74" y1="70.3" x2="122.74" y2="73.37"/><line class="cls-11" x1="127.27" y1="70.3" x2="127.27" y2="73.29"/><line class="cls-11" x1="131.31" y1="70.3" x2="131.31" y2="73.37"/><line class="cls-11" x1="135.43" y1="70.3" x2="135.43" y2="73.29"/><line class="cls-11" x1="152.72" y1="70.3" x2="152.72" y2="73.05"/><line class="cls-11" x1="156.84" y1="70.3" x2="156.84" y2="73.29"/><line class="cls-11" x1="161.53" y1="70.3" x2="161.53" y2="73.29"/><line class="cls-12" x1="88.07" y1="95.75" x2="88.07" y2="99.71"/><line class="cls-12" x1="92.28" y1="95.83" x2="92.28" y2="99.71"/><line class="cls-12" x1="97.04" y1="95.75" x2="97.04" y2="99.71"/><line class="cls-12" x1="101.08" y1="95.83" x2="101.08" y2="99.71"/><polygon class="cls-4" points="173.33 95.83 173.33 99.79 170.1 99.79 170.1 99.63 170.1 95.83 173.33 95.83"/><polygon class="cls-4" points="170.1 99.63 170.1 99.79 165.73 99.79 165.73 99.55 165.73 95.83 170.1 95.83 170.1 99.63"/><polygon class="cls-4" points="165.73 99.55 165.73 99.79 161.45 99.79 161.45 95.91 161.45 95.83 165.73 95.83 165.73 99.55"/><polygon class="cls-4" points="161.45 95.91 161.45 99.79 156.93 99.79 156.93 99.55 156.93 95.83 161.45 95.83 161.45 95.91"/><polygon class="cls-4" points="156.93 99.55 156.93 99.79 152.64 99.79 152.64 99.47 152.64 95.83 156.93 95.83 156.93 99.55"/><polygon class="cls-4" points="152.64 99.47 152.64 99.79 148.44 99.79 148.44 99.63 148.44 95.83 152.64 95.83 152.64 99.47"/><polygon class="cls-4" points="148.44 99.63 148.44 99.79 144.24 99.79 144.24 95.83 148.44 95.83 148.44 99.63"/><polygon class="cls-4" points="144.24 95.83 144.24 99.79 140.12 99.79 140.12 99.71 140.12 95.83 144.24 95.83"/><polygon class="cls-4" points="140.12 99.71 140.12 99.79 135.51 99.79 135.51 99.63 135.51 95.83 140.12 95.83 140.12 99.71"/><polygon class="cls-4" points="135.51 99.63 135.51 99.79 131.23 99.79 131.23 99.71 131.23 95.83 135.51 95.83 135.51 99.63"/><polygon class="cls-4" points="131.23 99.71 131.23 99.79 127.1 99.79 127.1 95.83 131.23 95.83 131.23 99.71"/><polygon class="cls-4" points="127.1 95.83 127.1 99.79 122.58 99.79 122.58 99.71 122.58 95.83 127.1 95.83"/><polygon class="cls-4" points="122.58 99.71 122.58 99.79 118.54 99.79 118.54 99.63 118.54 95.83 122.58 95.83 122.58 99.71"/><polygon class="cls-4" points="118.54 99.63 118.54 99.79 113.93 99.79 113.93 99.63 113.93 95.83 118.54 95.83 118.54 99.63"/><polygon class="cls-4" points="113.93 99.63 113.93 99.79 109.65 99.79 109.65 99.63 109.65 95.83 113.93 95.83 113.93 99.63"/><polygon class="cls-4" points="109.65 99.63 109.65 99.79 105.29 99.79 105.29 95.83 109.65 95.83 109.65 99.63"/><rect class="cls-4" x="83.79" y="95.83" width="21.5" height="3.96"/><polygon class="cls-11" points="170.1 95.83 173.33 95.83 173.33 99.79 170.1 99.79 165.73 99.79 161.45 99.79 156.93 99.79 152.64 99.79 148.44 99.79 144.24 99.79 140.12 99.79 135.51 99.79 131.23 99.79 127.1 99.79 122.58 99.79 118.54 99.79 113.93 99.79 109.65 99.79 105.29 99.79 83.79 99.79 83.79 95.83 105.29 95.83 109.65 95.83 113.93 95.83 118.54 95.83 122.58 95.83 127.1 95.83 131.23 95.83 135.51 95.83 140.12 95.83 144.24 95.83 148.44 95.83 152.64 95.83 156.93 95.83 161.45 95.83 165.73 95.83 170.1 95.83"/><polyline class="cls-11" points="105.29 95.75 105.29 95.83 105.29 99.79 105.29 99.87"/><polyline class="cls-11" points="109.65 95.75 109.65 95.83 109.65 99.63"/><line class="cls-11" x1="113.93" y1="95.83" x2="113.93" y2="99.63"/><polyline class="cls-11" points="118.54 95.75 118.54 95.83 118.54 99.63"/><line class="cls-11" x1="122.58" y1="95.83" x2="122.58" y2="99.71"/><line class="cls-11" x1="127.11" y1="95.83" x2="127.11" y2="99.79"/><line class="cls-11" x1="131.23" y1="95.83" x2="131.23" y2="99.71"/><polyline class="cls-11" points="135.51 95.75 135.51 95.83 135.51 99.63"/><line class="cls-11" x1="140.12" y1="95.83" x2="140.12" y2="99.71"/><line class="cls-11" x1="144.24" y1="95.83" x2="144.24" y2="99.79"/><polyline class="cls-11" points="148.44 95.75 148.44 95.83 148.44 99.63"/><line class="cls-11" x1="152.64" y1="95.83" x2="152.64" y2="99.47"/><line class="cls-11" x1="156.93" y1="95.83" x2="156.93" y2="99.55"/><polyline class="cls-11" points="161.45 95.91 161.45 99.79 161.45 99.95"/><polyline class="cls-11" points="165.73 95.67 165.73 95.83 165.73 99.55"/><line class="cls-11" x1="170.1" y1="95.83" x2="170.1" y2="99.63"/><path class="cls-13" d="M83.27,135.73S84,116.33,92,117s9.66,18.76,9.66,18.76"/><line class="cls-14" x1="43.79" y1="138.34" x2="165.49" y2="138.34"/><line class="cls-14" x1="45.08" y1="140.93" x2="164.52" y2="140.93"/><line class="cls-14" x1="46.86" y1="144" x2="161.94" y2="144"/><line class="cls-14" x1="48.96" y1="147.07" x2="159.35" y2="147.07"/><line class="cls-14" x1="156.44" y1="151.11" x2="51.71" y2="151.11"/><line class="cls-14" x1="152.24" y1="155.47" x2="56.4" y2="155.47"/><line class="cls-14" x1="146.58" y1="160" x2="62.38" y2="160"/><line class="cls-14" x1="139.47" y1="165.01" x2="69.65" y2="165.01"/><line class="cls-14" x1="128.64" y1="170.34" x2="76.92" y2="170.34"/><line class="cls-12" x1="148.52" y1="70.3" x2="148.52" y2="73.05"/><path class="cls-15" d="M91.22,56.34s.67-5.33,5-7.26"/><path class="cls-2" d="M104.11,208.44a104.22,104.22,0,1,1,40.68-8.22A104.22,104.22,0,0,1,104.11,208.44Zm0-174.93a70.44,70.44,0,1,0,49.81,20.63A70.44,70.44,0,0,0,104.11,33.51Z"/><line class="cls-16" x1="132.62" y1="90.08" x2="153.1" y2="90.31"/><path class="cls-14" d="M133.05,136.2s.71-19.41,8.68-18.76,9.66,18.76,9.66,18.76"/><path class="cls-14" d="M43.79,117.28c8,.64,9.66,18.76,9.66,18.76"/><path class="cls-14" d="M157.77,135.88s.72-19.41,8.69-18.77"/><path class="cls-14" d="M108.16,135.88s.71-19.41,8.68-18.76,9.63,18.76,9.63,18.76"/><polyline class="cls-14" points="166.62 136.24 126.5 136.24 108.16 136.24 41.69 136.24"/><path class="cls-14" d="M43.91,117.28c-3,.24-5.23,3-6.69,6.33"/><path class="cls-14" d="M166.47,117.11a6.31,6.31,0,0,1,4.28,2.44,15.24,15.24,0,0,1,2.17,3.53"/><rect class="cls-4" x="102.62" y="48.16" width="5.82" height="42.18"/><rect class="cls-2" x="102.46" y="64.89" width="6.06" height="2.34" transform="translate(-13.72 30.28) rotate(-15.35)"/><rect class="cls-2" x="102.46" y="71.08" width="6.06" height="2.34" transform="translate(-15.36 30.5) rotate(-15.35)"/><rect class="cls-2" x="100.83" y="77.43" width="6.03" height="2.33" transform="translate(-16.94 29.88) rotate(-15.15)"/><rect class="cls-2" x="102.46" y="58.7" width="6.06" height="2.34" transform="translate(-12.09 30.06) rotate(-15.35)"/><rect class="cls-2" x="102.47" y="52.51" width="6.06" height="2.34" transform="translate(-10.45 29.84) rotate(-15.35)"/><rect class="cls-2" x="102.46" y="83.47" width="6.06" height="2.34" transform="translate(-18.64 30.94) rotate(-15.35)"/><path class="cls-15" d="M87.22,55c-.67-1.64.47-4.11.47-4.11-6.85-.95-6.58,5.75-6.58,5.75A4,4,0,0,0,77.2,57.8a4.5,4.5,0,0,0-1,4.48,4.33,4.33,0,0,0-2.3,3.57A3.38,3.38,0,0,0,76.14,69l16.44.18a3.49,3.49,0,0,0,2.3-3.28,3.74,3.74,0,0,0-2.46-3.4,2.77,2.77,0,0,0,.46-3.1"/><path class="cls-2" d="M153.87,71.93A3.89,3.89,0,0,1,152.21,77c-2.81,1.6-6.5.4-6.46-3.19s2-4.82,3.8-4.81,1.63,2.5,1.63,2.5l.17-.06C151.84,71.29,153.25,71,153.87,71.93Z"/><path class="cls-15" d="M132.62,88.15a4.23,4.23,0,0,1-2.8-4,5.39,5.39,0,0,1,2.87-4.46,5.56,5.56,0,0,1,1.19-5.57,5,5,0,0,1,4.88-1.47s-.34-8.35,8.2-7.17c0,0-1.42,3.08-.59,5.12"/><path class="cls-15" d="M153.1,88.37A4.35,4.35,0,0,0,156,84.29a4.65,4.65,0,0,0-3.07-4.23,3.48,3.48,0,0,0,.58-3.87"/><path class="cls-15" d="M151.18,71.49s.16-2.48-1.63-2.5-3.77,1.23-3.8,4.81,3.65,4.79,6.46,3.19a3.89,3.89,0,0,0,1.66-5.06c-.62-1-2-.64-2.52-.5Z"/><path class="cls-15" d="M151.35,71.43s.84-6.64,6.25-9"/><rect class="cls-4" x="56.5" y="122.04" width="13.15" height="13.47"/><rect class="cls-17" x="102.62" y="48.21" width="5.82" height="42.18"/><polygon class="cls-18" points="161.02 82.64 166.19 88.78 172.12 87.38 173.09 91.15 92.6 91.15 87.97 89.64 110.49 83.82 114.04 87.92 138.93 81.77 143.46 87.38 161.02 82.64"/><circle class="cls-1" cx="104.56" cy="104.4" r="70.88"/><g class="cls-19"><path class="cls-20" d="M63.24,130.3,79.47,195l1,4.19a2.85,2.85,0,0,0,5.52,0l17.27-68.86"/></g><circle class="cls-1" cx="104.56" cy="104.4" r="70.88"/><circle class="cls-21" cx="104.56" cy="104.4" r="70.88"/><path class="cls-22" d="M91.08,56.39s.13-2-1.31-2-3,1-3,3.87,2.93,3.84,5.19,2.55a3.11,3.11,0,0,0,1.33-4.06C92.64,55.79,91.08,56.39,91.08,56.39Z"/><path class="cls-23" d="M61.47,119.26c-1.35,1.62-2.1,2.55-2.1,4.44,0,7.18,12.21,8.19,23.88,8.19s23.88-1,23.88-8.19c0-1.89-.76-2.82-2.1-4.44a22.87,22.87,0,1,0-44.65-7A22.46,22.46,0,0,0,61.47,119.26Z"/><text class="cls-24" transform="matrix(0.54, -0.84, 0.84, 0.54, 32.54, 68.21)">H</text><text class="cls-24" transform="translate(42.31 53.19) rotate(-44.77)">A</text><text class="cls-24" transform="matrix(0.85, -0.53, 0.53, 0.85, 54.38, 41.23)">N</text><text class="cls-24" transform="translate(70.15 31.52) rotate(-19.05)">D</text><text class="cls-24" transform="translate(86.9 25.59) rotate(-4.97)">M</text><text class="cls-24" transform="matrix(0.99, 0.15, -0.15, 0.99, 108.12, 24.09)">A</text><text class="cls-25" transform="translate(124.93 26.72) rotate(21.16)">D</text><text class="cls-24" transform="translate(141.62 33.45) rotate(33.03)">E</text><text class="cls-24" transform="translate(160.29 47.51) rotate(47.45)">I</text><text class="cls-26" transform="matrix(0.54, 0.84, -0.84, 0.54, 166.15, 53.37)">N</text><text class="cls-24" transform="translate(31.71 167.47) rotate(44.6)">B</text><text class="cls-24" transform="matrix(0.81, 0.58, -0.58, 0.81, 45.61, 180.33)">I</text><text class="cls-24" transform="translate(54.53 186.85) rotate(26.2)">D</text><text class="cls-24" transform="matrix(0.97, 0.23, -0.23, 0.97, 74.12, 195.93)">D</text><text class="cls-24" transform="translate(95.1 200.27) rotate(1.37)">E</text><text class="cls-24" transform="translate(113.35 200.3) rotate(-9.3)">F</text><text class="cls-24" transform="matrix(0.93, -0.36, 0.36, 0.93, 130.57, 197.39)">O</text><text class="cls-27" transform="translate(152.37 188.09) rotate(-34.01)">R</text><text class="cls-24" transform="translate(168.41 176.68) rotate(-46.57)">D</text><ellipse class="cls-2" cx="91.84" cy="65.82" rx="2.73" ry="2.82"/></svg>