<svg id="Layer_1" data-name="Layer 1" xmlns="http://www.w3.org/2000/svg" xmlns:xlink="http://www.w3.org/1999/xlink" viewBox="0 0 174.26 174.24"><defs><style>.cls-1,.cls-11,.cls-13,.cls-14,.cls-15,.cls-16,.cls-18,.cls-22{fill:none;}.cls-12,.cls-19,.cls-2,.cls-23,.cls-25,.cls-26{fill:#fff;}.cls-3{fill:#7f8082;}.cls-10,.cls-4,.cls-7,.cls-8,.cls-9{fill:#3b3428;}.cls-5{fill:#6b92c6;}.cls-6{fill:#485ea5;}.cls-17,.cls-6{stroke:#010101;}.cls-10,.cls-11,.cls-12,.cls-13,.cls-14,.cls-15,.cls-18,.cls-19,.cls-22,.cls-24,.cls-6,.cls-7,.cls-8,.cls-9{stroke-miterlimit:10;}.cls-6,.cls-7{stroke-width:0.27px;}.cls-10,.cls-11,.cls-12,.cls-15,.cls-21,.cls-22,.cls-24,.cls-7,.cls-8,.cls-9{stroke:#fff;}.cls-17,.cls-18,.cls-19,.cls-8{stroke-width:1.07px;}.cls-11,.cls-12,.cls-13,.cls-9{stroke-width:0.54px;}.cls-10{stroke-width:1.08px;}.cls-13,.cls-14{stroke:#221f1f;}.cls-14,.cls-15,.cls-16,.cls-23{stroke-width:0.8px;}.cls-16,.cls-18,.cls-19,.cls-23{stroke:#3b3428;}.cls-16,.cls-17,.cls-21,.cls-23{stroke-linecap:round;stroke-linejoin:round;}.cls-17{fill:#f06342;}.cls-20{clip-path:url(#clip-path);}.cls-21{fill:#fce5a1;stroke-width:1.34px;}.cls-22{stroke-width:2.14px;}.cls-24{fill:#e0b8b7;stroke-width:1px;}.cls-25{font-size:19.29px;}.cls-25,.cls-26{font-family:Averta-Semibold, Averta;font-weight:700;}.cls-26{font-size:19.29px;}</style><clipPath id="clip-path"><circle class="cls-1" cx="87.5" cy="87.49" r="58.74"/></clipPath></defs><title>Artboard 1HOME_CORNER</title><path class="cls-2" d="M63.19,58.29a8.76,8.76,0,0,1-1-1.7,4.36,4.36,0,0,1,.2-1.18c.45-1.39,1.48-2.13,1.7-3.58a4.59,4.59,0,0,1,.86-2.41c.87-1,2.85-.42,3.36-1.61a3.32,3.32,0,0,0,.15-.71,4,4,0,0,1,4.14-3.26A.71.71,0,0,1,73,44c.09.08-.07.24,0,.36a7.82,7.82,0,0,1-.16,3.22,3.89,3.89,0,0,0,.94,3.17,3.48,3.48,0,0,0,3.19.58c.41-.08.93-.15,1.14.22s-.07.74,0,1.1-.47.46-.31.62c.68.7,1.82,1.58,1.8,2.55a3,3,0,0,1-1.37,2.44c-.77.46-1.15,1-2,1-3,.07-6.55-.31-9.54-.24C65.2,59,64.17,59.41,63.19,58.29Z"/><rect class="cls-3" x="29.37" y="95.8" width="121.35" height="9.38"/><rect class="cls-4" x="28.7" y="91.91" width="118.6" height="21.9"/><polygon class="cls-5" points="61.84 114.2 50.07 114.2 50.74 108.03 61.84 108.03 61.84 114.2"/><polygon class="cls-6" points="61.61 108.59 50.67 108.59 50.67 105.44 60.68 105.44 61.61 108.59"/><path class="cls-2" d="M132.88,105.4a8.16,8.16,0,0,1,1-3.43A6.8,6.8,0,0,1,137,98.5a4.2,4.2,0,0,1,4.37.74,19.14,19.14,0,0,0,1.78,1.82,1.3,1.3,0,0,1,.41.36,1,1,0,0,1,.09.57,6.19,6.19,0,0,1-.88,3.41Z"/><path class="cls-2" d="M112.28,105.45a8,8,0,0,1,1.65-4.42,5.78,5.78,0,0,1,3.5-2.79,4.24,4.24,0,0,1,2.93.7,9.27,9.27,0,0,1,2.21,2.12,8.47,8.47,0,0,1,.69,1c.57,1.06.67,2.33,1.26,3.38Z"/><path class="cls-2" d="M91.65,105.36a8.14,8.14,0,0,1,1.65-4.42,5.8,5.8,0,0,1,3.51-2.79,4.23,4.23,0,0,1,2.92.7,9.12,9.12,0,0,1,2.21,2.13,6.75,6.75,0,0,1,.69,1c.58,1.06.68,2.33,1.26,3.38Z"/><polygon class="cls-4" points="126.41 114.2 111.14 114.2 111.55 108.03 125.28 108.03 126.41 114.2"/><polygon class="cls-7" points="125.74 108.59 111.55 108.59 112.42 105.44 124.61 105.44 125.74 108.59"/><polygon class="cls-7" points="105.12 108.59 90.92 108.59 91.8 105.44 103.98 105.44 105.12 108.59"/><polygon class="cls-4" points="146.97 114.2 131.71 114.2 132.11 108.03 145.84 108.03 146.97 114.2"/><polygon class="cls-7" points="146.31 108.59 132.11 108.59 132.98 105.44 145.17 105.44 146.31 108.59"/><rect class="cls-4" x="32.86" y="108.03" width="11.77" height="6.17"/><path class="cls-2" d="M31.58,103.5a6.16,6.16,0,0,1,1-1.9,8.74,8.74,0,0,1,3.16-2.83,5.18,5.18,0,0,1,2-.38,2.65,2.65,0,0,1,1.36.28,5.92,5.92,0,0,1,1.3,1.34,13.62,13.62,0,0,1,1,1,5.71,5.71,0,0,1,.58,1c.5,1.06.94,2.16,1.44,3.22H37.63C35.94,105.26,30.82,106.58,31.58,103.5Z"/><rect class="cls-2" x="31.61" y="27.49" width="111.98" height="41.61"/><rect class="cls-8" x="76.56" y="54.72" width="69.47" height="33.84"/><rect class="cls-8" x="28.3" y="69.54" width="19.02" height="18.89"/><polygon class="cls-7" points="44.4 108.59 32.32 108.59 32.32 105.44 43.37 105.44 44.4 108.59"/><rect class="cls-8" x="28.7" y="88.56" width="117.74" height="3.35"/><rect class="cls-9" x="90.69" y="59.19" width="25.54" height="2.59"/><rect class="cls-9" x="121.91" y="59.05" width="17.1" height="2.54"/><rect class="cls-9" x="79.89" y="59.01" width="5.74" height="2.68"/><path class="cls-10" d="M34.82,113.84h105a73.31,73.31,0,0,1-18.32,21.31c-16.3,12.86-48.13,19.09-74.36-3.77C41.42,126.38,40.74,122.13,34.82,113.84Z"/><path class="cls-2" d="M109.57,74.41c-.92-.23-.59-1.09-.8-2s-.87-1.81-.31-2.68a3.12,3.12,0,0,1,.79-.94c.21-.15.46-.25.67-.4a2.9,2.9,0,0,0,.81-2.51,3.61,3.61,0,0,1,.58-2.62,9.74,9.74,0,0,1,1.21-.86,3.73,3.73,0,0,1,2-.8,1.59,1.59,0,0,0,1.25-.62,3,3,0,0,0,.24-1.3,4.33,4.33,0,0,1,2.17-3.28,6,6,0,0,1,4.15-.7c.15,1.85-.39,3.71-.32,5.75,0,1.2-.32,2.57.5,3.45a3.48,3.48,0,0,0,3.07.65,15.53,15.53,0,0,0,2.67-1c-.27,1.18-.7,3.57.48,3.81,1,.19.68.39.79.66a4.64,4.64,0,0,1,.39,1.4c.09,1.43,0,3.16-1.22,3.85a3.64,3.64,0,0,1-1.56.36,80.21,80.21,0,0,1-9.3.21c-1.53,0-3.06-.15-4.58-.27A22.21,22.21,0,0,1,109.57,74.41Z"/><rect class="cls-9" x="40.61" y="73.86" width="2.6" height="11.99"/><rect class="cls-8" x="47.32" y="59.31" width="32.47" height="29.25"/><rect class="cls-9" x="53.55" y="62.71" width="3.88" height="18.83"/><rect class="cls-9" x="70.69" y="62.71" width="4.09" height="13.2"/><line class="cls-11" x1="53.35" y1="65.26" x2="57.63" y2="65.26"/><line class="cls-11" x1="53.48" y1="67.87" x2="57.43" y2="67.87"/><line class="cls-11" x1="53.48" y1="70.55" x2="57.43" y2="70.55"/><line class="cls-11" x1="53.42" y1="73.23" x2="57.37" y2="73.23"/><line class="cls-11" x1="53.48" y1="75.84" x2="57.5" y2="75.84"/><line class="cls-11" x1="53.55" y1="78.59" x2="57.3" y2="78.59"/><line class="cls-12" x1="70.76" y1="65.33" x2="74.71" y2="65.33"/><line class="cls-12" x1="70.56" y1="67.8" x2="74.85" y2="67.8"/><line class="cls-12" x1="70.63" y1="70.62" x2="74.91" y2="70.62"/><line class="cls-12" x1="70.63" y1="73.16" x2="74.85" y2="73.16"/><line class="cls-11" x1="81.21" y1="59.23" x2="81.21" y2="61.71"/><line class="cls-11" x1="84.62" y1="59.1" x2="84.62" y2="61.78"/><line class="cls-11" x1="95.27" y1="59.23" x2="95.27" y2="61.84"/><line class="cls-11" x1="99.09" y1="59.3" x2="99.09" y2="61.71"/><line class="cls-12" x1="102.57" y1="59.23" x2="102.57" y2="61.78"/><line class="cls-11" x1="106.32" y1="59.23" x2="106.32" y2="61.71"/><line class="cls-11" x1="109.67" y1="59.23" x2="109.67" y2="61.78"/><line class="cls-11" x1="113.09" y1="59.23" x2="113.09" y2="61.71"/><line class="cls-11" x1="127.42" y1="59.23" x2="127.42" y2="61.51"/><line class="cls-11" x1="130.83" y1="59.23" x2="130.83" y2="61.71"/><line class="cls-11" x1="134.72" y1="59.23" x2="134.72" y2="61.71"/><line class="cls-13" x1="73.84" y1="80.33" x2="73.84" y2="83.61"/><line class="cls-13" x1="77.32" y1="80.39" x2="77.32" y2="83.61"/><line class="cls-13" x1="81.28" y1="80.33" x2="81.28" y2="83.61"/><line class="cls-13" x1="84.62" y1="80.39" x2="84.62" y2="83.61"/><polygon class="cls-4" points="144.5 80.39 144.5 83.68 141.82 83.68 141.82 83.54 141.82 80.39 144.5 80.39"/><polygon class="cls-4" points="141.82 83.54 141.82 83.68 138.2 83.68 138.2 83.47 138.2 80.39 141.82 80.39 141.82 83.54"/><polygon class="cls-4" points="138.2 83.47 138.2 83.68 134.65 83.68 134.65 80.46 134.65 80.39 138.2 80.39 138.2 83.47"/><polygon class="cls-4" points="134.65 80.46 134.65 83.68 130.9 83.68 130.9 83.47 130.9 80.39 134.65 80.39 134.65 80.46"/><polygon class="cls-4" points="130.9 83.47 130.9 83.68 127.35 83.68 127.35 83.41 127.35 80.39 130.9 80.39 130.9 83.47"/><polygon class="cls-4" points="127.35 83.41 127.35 83.68 123.87 83.68 123.87 83.54 123.87 80.39 127.35 80.39 127.35 83.41"/><polygon class="cls-4" points="123.87 83.54 123.87 83.68 120.39 83.68 120.39 80.39 123.87 80.39 123.87 83.54"/><polygon class="cls-4" points="120.39 80.39 120.39 83.68 116.97 83.68 116.97 83.61 116.97 80.39 120.39 80.39"/><polygon class="cls-4" points="116.97 83.61 116.97 83.68 113.15 83.68 113.15 83.54 113.15 80.39 116.97 80.39 116.97 83.61"/><polygon class="cls-4" points="113.15 83.54 113.15 83.68 109.6 83.68 109.6 83.61 109.6 80.39 113.15 80.39 113.15 83.54"/><polygon class="cls-4" points="109.6 83.61 109.6 83.68 106.19 83.68 106.19 80.39 109.6 80.39 109.6 83.61"/><polygon class="cls-4" points="106.19 80.39 106.19 83.68 102.44 83.68 102.44 83.61 102.44 80.39 106.19 80.39"/><polygon class="cls-4" points="102.44 83.61 102.44 83.68 99.09 83.68 99.09 83.54 99.09 80.39 102.44 80.39 102.44 83.61"/><polygon class="cls-4" points="99.09 83.54 99.09 83.68 95.27 83.68 95.27 83.54 95.27 80.39 99.09 80.39 99.09 83.54"/><polygon class="cls-4" points="95.27 83.54 95.27 83.68 91.72 83.68 91.72 83.54 91.72 80.39 95.27 80.39 95.27 83.54"/><polygon class="cls-4" points="91.72 83.54 91.72 83.68 88.11 83.68 88.11 80.39 91.72 80.39 91.72 83.54"/><rect class="cls-4" x="70.29" y="80.39" width="17.81" height="3.28"/><polygon class="cls-11" points="141.82 80.39 144.5 80.39 144.5 83.68 141.82 83.68 138.2 83.68 134.65 83.68 130.9 83.68 127.35 83.68 123.87 83.68 120.39 83.68 116.97 83.68 113.15 83.68 109.6 83.68 106.19 83.68 102.44 83.68 99.09 83.68 95.27 83.68 91.72 83.68 88.11 83.68 70.29 83.68 70.29 80.39 88.11 80.39 91.72 80.39 95.27 80.39 99.09 80.39 102.44 80.39 106.19 80.39 109.6 80.39 113.15 80.39 116.97 80.39 120.39 80.39 123.87 80.39 127.35 80.39 130.9 80.39 134.65 80.39 138.2 80.39 141.82 80.39"/><polyline class="cls-11" points="88.11 80.33 88.11 80.39 88.11 83.68 88.11 83.74"/><polyline class="cls-11" points="91.72 80.33 91.72 80.39 91.72 83.54"/><line class="cls-11" x1="95.27" y1="80.39" x2="95.27" y2="83.54"/><polyline class="cls-11" points="99.09 80.33 99.09 80.39 99.09 83.54"/><line class="cls-11" x1="102.44" y1="80.39" x2="102.44" y2="83.61"/><line class="cls-11" x1="106.19" y1="80.39" x2="106.19" y2="83.68"/><line class="cls-11" x1="109.6" y1="80.39" x2="109.6" y2="83.61"/><polyline class="cls-11" points="113.15 80.33 113.15 80.39 113.15 83.54"/><line class="cls-11" x1="116.97" y1="80.39" x2="116.97" y2="83.61"/><line class="cls-11" x1="120.39" y1="80.39" x2="120.39" y2="83.68"/><polyline class="cls-11" points="123.87 80.33 123.87 80.39 123.87 83.54"/><line class="cls-11" x1="127.35" y1="80.39" x2="127.35" y2="83.41"/><line class="cls-11" x1="130.9" y1="80.39" x2="130.9" y2="83.48"/><polyline class="cls-11" points="134.65 80.46 134.65 83.68 134.65 83.81"/><polyline class="cls-11" points="138.2 80.26 138.2 80.39 138.2 83.47"/><line class="cls-11" x1="141.82" y1="80.39" x2="141.82" y2="83.54"/><path class="cls-14" d="M69.86,113.44s.59-16.08,7.2-15.54,8,15.54,8,15.54"/><line class="cls-15" x1="37.14" y1="115.62" x2="138" y2="115.62"/><line class="cls-15" x1="38.21" y1="117.76" x2="137.2" y2="117.76"/><line class="cls-15" x1="39.69" y1="120.31" x2="135.05" y2="120.31"/><line class="cls-15" x1="41.43" y1="122.85" x2="132.91" y2="122.85"/><line class="cls-15" x1="130.5" y1="126.2" x2="43.7" y2="126.2"/><line class="cls-15" x1="127.02" y1="129.82" x2="47.59" y2="129.82"/><line class="cls-15" x1="122.33" y1="133.57" x2="52.54" y2="133.57"/><line class="cls-15" x1="116.44" y1="137.72" x2="58.57" y2="137.72"/><line class="cls-15" x1="107.46" y1="142.14" x2="64.6" y2="142.14"/><line class="cls-13" x1="123.94" y1="59.23" x2="123.94" y2="61.51"/><path class="cls-16" d="M76.45,47.67s.55-4.42,4.15-6"/><path class="cls-4" d="M87.13,174.25A87.1,87.1,0,0,1,25.52,25.51,87.13,87.13,0,1,1,121.05,167.4,86.53,86.53,0,0,1,87.13,174.25Zm0-145.87a58.76,58.76,0,1,0,41.53,17.21A58.32,58.32,0,0,0,87.13,28.38Z"/><line class="cls-17" x1="110.76" y1="75.63" x2="127.73" y2="75.82"/><path class="cls-15" d="M111.11,113.85s.59-16.09,7.2-15.55,8,15.55,8,15.55"/><path class="cls-15" d="M37.14,98.16c6.61.54,8,15.55,8,15.55"/><path class="cls-15" d="M131.6,113.58s.6-16.09,7.2-15.55"/><path class="cls-15" d="M90.48,113.58s.6-16.09,7.2-15.55,8,15.55,8,15.55"/><polyline class="cls-15" points="138.94 113.88 105.69 113.88 90.48 113.88 35.4 113.88"/><path class="cls-15" d="M37.24,98.16c-2.48.2-4.33,2.53-5.55,5.25"/><path class="cls-15" d="M138.8,98a5.2,5.2,0,0,1,3.55,2,12.82,12.82,0,0,1,1.8,2.93"/><rect class="cls-4" x="85.9" y="40.88" width="4.82" height="34.96"/><rect class="cls-2" x="85.76" y="54.76" width="5.02" height="1.94" transform="translate(-11.6 25.35) rotate(-15.35)"/><rect class="cls-2" x="85.76" y="59.89" width="5.02" height="1.94" transform="translate(-12.96 25.53) rotate(-15.35)"/><rect class="cls-2" x="85.76" y="65.02" width="5.02" height="1.94" transform="translate(-14.32 25.72) rotate(-15.35)"/><rect class="cls-2" x="85.76" y="49.63" width="5.02" height="1.94" transform="translate(-10.24 25.17) rotate(-15.35)"/><rect class="cls-2" x="85.76" y="44.5" width="5.02" height="1.94" transform="translate(-8.89 24.99) rotate(-15.35)"/><rect class="cls-2" x="85.76" y="70.15" width="5.02" height="1.94" transform="translate(-15.68 25.9) rotate(-15.35)"/><path class="cls-16" d="M73.13,46.54c-.55-1.36.4-3.41.4-3.41-5.68-.78-5.46,4.77-5.46,4.77a3.29,3.29,0,0,0-3.24,1,3.68,3.68,0,0,0-.79,3.7,3.61,3.61,0,0,0-1.91,3A2.81,2.81,0,0,0,64,58.18l13.62.15a2.9,2.9,0,0,0,1.9-2.72,3.07,3.07,0,0,0-2-2.81,2.29,2.29,0,0,0,.38-2.57"/><path class="cls-2" d="M128.37,60.58a3.23,3.23,0,0,1-1.37,4.2c-2.33,1.33-5.39.33-5.36-2.64s1.66-4,3.15-4,1.35,2.07,1.35,2.07l.14,0C126.69,60.05,127.86,59.78,128.37,60.58Z"/><path class="cls-16" d="M110.76,74a3.48,3.48,0,0,1-2.32-3.28,4.48,4.48,0,0,1,2.38-3.69,4.62,4.62,0,0,1,1-4.62,4.14,4.14,0,0,1,4-1.22s-.27-6.92,6.8-5.94c0,0-1.17,2.55-.49,4.25"/><path class="cls-16" d="M127.73,74.21a3.6,3.6,0,0,0,2.37-3.38,3.85,3.85,0,0,0-2.54-3.51,2.86,2.86,0,0,0,.47-3.2"/><path class="cls-16" d="M126.14,60.22s.13-2.06-1.35-2.07-3.13,1-3.15,4,3,4,5.36,2.64a3.23,3.23,0,0,0,1.37-4.2c-.51-.8-1.68-.53-2.09-.41Z"/><path class="cls-16" d="M126.28,60.17s.7-5.5,5.18-7.5"/><rect class="cls-4" x="47.68" y="102.12" width="10.89" height="11.16"/><rect class="cls-18" x="85.9" y="40.93" width="4.82" height="34.96"/><polygon class="cls-19" points="134.29 69.45 138.58 74.55 143.49 73.38 144.29 76.51 77.59 76.51 73.75 75.26 92.42 70.44 95.36 73.83 115.99 68.74 119.74 73.38 134.29 69.45"/><circle class="cls-1" cx="87.5" cy="87.49" r="58.74"/><g class="cls-20"><path class="cls-21" d="M69.83,75.89,53.24,109l13.44,53.59.87,3.48a2.36,2.36,0,0,0,4.57,0L86.43,109"/></g><circle class="cls-1" cx="87.5" cy="87.49" r="58.74"/><circle class="cls-22" cx="87.5" cy="87.49" r="58.74"/><path class="cls-23" d="M76.33,47.7s.11-1.65-1.08-1.66-2.51.82-2.53,3.2,2.43,3.19,4.3,2.12A2.57,2.57,0,0,0,78.12,48C77.62,47.21,76.33,47.7,76.33,47.7Z"/><path class="cls-24" d="M51.78,99.81c-1.11,1.34-1.73,2.11-1.73,3.68,0,5.94,10.11,6.79,19.78,6.79s19.79-.85,19.79-6.79c0-1.57-.62-2.34-1.73-3.68a19,19,0,1,0-36.11,0Zm34.65,8.35"/><text class="cls-25" transform="translate(27.82 57.5) rotate(-57.38)">H</text><text class="cls-25" transform="translate(35.92 45.05) rotate(-44.77)">A</text><text class="cls-25" transform="translate(45.92 35.15) rotate(-31.98)">N</text><text class="cls-25" transform="translate(58.99 27.1) rotate(-19.05)">D</text><text class="cls-25" transform="translate(72.87 22.18) rotate(-4.97)">M</text><text class="cls-25" transform="translate(90.45 20.94) rotate(8.73)">A</text><text class="cls-25" transform="translate(104.39 23.11) rotate(21.21)">D</text><text class="cls-25" transform="matrix(0.84, 0.55, -0.55, 0.84, 118.21, 28.7)">E</text><text class="cls-25" transform="translate(128.8 35.96) rotate(41.4)"> </text><text class="cls-25" transform="matrix(0.68, 0.74, -0.74, 0.68, 133.69, 40.34)">I</text><text class="cls-25" transform="matrix(0.54, 0.84, -0.84, 0.54, 138.55, 45.21)">N</text><text class="cls-26" transform="matrix(0.71, 0.7, -0.7, 0.71, 27.15, 139.78)">B</text><text class="cls-26" transform="matrix(0.81, 0.58, -0.58, 0.81, 38.65, 150.42)">I</text><text class="cls-26" transform="translate(46.04 155.82) rotate(26.2)">D</text><text class="cls-26" transform="matrix(0.97, 0.23, -0.23, 0.97, 62.27, 163.35)">D</text><text class="cls-26" transform="matrix(1, 0.02, -0.02, 1, 79.66, 166.94)">E</text><text class="cls-26" transform="translate(94.79 166.97) rotate(-9.3)">F</text><text class="cls-26" transform="translate(109.06 164.55) rotate(-21.33)">O</text><text class="cls-26" transform="matrix(0.83, -0.56, 0.56, 0.83, 127.13, 156.85)">R</text><text class="cls-26" transform="matrix(0.69, -0.73, 0.73, 0.69, 140.42, 147.39)">D</text><ellipse class="cls-2" cx="76.96" cy="55.52" rx="2.26" ry="2.34"/></svg>