<?xml version="1.0" encoding="utf-8"?>
<!-- Generator: Adobe Illustrator 22.1.0, SVG Export Plug-In . SVG Version: 6.00 Build 0)  -->
<svg version="1.1" id="Layer_1" xmlns="http://www.w3.org/2000/svg" xmlns:xlink="http://www.w3.org/1999/xlink" x="0px" y="0px"
	 viewBox="0 0 208.4 208.4" style="enable-background:new 0 0 208.4 208.4;" xml:space="preserve">
<style type="text/css">
	.st0{fill:#FFFFFF;}
	.st1{fill:#7F8081;}
	.st2{fill:#404041;}
	.st3{fill:#6A92C7;}
	.st4{fill:#485EA4;stroke:#000000;stroke-width:0.32;stroke-miterlimit:10;}
	.st5{fill:#404041;stroke:#FFFFFF;stroke-width:0.32;stroke-miterlimit:10;}
	.st6{fill:#404041;stroke:#FFFFFF;stroke-width:1.29;stroke-miterlimit:10;}
	.st7{fill:#404041;stroke:#FFFFFF;stroke-width:0.65;stroke-miterlimit:10;}
	.st8{fill:#404041;stroke:#FFFFFF;stroke-width:1.3;stroke-miterlimit:10;}
	.st9{fill:none;stroke:#FFFFFF;stroke-width:0.65;stroke-miterlimit:10;}
	.st10{fill:none;stroke:#221F1F;stroke-width:0.65;stroke-miterlimit:10;}
	.st11{fill:none;stroke:#221F1F;stroke-width:0.97;stroke-miterlimit:10;}
	.st12{fill:none;stroke:#FFFFFF;stroke-width:0.97;stroke-miterlimit:10;}
	.st13{fill:none;stroke:#404041;stroke-width:0.97;stroke-linecap:round;stroke-linejoin:round;}
	.st14{fill:none;stroke:#000000;stroke-width:1.29;stroke-linecap:round;stroke-linejoin:round;}
	.st15{fill:none;stroke:#404041;stroke-width:1.29;stroke-miterlimit:10;}
	.st16{fill:#FFFFFF;stroke:#404041;stroke-width:1.29;stroke-miterlimit:10;}
	.st17{fill:none;}
	.st18{clip-path:url(#SVGID_2_);}
	.st19{fill:#FDE5A1;stroke:#FFFFFF;stroke-width:1.62;stroke-linecap:round;stroke-linejoin:round;}
	.st20{fill:none;stroke:#404041;stroke-width:2.59;stroke-miterlimit:10;}
	.st21{fill:#FFFFFF;stroke:#404041;stroke-width:0.97;stroke-linecap:round;stroke-linejoin:round;}
	.st22{fill:#E4C1C0;stroke:#FFFFFF;stroke-width:1.62;stroke-miterlimit:10;}
	.st23{enable-background:new    ;}
</style>
<title>Artboard 1CORNER_HOME</title>
<path class="st0" d="M75.2,69.2c-0.5-0.6-0.9-1.3-1.2-2.1c0-0.5,0.1-1,0.2-1.4c0.6-1.7,1.8-2.6,2.1-4.3c0-1,0.4-2.1,1-2.9
	c1-1.2,3.4-0.5,4.1-1.9c0.1-0.3,0.1-0.6,0.2-0.9c0.4-2.4,2.6-4.1,5-3.9c0.2,0,0.4,0.1,0.6,0.2c0.1,0.1-0.1,0.3,0,0.5
	c0.2,1.3,0.1,2.6-0.2,3.9c-0.2,1.4,0.2,2.8,1.1,3.8c1.1,0.9,2.5,1.1,3.8,0.7c0.5-0.1,1.1-0.2,1.4,0.2s-0.1,0.9,0,1.3
	c0.1,0.3-0.6,0.5-0.4,0.8C93.7,64,95,65,95,66.2c0,1.2-0.6,2.3-1.7,3c-0.9,0.6-1.4,1.1-2.5,1.2C87.3,70.4,83,70,79.4,70
	C77.6,70,76.4,70.5,75.2,69.2z"/>
<rect x="34.4" y="114.4" class="st1" width="146.4" height="11.3"/>
<rect x="33.6" y="109.7" class="st2" width="143.1" height="26.4"/>
<polygon class="st3" points="73.6,136.6 59.4,136.6 60.2,129.2 73.6,129.2 "/>
<polygon class="st4" points="73.3,129.9 60.1,129.9 60.1,126.1 72.2,126.1 "/>
<path class="st0" d="M159.3,126c0.1-1.5,0.5-2.9,1.2-4.2c0.7-1.8,2.1-3.3,3.8-4.2c1.8-0.7,3.8-0.4,5.3,0.9c0.7,0.8,1.4,1.5,2.1,2.2
	c0.2,0.1,0.4,0.3,0.5,0.4c0.1,0.2,0.1,0.5,0.1,0.7c0.1,1.4-0.3,2.9-1.1,4.1L159.3,126z"/>
<path class="st0" d="M134.5,126.1c0.1-1.9,0.8-3.8,2-5.3c1-1.5,2.4-3,4.2-3.4c1.2-0.2,2.5,0.1,3.5,0.8c1,0.7,1.9,1.6,2.7,2.6
	c0.3,0.4,0.6,0.8,0.8,1.2c0.7,1.3,0.8,2.8,1.5,4.1L134.5,126.1z"/>
<path class="st0" d="M109.6,126c0.1-1.9,0.8-3.8,2-5.3c0.9-1.6,2.4-2.8,4.2-3.4c1.2-0.2,2.5,0.1,3.5,0.8c1,0.7,1.9,1.6,2.7,2.6
	c0.3,0.4,0.6,0.8,0.8,1.2c0.7,1.3,0.8,2.8,1.5,4.1L109.6,126z"/>
<polygon class="st2" points="151.5,136.6 133.1,136.6 133.6,129.2 150.1,129.2 "/>
<polygon class="st5" points="150.7,129.9 133.6,129.9 134.6,126.1 149.3,126.1 "/>
<polygon class="st5" points="125.8,129.9 108.7,129.9 109.7,126.1 124.4,126.1 "/>
<polygon class="st2" points="176.3,136.6 157.9,136.6 158.4,129.2 174.9,129.2 "/>
<polygon class="st5" points="175.5,129.9 158.4,129.9 159.4,126.1 174.1,126.1 "/>
<rect x="38.6" y="129.2" class="st2" width="14.2" height="7.4"/>
<path class="st0" d="M37.1,123.7c0.2-0.8,0.6-1.6,1.1-2.3c1-1.4,2.3-2.6,3.8-3.5c0.8-0.3,1.6-0.5,2.4-0.5c0.6,0,1.1,0.1,1.6,0.3
	c0.6,0.5,1.1,1,1.6,1.6c0.4,0.4,0.8,0.8,1.2,1.2c0.3,0.4,0.5,0.8,0.7,1.2c0.6,1.3,1.1,2.6,1.7,3.9h-7
	C42.3,125.8,36.2,127.4,37.1,123.7z"/>
<rect x="37.1" y="32" class="st0" width="135.1" height="50.2"/>
<rect x="91.3" y="64.9" class="st6" width="83.8" height="40.8"/>
<rect x="33.1" y="82.7" class="st6" width="23" height="22.8"/>
<polygon class="st5" points="52.5,129.9 38,129.9 38,126.1 51.3,126.1 "/>
<rect x="33.6" y="105.7" class="st6" width="142.1" height="4"/>
<rect x="108.4" y="70.2" class="st7" width="30.8" height="3.1"/>
<rect x="146.1" y="70.1" class="st7" width="20.6" height="3.1"/>
<rect x="95.4" y="70" class="st7" width="6.9" height="3.2"/>
<path class="st8" d="M41,136.2h126.7c-5.6,9.9-13.1,18.6-22.1,25.7c-19.7,15.5-58.1,23-89.7-4.5C49,151.3,48.1,146.2,41,136.2z"/>
<path class="st0" d="M131.2,88.6c-1.1-0.3-0.7-1.3-1-2.4s-1-2.2-0.4-3.2c0.3-0.4,0.6-0.8,1-1.1c0.2-0.2,0.6-0.3,0.8-0.5
	c0.9-0.7,1-1.9,1-3s-0.1-2.3,0.7-3.2c0.5-0.4,0.9-0.7,1.5-1c0.7-0.6,1.5-0.9,2.4-1c0.6,0,1.1-0.3,1.5-0.8c0.2-0.5,0.3-1,0.3-1.6
	c0.2-1.7,1.2-3.2,2.6-4c1.5-0.9,3.3-1.2,5-0.8c0.2,2.2-0.5,4.5-0.4,6.9c0,1.4-0.4,3.1,0.6,4.2s2.4,1,3.7,0.8
	c1.1-0.3,2.2-0.7,3.2-1.3c-0.3,1.4-0.9,4.3,0.6,4.6c1.2,0.2,0.8,0.5,1,0.8c0.2,0.5,0.4,1.1,0.5,1.7c0.1,1.7,0,3.8-1.5,4.7
	c-0.6,0.3-1.2,0.4-1.9,0.4c-3.7,0.3-7.5,0.4-11.2,0.3c-1.9-0.1-3.7-0.2-5.5-0.3C134.1,88.6,132.6,89,131.2,88.6z"/>
<rect x="48" y="87.9" class="st7" width="3.1" height="14.5"/>
<rect x="56.1" y="70.4" class="st6" width="39.2" height="35.3"/>
<rect x="63.6" y="74.5" class="st7" width="4.7" height="22.7"/>
<rect x="84.3" y="74.5" class="st7" width="4.9" height="15.9"/>
<line class="st9" x1="63.3" y1="77.6" x2="68.5" y2="77.6"/>
<line class="st9" x1="63.5" y1="80.7" x2="68.3" y2="80.7"/>
<line class="st9" x1="63.5" y1="83.9" x2="68.3" y2="83.9"/>
<line class="st9" x1="63.4" y1="87.2" x2="68.2" y2="87.2"/>
<line class="st9" x1="63.5" y1="90.3" x2="68.4" y2="90.3"/>
<line class="st9" x1="63.6" y1="93.7" x2="68.1" y2="93.7"/>
<line class="st9" x1="84.4" y1="77.7" x2="89.1" y2="77.7"/>
<line class="st9" x1="84.1" y1="80.6" x2="89.3" y2="80.6"/>
<line class="st9" x1="84.2" y1="84" x2="89.4" y2="84"/>
<line class="st9" x1="84.2" y1="87.1" x2="89.3" y2="87.1"/>
<line class="st9" x1="97" y1="70.3" x2="97" y2="73.3"/>
<line class="st9" x1="101.1" y1="70.1" x2="101.1" y2="73.4"/>
<line class="st9" x1="113.9" y1="70.3" x2="113.9" y2="73.4"/>
<line class="st9" x1="118.5" y1="70.4" x2="118.5" y2="73.3"/>
<line class="st9" x1="122.7" y1="70.3" x2="122.7" y2="73.4"/>
<line class="st9" x1="127.3" y1="70.3" x2="127.3" y2="73.3"/>
<line class="st9" x1="131.3" y1="70.3" x2="131.3" y2="73.4"/>
<line class="st9" x1="135.4" y1="70.3" x2="135.4" y2="73.3"/>
<line class="st9" x1="152.7" y1="70.3" x2="152.7" y2="73.1"/>
<line class="st9" x1="156.8" y1="70.3" x2="156.8" y2="73.3"/>
<line class="st9" x1="161.5" y1="70.3" x2="161.5" y2="73.3"/>
<line class="st10" x1="88.1" y1="95.8" x2="88.1" y2="99.7"/>
<line class="st10" x1="92.3" y1="95.8" x2="92.3" y2="99.7"/>
<line class="st10" x1="97" y1="95.8" x2="97" y2="99.7"/>
<line class="st10" x1="101.1" y1="95.8" x2="101.1" y2="99.7"/>
<polygon class="st2" points="173.3,95.8 173.3,99.8 170.1,99.8 170.1,99.6 170.1,95.8 "/>
<polygon class="st2" points="170.1,99.6 170.1,99.8 165.7,99.8 165.7,99.6 165.7,95.8 170.1,95.8 "/>
<polygon class="st2" points="165.7,99.6 165.7,99.8 161.4,99.8 161.4,95.9 161.4,95.8 165.7,95.8 "/>
<polygon class="st2" points="161.4,95.9 161.4,99.8 156.9,99.8 156.9,99.6 156.9,95.8 161.4,95.8 "/>
<polygon class="st2" points="156.9,99.6 156.9,99.8 152.6,99.8 152.6,99.5 152.6,95.8 156.9,95.8 "/>
<polygon class="st2" points="152.6,99.5 152.6,99.8 148.4,99.8 148.4,99.6 148.4,95.8 152.6,95.8 "/>
<polygon class="st2" points="148.4,99.6 148.4,99.8 144.2,99.8 144.2,95.8 148.4,95.8 "/>
<polygon class="st2" points="144.2,95.8 144.2,99.8 140.1,99.8 140.1,99.7 140.1,95.8 "/>
<polygon class="st2" points="140.1,99.7 140.1,99.8 135.5,99.8 135.5,99.6 135.5,95.8 140.1,95.8 "/>
<polygon class="st2" points="135.5,99.6 135.5,99.8 131.2,99.8 131.2,99.7 131.2,95.8 135.5,95.8 "/>
<polygon class="st2" points="131.2,99.7 131.2,99.8 127.1,99.8 127.1,95.8 131.2,95.8 "/>
<polygon class="st2" points="127.1,95.8 127.1,99.8 122.6,99.8 122.6,99.7 122.6,95.8 "/>
<polygon class="st2" points="122.6,99.7 122.6,99.8 118.5,99.8 118.5,99.6 118.5,95.8 122.6,95.8 "/>
<polygon class="st2" points="118.5,99.6 118.5,99.8 113.9,99.8 113.9,99.6 113.9,95.8 118.5,95.8 "/>
<polygon class="st2" points="113.9,99.6 113.9,99.8 109.7,99.8 109.7,99.6 109.7,95.8 113.9,95.8 "/>
<polygon class="st2" points="109.7,99.6 109.7,99.8 105.3,99.8 105.3,95.8 109.7,95.8 "/>
<rect x="83.8" y="95.8" class="st2" width="21.5" height="4"/>
<polygon class="st9" points="170.1,95.8 173.3,95.8 173.3,99.8 170.1,99.8 165.7,99.8 161.4,99.8 156.9,99.8 152.6,99.8 148.4,99.8 
	144.2,99.8 140.1,99.8 135.5,99.8 131.2,99.8 127.1,99.8 122.6,99.8 118.5,99.8 113.9,99.8 109.7,99.8 105.3,99.8 83.8,99.8 
	83.8,95.8 105.3,95.8 109.7,95.8 113.9,95.8 118.5,95.8 122.6,95.8 127.1,95.8 131.2,95.8 135.5,95.8 140.1,95.8 144.2,95.8 
	148.4,95.8 152.6,95.8 156.9,95.8 161.4,95.8 165.7,95.8 "/>
<polyline class="st9" points="105.3,95.8 105.3,95.8 105.3,99.8 105.3,99.9 "/>
<polyline class="st9" points="109.7,95.8 109.7,95.8 109.7,99.6 "/>
<line class="st9" x1="113.9" y1="95.8" x2="113.9" y2="99.6"/>
<polyline class="st9" points="118.5,95.8 118.5,95.8 118.5,99.6 "/>
<line class="st9" x1="122.6" y1="95.8" x2="122.6" y2="99.7"/>
<line class="st9" x1="127.1" y1="95.8" x2="127.1" y2="99.8"/>
<line class="st9" x1="131.2" y1="95.8" x2="131.2" y2="99.7"/>
<polyline class="st9" points="135.5,95.8 135.5,95.8 135.5,99.6 "/>
<line class="st9" x1="140.1" y1="95.8" x2="140.1" y2="99.7"/>
<line class="st9" x1="144.2" y1="95.8" x2="144.2" y2="99.8"/>
<polyline class="st9" points="148.4,95.8 148.4,95.8 148.4,99.6 "/>
<line class="st9" x1="152.6" y1="95.8" x2="152.6" y2="99.5"/>
<line class="st9" x1="156.9" y1="95.8" x2="156.9" y2="99.6"/>
<polyline class="st9" points="161.4,95.9 161.4,99.8 161.4,99.9 "/>
<polyline class="st9" points="165.7,95.7 165.7,95.8 165.7,99.6 "/>
<line class="st9" x1="170.1" y1="95.8" x2="170.1" y2="99.6"/>
<path class="st11" d="M83.3,135.7c0,0,0.7-19.4,8.7-18.7s9.7,18.8,9.7,18.8"/>
<line class="st12" x1="43.8" y1="138.3" x2="165.5" y2="138.3"/>
<line class="st12" x1="45.1" y1="140.9" x2="164.5" y2="140.9"/>
<line class="st12" x1="46.9" y1="144" x2="161.9" y2="144"/>
<line class="st12" x1="49" y1="147.1" x2="159.4" y2="147.1"/>
<line class="st12" x1="156.4" y1="151.1" x2="51.7" y2="151.1"/>
<line class="st12" x1="152.2" y1="155.5" x2="56.4" y2="155.5"/>
<line class="st12" x1="146.6" y1="160" x2="62.4" y2="160"/>
<line class="st12" x1="139.5" y1="165" x2="69.7" y2="165"/>
<line class="st12" x1="128.6" y1="170.3" x2="76.9" y2="170.3"/>
<line class="st10" x1="148.5" y1="70.3" x2="148.5" y2="73.1"/>
<path class="st13" d="M91.2,56.3c0,0,0.7-5.3,5-7.3"/>
<path class="st0" d="M104.1,208.4C46.6,208.4-0.1,161.7,0,104.1S46.8-0.1,104.3,0s104.2,46.8,104.1,104.3
	c0,41.8-25.1,79.6-63.7,95.9C131.9,205.7,118.1,208.5,104.1,208.4z M104.1,33.5C65.2,33.5,33.7,65,33.7,104s31.5,70.4,70.4,70.4
	s70.4-31.5,70.4-70.4c0-18.7-7.4-36.6-20.6-49.8C140.7,40.9,122.8,33.5,104.1,33.5L104.1,33.5z"/>
<line class="st14" x1="132.6" y1="90.1" x2="153.1" y2="90.3"/>
<path class="st12" d="M133.1,136.2c0,0,0.7-19.4,8.7-18.8s9.7,18.8,9.7,18.8"/>
<path class="st12" d="M43.8,117.3c8,0.6,9.7,18.8,9.7,18.8"/>
<path class="st12" d="M157.8,135.9c0,0,0.7-19.4,8.7-18.8"/>
<path class="st12" d="M108.2,135.9c0,0,0.7-19.4,8.7-18.8s9.6,18.8,9.6,18.8"/>
<polyline class="st12" points="166.6,136.2 126.5,136.2 108.2,136.2 41.7,136.2 "/>
<path class="st12" d="M43.9,117.3c-3,0.2-5.2,3-6.7,6.3"/>
<path class="st12" d="M166.5,117.1c1.7,0.2,3.2,1.1,4.3,2.4c0.9,1.1,1.6,2.3,2.2,3.5"/>
<rect x="102.6" y="48.2" class="st2" width="5.8" height="42.2"/>
<rect x="102.5" y="64.9" transform="matrix(0.9643 -0.2647 0.2647 0.9643 -13.7234 30.2823)" class="st0" width="6.1" height="2.3"/>
<rect x="102.5" y="71.1" transform="matrix(0.9643 -0.2647 0.2647 0.9643 -15.3618 30.5027)" class="st0" width="6.1" height="2.3"/>
<rect x="100.8" y="77.4" transform="matrix(0.9652 -0.2613 0.2613 0.9652 -16.934 29.8692)" class="st0" width="6" height="2.3"/>
<rect x="102.5" y="58.7" transform="matrix(0.9643 -0.2647 0.2647 0.9643 -12.0853 30.0592)" class="st0" width="6.1" height="2.3"/>
<rect x="102.5" y="52.5" transform="matrix(0.9643 -0.2647 0.2647 0.9643 -10.4459 29.8413)" class="st0" width="6.1" height="2.3"/>
<rect x="102.5" y="83.5" transform="matrix(0.9643 -0.2647 0.2647 0.9643 -18.6411 30.9446)" class="st0" width="6.1" height="2.3"/>
<path class="st13" d="M87.2,55c-0.7-1.6,0.5-4.1,0.5-4.1c-6.8-1-6.6,5.8-6.6,5.8c-1.4-0.4-2.9,0.1-3.9,1.2c-1.1,1.2-1.5,2.9-1,4.5
	c-1.3,0.7-2.2,2.1-2.3,3.6c0,1.4,0.9,2.7,2.2,3.2l16.4,0.2c1.4-0.5,2.3-1.8,2.3-3.3c0-1.5-1-2.9-2.5-3.4c0.8-0.8,1-2.1,0.5-3.1"/>
<path class="st0" d="M153.9,71.9c0.9,1.9,0.1,4.1-1.7,5.1c-2.8,1.6-6.5,0.4-6.5-3.2s2-4.8,3.8-4.8s1.6,2.5,1.6,2.5l0.2-0.1
	C151.8,71.3,153.2,71,153.9,71.9z"/>
<path class="st13" d="M132.6,88.2c-1.7-0.6-2.8-2.2-2.8-4c0.1-1.9,1.2-3.6,2.9-4.5c-0.7-1.9-0.2-4.1,1.2-5.6
	c1.2-1.3,3.1-1.9,4.9-1.5c0,0-0.3-8.3,8.2-7.2c0,0-1.4,3.1-0.6,5.1"/>
<path class="st13" d="M153.1,88.4c1.7-0.6,2.9-2.2,2.9-4.1c-0.1-1.9-1.3-3.6-3.1-4.2c1-1,1.2-2.6,0.6-3.9"/>
<path class="st13" d="M151.2,71.5c0,0,0.2-2.5-1.6-2.5s-3.8,1.2-3.8,4.8s3.6,4.8,6.5,3.2c1.8-1,2.5-3.2,1.7-5.1
	c-0.6-1-2-0.6-2.5-0.5L151.2,71.5z"/>
<path class="st13" d="M151.4,71.4c0,0,0.8-6.6,6.2-9"/>
<rect x="56.5" y="122" class="st2" width="13.2" height="13.5"/>
<rect x="102.6" y="48.2" class="st15" width="5.8" height="42.2"/>
<polygon class="st16" points="161,82.6 166.2,88.8 172.1,87.4 173.1,91.2 92.6,91.2 88,89.6 110.5,83.8 114,87.9 138.9,81.8 
	143.5,87.4 "/>
<circle class="st17" cx="104.6" cy="104.4" r="70.9"/>
<g>
	<defs>
		<circle id="SVGID_1_" cx="104.6" cy="104.4" r="70.9"/>
	</defs>
	<clipPath id="SVGID_2_">
		<use xlink:href="#SVGID_1_"  style="overflow:visible;"/>
	</clipPath>
	<g class="st18">
		<path class="st19" d="M63.2,130.3L79.5,195l1,4.2c0.4,1.5,1.9,2.4,3.5,2c1-0.3,1.8-1,2-2l17.3-68.9"/>
	</g>
</g>
<circle class="st17" cx="104.6" cy="104.4" r="70.9"/>
<circle class="st20" cx="104.6" cy="104.4" r="70.9"/>
<path class="st21" d="M91.1,56.4c0,0,0.1-2-1.3-2s-3,1-3,3.9s2.9,3.8,5.2,2.5c1.4-0.8,2-2.6,1.3-4.1C92.6,55.8,91.1,56.4,91.1,56.4z
	"/>
<path class="st22" d="M61.5,119.3c-1.3,1.6-2.1,2.6-2.1,4.4c0,7.2,12.2,8.2,23.9,8.2s23.9-1,23.9-8.2c0-1.9-0.8-2.8-2.1-4.4
	c3.9-12-2.8-24.9-14.8-28.8s-24.9,2.8-28.8,14.8c-0.7,2.2-1.1,4.6-1.1,7C60.4,114.6,60.7,117,61.5,119.3z"/>
<g class="st23">
	<path class="st2" d="M19.6,57.8l1.8-2.8l6,3.9l3.6-5.7l-6-3.9l1.8-2.8l13.9,8.9l-1.8,2.8l-5.4-3.5l-3.6,5.7l5.4,3.5l-1.8,2.8
		L19.6,57.8z"/>
</g>
<g class="st23">
	<path class="st2" d="M35.3,36.9l2.2-2.2l16,7.4l-2.4,2.4L48,42.9l-4.5,4.5l1.5,3.1l-2.4,2.4L35.3,36.9z M45.3,41.6l-6.1-3l0,0
		l3,6.1L45.3,41.6z"/>
</g>
<g class="st23">
	<path class="st2" d="M47.1,26.2l2.7-1.7l12.2,5.5l0,0l-5.9-9.5l2.8-1.7l8.8,14l-2.8,1.7l-12-5.4l0,0l5.8,9.3l-2.8,1.7L47.1,26.2z"
		/>
</g>
<g class="st23">
	<path class="st2" d="M66.5,15.3l5.2-1.8c4.9-1.7,9.2,0.4,10.8,5c1.6,4.6-0.3,8.8-5.4,10.6l-5.2,1.8L66.5,15.3z M75.9,26.4
		c3-1,4.3-3.9,3.3-6.8c-1-2.9-3.8-4.4-6.6-3.4L70.5,17L74,27.1L75.9,26.4z"/>
</g>
<g class="st23">
	<path class="st2" d="M87.3,9l3.3-0.3l5.9,8.9l0,0l4.2-9.8l3.3-0.3l1.4,16.5l-3.2,0.3l-0.9-10.2l0,0l-3.4,7.4l-2.1,0.2l-4.6-6.7l0,0
		L92,25.2l-3.2,0.3L87.3,9z"/>
</g>
<g class="st23">
	<path class="st2" d="M117,8.7l3.1,0.5l3.6,17.3l-3.4-0.5l-0.6-3.4l-6.3-0.9l-1.6,3.1l-3.4-0.5L117,8.7z M119.2,19.6l-1.2-6.7l0,0
		l-3.2,6.1L119.2,19.6z"/>
</g>
<g class="st23">
	<path class="st2" d="M132.5,12l5.1,2c4.9,1.9,6.8,6.3,5,10.8c-1.8,4.5-6,6.5-10.9,4.6l-5.2-2L132.5,12z M132.6,26.6
		c3,1.2,5.8-0.2,6.9-3c1.1-2.9,0-5.8-2.8-6.8l-2.1-0.8l-3.9,10L132.6,26.6z"/>
</g>
<g class="st23">
	<path class="st2" d="M152.1,20.6l8.9,5.8l-1.6,2.4l-6.1-4l-2.2,3.3l4.9,3.2l-1.6,2.4l-4.9-3.2l-2.1,3.2L154,38l-1.6,2.4l-9.3-6
		L152.1,20.6z"/>
</g>
<g class="st23">
	<path class="st2" d="M173.7,37.7l2.2,2.5l-12.2,11.2l-2.2-2.5L173.7,37.7z"/>
</g>
<g class="st23">
	<path class="st2" d="M181,46l1.7,2.7l-5.3,12.2l0,0l9.4-6l1.7,2.7l-13.9,8.9l-1.8-2.8l5.2-12l0,0l-9.2,5.9l-1.8-2.7L181,46z"/>
</g>
<g class="st23">
	<path class="st2" d="M44.6,157l4.2,4.2c2.5,2.5,2.9,4.8,1,6.7c-1,1.1-2.6,1.6-4.4,0.9l0,0c1.1,1.9,1,3.8-0.6,5.3
		c-1.8,1.9-4.5,2-7.1-0.6l-4.8-4.8L44.6,157z M39.5,171.1c1.1,1.1,2.3,1.3,3.3,0.3c0.9-0.9,0.8-2.2-0.5-3.5l-2-1.9l-3,3L39.5,171.1z
		 M43.9,165.8c1,1,2.1,1.3,3,0.3c0.8-0.8,0.8-1.9-0.4-3.1l-1.7-1.6l-2.7,2.8L43.9,165.8z"/>
</g>
<g class="st23">
	<path class="st2" d="M56.7,168l2.7,1.9l-9.6,13.4l-2.7-1.9L56.7,168z"/>
</g>
<g class="st23">
	<path class="st2" d="M63.4,172.8l4.9,2.4c4.7,2.3,6.2,6.8,4,11.2c-2.1,4.4-6.5,6-11.3,3.6l-5-2.4L63.4,172.8z M62.2,187.4
		c2.9,1.4,5.8,0.3,7.1-2.4c1.4-2.8,0.5-5.8-2.2-7.1l-2-1l-4.7,9.6L62.2,187.4z"/>
</g>
<g class="st23">
	<path class="st2" d="M79.7,180.3l5.3,1.3c5.1,1.2,7.5,5.3,6.4,10c-1.1,4.7-5,7.2-10.2,6l-5.4-1.3L79.7,180.3z M81.7,194.7
		c3.1,0.7,5.7-1,6.4-3.9c0.7-3-0.8-5.7-3.7-6.4l-2.2-0.5l-2.5,10.4L81.7,194.7z"/>
</g>
<g class="st23">
	<path class="st2" d="M97.3,183.8l10.6,0.3l-0.1,2.9l-7.3-0.2l-0.1,4l5.9,0.1l-0.1,2.9l-5.9-0.1l-0.1,3.9l7.8,0.2l-0.1,2.9l-11-0.3
		L97.3,183.8z"/>
</g>
<g class="st23">
	<path class="st2" d="M112.4,183.7l10.8-1.8l0.5,2.9l-7.6,1.2l0.7,4.4l6.4-1l0.5,2.9l-6.4,1l1,6.2l-3.2,0.5L112.4,183.7z"/>
</g>
<g class="st23">
	<path class="st2" d="M128.6,189.3c-1.8-4.6,0.1-9.1,4.8-10.9c4.5-1.7,9,0.2,10.9,4.9c1.8,4.7-0.3,9.2-4.8,10.9
		C134.9,196,130.4,193.9,128.6,189.3z M141.1,184.5c-1.1-2.9-3.9-4.2-6.6-3.2c-2.8,1.1-3.8,4-2.7,6.8c1.1,2.8,3.8,4.3,6.6,3.2
		C141.1,190.3,142.2,187.4,141.1,184.5z"/>
</g>
<g class="st23">
	<path class="st2" d="M144.6,173.4l5.2-3.5c3.3-2.2,6.1-1.3,7.8,1.3c1.4,2.1,1.4,4.2-0.1,6.1l6.8,2.7l-3.2,2.2l-6.2-2.6l-1.6,1.1
		l3.2,4.7l-2.7,1.8L144.6,173.4z M153.7,176.9c1.7-1.1,1.9-2.5,1.1-3.8c-0.9-1.3-2.3-1.5-3.8-0.5l-2.1,1.4l2.8,4.2L153.7,176.9z"/>
</g>
<g class="st23">
	<path class="st2" d="M157.6,164l3.8-4c3.6-3.8,8.4-3.9,11.9-0.5c3.5,3.3,3.8,8,0.1,11.8l-3.8,4L157.6,164z M171.2,169.5
		c2.2-2.3,2-5.4-0.2-7.5c-2.2-2.1-5.4-2.2-7.4,0l-1.6,1.7l7.8,7.4L171.2,169.5z"/>
</g>
<ellipse class="st0" cx="91.8" cy="65.8" rx="2.7" ry="2.8"/>
</svg>
