<svg id="Layer_1" data-name="Layer 1" xmlns="http://www.w3.org/2000/svg" xmlns:xlink="http://www.w3.org/1999/xlink" viewBox="0 0 322.11 350.94"><defs><style>.cls-1,.cls-12,.cls-14,.cls-15,.cls-16,.cls-17,.cls-19,.cls-23{fill:none;}.cls-2{clip-path:url(#clip-path);}.cls-10,.cls-11,.cls-3,.cls-8,.cls-9{fill:#b7ddba;}.cls-13,.cls-20,.cls-24,.cls-26,.cls-4{fill:#fff;}.cls-5{fill:#7f8081;}.cls-6{fill:#6a92c7;}.cls-7{fill:#485ea4;}.cls-18,.cls-7{stroke:#010101;}.cls-10,.cls-11,.cls-12,.cls-13,.cls-14,.cls-15,.cls-16,.cls-19,.cls-20,.cls-23,.cls-7,.cls-8,.cls-9{stroke-miterlimit:10;}.cls-7,.cls-8{stroke-width:0.27px;}.cls-10,.cls-11,.cls-12,.cls-13,.cls-16,.cls-22,.cls-23,.cls-25,.cls-8,.cls-9{stroke:#fff;}.cls-18,.cls-19,.cls-20,.cls-9{stroke-width:1.07px;}.cls-10,.cls-12,.cls-13,.cls-14{stroke-width:0.54px;}.cls-11{stroke-width:1.08px;}.cls-14,.cls-15{stroke:#231f20;}.cls-15,.cls-16,.cls-17,.cls-24{stroke-width:0.81px;}.cls-17,.cls-19,.cls-20,.cls-24{stroke:#b7ddba;}.cls-17,.cls-18,.cls-22,.cls-24,.cls-25{stroke-linecap:round;stroke-linejoin:round;}.cls-18{fill:#f26342;}.cls-21{clip-path:url(#clip-path-2);}.cls-22{fill:#fee7a2;}.cls-22,.cls-25{stroke-width:1.34px;}.cls-23{stroke-width:2.15px;}.cls-25{fill:#eac2dc;}.cls-26{font-size:19.35px;font-family:Averta-Semibold, Averta;font-weight:700;}</style><clipPath id="clip-path"><rect class="cls-1" x="0.14" y="0.15" width="321.84" height="350.64"/></clipPath><clipPath id="clip-path-2"><circle class="cls-1" cx="155.72" cy="193.69" r="58.92"/></clipPath></defs><title>Artboard 1LANDING_corner</title><g class="cls-2"><path class="cls-3" d="M267.31,85.87,149.16,11.73C98.78-15.68,50.58,53.91,6.28,52.87,3,52.79,0,77.48.32,114.94H-3.33V356.27H78v-4.33H213.14c32.5-12,94.64-40.88,105.17-131.06C323.36,177.64,286.32,130.28,267.31,85.87Z"/></g><path class="cls-4" d="M131.33,164.4a8.88,8.88,0,0,1-1-1.71,4.36,4.36,0,0,1,.2-1.18c.45-1.4,1.49-2.14,1.71-3.59a4.66,4.66,0,0,1,.86-2.43c.87-.94,2.86-.42,3.37-1.6a3,3,0,0,0,.15-.72,4,4,0,0,1,4.16-3.27.72.72,0,0,1,.47.16c.09.08-.07.24,0,.36a7.7,7.7,0,0,1-.17,3.23,3.92,3.92,0,0,0,.95,3.18,3.51,3.51,0,0,0,3.2.59c.41-.09.94-.15,1.14.21s-.07.75,0,1.11-.47.46-.31.62c.68.7,1.83,1.58,1.8,2.56a2.93,2.93,0,0,1-1.37,2.44c-.77.46-1.14,1-2,1-3,.07-6.57-.32-9.57-.25C133.34,165.13,132.31,165.52,131.33,164.4Z"/><rect class="cls-5" x="97.4" y="202.02" width="121.73" height="9.41"/><rect class="cls-3" x="96.73" y="198.12" width="118.98" height="21.97"/><polygon class="cls-6" points="129.97 220.48 118.16 220.48 118.83 214.29 129.97 214.29 129.97 220.48"/><polygon class="cls-7" points="129.74 214.86 118.77 214.86 118.77 211.69 128.81 211.69 129.74 214.86"/><path class="cls-4" d="M201.23,211.66a8.41,8.41,0,0,1,1-3.45,6.8,6.8,0,0,1,3.17-3.48,4.2,4.2,0,0,1,4.38.75,20.53,20.53,0,0,0,1.79,1.82,1.19,1.19,0,0,1,.41.36,1,1,0,0,1,.09.57,6.2,6.2,0,0,1-.88,3.42Z"/><path class="cls-4" d="M180.57,211.7a8.2,8.2,0,0,1,1.65-4.43,5.83,5.83,0,0,1,3.52-2.8,4.28,4.28,0,0,1,2.94.7,9.31,9.31,0,0,1,2.21,2.13,6.93,6.93,0,0,1,.69,1c.58,1.06.68,2.33,1.27,3.38Z"/><path class="cls-4" d="M159.88,211.61a8.12,8.12,0,0,1,1.65-4.43,5.8,5.8,0,0,1,3.52-2.8,4.29,4.29,0,0,1,2.94.7,9.71,9.71,0,0,1,2.21,2.13,6.93,6.93,0,0,1,.69,1c.58,1.06.68,2.33,1.26,3.38Z"/><polygon class="cls-3" points="194.75 220.48 179.43 220.48 179.84 214.29 193.61 214.29 194.75 220.48"/><polygon class="cls-8" points="194.08 214.86 179.84 214.86 180.72 211.69 192.94 211.69 194.08 214.86"/><polygon class="cls-8" points="173.39 214.86 159.14 214.86 160.02 211.69 172.25 211.69 173.39 214.86"/><polygon class="cls-3" points="215.37 220.48 200.06 220.48 200.46 214.29 214.23 214.29 215.37 220.48"/><polygon class="cls-8" points="214.7 214.86 200.46 214.86 201.34 211.69 213.56 211.69 214.7 214.86"/><rect class="cls-3" x="100.9" y="214.29" width="11.81" height="6.19"/><path class="cls-4" d="M99.62,209.75a6.21,6.21,0,0,1,.95-1.91,8.79,8.79,0,0,1,3.17-2.84,5.2,5.2,0,0,1,2-.38,2.65,2.65,0,0,1,1.36.28,6.17,6.17,0,0,1,1.31,1.34c.32.35.7.64,1,1a5.71,5.71,0,0,1,.58,1c.5,1.07.94,2.17,1.45,3.24h-5.78C104,211.52,98.86,212.84,99.62,209.75Z"/><rect class="cls-4" x="99.64" y="133.5" width="112.33" height="41.74"/><rect class="cls-9" x="144.73" y="160.82" width="69.69" height="33.95"/><rect class="cls-9" x="96.33" y="175.69" width="19.08" height="18.95"/><polygon class="cls-8" points="112.48 214.86 100.36 214.86 100.36 211.69 111.44 211.69 112.48 214.86"/><rect class="cls-9" x="96.73" y="194.76" width="118.11" height="3.36"/><rect class="cls-10" x="158.91" y="165.3" width="25.62" height="2.6"/><rect class="cls-10" x="190.24" y="165.16" width="17.15" height="2.55"/><rect class="cls-10" x="148.08" y="165.12" width="5.76" height="2.69"/><path class="cls-11" d="M102.87,220.11H208.21a73.39,73.39,0,0,1-18.38,21.38c-16.35,12.91-48.28,19.16-74.59-3.77C109.48,232.7,108.81,228.43,102.87,220.11Z"/><path class="cls-4" d="M177.85,180.56c-.92-.23-.59-1.09-.8-2s-.87-1.82-.31-2.69a3.12,3.12,0,0,1,.79-.94c.21-.15.46-.25.68-.4A2.94,2.94,0,0,0,179,172a3.63,3.63,0,0,1,.57-2.63,10.67,10.67,0,0,1,1.22-.86,3.75,3.75,0,0,1,2-.81,1.59,1.59,0,0,0,1.25-.62,3,3,0,0,0,.24-1.3,4.39,4.39,0,0,1,2.18-3.29,6,6,0,0,1,4.16-.7c.15,1.85-.38,3.72-.31,5.76,0,1.21-.33,2.58.5,3.46a3.46,3.46,0,0,0,3.08.66,15.91,15.91,0,0,0,2.67-1c-.27,1.19-.71,3.59.49,3.82,1,.19.68.39.79.67a4.61,4.61,0,0,1,.38,1.41c.09,1.42,0,3.16-1.22,3.86a3.8,3.8,0,0,1-1.57.36,85.23,85.23,0,0,1-9.32.21c-1.53-.05-3.07-.15-4.6-.27A22.33,22.33,0,0,1,177.85,180.56Z"/><rect class="cls-10" x="108.68" y="180.02" width="2.61" height="12.03"/><rect class="cls-9" x="115.41" y="165.42" width="32.57" height="29.34"/><rect class="cls-10" x="121.66" y="168.83" width="3.9" height="18.89"/><rect class="cls-10" x="138.85" y="168.83" width="4.1" height="13.24"/><line class="cls-12" x1="121.45" y1="171.39" x2="125.75" y2="171.39"/><line class="cls-12" x1="121.59" y1="174.01" x2="125.55" y2="174.01"/><line class="cls-12" x1="121.59" y1="176.69" x2="125.55" y2="176.69"/><line class="cls-12" x1="121.52" y1="179.38" x2="125.49" y2="179.38"/><line class="cls-12" x1="121.59" y1="182" x2="125.62" y2="182"/><line class="cls-12" x1="121.66" y1="184.75" x2="125.42" y2="184.75"/><line class="cls-13" x1="138.92" y1="171.45" x2="142.89" y2="171.45"/><line class="cls-13" x1="138.72" y1="173.94" x2="143.02" y2="173.94"/><line class="cls-13" x1="138.79" y1="176.76" x2="143.09" y2="176.76"/><line class="cls-13" x1="138.79" y1="179.31" x2="143.02" y2="179.31"/><line class="cls-12" x1="149.4" y1="165.34" x2="149.4" y2="167.82"/><line class="cls-12" x1="152.83" y1="165.2" x2="152.83" y2="167.89"/><line class="cls-12" x1="163.51" y1="165.34" x2="163.51" y2="167.96"/><line class="cls-12" x1="167.34" y1="165.41" x2="167.34" y2="167.82"/><line class="cls-13" x1="170.83" y1="165.34" x2="170.83" y2="167.89"/><line class="cls-12" x1="174.6" y1="165.34" x2="174.6" y2="167.82"/><line class="cls-12" x1="177.95" y1="165.34" x2="177.95" y2="167.89"/><line class="cls-12" x1="181.38" y1="165.34" x2="181.38" y2="167.82"/><line class="cls-12" x1="195.76" y1="165.34" x2="195.76" y2="167.62"/><line class="cls-12" x1="199.18" y1="165.34" x2="199.18" y2="167.82"/><line class="cls-12" x1="203.08" y1="165.34" x2="203.08" y2="167.82"/><line class="cls-14" x1="142.01" y1="186.5" x2="142.01" y2="189.79"/><line class="cls-14" x1="145.51" y1="186.57" x2="145.51" y2="189.79"/><line class="cls-14" x1="149.47" y1="186.5" x2="149.47" y2="189.79"/><line class="cls-14" x1="152.83" y1="186.57" x2="152.83" y2="189.79"/><polygon class="cls-3" points="212.89 186.57 212.89 189.86 210.2 189.86 210.2 189.73 210.2 186.57 212.89 186.57"/><polygon class="cls-3" points="210.2 189.73 210.2 189.86 206.57 189.86 206.57 189.66 206.57 186.57 210.2 186.57 210.2 189.73"/><polygon class="cls-3" points="206.57 189.66 206.57 189.86 203.01 189.86 203.01 186.64 203.01 186.57 206.57 186.57 206.57 189.66"/><polygon class="cls-3" points="203.01 186.64 203.01 189.86 199.25 189.86 199.25 189.66 199.25 186.57 203.01 186.57 203.01 186.64"/><polygon class="cls-3" points="199.25 189.66 199.25 189.86 195.69 189.86 195.69 189.59 195.69 186.57 199.25 186.57 199.25 189.66"/><polygon class="cls-3" points="195.69 189.59 195.69 189.86 192.2 189.86 192.2 189.73 192.2 186.57 195.69 186.57 195.69 189.59"/><polygon class="cls-3" points="192.2 189.73 192.2 189.86 188.7 189.86 188.7 186.57 192.2 186.57 192.2 189.73"/><polygon class="cls-3" points="188.7 186.57 188.7 189.86 185.28 189.86 185.28 189.79 185.28 186.57 188.7 186.57"/><polygon class="cls-3" points="185.28 189.79 185.28 189.86 181.45 189.86 181.45 189.73 181.45 186.57 185.28 186.57 185.28 189.79"/><polygon class="cls-3" points="181.45 189.73 181.45 189.86 177.89 189.86 177.89 189.79 177.89 186.57 181.45 186.57 181.45 189.73"/><polygon class="cls-3" points="177.89 189.79 177.89 189.86 174.46 189.86 174.46 186.57 177.89 186.57 177.89 189.79"/><polygon class="cls-3" points="174.46 186.57 174.46 189.86 170.7 189.86 170.7 189.79 170.7 186.57 174.46 186.57"/><polygon class="cls-3" points="170.7 189.79 170.7 189.86 167.34 189.86 167.34 189.73 167.34 186.57 170.7 186.57 170.7 189.79"/><polygon class="cls-3" points="167.34 189.73 167.34 189.86 163.51 189.86 163.51 189.73 163.51 186.57 167.34 186.57 167.34 189.73"/><polygon class="cls-3" points="163.51 189.73 163.51 189.86 159.95 189.86 159.95 189.73 159.95 186.57 163.51 186.57 163.51 189.73"/><polygon class="cls-3" points="159.95 189.73 159.95 189.86 156.32 189.86 156.32 186.57 159.95 186.57 159.95 189.73"/><rect class="cls-3" x="138.45" y="186.57" width="17.87" height="3.29"/><polygon class="cls-12" points="210.2 186.57 212.89 186.57 212.89 189.86 210.2 189.86 206.57 189.86 203.01 189.86 199.25 189.86 195.69 189.86 192.2 189.86 188.7 189.86 185.28 189.86 181.45 189.86 177.89 189.86 174.46 189.86 170.7 189.86 167.34 189.86 163.51 189.86 159.95 189.86 156.32 189.86 138.45 189.86 138.45 186.57 156.32 186.57 159.95 186.57 163.51 186.57 167.34 186.57 170.7 186.57 174.46 186.57 177.89 186.57 181.45 186.57 185.28 186.57 188.7 186.57 192.2 186.57 195.69 186.57 199.25 186.57 203.01 186.57 206.57 186.57 210.2 186.57"/><polyline class="cls-12" points="156.32 186.5 156.32 186.57 156.32 189.86 156.32 189.93"/><polyline class="cls-12" points="159.95 186.5 159.95 186.57 159.95 189.73"/><line class="cls-12" x1="163.51" y1="186.57" x2="163.51" y2="189.73"/><polyline class="cls-12" points="167.34 186.5 167.34 186.57 167.34 189.73"/><line class="cls-12" x1="170.7" y1="186.57" x2="170.7" y2="189.79"/><line class="cls-12" x1="174.46" y1="186.57" x2="174.46" y2="189.86"/><line class="cls-12" x1="177.89" y1="186.57" x2="177.89" y2="189.79"/><polyline class="cls-12" points="181.45 186.5 181.45 186.57 181.45 189.73"/><line class="cls-12" x1="185.28" y1="186.57" x2="185.28" y2="189.79"/><line class="cls-12" x1="188.7" y1="186.57" x2="188.7" y2="189.86"/><polyline class="cls-12" points="192.2 186.5 192.2 186.57 192.2 189.73"/><line class="cls-12" x1="195.69" y1="186.57" x2="195.69" y2="189.59"/><line class="cls-12" x1="199.25" y1="186.57" x2="199.25" y2="189.66"/><polyline class="cls-12" points="203.01 186.64 203.01 189.86 203.01 190"/><polyline class="cls-12" points="206.57 186.44 206.57 186.57 206.57 189.66"/><line class="cls-12" x1="210.2" y1="186.57" x2="210.2" y2="189.73"/><path class="cls-15" d="M138,219.72s.6-16.13,7.23-15.59,8,15.59,8,15.59"/><line class="cls-16" x1="105.2" y1="221.91" x2="206.37" y2="221.91"/><line class="cls-16" x1="106.27" y1="224.06" x2="205.57" y2="224.06"/><line class="cls-16" x1="107.75" y1="226.61" x2="203.42" y2="226.61"/><line class="cls-16" x1="109.5" y1="229.16" x2="201.27" y2="229.16"/><line class="cls-16" x1="198.85" y1="232.52" x2="111.78" y2="232.52"/><line class="cls-16" x1="195.35" y1="236.15" x2="115.68" y2="236.15"/><line class="cls-16" x1="190.65" y1="239.91" x2="120.65" y2="239.91"/><line class="cls-16" x1="184.74" y1="244.08" x2="126.69" y2="244.08"/><line class="cls-16" x1="175.74" y1="248.51" x2="132.74" y2="248.51"/><line class="cls-14" x1="192.26" y1="165.34" x2="192.26" y2="167.62"/><path class="cls-17" d="M144.63,153.74s.55-4.44,4.16-6"/><path class="cls-3" d="M155.34,280.72a87.13,87.13,0,1,1,34-6.87A86.86,86.86,0,0,1,155.34,280.72Zm0-146.32A58.9,58.9,0,1,0,197,151.65,58.51,58.51,0,0,0,155.34,134.4Z"/><line class="cls-18" x1="179.04" y1="181.79" x2="196.07" y2="181.98"/><path class="cls-16" d="M179.4,220.13s.59-16.14,7.22-15.6,8,15.6,8,15.6"/><path class="cls-16" d="M105.2,204.39c6.63.54,8,15.6,8,15.6"/><path class="cls-16" d="M200,219.86s.59-16.14,7.22-15.6"/><path class="cls-16" d="M158.71,219.86s.59-16.14,7.22-15.6,8,15.6,8,15.6"/><polyline class="cls-16" points="207.31 220.16 173.96 220.16 158.71 220.16 103.45 220.16"/><path class="cls-16" d="M105.3,204.39c-2.49.21-4.35,2.54-5.57,5.27"/><path class="cls-16" d="M207.18,204.26a5.18,5.18,0,0,1,3.55,2,12.85,12.85,0,0,1,1.81,2.93"/><rect class="cls-3" x="154.1" y="146.93" width="4.84" height="35.07"/><rect class="cls-4" x="153.97" y="160.85" width="5.04" height="1.95" transform="translate(-37.25 47.19) rotate(-15.35)"/><rect class="cls-4" x="153.97" y="166" width="5.04" height="1.95" transform="translate(-38.61 47.37) rotate(-15.35)"/><rect class="cls-4" x="153.97" y="171.15" width="5.04" height="1.95" transform="translate(-39.98 47.56) rotate(-15.35)"/><rect class="cls-4" x="153.97" y="155.71" width="5.04" height="1.95" transform="translate(-35.89 47.01) rotate(-15.35)"/><rect class="cls-4" x="153.97" y="150.56" width="5.04" height="1.95" transform="translate(-34.53 46.82) rotate(-15.35)"/><rect class="cls-4" x="153.97" y="176.3" width="5.04" height="1.95" transform="translate(-41.34 47.74) rotate(-15.35)"/><path class="cls-17" d="M141.3,152.6c-.55-1.36.4-3.41.4-3.41-5.7-.79-5.48,4.78-5.48,4.78a3.31,3.31,0,0,0-3.25,1,3.71,3.71,0,0,0-.79,3.72,3.59,3.59,0,0,0-1.91,3,2.81,2.81,0,0,0,1.86,2.64l13.66.15a2.89,2.89,0,0,0,1.91-2.72,3.08,3.08,0,0,0-2-2.82,2.33,2.33,0,0,0,.38-2.58"/><path class="cls-4" d="M196.71,166.7a3.23,3.23,0,0,1-1.38,4.21c-2.33,1.33-5.4.33-5.37-2.65s1.67-4,3.16-4,1.35,2.08,1.35,2.08l.15,0C195,166.16,196.2,165.89,196.71,166.7Z"/><path class="cls-17" d="M179,180.18a3.51,3.51,0,0,1-2.32-3.3,4.49,4.49,0,0,1,2.39-3.7,4.61,4.61,0,0,1,1-4.63,4.15,4.15,0,0,1,4.06-1.22s-.28-6.94,6.82-6c0,0-1.19,2.56-.5,4.25"/><path class="cls-17" d="M196.07,180.36a3.61,3.61,0,0,0,2.38-3.39,3.87,3.87,0,0,0-2.55-3.52,2.86,2.86,0,0,0,.47-3.21"/><path class="cls-17" d="M194.47,166.33s.14-2.06-1.35-2.08-3.13,1-3.16,4,3,4,5.37,2.65a3.23,3.23,0,0,0,1.38-4.21c-.51-.81-1.69-.54-2.09-.41Z"/><path class="cls-17" d="M194.62,166.29s.69-5.53,5.19-7.53"/><rect class="cls-3" x="115.77" y="208.36" width="10.93" height="11.2"/><rect class="cls-19" x="154.1" y="146.98" width="4.84" height="35.07"/><polygon class="cls-20" points="202.66 175.6 206.95 180.7 211.88 179.54 212.69 182.67 145.77 182.67 141.92 181.42 160.64 176.58 163.6 179.99 184.29 174.88 188.05 179.54 202.66 175.6"/><circle class="cls-1" cx="155.72" cy="193.69" r="58.92"/><g class="cls-21"><path class="cls-22" d="M138,182.05m-16.65,33.17L134.83,269l.87,3.49a2.36,2.36,0,0,0,4.58,0l14.36-57.25"/></g><circle class="cls-1" cx="155.72" cy="193.69" r="58.92"/><circle class="cls-23" cx="155.72" cy="193.69" r="58.92"/><path class="cls-24" d="M144.51,153.78s.11-1.66-1.09-1.67-2.51.82-2.53,3.21,2.44,3.2,4.31,2.13a2.59,2.59,0,0,0,1.1-3.38C145.8,153.28,144.51,153.78,144.51,153.78Z"/><path class="cls-25" d="M119.88,206c-1.11,1.35-1.74,2.12-1.74,3.7,0,6,10.15,6.8,19.85,6.8s19.85-.84,19.85-6.8c0-1.58-.62-2.35-1.74-3.7a19,19,0,1,0-36.22,0Zm34.76,8.38"/><text class="cls-26" transform="translate(95.85 163.6) rotate(-57.38)">H</text><text class="cls-26" transform="matrix(0.71, -0.7, 0.7, 0.71, 103.98, 151.11)">A</text><text class="cls-26" transform="matrix(0.85, -0.53, 0.53, 0.85, 114, 141.17)">N</text><text class="cls-26" transform="matrix(0.95, -0.33, 0.33, 0.95, 127.12, 133.1)">D</text><text class="cls-26" transform="matrix(1, -0.09, 0.09, 1, 141.04, 128.17)">M</text><text class="cls-26" transform="matrix(0.99, 0.15, -0.15, 0.99, 158.68, 126.93)">A</text><text class="cls-26" transform="translate(172.66 129.11) rotate(21.21)">D</text><text class="cls-26" transform="translate(186.53 134.7) rotate(33.03)">E</text><text class="cls-26" transform="translate(197.15 141.99) rotate(41.4)"> </text><text class="cls-26" transform="matrix(0.68, 0.74, -0.74, 0.68, 202.05, 146.39)">I</text><text class="cls-26" transform="matrix(0.54, 0.84, -0.84, 0.54, 206.92, 151.27)">N</text><text class="cls-26" transform="translate(95.14 246.15) rotate(44.58)">B</text><text class="cls-26" transform="matrix(0.81, 0.58, -0.58, 0.81, 106.68, 256.82)">I</text><text class="cls-26" transform="translate(114.09 262.24) rotate(26.2)">D</text><text class="cls-26" transform="translate(130.38 269.79) rotate(13.29)">D</text><text class="cls-26" transform="translate(147.82 273.39) rotate(1.37)">E</text><text class="cls-26" transform="translate(162.99 273.42) rotate(-9.3)">F</text><text class="cls-26" transform="translate(177.31 271) rotate(-21.33)">O</text><text class="cls-26" transform="translate(195.43 263.27) rotate(-34.35)">R</text><text class="cls-26" transform="translate(208.77 253.78) rotate(-46.57)">D</text><ellipse class="cls-4" cx="145.14" cy="161.62" rx="2.27" ry="2.35"/></svg>