<svg id="Layer_1" data-name="Layer 1" xmlns="http://www.w3.org/2000/svg" xmlns:xlink="http://www.w3.org/1999/xlink" viewBox="0 0 318.49 423.41"><defs><style>.cls-1,.cls-12,.cls-14,.cls-15,.cls-16,.cls-17,.cls-19,.cls-23{fill:none;}.cls-2{fill:#b8deba;}.cls-13,.cls-20,.cls-24,.cls-26,.cls-3{fill:#fff;}.cls-4{fill:#7f8081;}.cls-10,.cls-11,.cls-5,.cls-8,.cls-9{fill:#b7ddba;}.cls-6{fill:#6a92c7;}.cls-7{fill:#485ea4;}.cls-18,.cls-7{stroke:#010101;}.cls-10,.cls-11,.cls-12,.cls-13,.cls-14,.cls-15,.cls-16,.cls-19,.cls-20,.cls-23,.cls-7,.cls-8,.cls-9{stroke-miterlimit:10;}.cls-7,.cls-8{stroke-width:0.27px;}.cls-10,.cls-11,.cls-12,.cls-13,.cls-16,.cls-22,.cls-23,.cls-25,.cls-8,.cls-9{stroke:#fff;}.cls-18,.cls-19,.cls-20,.cls-9{stroke-width:1.07px;}.cls-10,.cls-12,.cls-13,.cls-14{stroke-width:0.54px;}.cls-11{stroke-width:1.08px;}.cls-14,.cls-15{stroke:#231f20;}.cls-15,.cls-16,.cls-17,.cls-24{stroke-width:0.81px;}.cls-17,.cls-19,.cls-20,.cls-24{stroke:#b7ddba;}.cls-17,.cls-18,.cls-22,.cls-24,.cls-25{stroke-linecap:round;stroke-linejoin:round;}.cls-18{fill:#f26342;}.cls-21{clip-path:url(#clip-path);}.cls-22{fill:#fee7a2;}.cls-22,.cls-25{stroke-width:1.34px;}.cls-23{stroke-width:2.15px;}.cls-25{fill:#eac2dc;}.cls-26{font-size:19.35px;font-family:Averta-Semibold, Averta;font-weight:700;}</style><clipPath id="clip-path"><circle class="cls-1" cx="164.62" cy="152.2" r="58.92"/></clipPath></defs><title>Untitled-22landing_corner</title><path class="cls-2" d="M267,80.54c19,44.41,56.06,91.77,51,135-16.23,139-155,132.28-119,142.9s117.79,21,88.08,29.2c-65.61,18.09-177.81,57.83-207.55,19.93C-12.34,290.54-4.24,47.29,6,47.53c44.3,1,92.5-68.54,142.88-41.13"/><path class="cls-3" d="M140.23,122.91a9.41,9.41,0,0,1-1-1.71,4.36,4.36,0,0,1,.2-1.18c.46-1.4,1.49-2.14,1.72-3.59A4.58,4.58,0,0,1,142,114c.87-1,2.87-.43,3.37-1.61a3,3,0,0,0,.15-.72,4,4,0,0,1,4.16-3.27.71.71,0,0,1,.47.16c.09.08-.07.24,0,.37a7.83,7.83,0,0,1-.16,3.22,3.89,3.89,0,0,0,1,3.18,3.48,3.48,0,0,0,3.19.59c.41-.09.94-.15,1.14.21s-.06.75,0,1.11-.48.46-.32.62c.68.7,1.83,1.58,1.81,2.56a3,3,0,0,1-1.38,2.45c-.77.46-1.14,1-2,1-3,.07-6.57-.32-9.57-.25C142.24,123.64,141.21,124,140.23,122.91Z"/><rect class="cls-4" x="106.31" y="160.53" width="121.73" height="9.41"/><rect class="cls-5" x="105.63" y="156.63" width="118.98" height="21.97"/><polygon class="cls-6" points="138.88 178.99 127.06 178.99 127.74 172.8 138.88 172.8 138.88 178.99"/><polygon class="cls-7" points="138.65 173.37 127.67 173.37 127.67 170.21 137.71 170.21 138.65 173.37"/><path class="cls-3" d="M210.14,170.17a8.25,8.25,0,0,1,1-3.45,6.84,6.84,0,0,1,3.17-3.48,4.24,4.24,0,0,1,4.39.75,19.14,19.14,0,0,0,1.78,1.82,1.3,1.3,0,0,1,.41.36,1,1,0,0,1,.09.57,6.2,6.2,0,0,1-.88,3.42Z"/><path class="cls-3" d="M189.47,170.21a8.13,8.13,0,0,1,1.66-4.43,5.78,5.78,0,0,1,3.51-2.8,4.28,4.28,0,0,1,2.94.7,9.51,9.51,0,0,1,2.21,2.13,7,7,0,0,1,.7,1c.57,1.06.67,2.33,1.26,3.39Z"/><path class="cls-3" d="M168.78,170.12a8.2,8.2,0,0,1,1.65-4.43,5.83,5.83,0,0,1,3.52-2.8,4.28,4.28,0,0,1,2.94.7,9.35,9.35,0,0,1,2.21,2.14,6.34,6.34,0,0,1,.69,1c.58,1.06.68,2.33,1.27,3.39Z"/><polygon class="cls-5" points="203.65 178.99 188.33 178.99 188.74 172.8 202.51 172.8 203.65 178.99"/><polygon class="cls-8" points="202.98 173.37 188.74 173.37 189.62 170.21 201.84 170.21 202.98 173.37"/><polygon class="cls-8" points="182.29 173.37 168.05 173.37 168.93 170.21 181.15 170.21 182.29 173.37"/><polygon class="cls-5" points="224.28 178.99 208.96 178.99 209.36 172.8 223.13 172.8 224.28 178.99"/><polygon class="cls-8" points="223.6 173.37 209.36 173.37 210.24 170.21 222.47 170.21 223.6 173.37"/><rect class="cls-5" x="109.8" y="172.8" width="11.81" height="6.19"/><path class="cls-3" d="M108.52,168.26a6.21,6.21,0,0,1,1-1.91,8.88,8.88,0,0,1,3.17-2.84,5.23,5.23,0,0,1,2-.38,2.75,2.75,0,0,1,1.36.28,6.17,6.17,0,0,1,1.31,1.34c.32.35.71.64,1,1a5.71,5.71,0,0,1,.58,1c.5,1.07.94,2.17,1.45,3.24h-5.78C112.89,170,107.76,171.35,108.52,168.26Z"/><rect class="cls-3" x="108.55" y="92.01" width="112.33" height="41.74"/><rect class="cls-9" x="153.64" y="119.33" width="69.69" height="33.95"/><rect class="cls-9" x="105.23" y="134.2" width="19.08" height="18.95"/><polygon class="cls-8" points="121.38 173.37 109.26 173.37 109.26 170.21 120.35 170.21 121.38 173.37"/><rect class="cls-9" x="105.63" y="153.28" width="118.11" height="3.36"/><rect class="cls-10" x="167.81" y="123.81" width="25.62" height="2.6"/><rect class="cls-10" x="199.14" y="123.67" width="17.15" height="2.55"/><rect class="cls-10" x="156.98" y="123.63" width="5.76" height="2.69"/><path class="cls-11" d="M111.77,178.63H217.11A73.48,73.48,0,0,1,198.74,200c-16.36,12.91-48.29,19.16-74.6-3.77C118.39,191.21,117.71,186.94,111.77,178.63Z"/><path class="cls-3" d="M186.76,139.08c-.93-.24-.6-1.1-.81-2s-.87-1.82-.31-2.69a3.44,3.44,0,0,1,.79-.94c.22-.15.47-.25.68-.4a2.94,2.94,0,0,0,.81-2.52,3.64,3.64,0,0,1,.58-2.63,10.55,10.55,0,0,1,1.21-.86,3.75,3.75,0,0,1,2-.81,1.59,1.59,0,0,0,1.25-.62,3,3,0,0,0,.24-1.3,4.39,4.39,0,0,1,2.18-3.29,6,6,0,0,1,4.16-.7c.15,1.85-.38,3.72-.31,5.76,0,1.21-.33,2.58.5,3.46a3.47,3.47,0,0,0,3.08.66,16,16,0,0,0,2.68-1c-.28,1.19-.71,3.59.48,3.82,1,.19.68.4.79.67a4.62,4.62,0,0,1,.39,1.41c.09,1.42,0,3.16-1.23,3.86a3.65,3.65,0,0,1-1.57.36,85.18,85.18,0,0,1-9.32.21c-1.53,0-3.06-.15-4.6-.27A23.37,23.37,0,0,1,186.76,139.08Z"/><rect class="cls-10" x="117.58" y="138.53" width="2.61" height="12.03"/><rect class="cls-9" x="124.31" y="123.93" width="32.57" height="29.34"/><rect class="cls-10" x="130.56" y="127.34" width="3.9" height="18.89"/><rect class="cls-10" x="147.76" y="127.34" width="4.1" height="13.24"/><line class="cls-12" x1="130.36" y1="129.9" x2="134.66" y2="129.9"/><line class="cls-12" x1="130.49" y1="132.52" x2="134.45" y2="132.52"/><line class="cls-12" x1="130.49" y1="135.2" x2="134.45" y2="135.2"/><line class="cls-12" x1="130.42" y1="137.89" x2="134.39" y2="137.89"/><line class="cls-12" x1="130.49" y1="140.51" x2="134.52" y2="140.51"/><line class="cls-12" x1="130.56" y1="143.27" x2="134.32" y2="143.27"/><line class="cls-13" x1="147.82" y1="129.96" x2="151.79" y2="129.96"/><line class="cls-13" x1="147.62" y1="132.45" x2="151.92" y2="132.45"/><line class="cls-13" x1="147.69" y1="135.27" x2="151.99" y2="135.27"/><line class="cls-13" x1="147.69" y1="137.82" x2="151.92" y2="137.82"/><line class="cls-12" x1="158.3" y1="123.85" x2="158.3" y2="126.34"/><line class="cls-12" x1="161.73" y1="123.72" x2="161.73" y2="126.4"/><line class="cls-12" x1="172.41" y1="123.85" x2="172.41" y2="126.47"/><line class="cls-12" x1="176.24" y1="123.92" x2="176.24" y2="126.34"/><line class="cls-13" x1="179.74" y1="123.85" x2="179.74" y2="126.4"/><line class="cls-12" x1="183.5" y1="123.85" x2="183.5" y2="126.34"/><line class="cls-12" x1="186.86" y1="123.85" x2="186.86" y2="126.4"/><line class="cls-12" x1="190.28" y1="123.85" x2="190.28" y2="126.34"/><line class="cls-12" x1="204.66" y1="123.85" x2="204.66" y2="126.13"/><line class="cls-12" x1="208.09" y1="123.85" x2="208.09" y2="126.34"/><line class="cls-12" x1="211.98" y1="123.85" x2="211.98" y2="126.34"/><line class="cls-14" x1="150.91" y1="145.01" x2="150.91" y2="148.3"/><line class="cls-14" x1="154.41" y1="145.08" x2="154.41" y2="148.3"/><line class="cls-14" x1="158.37" y1="145.01" x2="158.37" y2="148.3"/><line class="cls-14" x1="161.73" y1="145.08" x2="161.73" y2="148.3"/><polygon class="cls-5" points="221.79 145.08 221.79 148.37 219.1 148.37 219.1 148.24 219.1 145.08 221.79 145.08"/><polygon class="cls-5" points="219.1 148.24 219.1 148.37 215.48 148.37 215.48 148.17 215.48 145.08 219.1 145.08 219.1 148.24"/><polygon class="cls-5" points="215.48 148.17 215.48 148.37 211.92 148.37 211.92 145.15 211.92 145.08 215.48 145.08 215.48 148.17"/><polygon class="cls-5" points="211.92 145.15 211.92 148.37 208.15 148.37 208.15 148.17 208.15 145.08 211.92 145.08 211.92 145.15"/><polygon class="cls-5" points="208.15 148.17 208.15 148.37 204.59 148.37 204.59 148.1 204.59 145.08 208.15 145.08 208.15 148.17"/><polygon class="cls-5" points="204.59 148.1 204.59 148.37 201.1 148.37 201.1 148.24 201.1 145.08 204.59 145.08 204.59 148.1"/><polygon class="cls-5" points="201.1 148.24 201.1 148.37 197.61 148.37 197.61 145.08 201.1 145.08 201.1 148.24"/><polygon class="cls-5" points="197.61 145.08 197.61 148.37 194.18 148.37 194.18 148.3 194.18 145.08 197.61 145.08"/><polygon class="cls-5" points="194.18 148.3 194.18 148.37 190.35 148.37 190.35 148.24 190.35 145.08 194.18 145.08 194.18 148.3"/><polygon class="cls-5" points="190.35 148.24 190.35 148.37 186.79 148.37 186.79 148.3 186.79 145.08 190.35 145.08 190.35 148.24"/><polygon class="cls-5" points="186.79 148.3 186.79 148.37 183.36 148.37 183.36 145.08 186.79 145.08 186.79 148.3"/><polygon class="cls-5" points="183.36 145.08 183.36 148.37 179.6 148.37 179.6 148.3 179.6 145.08 183.36 145.08"/><polygon class="cls-5" points="179.6 148.3 179.6 148.37 176.24 148.37 176.24 148.24 176.24 145.08 179.6 145.08 179.6 148.3"/><polygon class="cls-5" points="176.24 148.24 176.24 148.37 172.41 148.37 172.41 148.24 172.41 145.08 176.24 145.08 176.24 148.24"/><polygon class="cls-5" points="172.41 148.24 172.41 148.37 168.85 148.37 168.85 148.24 168.85 145.08 172.41 145.08 172.41 148.24"/><polygon class="cls-5" points="168.85 148.24 168.85 148.37 165.22 148.37 165.22 145.08 168.85 145.08 168.85 148.24"/><rect class="cls-5" x="147.35" y="145.08" width="17.87" height="3.29"/><polygon class="cls-12" points="219.1 145.08 221.79 145.08 221.79 148.37 219.1 148.37 215.48 148.37 211.92 148.37 208.15 148.37 204.59 148.37 201.1 148.37 197.61 148.37 194.18 148.37 190.35 148.37 186.79 148.37 183.36 148.37 179.6 148.37 176.24 148.37 172.41 148.37 168.85 148.37 165.22 148.37 147.35 148.37 147.35 145.08 165.22 145.08 168.85 145.08 172.41 145.08 176.24 145.08 179.6 145.08 183.36 145.08 186.79 145.08 190.35 145.08 194.18 145.08 197.61 145.08 201.1 145.08 204.59 145.08 208.15 145.08 211.92 145.08 215.48 145.08 219.1 145.08"/><polyline class="cls-12" points="165.22 145.01 165.22 145.08 165.22 148.37 165.22 148.44"/><polyline class="cls-12" points="168.85 145.01 168.85 145.08 168.85 148.24"/><line class="cls-12" x1="172.41" y1="145.08" x2="172.41" y2="148.24"/><polyline class="cls-12" points="176.24 145.01 176.24 145.08 176.24 148.24"/><line class="cls-12" x1="179.6" y1="145.08" x2="179.6" y2="148.3"/><line class="cls-12" x1="183.36" y1="145.08" x2="183.36" y2="148.37"/><line class="cls-12" x1="186.79" y1="145.08" x2="186.79" y2="148.3"/><polyline class="cls-12" points="190.35 145.01 190.35 145.08 190.35 148.24"/><line class="cls-12" x1="194.18" y1="145.08" x2="194.18" y2="148.3"/><line class="cls-12" x1="197.61" y1="145.08" x2="197.61" y2="148.37"/><polyline class="cls-12" points="201.1 145.01 201.1 145.08 201.1 148.24"/><line class="cls-12" x1="204.59" y1="145.08" x2="204.59" y2="148.1"/><line class="cls-12" x1="208.15" y1="145.08" x2="208.15" y2="148.17"/><polyline class="cls-12" points="211.92 145.15 211.92 148.37 211.92 148.5"/><polyline class="cls-12" points="215.48 144.94 215.48 145.08 215.48 148.17"/><line class="cls-12" x1="219.1" y1="145.08" x2="219.1" y2="148.24"/><path class="cls-15" d="M146.92,178.23s.59-16.13,7.22-15.59,8,15.59,8,15.59"/><line class="cls-16" x1="114.1" y1="180.42" x2="215.27" y2="180.42"/><line class="cls-16" x1="115.17" y1="182.57" x2="214.47" y2="182.57"/><line class="cls-16" x1="116.65" y1="185.12" x2="212.32" y2="185.12"/><line class="cls-16" x1="118.4" y1="187.67" x2="210.17" y2="187.67"/><line class="cls-16" x1="207.75" y1="191.03" x2="120.68" y2="191.03"/><line class="cls-16" x1="204.26" y1="194.66" x2="124.58" y2="194.66"/><line class="cls-16" x1="199.55" y1="198.42" x2="129.55" y2="198.42"/><line class="cls-16" x1="193.64" y1="202.59" x2="135.6" y2="202.59"/><line class="cls-16" x1="184.64" y1="207.02" x2="141.64" y2="207.02"/><line class="cls-14" x1="201.17" y1="123.85" x2="201.17" y2="126.13"/><path class="cls-17" d="M153.53,112.25s.56-4.43,4.17-6"/><path class="cls-5" d="M164.25,239.23a87.13,87.13,0,1,1,34-6.87A86.87,86.87,0,0,1,164.25,239.23Zm0-146.32a58.9,58.9,0,1,0,41.66,17.25A58.58,58.58,0,0,0,164.25,92.91Z"/><line class="cls-18" x1="187.94" y1="140.3" x2="204.97" y2="140.49"/><path class="cls-16" d="M188.3,178.64s.59-16.14,7.22-15.6,8,15.6,8,15.6"/><path class="cls-16" d="M114.1,162.9c6.63.54,8,15.6,8,15.6"/><path class="cls-16" d="M208.86,178.37s.59-16.14,7.22-15.6"/><path class="cls-16" d="M167.61,178.37s.59-16.14,7.22-15.6,8,15.6,8,15.6"/><polyline class="cls-16" points="216.22 178.67 182.86 178.67 167.61 178.67 112.35 178.67"/><path class="cls-16" d="M114.2,162.9c-2.49.21-4.35,2.54-5.57,5.27"/><path class="cls-16" d="M216.08,162.77a5.26,5.26,0,0,1,3.56,2,12.82,12.82,0,0,1,1.8,2.93"/><rect class="cls-5" x="163.01" y="105.44" width="4.84" height="35.07"/><rect class="cls-3" x="162.87" y="119.36" width="5.04" height="1.95" transform="translate(-25.95 48.07) rotate(-15.35)"/><rect class="cls-3" x="162.87" y="124.51" width="5.04" height="1.95" transform="translate(-27.31 48.25) rotate(-15.35)"/><rect class="cls-3" x="162.87" y="129.66" width="5.04" height="1.95" transform="translate(-28.68 48.43) rotate(-15.35)"/><rect class="cls-3" x="162.87" y="114.22" width="5.04" height="1.95" transform="translate(-24.59 47.88) rotate(-15.35)"/><rect class="cls-3" x="162.87" y="109.07" width="5.04" height="1.95" transform="translate(-23.23 47.7) rotate(-15.35)"/><rect class="cls-3" x="162.87" y="134.81" width="5.04" height="1.95" transform="translate(-30.04 48.62) rotate(-15.35)"/><path class="cls-17" d="M150.2,111.11c-.55-1.36.4-3.41.4-3.41-5.7-.79-5.47,4.78-5.47,4.78a3.33,3.33,0,0,0-3.26,1,3.71,3.71,0,0,0-.79,3.72,3.61,3.61,0,0,0-1.91,3,2.81,2.81,0,0,0,1.86,2.64l13.66.15a2.89,2.89,0,0,0,1.91-2.72,3.09,3.09,0,0,0-2-2.82,2.31,2.31,0,0,0,.38-2.58"/><path class="cls-3" d="M205.61,125.21a3.23,3.23,0,0,1-1.37,4.21c-2.34,1.33-5.41.33-5.38-2.65s1.67-4,3.16-4,1.36,2.07,1.36,2.07l.14,0C203.93,124.67,205.1,124.4,205.61,125.21Z"/><path class="cls-17" d="M187.94,138.69a3.5,3.5,0,0,1-2.32-3.29,4.51,4.51,0,0,1,2.39-3.71,4.63,4.63,0,0,1,1-4.63,4.16,4.16,0,0,1,4.06-1.23s-.28-6.93,6.82-6c0,0-1.18,2.56-.5,4.26"/><path class="cls-17" d="M205,138.88a3.62,3.62,0,0,0,2.38-3.4A3.87,3.87,0,0,0,204.8,132a2.87,2.87,0,0,0,.48-3.21"/><path class="cls-17" d="M203.38,124.84s.13-2.06-1.36-2.07-3.13,1-3.16,4,3,4,5.38,2.65a3.23,3.23,0,0,0,1.37-4.21c-.51-.81-1.68-.54-2.09-.42Z"/><path class="cls-17" d="M203.52,124.79s.69-5.52,5.19-7.52"/><rect class="cls-5" x="124.67" y="166.87" width="10.93" height="11.2"/><rect class="cls-19" x="163.01" y="105.49" width="4.84" height="35.07"/><polygon class="cls-20" points="211.56 134.11 215.86 139.21 220.78 138.05 221.59 141.18 154.68 141.18 150.82 139.93 169.55 135.09 172.5 138.5 193.19 133.39 196.96 138.05 211.56 134.11"/><circle class="cls-1" cx="164.62" cy="152.2" r="58.92"/><g class="cls-21"><path class="cls-22" d="M146.89,140.56m-16.65,33.17,13.49,53.76.87,3.49a2.37,2.37,0,0,0,4.59,0l14.35-57.25"/></g><circle class="cls-1" cx="164.62" cy="152.2" r="58.92"/><circle class="cls-23" cx="164.62" cy="152.2" r="58.92"/><path class="cls-24" d="M153.41,112.29s.11-1.66-1.08-1.67-2.52.82-2.54,3.21,2.44,3.2,4.31,2.13a2.6,2.6,0,0,0,1.11-3.38C154.71,111.79,153.41,112.29,153.41,112.29Z"/><path class="cls-25" d="M128.79,164.55c-1.12,1.35-1.75,2.12-1.75,3.7,0,6,10.15,6.8,19.85,6.8s19.86-.84,19.86-6.8c0-1.58-.63-2.35-1.75-3.7a18.76,18.76,0,0,0,.9-5.79,19,19,0,0,0-38,0A18.76,18.76,0,0,0,128.79,164.55Zm34.75,8.38"/><text class="cls-26" transform="translate(104.75 122.11) rotate(-57.38)">H</text><text class="cls-26" transform="matrix(0.71, -0.7, 0.7, 0.71, 112.88, 109.62)">A</text><text class="cls-26" transform="matrix(0.85, -0.53, 0.53, 0.85, 122.91, 99.68)">N</text><text class="cls-26" transform="matrix(0.95, -0.33, 0.33, 0.95, 136.02, 91.61)">D</text><text class="cls-26" transform="matrix(1, -0.09, 0.09, 1, 149.94, 86.68)">M</text><text class="cls-26" transform="matrix(0.99, 0.15, -0.15, 0.99, 167.58, 85.44)">A</text><text class="cls-26" transform="translate(181.56 87.62) rotate(21.21)">D</text><text class="cls-26" transform="translate(195.43 93.21) rotate(33.03)">E</text><text class="cls-26" transform="translate(206.05 100.51) rotate(41.4)"> </text><text class="cls-26" transform="matrix(0.68, 0.74, -0.74, 0.68, 210.95, 104.9)">I</text><text class="cls-26" transform="matrix(0.54, 0.84, -0.84, 0.54, 215.83, 109.78)">N</text><text class="cls-26" transform="translate(104.05 204.66) rotate(44.58)">B</text><text class="cls-26" transform="matrix(0.81, 0.58, -0.58, 0.81, 115.58, 215.33)">I</text><text class="cls-26" transform="translate(122.99 220.75) rotate(26.2)">D</text><text class="cls-26" transform="translate(139.28 228.3) rotate(13.29)">D</text><text class="cls-26" transform="translate(156.72 231.9) rotate(1.37)">E</text><text class="cls-26" transform="translate(171.9 231.93) rotate(-9.3)">F</text><text class="cls-26" transform="translate(186.21 229.51) rotate(-21.33)">O</text><text class="cls-26" transform="translate(204.34 221.78) rotate(-34.35)">R</text><text class="cls-26" transform="translate(217.67 212.3) rotate(-46.57)">D</text><ellipse class="cls-3" cx="154.04" cy="120.13" rx="2.27" ry="2.35"/></svg>