<svg id="Layer_1" data-name="Layer 1" xmlns="http://www.w3.org/2000/svg" viewBox="0 0 343.25 162.39"><defs><style>.cls-1{fill:#fff;}</style></defs><title>Untitled-22seeds</title><path class="cls-1" d="M20.23,102c-7.8,3.1-15.8,5-19.5-5-2.4-6.4,1.4-11.6,7.4-14.5,5.6-2.7,27,3,26.6,7C33.73,97.25,26.43,99.35,20.23,102Z"/><path class="cls-1" d="M67.13,54.25c8.7,16.7-8.1,9.8-13,14.1-3.6-.4-7.3-.2-10.6-1.3-7.7-2.7-7.7-9.3-6.7-15.8,1.2-7.7,7.6-5.3,11.9-5C55.53,46.45,61.13,51.05,67.13,54.25Z"/><path class="cls-1" d="M58.33,125.25c-.2,1.3-.3,2.6-.5,3.9-5.8,5.1-11.5,10.3-19.1,12.9-7.9,2.7-13.3-.7-15.4-7.1-2.4-7.5,2.7-11.9,9.8-13.7C42,119.15,50.23,121.65,58.33,125.25Z"/><path class="cls-1" d="M85.33,136.05c3.3.5,8.6-5.5,10.6,2.3,1.8,6.9-8.3,22.5-15.3,23.8-6.1,1.1-10.8-1.6-12.9-7.4C64.93,146.65,71.43,139.85,85.33,136.05Z"/><path class="cls-1" d="M294.73,15.15c-7.5-12-6.7-13.7,7.5-14.7,6.3-.5,12.8-1.5,18.2,3.2,4,6.6,4.3,12.9-2,18.1-6.1,5-11.7,1.7-17-2.1C299.13,18.05,296.93,16.65,294.73,15.15Z"/><path class="cls-1" d="M258.93,63c.2-3.4-6-8.2,1.6-10.7,6.8-2.3,23,6.8,24.7,13.7,1.5,6-.9,10.9-6.5,13.3C270.73,82.55,263.53,76.55,258.93,63Z"/><path class="cls-1" d="M317.13,47.15c-.4-4.8-6.1-12.6.7-14,9-1.8,17.7,4.3,23.3,11.8,4.2,5.6,1.8,11.8-4,15.2-6.9,4-12.2,0-16.2-5.6C319.23,52.45,318.43,49.75,317.13,47.15Z"/></svg>