<svg id="Layer_1" data-name="Layer 1" xmlns="http://www.w3.org/2000/svg" viewBox="0 0 344.25 163.39"><defs><style>.cls-1{fill:#414042;stroke:#414042;stroke-miterlimit:10;}</style></defs><title>Artboard 1FINDUS_SEEDS</title><path class="cls-1" d="M20.73,102.45c-7.8,3.1-15.8,5-19.5-5-2.4-6.4,1.4-11.6,7.4-14.5,5.6-2.7,27,3,26.6,7C34.23,97.75,26.93,99.85,20.73,102.45Z"/><path class="cls-1" d="M67.63,54.75c8.7,16.7-8.1,9.8-13,14.1-3.6-.4-7.3-.2-10.6-1.3-7.7-2.7-7.7-9.3-6.7-15.8,1.2-7.7,7.6-5.3,11.9-5C56,47,61.63,51.55,67.63,54.75Z"/><path class="cls-1" d="M58.83,125.75c-.2,1.3-.3,2.6-.5,3.9-5.8,5.1-11.5,10.3-19.1,12.9-7.9,2.7-13.3-.7-15.4-7.1-2.4-7.5,2.7-11.9,9.8-13.7C42.53,119.65,50.73,122.15,58.83,125.75Z"/><path class="cls-1" d="M85.83,136.55c3.3.5,8.6-5.5,10.6,2.3,1.8,6.9-8.3,22.5-15.3,23.8-6.1,1.1-10.8-1.6-12.9-7.4C65.43,147.15,71.93,140.35,85.83,136.55Z"/><path class="cls-1" d="M295.23,15.65c-7.5-12-6.7-13.7,7.5-14.7,6.3-.5,12.8-1.5,18.2,3.2,4,6.6,4.3,12.9-2,18.1-6.1,5-11.7,1.7-17-2.1C299.63,18.55,297.43,17.15,295.23,15.65Z"/><path class="cls-1" d="M259.43,63.45c.2-3.4-6-8.2,1.6-10.7,6.8-2.3,23,6.8,24.7,13.7,1.5,6-.9,10.9-6.5,13.3C271.23,83.05,264,77.05,259.43,63.45Z"/><path class="cls-1" d="M317.63,47.65c-.4-4.8-6.1-12.6.7-14,9-1.8,17.7,4.3,23.3,11.8,4.2,5.6,1.8,11.8-4,15.2-6.9,4-12.2,0-16.2-5.6C319.73,53,318.93,50.25,317.63,47.65Z"/></svg>