<svg id="Layer_1" data-name="Layer 1" xmlns="http://www.w3.org/2000/svg" viewBox="0 0 684.87 556.09"><defs><style>.cls-1{fill:none;stroke:#fff;stroke-miterlimit:10;stroke-width:2px;}.cls-2{fill:#fff;}</style></defs><title>Untitled-24shop</title><line class="cls-1" x1="118.52" y1="143.45" x2="283.59" y2="143.45"/><line class="cls-1" x1="118.52" y1="177.89" x2="283.59" y2="177.89"/><line class="cls-1" x1="117.87" y1="183.74" x2="283.59" y2="183.74"/><line class="cls-1" x1="118.52" y1="325.33" x2="283.59" y2="325.33"/><line class="cls-1" x1="118.52" y1="331.18" x2="284.24" y2="331.18"/><line class="cls-1" x1="127.28" y1="184.21" x2="127.28" y2="325.08"/><line class="cls-1" x1="274" y1="184.21" x2="274" y2="324.6"/><line class="cls-1" x1="145.48" y1="184.21" x2="145.48" y2="325.08"/><line class="cls-1" x1="255.64" y1="184.7" x2="255.64" y2="325.08"/><path class="cls-1" d="M274.17,331.42V524l9.75-.34V125.9S224,112.35,203.66,112.26c-21.56-.11-85.14,13.64-85.14,13.64V523.63l-.56,1.31h9v-193"/><rect class="cls-1" x="144.19" y="343.29" width="111.45" height="88.38"/><rect class="cls-1" x="140.94" y="456.37" width="118.28" height="49.72"/><rect class="cls-1" x="116.25" y="528.18" width="171.89" height="12.02"/><polygon class="cls-1" points="254.67 501.05 200.55 501.05 145.49 501.05 145.49 461.4 254.67 461.4 254.67 501.05"/><line class="cls-1" x1="200.41" y1="460.59" x2="200.41" y2="499.91"/><line class="cls-1" x1="206.58" y1="460.59" x2="206.58" y2="499.59"/><line class="cls-1" x1="117.96" y1="524.94" x2="116.25" y2="528.18"/><line class="cls-1" x1="283.92" y1="523.63" x2="288.14" y2="528.18"/><line class="cls-1" x1="117.8" y1="129.56" x2="4.47" y2="129.56"/><line class="cls-1" x1="117.8" y1="139.92" x2="3.25" y2="139.92"/><line class="cls-1" x1="117.8" y1="149.67" x2="3.25" y2="149.67"/><line class="cls-1" x1="117.8" y1="160.63" x2="3.86" y2="160.63"/><line class="cls-1" x1="99.52" y1="139.92" x2="99.52" y2="129.56"/><line class="cls-1" x1="65.4" y1="139.92" x2="65.4" y2="129.56"/><line class="cls-1" x1="30.06" y1="139.92" x2="30.06" y2="129.56"/><line class="cls-1" x1="3.25" y1="149.67" x2="3.25" y2="139.92"/><line class="cls-1" x1="14.22" y1="149.06" x2="14.22" y2="139.92"/><line class="cls-1" x1="48.34" y1="149.67" x2="48.34" y2="140.53"/><line class="cls-1" x1="82.46" y1="149.67" x2="82.46" y2="140.53"/><line class="cls-1" x1="36.76" y1="160.03" x2="36.76" y2="149.67"/><line class="cls-1" x1="53.21" y1="160.03" x2="53.21" y2="149.67"/><line class="cls-1" x1="88.56" y1="160.03" x2="88.56" y2="149.67"/><line class="cls-1" x1="105.01" y1="161.24" x2="105.01" y2="149.67"/><line class="cls-1" x1="81.85" y1="170.38" x2="81.85" y2="160.63"/><line class="cls-1" x1="46.51" y1="170.99" x2="46.51" y2="161.24"/><line class="cls-1" x1="13" y1="172.21" x2="13" y2="160.63"/><line class="cls-1" x1="117.8" y1="172.21" x2="4.47" y2="172.21"/><line class="cls-1" x1="117.8" y1="182.57" x2="3.25" y2="182.57"/><line class="cls-1" x1="117.8" y1="192.32" x2="3.25" y2="192.32"/><line class="cls-1" x1="117.8" y1="203.29" x2="3.86" y2="203.29"/><line class="cls-1" x1="99.52" y1="182.57" x2="99.52" y2="172.21"/><line class="cls-1" x1="65.4" y1="182.57" x2="65.4" y2="172.21"/><line class="cls-1" x1="30.06" y1="182.57" x2="30.06" y2="172.21"/><line class="cls-1" x1="14.22" y1="191.71" x2="14.22" y2="182.57"/><line class="cls-1" x1="48.34" y1="192.32" x2="48.34" y2="183.18"/><line class="cls-1" x1="82.46" y1="192.32" x2="82.46" y2="183.18"/><line class="cls-1" x1="36.76" y1="202.68" x2="36.76" y2="192.32"/><line class="cls-1" x1="53.21" y1="202.68" x2="53.21" y2="192.32"/><line class="cls-1" x1="88.56" y1="202.68" x2="88.56" y2="192.32"/><line class="cls-1" x1="105.01" y1="203.9" x2="105.01" y2="192.32"/><line class="cls-1" x1="81.85" y1="213.04" x2="81.85" y2="203.29"/><line class="cls-1" x1="46.51" y1="213.65" x2="46.51" y2="203.9"/><line class="cls-1" x1="13" y1="214.87" x2="13" y2="203.29"/><line class="cls-1" x1="117.8" y1="214.87" x2="4.47" y2="214.87"/><line class="cls-1" x1="117.8" y1="225.22" x2="3.25" y2="225.22"/><line class="cls-1" x1="117.8" y1="234.97" x2="3.25" y2="234.97"/><line class="cls-1" x1="117.8" y1="245.94" x2="3.86" y2="245.94"/><line class="cls-1" x1="99.52" y1="225.22" x2="99.52" y2="214.87"/><line class="cls-1" x1="65.4" y1="225.22" x2="65.4" y2="214.87"/><line class="cls-1" x1="30.06" y1="225.22" x2="30.06" y2="214.87"/><line class="cls-1" x1="3.25" y1="234.97" x2="3.25" y2="225.22"/><line class="cls-1" x1="48.34" y1="234.97" x2="48.34" y2="225.83"/><line class="cls-1" x1="82.46" y1="234.97" x2="82.46" y2="225.83"/><line class="cls-1" x1="36.76" y1="245.33" x2="36.76" y2="234.97"/><line class="cls-1" x1="53.21" y1="245.33" x2="53.21" y2="234.97"/><line class="cls-1" x1="88.56" y1="245.33" x2="88.56" y2="234.97"/><line class="cls-1" x1="105.01" y1="246.55" x2="105.01" y2="234.97"/><line class="cls-1" x1="81.85" y1="255.69" x2="81.85" y2="245.94"/><line class="cls-1" x1="46.51" y1="256.3" x2="46.51" y2="246.55"/><line class="cls-1" x1="13" y1="257.52" x2="13" y2="245.94"/><line class="cls-1" x1="117.8" y1="257.52" x2="4.47" y2="257.52"/><line class="cls-1" x1="117.8" y1="267.88" x2="3.25" y2="267.88"/><line class="cls-1" x1="117.8" y1="277.63" x2="3.25" y2="277.63"/><line class="cls-1" x1="117.8" y1="288.59" x2="3.86" y2="288.59"/><line class="cls-1" x1="99.52" y1="267.88" x2="99.52" y2="257.52"/><line class="cls-1" x1="65.4" y1="267.88" x2="65.4" y2="257.52"/><line class="cls-1" x1="30.06" y1="267.88" x2="30.06" y2="257.52"/><line class="cls-1" x1="3.25" y1="277.63" x2="3.25" y2="267.88"/><line class="cls-1" x1="14.22" y1="277.02" x2="14.22" y2="267.88"/><line class="cls-1" x1="48.34" y1="277.63" x2="48.34" y2="268.49"/><line class="cls-1" x1="82.46" y1="277.63" x2="82.46" y2="268.49"/><line class="cls-1" x1="36.76" y1="287.98" x2="36.76" y2="277.63"/><line class="cls-1" x1="53.21" y1="287.98" x2="53.21" y2="277.63"/><line class="cls-1" x1="88.56" y1="287.98" x2="88.56" y2="277.63"/><line class="cls-1" x1="105.01" y1="289.2" x2="105.01" y2="277.63"/><line class="cls-1" x1="81.85" y1="298.34" x2="81.85" y2="288.59"/><line class="cls-1" x1="46.51" y1="298.95" x2="46.51" y2="289.2"/><line class="cls-1" x1="13" y1="300.17" x2="13" y2="288.59"/><line class="cls-1" x1="117.8" y1="300.17" x2="4.47" y2="300.17"/><line class="cls-1" x1="117.8" y1="310.53" x2="3.25" y2="310.53"/><line class="cls-1" x1="117.8" y1="320.28" x2="3.25" y2="320.28"/><line class="cls-1" x1="117.8" y1="331.25" x2="3.86" y2="331.25"/><line class="cls-1" x1="99.52" y1="310.53" x2="99.52" y2="300.17"/><line class="cls-1" x1="65.4" y1="310.53" x2="65.4" y2="300.17"/><line class="cls-1" x1="30.06" y1="310.53" x2="30.06" y2="300.17"/><line class="cls-1" x1="3.25" y1="320.28" x2="3.25" y2="310.53"/><line class="cls-1" x1="14.22" y1="319.67" x2="14.22" y2="310.53"/><line class="cls-1" x1="48.34" y1="320.28" x2="48.34" y2="311.14"/><line class="cls-1" x1="82.46" y1="320.28" x2="82.46" y2="311.14"/><line class="cls-1" x1="36.76" y1="330.64" x2="36.76" y2="320.28"/><line class="cls-1" x1="53.21" y1="330.64" x2="53.21" y2="320.28"/><line class="cls-1" x1="88.56" y1="330.64" x2="88.56" y2="320.28"/><line class="cls-1" x1="105.01" y1="331.86" x2="105.01" y2="320.28"/><line class="cls-1" x1="81.85" y1="341" x2="81.85" y2="331.25"/><line class="cls-1" x1="46.51" y1="341.61" x2="46.51" y2="331.86"/><line class="cls-1" x1="117.8" y1="342.82" x2="4.47" y2="342.82"/><line class="cls-1" x1="117.8" y1="353.18" x2="3.25" y2="353.18"/><line class="cls-1" x1="117.8" y1="362.93" x2="3.25" y2="362.93"/><line class="cls-1" x1="117.8" y1="373.9" x2="3.86" y2="373.9"/><line class="cls-1" x1="99.52" y1="353.18" x2="99.52" y2="342.82"/><line class="cls-1" x1="65.4" y1="353.18" x2="65.4" y2="342.82"/><line class="cls-1" x1="30.06" y1="353.18" x2="30.06" y2="342.82"/><line class="cls-1" x1="3.25" y1="362.93" x2="3.25" y2="353.18"/><line class="cls-1" x1="48.34" y1="362.93" x2="48.34" y2="353.79"/><line class="cls-1" x1="82.46" y1="362.93" x2="82.46" y2="353.79"/><line class="cls-1" x1="36.76" y1="373.29" x2="36.76" y2="362.93"/><line class="cls-1" x1="53.21" y1="373.29" x2="53.21" y2="362.93"/><line class="cls-1" x1="88.56" y1="373.29" x2="88.56" y2="362.93"/><line class="cls-1" x1="105.01" y1="374.51" x2="105.01" y2="362.93"/><line class="cls-1" x1="81.85" y1="383.65" x2="81.85" y2="373.9"/><line class="cls-1" x1="46.51" y1="384.26" x2="46.51" y2="374.51"/><line class="cls-1" x1="13" y1="385.48" x2="13" y2="373.9"/><line class="cls-1" x1="117.8" y1="385.48" x2="4.47" y2="385.48"/><line class="cls-1" x1="117.8" y1="395.84" x2="3.25" y2="395.84"/><line class="cls-1" x1="117.8" y1="405.59" x2="3.25" y2="405.59"/><line class="cls-1" x1="117.8" y1="416.55" x2="3.86" y2="416.55"/><line class="cls-1" x1="99.52" y1="395.84" x2="99.52" y2="385.48"/><line class="cls-1" x1="65.4" y1="395.84" x2="65.4" y2="385.48"/><line class="cls-1" x1="30.06" y1="395.84" x2="30.06" y2="385.48"/><line class="cls-1" x1="3.25" y1="405.59" x2="3.25" y2="395.84"/><line class="cls-1" x1="14.22" y1="404.98" x2="14.22" y2="395.84"/><line class="cls-1" x1="48.34" y1="405.59" x2="48.34" y2="396.45"/><line class="cls-1" x1="82.46" y1="405.59" x2="82.46" y2="396.45"/><line class="cls-1" x1="36.76" y1="415.94" x2="36.76" y2="405.59"/><line class="cls-1" x1="53.21" y1="415.94" x2="53.21" y2="405.59"/><line class="cls-1" x1="88.56" y1="415.94" x2="88.56" y2="405.59"/><line class="cls-1" x1="105.01" y1="417.16" x2="105.01" y2="405.59"/><line class="cls-1" x1="81.85" y1="426.3" x2="81.85" y2="416.55"/><line class="cls-1" x1="46.51" y1="426.91" x2="46.51" y2="417.16"/><line class="cls-1" x1="13" y1="428.13" x2="13" y2="416.55"/><line class="cls-1" x1="117.8" y1="428.13" x2="4.47" y2="428.13"/><line class="cls-1" x1="117.8" y1="438.49" x2="3.25" y2="438.49"/><line class="cls-1" x1="117.8" y1="448.24" x2="3.25" y2="448.24"/><line class="cls-1" x1="117.8" y1="459.21" x2="3.86" y2="459.21"/><line class="cls-1" x1="99.52" y1="438.49" x2="99.52" y2="428.13"/><line class="cls-1" x1="65.4" y1="438.49" x2="65.4" y2="428.13"/><line class="cls-1" x1="30.06" y1="438.49" x2="30.06" y2="428.13"/><line class="cls-1" x1="3.25" y1="448.24" x2="3.25" y2="438.49"/><line class="cls-1" x1="14.22" y1="447.63" x2="14.22" y2="438.49"/><line class="cls-1" x1="48.34" y1="448.24" x2="48.34" y2="439.1"/><line class="cls-1" x1="82.46" y1="448.24" x2="82.46" y2="439.1"/><line class="cls-1" x1="36.76" y1="458.6" x2="36.76" y2="448.24"/><line class="cls-1" x1="53.21" y1="458.6" x2="53.21" y2="448.24"/><line class="cls-1" x1="88.56" y1="458.6" x2="88.56" y2="448.24"/><line class="cls-1" x1="105.01" y1="459.82" x2="105.01" y2="448.24"/><line class="cls-1" x1="81.85" y1="468.96" x2="81.85" y2="459.21"/><line class="cls-1" x1="46.51" y1="469.56" x2="46.51" y2="459.82"/><line class="cls-1" x1="13" y1="470.78" x2="13" y2="459.21"/><line class="cls-1" x1="117.8" y1="470.78" x2="4.47" y2="470.78"/><line class="cls-1" x1="117.8" y1="481.14" x2="3.25" y2="481.14"/><line class="cls-1" x1="117.8" y1="490.89" x2="3.25" y2="490.89"/><line class="cls-1" x1="117.8" y1="501.86" x2="3.86" y2="501.86"/><line class="cls-1" x1="99.52" y1="481.14" x2="99.52" y2="470.78"/><line class="cls-1" x1="65.4" y1="481.14" x2="65.4" y2="470.78"/><line class="cls-1" x1="30.06" y1="481.14" x2="30.06" y2="470.78"/><line class="cls-1" x1="14.22" y1="490.28" x2="14.22" y2="481.14"/><line class="cls-1" x1="48.34" y1="490.89" x2="48.34" y2="481.75"/><line class="cls-1" x1="82.46" y1="490.89" x2="82.46" y2="481.75"/><line class="cls-1" x1="36.76" y1="501.25" x2="36.76" y2="490.89"/><line class="cls-1" x1="53.21" y1="501.25" x2="53.21" y2="490.89"/><line class="cls-1" x1="88.56" y1="501.25" x2="88.56" y2="490.89"/><line class="cls-1" x1="105.01" y1="502.47" x2="105.01" y2="490.89"/><line class="cls-1" x1="81.85" y1="511.61" x2="81.85" y2="501.86"/><line class="cls-1" x1="46.51" y1="512.22" x2="46.51" y2="502.47"/><line class="cls-1" x1="13" y1="513.44" x2="13" y2="501.86"/><line class="cls-1" x1="117.8" y1="513.44" x2="4.47" y2="513.44"/><line class="cls-1" x1="117.8" y1="523.8" x2="3.25" y2="523.8"/><line class="cls-1" x1="114.55" y1="533.54" y2="533.54"/><line class="cls-1" x1="398.62" y1="544.51" x2="3.86" y2="544.51"/><line class="cls-1" x1="99.52" y1="523.8" x2="99.52" y2="513.44"/><line class="cls-1" x1="65.4" y1="523.8" x2="65.4" y2="513.44"/><line class="cls-1" x1="30.06" y1="523.8" x2="30.06" y2="513.44"/><line class="cls-1" x1="3.25" y1="533.54" x2="3.25" y2="523.8"/><line class="cls-1" x1="14.22" y1="532.94" x2="14.22" y2="523.8"/><line class="cls-1" x1="48.34" y1="533.54" x2="48.34" y2="524.4"/><line class="cls-1" x1="82.46" y1="533.54" x2="82.46" y2="524.4"/><line class="cls-1" x1="36.76" y1="543.9" x2="36.76" y2="533.54"/><line class="cls-1" x1="53.21" y1="543.9" x2="53.21" y2="533.54"/><line class="cls-1" x1="88.56" y1="543.9" x2="88.56" y2="533.54"/><line class="cls-1" x1="105.01" y1="545.12" x2="105.01" y2="533.54"/><line class="cls-1" x1="81.85" y1="554.26" x2="81.85" y2="544.51"/><line class="cls-1" x1="46.51" y1="554.87" x2="46.51" y2="545.12"/><line class="cls-1" x1="13" y1="556.09" x2="13" y2="544.51"/><line class="cls-1" x1="133.65" y1="121.03" x2="2.03" y2="121.03"/><line class="cls-1" x1="48.34" y1="130.17" x2="48.34" y2="121.64"/><line class="cls-1" x1="83.07" y1="128.95" x2="83.07" y2="121.64"/><line class="cls-1" x1="284.24" y1="127.77" x2="397.58" y2="127.77"/><line class="cls-1" x1="284.24" y1="138.13" x2="398.8" y2="138.13"/><line class="cls-1" x1="284.24" y1="147.88" x2="398.8" y2="147.88"/><line class="cls-1" x1="284.24" y1="158.85" x2="398.19" y2="158.85"/><line class="cls-1" x1="302.52" y1="138.13" x2="302.52" y2="127.77"/><line class="cls-1" x1="336.65" y1="138.13" x2="336.65" y2="127.77"/><line class="cls-1" x1="371.99" y1="138.13" x2="371.99" y2="127.77"/><line class="cls-1" x1="398.8" y1="147.88" x2="398.8" y2="138.13"/><line class="cls-1" x1="387.83" y1="147.27" x2="387.83" y2="138.13"/><line class="cls-1" x1="353.71" y1="147.88" x2="353.71" y2="138.74"/><line class="cls-1" x1="319.59" y1="147.88" x2="319.59" y2="138.74"/><line class="cls-1" x1="365.28" y1="158.24" x2="365.28" y2="147.88"/><line class="cls-1" x1="348.83" y1="158.24" x2="348.83" y2="147.88"/><line class="cls-1" x1="313.49" y1="158.24" x2="313.49" y2="147.88"/><line class="cls-1" x1="297.04" y1="159.46" x2="297.04" y2="147.88"/><line class="cls-1" x1="320.19" y1="168.6" x2="320.19" y2="158.85"/><line class="cls-1" x1="355.54" y1="169.21" x2="355.54" y2="159.46"/><line class="cls-1" x1="389.05" y1="170.43" x2="389.05" y2="158.85"/><line class="cls-1" x1="284.24" y1="170.43" x2="397.58" y2="170.43"/><line class="cls-1" x1="284.24" y1="180.78" x2="398.8" y2="180.78"/><line class="cls-1" x1="284.24" y1="190.53" x2="398.8" y2="190.53"/><line class="cls-1" x1="284.24" y1="201.5" x2="398.19" y2="201.5"/><line class="cls-1" x1="302.52" y1="180.78" x2="302.52" y2="170.43"/><line class="cls-1" x1="336.65" y1="180.78" x2="336.65" y2="170.43"/><line class="cls-1" x1="371.99" y1="180.78" x2="371.99" y2="170.43"/><line class="cls-1" x1="387.83" y1="189.92" x2="387.83" y2="180.78"/><line class="cls-1" x1="353.71" y1="190.53" x2="353.71" y2="181.39"/><line class="cls-1" x1="319.59" y1="190.53" x2="319.59" y2="181.39"/><line class="cls-1" x1="365.28" y1="200.89" x2="365.28" y2="190.53"/><line class="cls-1" x1="348.83" y1="200.89" x2="348.83" y2="190.53"/><line class="cls-1" x1="313.49" y1="200.89" x2="313.49" y2="190.53"/><line class="cls-1" x1="297.04" y1="202.11" x2="297.04" y2="190.53"/><line class="cls-1" x1="320.19" y1="211.25" x2="320.19" y2="201.5"/><line class="cls-1" x1="355.54" y1="211.86" x2="355.54" y2="202.11"/><line class="cls-1" x1="389.05" y1="213.08" x2="389.05" y2="201.5"/><line class="cls-1" x1="284.24" y1="213.08" x2="397.58" y2="213.08"/><line class="cls-1" x1="284.24" y1="223.44" x2="398.8" y2="223.44"/><line class="cls-1" x1="284.24" y1="233.19" x2="398.8" y2="233.19"/><line class="cls-1" x1="284.24" y1="244.15" x2="398.19" y2="244.15"/><line class="cls-1" x1="302.52" y1="223.44" x2="302.52" y2="213.08"/><line class="cls-1" x1="336.65" y1="223.44" x2="336.65" y2="213.08"/><line class="cls-1" x1="371.99" y1="223.44" x2="371.99" y2="213.08"/><line class="cls-1" x1="398.8" y1="233.19" x2="398.8" y2="223.44"/><line class="cls-1" x1="353.71" y1="233.19" x2="353.71" y2="224.05"/><line class="cls-1" x1="319.59" y1="233.19" x2="319.59" y2="224.05"/><line class="cls-1" x1="365.28" y1="243.54" x2="365.28" y2="233.19"/><line class="cls-1" x1="348.83" y1="243.54" x2="348.83" y2="233.19"/><line class="cls-1" x1="313.49" y1="243.54" x2="313.49" y2="233.19"/><line class="cls-1" x1="297.04" y1="244.76" x2="297.04" y2="233.19"/><line class="cls-1" x1="320.19" y1="253.9" x2="320.19" y2="244.15"/><line class="cls-1" x1="355.54" y1="254.51" x2="355.54" y2="244.76"/><line class="cls-1" x1="389.05" y1="255.73" x2="389.05" y2="244.15"/><line class="cls-1" x1="284.24" y1="255.73" x2="397.58" y2="255.73"/><line class="cls-1" x1="284.24" y1="266.09" x2="398.8" y2="266.09"/><line class="cls-1" x1="284.24" y1="275.84" x2="398.8" y2="275.84"/><line class="cls-1" x1="284.24" y1="286.81" x2="398.19" y2="286.81"/><line class="cls-1" x1="302.52" y1="266.09" x2="302.52" y2="255.73"/><line class="cls-1" x1="336.65" y1="266.09" x2="336.65" y2="255.73"/><line class="cls-1" x1="371.99" y1="266.09" x2="371.99" y2="255.73"/><line class="cls-1" x1="398.8" y1="275.84" x2="398.8" y2="266.09"/><line class="cls-1" x1="387.83" y1="275.23" x2="387.83" y2="266.09"/><line class="cls-1" x1="353.71" y1="275.84" x2="353.71" y2="266.7"/><line class="cls-1" x1="319.59" y1="275.84" x2="319.59" y2="266.7"/><line class="cls-1" x1="365.28" y1="286.2" x2="365.28" y2="275.84"/><line class="cls-1" x1="348.83" y1="286.2" x2="348.83" y2="275.84"/><line class="cls-1" x1="313.49" y1="286.2" x2="313.49" y2="275.84"/><line class="cls-1" x1="297.04" y1="287.42" x2="297.04" y2="275.84"/><line class="cls-1" x1="320.19" y1="296.56" x2="320.19" y2="286.81"/><line class="cls-1" x1="355.54" y1="297.17" x2="355.54" y2="287.42"/><line class="cls-1" x1="389.05" y1="298.38" x2="389.05" y2="286.81"/><line class="cls-1" x1="284.24" y1="298.38" x2="397.58" y2="298.38"/><line class="cls-1" x1="284.24" y1="308.74" x2="398.8" y2="308.74"/><line class="cls-1" x1="284.24" y1="318.49" x2="398.8" y2="318.49"/><line class="cls-1" x1="284.24" y1="329.46" x2="398.19" y2="329.46"/><line class="cls-1" x1="302.52" y1="308.74" x2="302.52" y2="298.38"/><line class="cls-1" x1="336.65" y1="308.74" x2="336.65" y2="298.38"/><line class="cls-1" x1="371.99" y1="308.74" x2="371.99" y2="298.38"/><line class="cls-1" x1="398.8" y1="318.49" x2="398.8" y2="308.74"/><line class="cls-1" x1="387.83" y1="317.88" x2="387.83" y2="308.74"/><line class="cls-1" x1="353.71" y1="318.49" x2="353.71" y2="309.35"/><line class="cls-1" x1="319.59" y1="318.49" x2="319.59" y2="309.35"/><line class="cls-1" x1="365.28" y1="328.85" x2="365.28" y2="318.49"/><line class="cls-1" x1="348.83" y1="328.85" x2="348.83" y2="318.49"/><line class="cls-1" x1="313.49" y1="328.85" x2="313.49" y2="318.49"/><line class="cls-1" x1="297.04" y1="330.07" x2="297.04" y2="318.49"/><line class="cls-1" x1="320.19" y1="339.21" x2="320.19" y2="329.46"/><line class="cls-1" x1="355.54" y1="339.82" x2="355.54" y2="330.07"/><line class="cls-1" x1="284.24" y1="341.04" x2="397.58" y2="341.04"/><line class="cls-1" x1="284.24" y1="351.4" x2="398.8" y2="351.4"/><line class="cls-1" x1="284.24" y1="361.15" x2="398.8" y2="361.15"/><line class="cls-1" x1="284.24" y1="372.11" x2="398.19" y2="372.11"/><line class="cls-1" x1="302.52" y1="351.4" x2="302.52" y2="341.04"/><line class="cls-1" x1="336.65" y1="351.4" x2="336.65" y2="341.04"/><line class="cls-1" x1="371.99" y1="351.4" x2="371.99" y2="341.04"/><line class="cls-1" x1="398.8" y1="361.15" x2="398.8" y2="351.4"/><line class="cls-1" x1="353.71" y1="361.15" x2="353.71" y2="352.01"/><line class="cls-1" x1="319.59" y1="361.15" x2="319.59" y2="352.01"/><line class="cls-1" x1="365.28" y1="371.5" x2="365.28" y2="361.15"/><line class="cls-1" x1="348.83" y1="371.5" x2="348.83" y2="361.15"/><line class="cls-1" x1="313.49" y1="371.5" x2="313.49" y2="361.15"/><line class="cls-1" x1="297.04" y1="372.72" x2="297.04" y2="361.15"/><line class="cls-1" x1="320.19" y1="381.86" x2="320.19" y2="372.11"/><line class="cls-1" x1="355.54" y1="382.47" x2="355.54" y2="372.72"/><line class="cls-1" x1="389.05" y1="383.69" x2="389.05" y2="372.11"/><line class="cls-1" x1="284.24" y1="383.69" x2="397.58" y2="383.69"/><line class="cls-1" x1="284.24" y1="394.05" x2="398.8" y2="394.05"/><line class="cls-1" x1="284.24" y1="403.8" x2="398.8" y2="403.8"/><line class="cls-1" x1="284.24" y1="414.77" x2="398.19" y2="414.77"/><line class="cls-1" x1="302.52" y1="394.05" x2="302.52" y2="383.69"/><line class="cls-1" x1="336.65" y1="394.05" x2="336.65" y2="383.69"/><line class="cls-1" x1="371.99" y1="394.05" x2="371.99" y2="383.69"/><line class="cls-1" x1="398.8" y1="403.8" x2="398.8" y2="394.05"/><line class="cls-1" x1="387.83" y1="403.19" x2="387.83" y2="394.05"/><line class="cls-1" x1="353.71" y1="403.8" x2="353.71" y2="394.66"/><line class="cls-1" x1="319.59" y1="403.8" x2="319.59" y2="394.66"/><line class="cls-1" x1="365.28" y1="414.16" x2="365.28" y2="403.8"/><line class="cls-1" x1="348.83" y1="414.16" x2="348.83" y2="403.8"/><line class="cls-1" x1="313.49" y1="414.16" x2="313.49" y2="403.8"/><line class="cls-1" x1="297.04" y1="415.38" x2="297.04" y2="403.8"/><line class="cls-1" x1="320.19" y1="424.52" x2="320.19" y2="414.77"/><line class="cls-1" x1="355.54" y1="425.12" x2="355.54" y2="415.38"/><line class="cls-1" x1="389.05" y1="426.34" x2="389.05" y2="414.77"/><line class="cls-1" x1="284.24" y1="426.34" x2="397.58" y2="426.34"/><line class="cls-1" x1="284.24" y1="436.7" x2="398.8" y2="436.7"/><line class="cls-1" x1="284.24" y1="446.45" x2="398.8" y2="446.45"/><line class="cls-1" x1="284.24" y1="457.42" x2="398.19" y2="457.42"/><line class="cls-1" x1="302.52" y1="436.7" x2="302.52" y2="426.34"/><line class="cls-1" x1="336.65" y1="436.7" x2="336.65" y2="426.34"/><line class="cls-1" x1="371.99" y1="436.7" x2="371.99" y2="426.34"/><line class="cls-1" x1="398.8" y1="446.45" x2="398.8" y2="436.7"/><line class="cls-1" x1="387.83" y1="445.84" x2="387.83" y2="436.7"/><line class="cls-1" x1="353.71" y1="446.45" x2="353.71" y2="437.31"/><line class="cls-1" x1="319.59" y1="446.45" x2="319.59" y2="437.31"/><line class="cls-1" x1="365.28" y1="456.81" x2="365.28" y2="446.45"/><line class="cls-1" x1="348.83" y1="456.81" x2="348.83" y2="446.45"/><line class="cls-1" x1="313.49" y1="456.81" x2="313.49" y2="446.45"/><line class="cls-1" x1="297.04" y1="458.03" x2="297.04" y2="446.45"/><line class="cls-1" x1="320.19" y1="467.17" x2="320.19" y2="457.42"/><line class="cls-1" x1="355.54" y1="467.78" x2="355.54" y2="458.03"/><line class="cls-1" x1="389.05" y1="469" x2="389.05" y2="457.42"/><line class="cls-1" x1="284.24" y1="469" x2="397.58" y2="469"/><line class="cls-1" x1="284.24" y1="479.35" x2="398.8" y2="479.35"/><line class="cls-1" x1="284.24" y1="489.1" x2="398.8" y2="489.1"/><line class="cls-1" x1="284.24" y1="500.07" x2="398.19" y2="500.07"/><line class="cls-1" x1="302.52" y1="479.35" x2="302.52" y2="469"/><line class="cls-1" x1="336.65" y1="479.35" x2="336.65" y2="469"/><line class="cls-1" x1="371.99" y1="479.35" x2="371.99" y2="469"/><line class="cls-1" x1="387.83" y1="488.49" x2="387.83" y2="479.35"/><line class="cls-1" x1="353.71" y1="489.1" x2="353.71" y2="479.96"/><line class="cls-1" x1="319.59" y1="489.1" x2="319.59" y2="479.96"/><line class="cls-1" x1="365.28" y1="499.46" x2="365.28" y2="489.1"/><line class="cls-1" x1="348.83" y1="499.46" x2="348.83" y2="489.1"/><line class="cls-1" x1="313.49" y1="499.46" x2="313.49" y2="489.1"/><line class="cls-1" x1="297.04" y1="500.68" x2="297.04" y2="489.1"/><line class="cls-1" x1="320.19" y1="509.82" x2="320.19" y2="500.07"/><line class="cls-1" x1="355.54" y1="510.43" x2="355.54" y2="500.68"/><line class="cls-1" x1="389.05" y1="511.65" x2="389.05" y2="500.07"/><line class="cls-1" x1="284.24" y1="511.65" x2="397.58" y2="511.65"/><line class="cls-1" x1="284.24" y1="522.01" x2="398.8" y2="522.01"/><line class="cls-1" x1="287.49" y1="531.76" x2="402.05" y2="531.76"/><line class="cls-1" x1="302.52" y1="522.01" x2="302.52" y2="511.65"/><line class="cls-1" x1="336.65" y1="522.01" x2="336.65" y2="511.65"/><line class="cls-1" x1="371.99" y1="522.01" x2="371.99" y2="511.65"/><line class="cls-1" x1="398.8" y1="531.76" x2="398.8" y2="522.01"/><line class="cls-1" x1="387.83" y1="531.15" x2="387.83" y2="522.01"/><line class="cls-1" x1="353.71" y1="531.76" x2="353.71" y2="522.62"/><line class="cls-1" x1="319.59" y1="531.76" x2="319.59" y2="522.62"/><line class="cls-1" x1="365.28" y1="544.48" x2="365.28" y2="531.76"/><line class="cls-1" x1="348.83" y1="544.17" x2="348.83" y2="531.76"/><line class="cls-1" x1="313.49" y1="544.48" x2="313.49" y2="531.76"/><line class="cls-1" x1="297.04" y1="543.33" x2="297.04" y2="531.76"/><line class="cls-1" x1="319.87" y1="554.1" x2="319.87" y2="544.35"/><line class="cls-1" x1="355.54" y1="554.38" x2="355.54" y2="544.63"/><line class="cls-1" x1="389.11" y1="555.98" x2="389.11" y2="544.41"/><line class="cls-1" x1="268.4" y1="119.24" x2="400.02" y2="119.24"/><line class="cls-1" x1="353.71" y1="128.38" x2="353.71" y2="119.85"/><line class="cls-1" x1="318.98" y1="127.16" x2="318.98" y2="119.85"/><path class="cls-2" d="M166.8,170.47a4.22,4.22,0,0,1-2-.37,2.34,2.34,0,0,1-1.31-1.9,2,2,0,0,1,.71-1.74c.88-.69,2.31-.74,4.08-.13a22.88,22.88,0,0,0,2.89.8,3.29,3.29,0,0,0,.58-2.33c-.15-1.36-1.33-1.9-2.69-2.49s-2.94-1.33-3.15-3.13c-.22-2.05,1.57-3.92,4-4.2a4.4,4.4,0,0,1,4,1.83.59.59,0,0,1-1,.67,3.18,3.18,0,0,0-2.83-1.3c-1.77.2-3.09,1.49-2.92,2.87.11,1,1,1.52,2.46,2.18s3.14,1.41,3.37,3.44a4.54,4.54,0,0,1-.52,2.71c6.15,1.1,13.51.59,17.51-1.4a.59.59,0,1,1,.54,1.06c-4.32,2.16-12.33,2.65-18.84,1.4a5,5,0,0,1-.54.48,7.66,7.66,0,0,1-3.63,1.49A4.71,4.71,0,0,1,166.8,170.47ZM166,167.1a1.77,1.77,0,0,0-1,.29.7.7,0,0,0-.26.68,1.13,1.13,0,0,0,.65,1,3.59,3.59,0,0,0,1.95.21,6.43,6.43,0,0,0,2.87-1.12,20.56,20.56,0,0,1-2.27-.67A5.77,5.77,0,0,0,166,167.1Z"/><path class="cls-2" d="M176.83,166.57h-.13a2.25,2.25,0,0,1-2-2,8.64,8.64,0,0,1,.61-5.29.59.59,0,1,1,1.06.54h0a7.43,7.43,0,0,0-.52,4.51c.09.39.34,1.06.93,1.1s1.42-.6,1.77-1.81a.61.61,0,0,1,.75-.39.59.59,0,0,1,.39.75A3.33,3.33,0,0,1,176.83,166.57Z"/><path class="cls-2" d="M180.89,166.05a1.94,1.94,0,0,1-.34,0,2.08,2.08,0,0,1-1.47-1c-1.23-1.85-.32-5.71-.22-6.14a.56.56,0,0,1,.71-.42.56.56,0,0,1,.42.7c-.26,1-.74,4,.06,5.2a.94.94,0,0,0,.67.45,1.12,1.12,0,0,0,.88-.35c.41-.39,1.34-1.68,1-5.13l-.06.06a.59.59,0,0,1-.83,0,1.19,1.19,0,0,1-.21-1.44,1.12,1.12,0,0,1,1.19-.59c.34.07.93.35,1.07,1.56.18,1.74.24,4.87-1.38,6.39A2.29,2.29,0,0,1,180.89,166.05Z"/><path class="cls-2" d="M184.3,165.51a.59.59,0,0,1-.24-1.13,13.31,13.31,0,0,0,1.95-1,4.53,4.53,0,0,1-.84-2.22c-.33-2.73,1.14-4.43,2.69-4.64a2,2,0,0,1,2.27,1.76,5.68,5.68,0,0,1-2.16,5.12,5.53,5.53,0,0,0,4.34-1,1.43,1.43,0,0,0,.15-.11,5.11,5.11,0,0,1-.86-2.81,4,4,0,0,1,1.68-3.6,2.08,2.08,0,0,1,3.32,1.92,5.91,5.91,0,0,1-2.31,4.53,1.36,1.36,0,0,0,.44.17,2.82,2.82,0,0,0,3.06-1.29c1.1-1.68,1.47-8,1.53-10.27a.57.57,0,0,1,.61-.57.58.58,0,0,1,.58.61c0,.88-.24,8.63-1.71,10.9a4,4,0,0,1-4.36,1.77,3.28,3.28,0,0,1-1.1-.52l-.3.22c-1.18.86-3.77,1.89-5.72,1a3.13,3.13,0,0,1-.36-.19,15.43,15.43,0,0,1-2.4,1.33Zm3.84-7.88s-.1,0-.11,0c-.79.11-1.94,1.1-1.68,3.32a3.32,3.32,0,0,0,.61,1.65,4.72,4.72,0,0,0,2-4.24A.77.77,0,0,0,188.14,157.63Zm6.43-1a1.23,1.23,0,0,0-.67.23,2.75,2.75,0,0,0-1.12,2.53,4,4,0,0,0,.59,2.11,4.92,4.92,0,0,0,2-3.71,1.15,1.15,0,0,0-.46-1.06A.55.55,0,0,0,194.57,156.62Z"/><path class="cls-2" d="M201.54,162.7a2.49,2.49,0,0,1-1.89-.73,4.83,4.83,0,0,1-1-3.95.59.59,0,0,1,1.18.13,3.81,3.81,0,0,0,.63,3,1.37,1.37,0,0,0,1.18.36,2.49,2.49,0,0,0,.8-.23.6.6,0,0,1,.54,1.07,3.87,3.87,0,0,1-1.2.33Z"/><path class="cls-2" d="M197.79,156a.59.59,0,0,1-.13-1.17l4.36-.86a.59.59,0,0,1,.22,1.16l-4.36.85A.16.16,0,0,1,197.79,156Z"/><path class="cls-2" d="M218.87,159.92a3.1,3.1,0,0,1-2-.69,4.88,4.88,0,0,1-1.6-3.8,4.18,4.18,0,0,1,1-2.81,3,3,0,0,1,2.08-1.06h0a1.88,1.88,0,0,1,2,1.88,5.09,5.09,0,0,1-2.87,4.77l.11.11a1.86,1.86,0,0,0,1.68.37c1.51-.35,2.33-3,2.46-3.59a.59.59,0,0,1,1.17.14s-.82,4-3.35,4.59A4.91,4.91,0,0,1,218.87,159.92Zm-.47-7.19h0c-.8,0-1.92.88-2,2.7a3.87,3.87,0,0,0,.36,1.77,3.79,3.79,0,0,0,2.38-3.69C219.13,152.84,218.74,152.71,218.4,152.73Z"/><path class="cls-2" d="M206.6,161.82a3.19,3.19,0,0,1-1.77-.48,4.13,4.13,0,0,1-1.71-3.47,4.75,4.75,0,0,1,1.3-3.61,2.37,2.37,0,0,1,1.9-.69,1.62,1.62,0,0,1,1.22.67,2.71,2.71,0,0,1,.35,1.92.59.59,0,0,1-1.16-.23,1.5,1.5,0,0,0-.13-1,.46.46,0,0,0-.39-.19,1.34,1.34,0,0,0-1,.37,3.59,3.59,0,0,0-.93,2.71,3,3,0,0,0,1.16,2.51,2,2,0,0,0,1.86.15c2.11-.89,2-3.86,2-5.91h0a1.89,1.89,0,0,1-.9-1.87,1.07,1.07,0,0,1,.86-.91.88.88,0,0,1,.75.19c.39.33.44.91.46,1.69h0a5.15,5.15,0,0,0,2.78-1.36.64.64,0,0,1,.72-.06c.43.27.36.64.1,2-.25,1.15-.86,4.25-.25,4.84a1,1,0,0,0,1.22.1.59.59,0,0,1,.82.15.6.6,0,0,1-.15.82,2.15,2.15,0,0,1-2.72-.23c-1-1-.62-3.37-.1-5.92h0a5,5,0,0,1-2.4.85h0c.06,2.24,0,5.54-2.7,6.69A3.24,3.24,0,0,1,206.6,161.82Z"/><path class="cls-2" d="M224,158.79a1.84,1.84,0,0,1-1.47-.73,4.85,4.85,0,0,1-.58-4c.54-2.32,2-3.43,4.12-3.25v-.13a.6.6,0,1,1,1.19,0C227.08,154.85,226.6,158.71,224,158.79Zm1.51-6.86c-1.28,0-2,.78-2.42,2.35a3.61,3.61,0,0,0,.33,3,.7.7,0,0,0,.54.3c1.44,0,1.89-2.94,2-5.64A4.44,4.44,0,0,0,225.48,151.93Z"/><path class="cls-2" d="M227.57,158.28a1.29,1.29,0,0,1-.9-.3c-.76-.63-.76-2-.78-4v-.9a.6.6,0,0,1,.58-.59h0a.58.58,0,0,1,.59.57V154c0,1.26,0,2.83.36,3.11a.26.26,0,0,0,.19,0c.78-.13,1.71-3.06,1.82-7.19a.61.61,0,0,1,.6-.58.59.59,0,0,1,.58.59v1.63c.63-1.63,1.45-2.5,2.46-2.63a1.62,1.62,0,0,1,1.43.48,3.29,3.29,0,0,1,.71,1.34c.52-1.36,1.32-2.46,2.53-2.57a1.72,1.72,0,0,1,1.33.45c.83.8,1.15,2.55,1,5.68,0,.32,0,1.05.36,1.2s1.77-.4,2.92-1.7a.6.6,0,1,1,.9.78c-1.79,2-3.41,2.35-4.25,2-.54-.23-1.18-.81-1.1-2.33.15-3.49-.34-4.5-.65-4.77a.46.46,0,0,0-.4-.14c-1.3.12-2,3-2.32,5.35,0,1-.14,1.74-.17,1.94a.6.6,0,0,1-.64.52.59.59,0,0,1-.54-.61,18.73,18.73,0,0,1,.17-2c.08-1.77,0-3.69-.67-4.3a.5.5,0,0,0-.45-.15c-.78.11-1.53,1.44-2,3.65a27.13,27.13,0,0,0-.56,3.75.6.6,0,0,1-.61.56.59.59,0,0,1-.58-.6v-.82c-.43,1-1,1.53-1.66,1.64A.65.65,0,0,0,227.57,158.28Z"/><path class="cls-2" d="M220.49,163.71l1.25,0a1.73,1.73,0,0,1,1.91,1.77,1.71,1.71,0,0,1-1.8,1.84l-1.27,0Zm1.28,2.81a1,1,0,0,0,1-1.06,1,1,0,0,0-1-1l-.43,0,.06,2.09Z"/><path class="cls-2" d="M227.88,166.46l-1.26,0-.19.65-.89,0,1.23-3.63.82,0L229,167.1l-.89,0Zm-.26-.71-.42-1.21h0l-.36,1.23Z"/><path class="cls-2" d="M231.09,163.43l.86,0L232,167l-.86,0Z"/><path class="cls-2" d="M236.38,166.89l-.76-1.14h-.3l0,1.16-.84,0-.09-3.62,1.39,0a1.16,1.16,0,0,1,1.33,1.21,1.1,1.1,0,0,1-.64,1.1v0l.88,1.24ZM235.3,165l.39,0c.38,0,.58-.2.58-.48s-.2-.47-.58-.47l-.41,0Z"/><path class="cls-2" d="M242.21,163.15l-1.13,2.06,0,1.57-.86,0,0-1.57-1.23-2,1,0,.67,1.18h0l.6-1.22Z"/><path class="cls-2" d="M632.49,4.89c26.61,5.72,44,31.67,46.84,57.64,3.55,32.17-10.52,63.74-26.13,91A332.5,332.5,0,0,1,541,269.57a325.8,325.8,0,0,1-84.24,37.33l3.08,1.75a67.34,67.34,0,0,1,2.28-46.85l-4.66-1.26c-2,31,32.62,57,61.81,46.44,3-1.09,1.7-5.93-1.33-4.83-26.26,9.55-57.32-13.71-55.48-41.61.15-2.37-3.68-3.55-4.66-1.26a72.63,72.63,0,0,0-2.78,50.7,2.55,2.55,0,0,0,3.07,1.75,336.76,336.76,0,0,0,146.24-86.24,332.32,332.32,0,0,0,52.4-68.11c16.12-27.86,30.62-60.09,27.74-93C682,35.61,663.36,6.42,633.82.06c-3.14-.67-4.48,4.15-1.33,4.83Z"/></svg>