<svg id="Calque_1" data-name="Calque 1" xmlns="http://www.w3.org/2000/svg" xmlns:xlink="http://www.w3.org/1999/xlink" viewBox="0 0 2948.64 2724.55"><defs><style>.cls-1{fill:none;}.cls-2{clip-path:url(#clip-path);}.cls-3{fill:#ffeaaa;}.cls-4{fill:#db3535;}.cls-5{fill:#f18782;}.cls-6{fill:#f2ded3;}.cls-7{fill:#42382a;}.cls-8{fill:#ee744c;}.cls-9{fill:#b9ddc9;}.cls-10{fill:#fff;}.cls-11{clip-path:url(#clip-path-2);}.cls-12{fill:#4c3f34;}.cls-13{clip-path:url(#clip-path-3);}.cls-14{fill:#394b4a;}</style><clipPath id="clip-path" transform="translate(56.61 75.27)"><rect class="cls-1" x="1273.57" y="134.01" width="611.36" height="736.92"/></clipPath><clipPath id="clip-path-2" transform="translate(56.61 75.27)"><rect class="cls-1" x="262.77" y="163.77" width="610.43" height="738"/></clipPath><clipPath id="clip-path-3" transform="translate(56.61 75.27)"><polygon class="cls-1" points="2835 871.14 2223 871.81 2223 133.81 2835 133.14 2835 871.14"/></clipPath></defs><title>Sweetcream-Illustrations</title><g class="cls-2"><rect class="cls-3" x="1286.68" y="172.13" width="677.98" height="841.89"/><path class="cls-4" d="M2045.72,207.52q-14.68-122-27.59-244c-203.46,72.91-623.2,48.93-774.32,106-161.33,60.92-47.35,200.88-46.79,212.75,30.35-19.37,63.33-33.19,98.89-36.65,14.22-1.38,29.08-2.24,41.94-8.56,10.2-5,22.28-16,28.62-1.49,6.66,15.2,16.34,28.23,17,51.86,1.63,59.11,74.71,20.48,46.73,60.64-4.45,6.38,2.12,14.92,7.51,20.09,31.75,28.06,110.24,88.58,157.68,97.06,93.79,16.75,183.8,10.26,275.12-2.21,69.57-9.51,140.51-3.28,210.46,14.1Q2061.82,342.5,2045.72,207.52Z" transform="translate(56.61 75.27)"/><path class="cls-5" d="M1422.32,172.24c0,48.67-2.74,90.58,20.31,102.21s49.35,34.25,46.61,51.39S1463,352.15,1429,356.44s-79.57,11.68-80.12,23.92,43.88,44.82,60.9,49.72,49.41,23.24,49.41,39.77c0,23.26-78.23,10.9-78.23,45.17s23.38,37.53,39.8,67.23c14.64,26.46,50.55,26.12,68.26,29.16,14.53,2.5,40.92,4.24,40.92,22.2,0,18.8-130,22.59-139.92,38-24,37.12,54.54,45.46,79.2,69.4,17,16.52,11,28.76-16.47,29.37s-103.43,10.22-102.88,26.13,21.68,22.1,55.17,33.12,22,29-5.66,37.53c-61.07,18.76-165.5,60-193.18,20.67-85.49-121.44-31.94-652.53,0-739S1422.32,47.12,1422.32,172.24Z" transform="translate(56.61 75.27)"/><path class="cls-6" d="M1682.48,273.13c-7.24-14.32-23.51-16.56-34.63-25.76-6.54-5.41-14-9.71-21-14.49-.73-7.37,3.12-19.57-12.2-11.59,8.77-8.86,4.36-16-1.22-25-9.83-15.94-17.46-33.23-26-49.94.19-1.48.38-3,.58-4.44-.44-11.44-9.07-20.27-8.37-32.9.6-10.58,5.28-20.55,3.66-31.2,5.43-4.73,24.4,3,14.59-15.8,1.9-1.82,3.18-3.75,1.68-6.49-7.72-14.14.54-20.72,12.18-25.69l-.16-.06c2.66,4.58,5,9.89,11.84,5.66,18.33,8.6,36.27,18.37,54.27,27.07,19,9.17,39.34,16.85,58.69,26q18.23,8.59,36.42,17.26c47.84,22.78,153.64-12.75,143.28,68.83-2.57,3.51-1.91,7.27,1.4,9.08,9.08,4.93,10.86,11.82,7.12,20.84-6.1-5.29-13.43-4.07-20.46-3.55-16,1.2-16.86,3.11-8.42,16.57-4.61,12.7-17.79,17.31-27.15,23-24.92,15.06-46.94,35.39-79.35,38.21-25.49,2.21-49.2-1-73.27-6.44-5.55-1.25-10,.54-15,1.52C1695.34,256.55,1688.81,268.11,1682.48,273.13Z" transform="translate(56.61 75.27)"/><path class="cls-7" d="M1895.68,217.46c-8.44-13.46-7.56-15.37,8.42-16.57,7-.52,14.36-1.74,20.46,3.55,4.51,7.37,4.87,14.51-2.25,20.33-6.9,5.64-13.15,1.91-19.14-2.32C1900.72,220.72,1898.18,219.12,1895.68,217.46Z" transform="translate(56.61 75.27)"/><path class="cls-7" d="M1743.72,321.52c4.22,14.19-.35,29.94-9.45,32.35-7.23,1.91-12.22-1.39-14.85-7.73-3-7.24,7.58-27.9,15.13-30.14C1739.4,314.55,1742.38,316.84,1743.72,321.52Z" transform="translate(56.61 75.27)"/><path class="cls-7" d="M1682.48,273.13c6.33-5,12.86-16.58,18.48.58-.06,5.62.66,11.39-.36,16.83-1.54,8.2-5.85,15.21-15.66,12.08-8.71-2.77-11.41-9.89-8.07-18.56C1678.33,280.26,1680.59,276.77,1682.48,273.13Z" transform="translate(56.61 75.27)"/><path class="cls-7" d="M1545.17,115.65c-8.78,3.5-17.76,5.62-22-5.65-2.69-7.21,1.57-13.09,8.26-16.29,6.27-3,30.39,3.41,29.89,7.88C1560.38,110.33,1552.13,112.72,1545.17,115.65Z" transform="translate(56.61 75.27)"/><path class="cls-7" d="M1792.75,309.54c2.27,6.45,4.75,12.94-2.77,17.86-5.83,3.81-11.89,3.53-17.43-.15-7.17-4.76-5.48-11.13-2.32-17.58,3-6,1.51-17.14,9.06-17.23S1790.06,302.22,1792.75,309.54Z" transform="translate(56.61 75.27)"/><path class="cls-7" d="M1614.61,215.29c15.32-8,11.47,4.22,12.2,11.59-1.65,4.76-2.59,9.94-5.08,14.22-4.67,8-12.08,9.21-19.5,4.33-7.75-5.09-6.18-12.51-1.43-18.49C1604.48,222.32,1609.94,219.12,1614.61,215.29Z" transform="translate(56.61 75.27)"/><path class="cls-7" d="M1597.84,62c9.81,18.82-9.16,11.07-14.59,15.8-4-.44-8.26-.17-12-1.46-8.69-3-8.69-10.45-7.57-17.81,1.3-8.62,8.49-5.95,13.32-5.66C1584.82,53.3,1591.09,58.46,1597.84,62Z" transform="translate(56.61 75.27)"/><path class="cls-7" d="M1588,141.88c-.2,1.48-.39,3-.58,4.44-6.55,5.75-12.88,11.57-21.51,14.52-8.84,3-14.93-.77-17.3-8-2.74-8.39,3.06-13.38,11-15.36C1569.64,135,1578.92,137.75,1588,141.88Z" transform="translate(56.61 75.27)"/><path class="cls-7" d="M1620.25,301.54c-3.53-8.89,10.9-28.14,21-28,.5,0,1.11-.26,1.49-.06,6.9,3.56,4,10.28,3.75,15.19-.47,8.57-1.76,18.27-12.64,20.4C1628,310.2,1622.47,308.21,1620.25,301.54Z" transform="translate(56.61 75.27)"/><path class="cls-7" d="M1565.2,194.87c4.71-.52,11-6.29,15.27,1.2,3.13,5.49-7.49,24.08-14.73,26.74-7.45,2.73-13-.11-16.09-7.22C1545.87,207,1551.06,199.94,1565.2,194.87Z" transform="translate(56.61 75.27)"/><path class="cls-7" d="M1855.46,271.17c.27-3.78-6.78-9.2,1.78-12.07,7.62-2.55,25.88,7.65,27.81,15.45,1.68,6.79-1,12.25-7.36,14.95C1868.79,293.26,1860.7,286.5,1855.46,271.17Z" transform="translate(56.61 75.27)"/><path class="cls-7" d="M1921,253.4c-.42-5.41-6.88-14.14.76-15.69,10.1-2.06,19.87,4.83,26.14,13.3,4.7,6.35,2,13.32-4.52,17.1-7.75,4.51-13.68,0-18.23-6.24C1923.32,259.44,1922.38,256.39,1921,253.4Z" transform="translate(56.61 75.27)"/><path class="cls-7" d="M1826,327.1c.63-8.17-4.54-21.84,4.54-24.26,10.64-2.83,16,9.61,19.48,19.6,2.79,8.05-.49,13.46-7.76,15.59C1833.88,340.48,1828.86,335.54,1826,327.1Z" transform="translate(56.61 75.27)"/><path class="cls-8" d="M1446.19,1091.32c3.22,0,3.22-5,0-5s-3.22,5,0,5Z" transform="translate(56.61 75.27)"/><path class="cls-8" d="M1446.19,1091.32c3.22,0,3.22-5,0-5s-3.22,5,0,5Z" transform="translate(56.61 75.27)"/><path class="cls-7" d="M1912.34,689.39c-62.78-16.95-123.93-33-180.44-56q-20,12.12-39.26,24.79c-29.18,19.22-54.27,42.59-87.69,57.91-29.46,13.51-62.49,17.32-96.13,20.35-27.71,2.5-72.36,1.92-93.16,18.51-19.61,15.65-45.91-27.53-55-7.81-21.59,47.07-43.92,76.1-107.14,95v164.72c0,26.14,28.31,47.54,62.91,47.54H2039.9c34.6,0,62.91-21.4,62.91-47.54V743.61c-7.3-1.93-13.63-3.65-18.49-4.85C2025.89,724.26,1970.16,705,1912.34,689.39Z" transform="translate(56.61 75.27)"/><path class="cls-9" d="M1914.91,1094.57c81.86,2,85.39-680.38,70.16-676.19-16,4.41-30.29,12.1-53.77,9.34-58.73-6.9-103.22-25.83-138.94-59.3-5.67-5.32-15.06,0-21,4.54-32.34,27.38-28.76,62.58-30,94-1.85,48.74-1.39,99.18-16.61,144.9-30.09,90.4-36.65,180.41-37.45,272.57-.62,70.21-17,139.52-44.29,206.24Q1779,1091.06,1914.91,1094.57Z" transform="translate(56.61 75.27)"/><path class="cls-10" d="M1471.78,819.11c-21.93-52.29-43.37-169-4.5-199,32.23-24.83,102.68-14.8,167.72,47.18,49.17,46.87,71.4,99.63,76.62,153.3,2.58,26.51.76,58.54-45.27,87.67C1575.36,965.86,1491.9,867.05,1471.78,819.11Z" transform="translate(56.61 75.27)"/><path class="cls-6" d="M1300.26,222.5c44.26,10.64,71.7,29,82.43,59.75s1,61.72,28.82,80.88c29.35,20.17-27.71,37.7-76.43,15.07s-25.77-57.75-50.43-78.17c-14.27-11.83-70.85-39.42-67.84-54.73C1221.62,220.82,1260.43,212.92,1300.26,222.5Z" transform="translate(56.61 75.27)"/></g><rect class="cls-10" x="318.59" y="238.75" width="612" height="738"/><g class="cls-11"><path class="cls-3" d="M474.27,95l39.52,231.71s-191.62-8.8-176.52,12c19.16,26.34,87.94,41.91,184.83,78.24s24.29,101,24.29,101l-116,74.72s-126.83,3-117.2,27.46c15.1,38.43,85.91,19.9,98,46.67,24.23,53.74-74.12,96.09,10.37,137.35l92.6,135.75-245.81-3.62-48.9-831.41Z" transform="translate(56.61 75.27)"/><path class="cls-4" d="M366.32,245.2s-16.59,38,20.88,77.08,156.9,92.4,190.27,60.44,25.44-187.64-20.84-236S423.53,152.91,366.32,245.2Z" transform="translate(56.61 75.27)"/><path class="cls-9" d="M887,605.14c7-20-25-25.58-28-43.82C844.72,476,770.35,404.16,654.58,360.91s-207.28-3-233.46,12.76c-28,16.85-71.36,58.09-71.36,58.09s-18.76,8.58-30.33,5.53c-32.95-8.68-51.15,29.79-12.18,51.3,62.38,34.42,34.11,61.74,81.18,117.53C486.92,722.88,650.49,756.94,772,687.93c26-14.79,72.23-10.89,93.35-35.37C907.12,647.58,887,605.14,887,605.14Z" transform="translate(56.61 75.27)"/><path class="cls-6" d="M766.87,126.48c-50.08-2.67-49.26,25.17-28.46,29.55,25.12,5.29,58.48,31.78,58.48,46.86,0,30.07-19.14,34.62-35.54,59.22s-27.33,41-52.84,46.46-52.84,12.76-26.42,22.78,119.35,8.2,121.17,28.24-73.36,54.12-104.77,72c-66,37.53-67.38,58.29-22.67,72.87,13.46,4.39,29.56,11.47,30.75,18.33,1.51,8.76-15,17.13-24.75,19-19.34,3.72-38.07,23.36-54.86,29.63-13,4.84-22.76,20.06-6.36,24.16s103.86,4.55,133.47,9.11,96.57,15.94,81.08,36.89-65.15,14.12-110,21.87c-22.44,3.87-28.26,23.11-13,40.34s71.11,15.24,67,50.5c-6,51.5-143,64.5,3,151.5C839.7,940.06,972,917.66,972,917.66s185.35-701.51,43.42-752.94C939.88,137.36,849,130.86,766.87,126.48Z" transform="translate(56.61 75.27)"/><path class="cls-5" d="M401.85,157.56c-33.28,22.83-46,44.08-56.89,60.37s-41.81,57.7-26.38,73.81,33,.71,37.77-9.71,24.5-31.24,42.79-38.25,31.68-11.45,26.07-25,0-27.69,18-28.8,60.94-3.94,61.25-35.87S456,120.41,401.85,157.56Z" transform="translate(56.61 75.27)"/><path class="cls-6" d="M512.45,187.12c.42-2.81-1.86-8,2.24-7.94,5.4.14,9.59,4.8,11.8,9.88,1.66,3.79-.54,7-4.32,8.21-4.49,1.39-7-1.61-8.59-5.33A28.58,28.58,0,0,1,512.45,187.12Z" transform="translate(56.61 75.27)"/><path class="cls-6" d="M516.32,148.1c.42-2.82-1.86-8,2.23-7.94,5.41.14,9.6,4.8,11.81,9.87,1.66,3.8-.54,7.05-4.32,8.22-4.49,1.39-7-1.62-8.59-5.33A27.65,27.65,0,0,1,516.32,148.1Z" transform="translate(56.61 75.27)"/><path class="cls-6" d="M468.69,159.07c.42-2.81-1.87-8,2.23-7.94,5.4.14,9.59,4.81,11.81,9.88,1.65,3.79-.55,7-4.33,8.21-4.49,1.4-7-1.61-8.59-5.33A28.14,28.14,0,0,1,468.69,159.07Z" transform="translate(56.61 75.27)"/><path class="cls-6" d="M429.27,288.36c.42-2.82-1.86-8,2.23-7.94,5.4.13,9.59,4.8,11.81,9.87,1.65,3.8-.55,7-4.32,8.22-4.5,1.39-7-1.62-8.6-5.34A28.25,28.25,0,0,1,429.27,288.36Z" transform="translate(56.61 75.27)"/><path class="cls-6" d="M464.21,329.9c.42-2.82-1.86-8,2.23-7.94,5.41.13,9.59,4.8,11.81,9.87,1.65,3.8-.55,7.05-4.32,8.22-4.49,1.39-7-1.62-8.59-5.34A27.32,27.32,0,0,1,464.21,329.9Z" transform="translate(56.61 75.27)"/><path class="cls-6" d="M467.39,276c.42-2.82-1.86-8,2.23-7.94,5.41.13,9.59,4.8,11.81,9.87,1.66,3.8-.54,7.05-4.32,8.22-4.49,1.39-7-1.62-8.59-5.33A27.65,27.65,0,0,1,467.39,276Z" transform="translate(56.61 75.27)"/><path class="cls-6" d="M509.51,238.37c.41-2.82-1.87-8,2.23-7.94,5.4.14,9.59,4.8,11.81,9.88,1.65,3.79-.55,7-4.33,8.21-4.49,1.39-7-1.61-8.59-5.33A28.59,28.59,0,0,1,509.51,238.37Z" transform="translate(56.61 75.27)"/><path class="cls-6" d="M508.72,283.84c.42-2.82-1.86-8,2.23-7.94,5.41.14,9.59,4.8,11.81,9.87,1.65,3.8-.54,7.05-4.32,8.22-4.49,1.39-7-1.62-8.59-5.33A27.65,27.65,0,0,1,508.72,283.84Z" transform="translate(56.61 75.27)"/><path class="cls-6" d="M510.89,327.83c.42-2.82-1.86-8,2.24-7.94,5.4.14,9.59,4.8,11.8,9.88,1.66,3.79-.54,7-4.32,8.21-4.49,1.39-7-1.61-8.59-5.33A28.58,28.58,0,0,1,510.89,327.83Z" transform="translate(56.61 75.27)"/><path class="cls-6" d="M552.71,275.79c.42-2.82-1.87-8,2.23-7.94,5.4.14,9.59,4.8,11.81,9.88,1.65,3.79-.55,7-4.32,8.21-4.5,1.39-7-1.61-8.6-5.33A28.59,28.59,0,0,1,552.71,275.79Z" transform="translate(56.61 75.27)"/><path class="cls-6" d="M548.57,216.45c.42-2.82-1.86-8,2.23-7.94,5.4.13,9.59,4.8,11.81,9.87,1.65,3.8-.55,7.05-4.32,8.22-4.5,1.39-7-1.62-8.6-5.33A28.59,28.59,0,0,1,548.57,216.45Z" transform="translate(56.61 75.27)"/><path class="cls-6" d="M463.67,222.22c.42-2.81-1.86-8,2.23-7.93,5.41.13,9.6,4.8,11.81,9.87,1.66,3.8-.54,7-4.32,8.22-4.49,1.39-7-1.62-8.59-5.34A27.23,27.23,0,0,1,463.67,222.22Z" transform="translate(56.61 75.27)"/><path class="cls-6" d="M414.87,231.31c.42-2.82-1.86-8,2.23-7.94,5.41.14,9.6,4.8,11.81,9.88,1.66,3.79-.54,7-4.32,8.21-4.49,1.39-7-1.61-8.59-5.33A27.65,27.65,0,0,1,414.87,231.31Z" transform="translate(56.61 75.27)"/><path class="cls-6" d="M379.31,276.4c.42-2.81-1.86-8,2.23-7.94,5.41.14,9.6,4.81,11.81,9.88,1.66,3.79-.54,7-4.32,8.21-4.49,1.39-7-1.61-8.59-5.33A27.65,27.65,0,0,1,379.31,276.4Z" transform="translate(56.61 75.27)"/><path class="cls-6" d="M521.12,792.84c-11.44-21.66-24.28-18.56-37.57-30.38S453.39,746.1,451,733.38s-6.11-54.86,27.64-52S583.09,704.69,633,752.26c33.69,32.1,35,57.66,30.13,69.43s-28.27,6.55-71.49,5.84C546.38,826.8,532.06,813.56,521.12,792.84Z" transform="translate(56.61 75.27)"/><polygon class="cls-12" points="30.6 695.27 474.73 838.81 480.24 942.65 346.9 917.23 0 844.8 30.6 695.27"/><path class="cls-7" d="M667.24,780.79a7.18,7.18,0,0,0-11.87-2.59c-20.49,21-35.23,27.49-35.23,27.49s-60.64,33.75-95.28,24.17c-62.69-17.34-86.78-68.25-101.61-110.94-3.89-11.2-14.31-3.74-15.93-2A102.29,102.29,0,0,0,384,759.18c-17.51,64.53,32,134.14,110.62,155.47s156.53-13.68,174-78.21C674.3,815.59,674,799.63,667.24,780.79Z" transform="translate(56.61 75.27)"/><path class="cls-5" d="M546.82,665.28c45.5-1.44,76.81,9,95.3,35.83s21.1,52.66,43,67-2.75,38.11-55.73,29.17-59.75-46.75-77.16-53.11-78.75-19.29-79.9-34.84C470.54,684.45,505.88,666.58,546.82,665.28Z" transform="translate(56.61 75.27)"/></g><g class="cls-13"><rect class="cls-10" x="2279.6" y="208.75" width="612" height="738"/><path class="cls-3" d="M2331,440.7c2,11.53,48.18,37.21,66.56,40.73,44.44,8.5,61.44,25.5,61.44,25.5,18.85,44-2.91,80.39-7.91,123.25-16.09,137.75-80.43,172.54-54.17,195.41,18.12,15.78-41-12.15-70.19-11.56s4.74,9.05,5.32,24.25,23.09,21.12,58.76,31.64,23.42,27.74-6,35.86c-65,17.92-176.25,57.32-205.74,19.75-91-116-34.47-523.24-.45-605.86C2206,253.19,2323.16,396.26,2331,440.7Z" transform="translate(56.61 75.27)"/><path class="cls-6" d="M2730.65,66.28c-52.72-2.81-51.86,26.51-30,31.12C2727.14,103,2324.4-90.22,2324.4-74.35c0,31.66-189.27,293.79-206.53,319.69-13.69,20.52,106.9,71.79,206.83,86.75,26.16,3.92,41.89-123.46,62.44-125.72,47.72-5.26,109,108.56,153.37,95.61,47.75-13.92,86.47-25.47,100.89-20,27.81,10.55,125.65,8.64,127.57,29.74s-77.24,37-110.31,55.77c-69.52,39.52-70.94,61.37-23.87,76.72,14.17,4.62,25.36,17.19,32.37,19.3,34.2,10.29-1.6,37.34-11.83,39.31C2635,506.72,2600.44,531.29,2583,534c-14.42,2.24-24,21.12-6.7,25.43s123.92,4.8,155.09,9.6,87.45,17.48,71.15,39.54S2638.86,634.33,2591,636.92c-37,2-73,36-13.67,42.47,36.46,4,147.82,14.3,131.32,47.83-14.1,28.69,30.33,35.25,24.39,54.19C2727,800.87,2690.9,811,2669.89,811c-66.7,0-86.89,66.89,157.11,66.89,139.39,0-4.58-77.44,13.82-200.86,34.81-233.5,26.35-582.79-7.6-617.37C2808.08,34.09,2765,68.12,2730.65,66.28Z" transform="translate(56.61 75.27)"/><path class="cls-5" d="M2633.19-3.52s-118.76,24.2-128.8,59c-3.1,10.74-.39,18.77,2.55,25.77s18.3,11.85,15.22,21.75c-2.12,6.79,12.42,13,7.22,26.78-3,7.83-22.84-5.81-24.47,7.74-1.5,12.5,20.21,16.37,16.7,24.93s-25.3,3-28.08,18.68c-1.13,6.41,10.4,15.77,8,19.57-1.42,2.28-14.18,2.6-23.3,10.21-4.32,3.6-8.57,8.66-7.61,17.71,2,18.84-21.66,9-27.28,11.82-3.11,1.58-8,7.4-5.66,17.28,3.71,15.38-13.09-3.33-27.61,4.23-6.58,3.42-19.28,18.22-23.64,18.48-4,.25-7.87-7-12.66-14.69s-12-7.46-13.9-6.67c-21.3,9-27.49,7.92-38.28,1.52-6-3.57-10.71-12.16-17.1-16.32s-15.77-5.38-23.47-3.19c-9.85,2.8-11.69,11.1-15.36,11.4-6,.49,1.39-11.49-5.21-22.86-4.36-7.53-18.89-25.65-18.89-25.65s-83.47,39-119,85.89c67.77,87.07,218.94,178.54,395.88,89S2683.39,128.22,2638,6.22Z" transform="translate(56.61 75.27)"/><path class="cls-9" d="M2685.6,687.79s-46.4-.11-71.3-20.45-79.39-68.15-54.45-147.24c25.88-82.08,115.67-86.82,115.67-86.82s51.88,15.14,61.94,24.19c28.48,25.61,43.46,52.43,54.8,86.51,10.4,31.27-11.65,92.35-11.65,92.35Z" transform="translate(56.61 75.27)"/><path class="cls-3" d="M2892,973.4l-127.8-162.57L2636.09,691.62c-3.85-5.36-.15-8.37,2.74-8.7,17.62-2,78.39-22.33,102.27-48.21,19.15-20.74,40.34,26.52,35.69-37.48-1.11-15.2,17.34-28.36,22.34-34.35,1.93-2.32,5.09-1.48,5.92,1.56l70.59,368.27Z" transform="translate(56.61 75.27)"/><path class="cls-12" d="M2567.54,848.63,2537.93,733a15.07,15.07,0,0,0-8.78-10.61h0l-105.4-66.67s-203.32,36-265.68,49.77-52,35.92-52,35.92l21.8,108.48a24.36,24.36,0,0,0,8.3,13.9l82.93,68.83,1.49-.42a15.13,15.13,0,0,0,15.11,5.37l129.2-32.21,86.9-14L2556,866.68A15.14,15.14,0,0,0,2567.54,848.63Z" transform="translate(56.61 75.27)"/><path class="cls-7" d="M2106.13,737.86s87.82,66.06,120.58,65.56c15.76-.25,161.38-25.18,161.38-25.18s117.08-33.25,142.32-40.71a7.55,7.55,0,0,0,2.05-13.51l-104.82-69.68a15.11,15.11,0,0,0-10.36-2.43C2373.73,657.6,2093.34,695.9,2106.13,737.86Z" transform="translate(56.61 75.27)"/><path class="cls-6" d="M2441.61,717.43c4.74,0,12.82-5,13.62,1.8,1.06,8.95-5.65,17-13.49,21.83-5.87,3.63-11.76.77-14.58-5.18-3.37-7.09,1-11.93,6.76-15.45C2436.17,719.06,2438.9,718.46,2441.61,717.43Z" transform="translate(56.61 75.27)"/><path class="cls-6" d="M2515.41,777.17c.19-4.74-4.53-13,2.27-13.56,9-.74,16.77,6.24,21.35,14.25,3.43,6,.37,11.77-5.68,14.39-7.2,3.12-11.89-1.42-15.21-7.29C2516.85,782.66,2516.34,779.91,2515.41,777.17Z" transform="translate(56.61 75.27)"/><path class="cls-6" d="M2493.32,698.52c2.11-3.66-.11-11.91,8.07-9.83a26.8,26.8,0,0,1,19.28,19.14c1.62,6-4.27,9.41-12.39,9.23-9.67-.22-13.34-5.54-14.87-11.39C2492.81,703.38,2493.32,701,2493.32,698.52Z" transform="translate(56.61 75.27)"/><path class="cls-6" d="M2275.32,665.07c4.74,0,12.82-5,13.63,1.8,1.06,9,5.05,21-13.5,21.83-6.89.33-11.75.78-14.58-5.18-3.37-7.08,1-11.93,6.76-15.44C2269.89,666.7,2272.61,666.1,2275.32,665.07Z" transform="translate(56.61 75.27)"/><path class="cls-6" d="M2220.51,729.5c3.08-3.61,4.47-13,10.17-9.24,7.52,5,9.32,15.27,8,24.39-1,6.83-7,9.48-13.37,7.8-7.58-2-8.46-8.47-7.43-15.14C2218.24,734.7,2219.54,732.23,2220.51,729.5Z" transform="translate(56.61 75.27)"/><path class="cls-6" d="M2335.59,734.79c-3.65,3-6.63,12.05-11.6,7.37-6.57-6.18-6.57-16.63-3.68-25.4,2.16-6.55,8.51-8.14,14.51-5.39,7.12,3.27,6.89,9.79,4.73,16.18C2338.71,730.05,2337,732.26,2335.59,734.79Z" transform="translate(56.61 75.27)"/><path class="cls-6" d="M2360.79,816.5c-.47,4.72,3.76,13.24-3.07,13.4-9,.21-16.37-7.22-20.46-15.49-3.07-6.19.33-11.77,6.53-14,7.36-2.68,11.78,2.12,14.74,8.18C2359.68,810.94,2360,813.71,2360.79,816.5Z" transform="translate(56.61 75.27)"/><path class="cls-6" d="M2390.62,768.46c4.63-1.05,11.38-7.74,13.69-1.31,3,8.49-1.7,17.81-8.26,24.3-4.9,4.86-11.28,3.39-15.37-1.78-4.87-6.15-1.7-11.85,3.12-16.57C2385.69,771.26,2388.21,770.06,2390.62,768.46Z" transform="translate(56.61 75.27)"/><path class="cls-6" d="M2287.45,784.88c-.26,4.73,4.32,13.06-2.5,13.51-9,.6-16.66-6.52-21.1-14.6-3.32-6-.16-11.78,5.93-14.3,7.25-3,11.86,1.62,15.08,7.55C2286.11,779.37,2286.57,782.12,2287.45,784.88Z" transform="translate(56.61 75.27)"/><path class="cls-6" d="M2325.34,855.83c4.75,0,12.83-5,13.63,1.8,1.06,9-5.65,17-13.49,21.83-5.87,3.63-11.76.77-14.59-5.18-3.36-7.09,1-11.93,6.77-15.45C2319.91,857.46,2322.64,856.86,2325.34,855.83Z" transform="translate(56.61 75.27)"/><path class="cls-6" d="M2411.67,841.32c2.26-4.17,1.66-13.66,8-11.16,8.39,3.29,12.29,13,12.87,22.2.43,6.89-4.87,10.73-11.46,10.41-7.83-.38-10-6.52-10.42-13.26C2410.53,846.88,2411.29,844.19,2411.67,841.32Z" transform="translate(56.61 75.27)"/><path class="cls-6" d="M2403.44,676.19c2.95-3.71,4-13.15,9.85-9.59,7.68,4.71,9.83,14.94,8.79,24.11-.78,6.86-6.67,9.71-13.1,8.25-7.65-1.74-8.75-8.17-7.94-14.87C2401.35,681.47,2402.57,679,2403.44,676.19Z" transform="translate(56.61 75.27)"/><path class="cls-6" d="M2366.06,617.78c4.74,0,12.82-5,13.63,1.8,1.06,9-5.65,17-13.5,21.83-5.87,3.63-11.75.78-14.58-5.18-3.37-7.09,1-11.93,6.76-15.45C2360.62,619.41,2363.35,618.81,2366.06,617.78Z" transform="translate(56.61 75.27)"/><path class="cls-6" d="M2273.89,594.72c3.2-3.64,3.37-13.4,11-9.22,10.1,5.52,14,16.36,13.84,25.83-.13,7.09-7.07,9.59-15.22,7.56-9.68-2.43-11.83-9.22-11.65-16.14C2272,600.05,2273.15,597.53,2273.89,594.72Z" transform="translate(56.61 75.27)"/><path class="cls-4" d="M2676.5,97.39s23,247-152.45,304.85c-92.62,30.55-77.35-.3-53.92-7.14,25.46-7.43,121.21-53.45,136.13-97.15s47.95-111.35,50.25-201Z" transform="translate(56.61 75.27)"/></g><polygon class="cls-3" points="1888.8 1939.6 1344.89 1939.6 1344.89 1363.63 1888.8 1305.22 1888.8 1939.6"/><path class="cls-4" d="M1841.76,1304.17c-99,8.89-221.45-30-225.94-72-13.27-48.53-54-63.61-54-63.61-66,4.5-119.68-28-175-21.5-50.78,6-21.55,160.33-15.91,173.2,5.93,13.53,14.53,25.12,15.11,46.14,1.46,52.59,66.47,18.22,41.57,53.95-3.95,5.67,1.9,13.27,6.69,17.87,28.25,25,98.08,78.81,140.28,86.35,83.45,14.91,163.53,9.14,244.77-2,36.78-5,71.7-25.76,104.67-53.67C1946.56,1449.86,1876,1301.11,1841.76,1304.17Z" transform="translate(56.61 75.27)"/><path class="cls-5" d="M1420.63,1263.94c0,43.3-2.45,80.59,18.07,90.94s43.9,30.47,41.46,45.72-23.34,23.41-53.62,27.22-70.79,10.39-71.28,21.28,39,39.88,54.19,44.23,44,20.68,44,35.39c0,20.69-69.6,9.7-69.6,40.19s20.8,33.38,35.41,59.8c13,23.55,45,23.24,60.73,26,12.93,2.23,36.41,3.77,36.41,19.75,0,16.73-115.64,20.1-124.49,33.79-21.33,33,48.53,40.45,70.46,61.74,15.14,14.7,9.77,25.59-14.65,26.13s-92,9.1-91.52,23.25,19.28,19.66,49.08,29.46,19.57,25.83-5,33.39c-26.48,8.14-69.09-4.53-101.53,2.5-34.12,7.38-15.77-514-25.65-595.45-5.32-43.92.56-35.29,22.21-42.68,19.46-6.64,75.78-27.41,101.55-22C1408.68,1227,1420.63,1248.43,1420.63,1263.94Z" transform="translate(56.61 75.27)"/><g id="uJjaxO"><path class="cls-6" d="M1652.08,1353.7c-6.44-12.74-20.92-14.73-30.81-22.91-5.81-4.82-12.45-8.64-18.72-12.9-.65-6.55,2.78-17.4-10.85-10.3,7.8-7.89,3.88-14.23-1.08-22.28-8.75-14.17-15.54-29.56-23.15-44.43.17-1.31.35-2.63.52-4-.39-10.17-8.07-18-7.44-29.26.53-9.42,4.69-18.29,3.25-27.76,4.83-4.21,15-38.27,25.31-42.69l-.14,0c2.37,4.07,42.81,21.37,58.82,29.12,16.86,8.16,35,15,52.21,23.1q16.21,7.63,32.4,15.35c42.56,20.26,136.69-11.35,127.48,61.23-2.29,3.12-11.41,33.53-11.41,33.53-4.11,11.3-22.54,20.07-30.86,25.1-22.18,13.41-41.76,31.49-70.6,34-22.68,2-43.77-.91-65.19-5.73-4.94-1.11-8.92.48-13.29,1.36C1663.52,1339,1657.71,1349.24,1652.08,1353.7Z" transform="translate(56.61 75.27)"/><path class="cls-14" d="M1841.76,1304.17c-7.51-12-6.73-13.67,7.49-14.73,6.25-.47,12.77-1.55,18.2,3.15,4,6.56,4.34,12.91-2,18.09-6.14,5-11.7,1.7-17-2.07C1846.24,1307.08,1844,1305.65,1841.76,1304.17Z" transform="translate(56.61 75.27)"/><path class="cls-14" d="M1706.57,1396.75c3.75,12.63-.31,26.64-8.42,28.78-6.43,1.7-10.86-1.23-13.2-6.87-2.68-6.44,6.74-24.83,13.45-26.82C1702.72,1390.56,1705.37,1392.59,1706.57,1396.75Z" transform="translate(56.61 75.27)"/><path class="cls-14" d="M1652.08,1353.7c5.63-4.46,11.44-14.75,16.45.52-.06,5,.58,10.13-.33,15-1.36,7.3-5.2,13.53-13.93,10.75-7.75-2.47-10.15-8.8-7.18-16.51C1648.39,1360.05,1650.4,1356.94,1652.08,1353.7Z" transform="translate(56.61 75.27)"/><path class="cls-14" d="M1529.92,1213.6c-7.81,3.12-15.79,5-19.55-5-2.39-6.41,1.4-11.65,7.36-14.49,5.57-2.67,27,3,26.59,7C1543.45,1208.87,1536.12,1211,1529.92,1213.6Z" transform="translate(56.61 75.27)"/><path class="cls-14" d="M1750.19,1386.1c2,5.73,4.22,11.51-2.47,15.88-5.18,3.39-10.58,3.14-15.51-.13-6.37-4.23-4.87-9.9-2.06-15.64,2.63-5.37,1.35-15.25,8.06-15.33S1747.79,1379.58,1750.19,1386.1Z" transform="translate(56.61 75.27)"/><path class="cls-14" d="M1591.7,1302.25c13.63-7.1,10.2,3.75,10.85,10.3-1.46,4.24-2.3,8.85-4.51,12.66-4.16,7.15-10.75,8.19-17.36,3.85-6.89-4.53-5.49-11.13-1.26-16.45C1582.69,1308.5,1587.55,1305.66,1591.7,1302.25Z" transform="translate(56.61 75.27)"/><path class="cls-14" d="M1576.78,1165.85c8.73,16.74-8.15,9.85-13,14.06-3.56-.4-7.35-.16-10.65-1.3-7.73-2.68-7.73-9.29-6.74-15.84,1.17-7.67,7.56-5.3,11.86-5C1565.2,1158.13,1570.77,1162.72,1576.78,1165.85Z" transform="translate(56.61 75.27)"/><path class="cls-14" d="M1568,1236.93c-.17,1.32-.35,2.64-.52,4-5.82,5.12-11.46,10.3-19.13,12.93-7.87,2.68-13.28-.69-15.39-7.15-2.44-7.46,2.72-11.91,9.82-13.67C1551.7,1230.77,1560,1233.26,1568,1236.93Z" transform="translate(56.61 75.27)"/><path class="cls-14" d="M1596.72,1379c-3.14-7.91,9.69-25,18.66-24.91.45,0,1-.23,1.33-.06,6.14,3.17,3.57,9.15,3.33,13.52-.42,7.63-1.56,16.26-11.24,18.15C1603.65,1386.68,1598.69,1384.92,1596.72,1379Z" transform="translate(56.61 75.27)"/><path class="cls-14" d="M1547.74,1284.08c4.19-.46,9.78-5.6,13.59,1.07,2.78,4.88-6.66,21.42-13.11,23.78-6.63,2.43-11.55-.09-14.31-6.42C1530.55,1294.83,1535.16,1288.59,1547.74,1284.08Z" transform="translate(56.61 75.27)"/><path class="cls-14" d="M1806,1352c.25-3.36-6-8.19,1.59-10.74,6.78-2.26,23,6.81,24.74,13.75,1.5,6-.86,10.89-6.54,13.3C1817.84,1371.61,1810.64,1365.6,1806,1352Z" transform="translate(56.61 75.27)"/><path class="cls-14" d="M1864.24,1336.15c-.37-4.81-6.12-12.58.68-14,9-1.83,17.67,4.3,23.26,11.84,4.17,5.64,1.77,11.84-4,15.21-6.89,4-12.17,0-16.22-5.55C1866.35,1341.52,1865.51,1338.81,1864.24,1336.15Z" transform="translate(56.61 75.27)"/><path class="cls-14" d="M1779.77,1401.72c.56-7.27-4-19.43,4-21.58,9.46-2.52,14.25,8.55,17.33,17.43,2.48,7.16-.44,12-6.91,13.87C1786.78,1413.63,1782.31,1409.23,1779.77,1401.72Z" transform="translate(56.61 75.27)"/></g><path class="cls-7" d="M1832.66,1717.58c-47.44-12.84-93.54-25.81-136.61-43.39q-17.83,10.79-34.93,22.06c-26,17.09-48.29,37.88-78,51.51-26.22,12-55.6,15.42-85.52,18.11-24.66,2.22-64.38,1.71-82.89,16.47-17.44,13.92-40.84-24.5-48.89-6.95-16.26,35.48-34,57.2-72,76.17-49.88,25-31.75,39.5,14.82,39.5,57.57,0,263,20.06,263,20.06,40-73.92,261.06-23.53,261.06-46.8C1832.74,1864.32,1840.6,1719.73,1832.66,1717.58Z" transform="translate(56.61 75.27)"/><path class="cls-9" d="M1852.78,1885.55c13.91-5,9.91-311.72-11-314.17-12.88-1.52,6.67-83.82-4.75-86.66-34.89-8.71-63.26-23.8-87.21-46.24-5-4.73-13.4,0-18.65,4-28.77,24.36-25.59,55.68-26.65,83.58-1.64,43.37-1.23,88.24-14.77,128.92-23.82,71.55-32.88,142.8-32.88,215.42C1656.89,1897.3,1832.74,1892.69,1852.78,1885.55Z" transform="translate(56.61 75.27)"/><path class="cls-6" d="M1312,1249.87c39.37,9.46,63.78,25.78,73.33,53.15s.84,54.91,25.64,72c26.11,18-24.65,33.54-68,13.41s-22.93-51.38-44.86-69.55c-12.7-10.52-63-35.07-60.36-48.69C1242.07,1248.37,1276.6,1241.35,1312,1249.87Z" transform="translate(56.61 75.27)"/><path class="cls-3" d="M530.3,1212.54l5,149.46s-181.19-8.33-166.91,11.31c18.12,24.9,83.15,39.62,174.77,74s23,95.49,23,95.49l-109.73,70.65s-119.93,2.8-110.83,26c14.28,36.35,81.24,18.82,92.66,44.13,22.9,50.82-70.1,90.86,9.79,129.88l103.48,82.9s-102.63,31.91-248.35,39c-52-29.64-20.45-393.88-30.51-511.17s-31.18-280,16.25-273.33,138.44-5.23,138.44-5.23C582,1145.61,523.5,1172.69,530.3,1212.54Z" transform="translate(56.61 75.27)"/><path class="cls-4" d="M395.9,1284.89s-15.69,35.89,19.74,72.88,148.36,87.37,179.91,57.15,24.07-177.42-19.7-223.12S450,1197.62,395.9,1284.89Z" transform="translate(56.61 75.27)"/><path class="cls-9" d="M884.33,1625.24c6.64-18.87-23.59-24.19-26.48-41.43C844.34,1503.16,774,1435.2,664.54,1394.3s-196-2.85-220.75,12.07c-26.44,15.93-67.48,54.93-67.48,54.93s-17.73,8.11-28.68,5.23c-31.15-8.21-48.36,28.17-11.51,48.5,59,32.55,32.25,58.39,76.76,111.14,96.07,113.89,257.64,144.56,373.43,70.88,20.52-13.06,53,17.64,70-2.09C895.84,1690.25,884.33,1625.24,884.33,1625.24Z" transform="translate(56.61 75.27)"/><path class="cls-6" d="M774.51,1185.73c-47.35-2.48-46.58,23.4-26.91,27.46,23.75,4.92,55.29,29.53,55.29,43.54,0,27.94-18.09,32.17-33.6,55s-25.38,41.37-50,43.17c-34.65,2.54-50,11.85-25,21.16s112.86,7.62,114.58,26.25-69.37,50.28-99.07,66.87c-62.44,34.88-63.71,54.16-21.44,67.71,12.73,4.08,28,10.67,29.08,17,1.43,8.14-14.21,15.92-23.41,17.66-18.28,3.45-36,21.7-51.87,27.53-12.27,4.5-21.52,18.63-6,22.44s98.21,4.24,126.21,8.47,91.32,14.81,76.67,34.28-61.6,13.12-104,20.32c-21.22,3.6-26.72,21.48-12.28,37.48s67.23,14.16,63.35,46.92c-5.67,47.86-135.22,59.94,2.84,140.77,19.66,11.52,48.55,16.15,77.43,17.38,10.74.45,33.76,5.69,30.54-40-15-212.53-7.87-621-7.87-683.66,0-14.54-18.25-14.54-37.66-12.62C819.19,1194,805.5,1187.36,774.51,1185.73Z" transform="translate(56.61 75.27)"/><path class="cls-5" d="M429.5,1202c-31.47,21.59-43.52,41.68-53.8,57.09s-39.53,54.55-24.94,69.79,31.24.67,35.71-9.18,23.16-29.54,40.46-36.17,30-10.82,24.66-23.62,0-26.18,17-27.24,57.62-3.73,57.91-33.91S480.69,1166.89,429.5,1202Z" transform="translate(56.61 75.27)"/><path class="cls-6" d="M534.08,1230c.4-2.66-1.76-7.6,2.11-7.5,5.11.12,9.07,4.54,11.17,9.33,1.56,3.59-.52,6.66-4.09,7.77-4.25,1.32-6.61-1.53-8.12-5A26.71,26.71,0,0,1,534.08,1230Z" transform="translate(56.61 75.27)"/><path class="cls-6" d="M537.74,1193.07c.39-2.66-1.76-7.6,2.11-7.5,5.11.13,9.07,4.54,11.16,9.33,1.57,3.59-.51,6.66-4.08,7.77-4.25,1.32-6.62-1.53-8.13-5A26.71,26.71,0,0,1,537.74,1193.07Z" transform="translate(56.61 75.27)"/><path class="cls-6" d="M492.7,1203.45c.39-2.66-1.77-7.6,2.11-7.51,5.11.13,9.07,4.54,11.16,9.34,1.57,3.59-.51,6.66-4.09,7.77-4.24,1.31-6.61-1.53-8.12-5A25.8,25.8,0,0,1,492.7,1203.45Z" transform="translate(56.61 75.27)"/><path class="cls-6" d="M455.42,1325.7c.4-2.66-1.76-7.6,2.11-7.51,5.11.13,9.07,4.54,11.17,9.34,1.56,3.59-.52,6.66-4.09,7.77-4.25,1.31-6.61-1.53-8.12-5A26.37,26.37,0,0,1,455.42,1325.7Z" transform="translate(56.61 75.27)"/><path class="cls-6" d="M488.46,1365c.4-2.67-1.76-7.6,2.11-7.51,5.11.13,9.07,4.54,11.17,9.34,1.56,3.59-.52,6.66-4.09,7.77-4.25,1.31-6.61-1.53-8.12-5A26.37,26.37,0,0,1,488.46,1365Z" transform="translate(56.61 75.27)"/><path class="cls-6" d="M491.47,1314c.39-2.66-1.76-7.6,2.11-7.5,5.11.12,9.07,4.54,11.16,9.33,1.57,3.59-.51,6.66-4.08,7.77-4.25,1.32-6.62-1.53-8.13-5A26.71,26.71,0,0,1,491.47,1314Z" transform="translate(56.61 75.27)"/><path class="cls-6" d="M531.29,1278.43c.4-2.66-1.76-7.6,2.11-7.5,5.12.12,9.07,4.54,11.17,9.33,1.56,3.59-.52,6.66-4.09,7.77-4.25,1.32-6.61-1.53-8.12-5A26.71,26.71,0,0,1,531.29,1278.43Z" transform="translate(56.61 75.27)"/><path class="cls-6" d="M530.55,1321.42c.39-2.66-1.76-7.6,2.11-7.5,5.11.13,9.07,4.54,11.16,9.34,1.57,3.58-.51,6.66-4.08,7.76-4.25,1.32-6.62-1.52-8.13-5A26.27,26.27,0,0,1,530.55,1321.42Z" transform="translate(56.61 75.27)"/><path class="cls-6" d="M532.61,1363c.39-2.66-1.77-7.6,2.11-7.5,5.11.12,9.07,4.54,11.16,9.33,1.57,3.59-.51,6.66-4.09,7.77-4.24,1.32-6.61-1.53-8.12-5A25.8,25.8,0,0,1,532.61,1363Z" transform="translate(56.61 75.27)"/><path class="cls-6" d="M572.14,1313.81c.4-2.66-1.76-7.6,2.11-7.5,5.11.13,9.07,4.54,11.17,9.34,1.56,3.58-.52,6.66-4.09,7.76-4.25,1.32-6.61-1.52-8.12-5A26.27,26.27,0,0,1,572.14,1313.81Z" transform="translate(56.61 75.27)"/><path class="cls-6" d="M568.23,1257.7c.39-2.66-1.76-7.6,2.11-7.5,5.11.12,9.07,4.54,11.16,9.33,1.57,3.59-.51,6.66-4.08,7.77-4.25,1.32-6.62-1.53-8.13-5A26.71,26.71,0,0,1,568.23,1257.7Z" transform="translate(56.61 75.27)"/><path class="cls-6" d="M488,1263.16c.4-2.66-1.76-7.6,2.11-7.5,5.12.13,9.08,4.54,11.17,9.34,1.56,3.58-.52,6.66-4.09,7.76-4.24,1.32-6.61-1.52-8.12-5A26.27,26.27,0,0,1,488,1263.16Z" transform="translate(56.61 75.27)"/><path class="cls-6" d="M441.81,1271.76c.39-2.67-1.76-7.61,2.11-7.51,5.11.13,9.07,4.54,11.16,9.34,1.57,3.58-.51,6.66-4.08,7.76-4.25,1.32-6.62-1.52-8.13-5A26.37,26.37,0,0,1,441.81,1271.76Z" transform="translate(56.61 75.27)"/><path class="cls-6" d="M408.18,1314.39c.4-2.66-1.76-7.6,2.11-7.5,5.12.12,9.07,4.54,11.17,9.33,1.56,3.59-.52,6.66-4.09,7.77-4.25,1.32-6.61-1.53-8.12-5A26.71,26.71,0,0,1,408.18,1314.39Z" transform="translate(56.61 75.27)"/><path class="cls-3" d="M2362.59,1501.78c4,9.88,43.81,33.84,60.53,37,40.41,7.73,55.87,23.19,55.87,23.19,17.14,40-2.64,73.11-7.2,112.08-14.63,125.27-96.46,135.47-64,145s106.18,18.95,79.39,26.33c-59.14,16.3-160.28,52.13-187.09,18-82.79-105.5-63.87-487.67-54.65-487.45C2285.36,1376.9,2343.24,1453.84,2362.59,1501.78Z" transform="translate(56.61 75.27)"/><path class="cls-6" d="M2264.38,1222.4c-12.56,23.13-17.18,101.74-8.74,155.12,31.26,10.84,66.94,20.28,100.19,25.34,24.17,3.68,30.77-119,49.73-121.1,47.83-5.27,116.91,102.77,159.69,90.34,37.78-11,67.75-19.16,79.61-14.66,25.29,9.59,114.26,7.85,116,27s-70.24,33.62-100.31,50.72c-63.23,35.94-64.51,55.81-21.71,69.76,12.89,4.21,23.06,15.64,29.44,17.56,31.1,9.35-1.46,34-10.76,35.74-18.52,3.56-49.91,25.9-65.78,28.37-13.11,2-21.79,19.2-6.09,23.13s112.69,4.36,141,8.72,79.52,15.9,64.69,36-148.84,23.43-192.36,25.78c-33.65,1.82-66.39,32.74-12.44,38.62,33.16,3.62,134.43,13,119.43,43.5-12.83,26.08,27.57,32.05,22.18,49.27-5.54,17.7-38.33,26.94-57.43,26.94-60.65,0-79,60.83,142.87,60.83,56.93-85.87-.18-194.76,16.56-307,23.64-158.6,15.48-191.11,1.48-304-1.44-11.64,4.57-73.38-47.09-85.35C2708.72,1185.44,2270.27,1202.63,2264.38,1222.4Z" transform="translate(56.61 75.27)"/><path class="cls-5" d="M2637.4,1097.82s-108,22-117.13,53.62c-2.82,9.76-.35,17.06,2.32,23.43s16.64,10.77,13.84,19.78c-1.93,6.18,11.29,11.86,6.56,24.35-2.69,7.12-20.77-5.29-22.25,7-1.36,11.37,18.38,14.89,15.18,22.67s-23,2.73-25.52,17c-1,5.83,9.45,14.34,7.29,17.79-1.3,2.08-12.9,2.37-21.19,9.29-3.93,3.27-7.8,7.87-6.92,16.11,1.82,17.13-19.7,8.14-24.81,10.74-2.83,1.44-7.32,6.73-5.15,15.72,3.38,14-11.9-3-25.11,3.84-6,3.11-17.53,16.57-21.5,16.81-3.6.22-7.15-6.35-11.51-13.36s-10.93-6.78-12.64-6.06c-19.36,8.13-25,7.2-34.81,1.38-5.48-3.25-9.74-11.06-15.55-14.85s-14.34-4.88-21.34-2.89c-9,2.54-10.63,10.09-14,10.36-5.42.45,1.26-10.44-4.73-20.79-4-6.85-17.19-23.32-17.19-23.32s-75.9,35.48-108.22,78.1c61.63,79.18,199.1,162.36,360,80.93s150-227.88,108.7-338.83Z" transform="translate(56.61 75.27)"/><path class="cls-9" d="M2685.06,1726.48s-42.2-.1-64.84-18.59-72.2-62-49.52-133.91c23.53-74.64,105.18-79,105.18-79s47.19,13.78,56.34,22c25.9,23.29,39.52,47.68,49.83,78.68,9.46,28.43-10.59,84-10.59,84Z" transform="translate(56.61 75.27)"/><path class="cls-3" d="M2855.84,1964.65l-99.27-126.28L2640,1730c-3.5-4.87-.14-7.61,2.5-7.91,16-1.82,71.28-20.31,93-43.84,17.41-18.86,36.68,24.11,32.45-34.09-1-13.82,15.77-25.78,20.31-31.23,1.77-2.11,4.64-1.35,5.39,1.42L2850.35,1910l7.36,50.4C2857.7,1961.35,2856.45,1965.43,2855.84,1964.65Z" transform="translate(56.61 75.27)"/><path class="cls-12" d="M2577.69,1872.75l-26.92-105.19a13.7,13.7,0,0,0-8-9.65h0l-95.85-60.63s-145.52,22.85-200.6,41.26c-27.81,9.3-23.5,24.76-23.5,24.76l-4.13,98.42a22.12,22.12,0,0,0,7.55,12.64l75.58,70.73,1.35-.39a13.73,13.73,0,0,0,13.74,4.88l76.49-25.28,79-12.69,94.8-22.45A13.76,13.76,0,0,0,2577.69,1872.75Z" transform="translate(56.61 75.27)"/><path class="cls-7" d="M2222.9,1760.11s56.06,68,85.85,67.52c14.33-.22,105.75-18.9,105.75-18.9s106.48-30.23,129.43-37a6.87,6.87,0,0,0,1.87-12.29l-95.33-63.36a13.75,13.75,0,0,0-9.42-2.21C2401.45,1699,2211.27,1722,2222.9,1760.11Z" transform="translate(56.61 75.27)"/><path class="cls-6" d="M2463.17,1753.43c4.32,0,11.67-4.53,12.4,1.64,1,8.14-5.14,15.44-12.28,19.85-5.33,3.31-10.69.71-13.26-4.71-3.06-6.44.92-10.85,6.15-14C2458.23,1754.91,2460.71,1754.37,2463.17,1753.43Z" transform="translate(56.61 75.27)"/><path class="cls-6" d="M2530.29,1807.76c.17-4.31-4.12-11.81,2.07-12.33,8.17-.68,15.24,5.67,19.41,13,3.12,5.45.33,10.7-5.17,13.09-6.55,2.83-10.81-1.29-13.83-6.64C2531.6,1812.75,2531.14,1810.25,2530.29,1807.76Z" transform="translate(56.61 75.27)"/><path class="cls-6" d="M2510.2,1736.24c1.92-3.33-.1-10.83,7.34-8.94a24.35,24.35,0,0,1,17.53,17.41c1.48,5.45-3.88,8.55-11.27,8.38-8.79-.2-12.13-5-13.52-10.35C2509.74,1740.65,2510.2,1738.52,2510.2,1736.24Z" transform="translate(56.61 75.27)"/><path class="cls-6" d="M2312,1705.82c4.31,0,11.66-4.53,12.39,1.64,1,8.14,4.59,19-12.27,19.85-6.27.3-10.69.71-13.26-4.71-3.06-6.44.91-10.85,6.15-14C2307,1707.3,2309.49,1706.76,2312,1705.82Z" transform="translate(56.61 75.27)"/><path class="cls-6" d="M2262.11,1764.41c2.8-3.28,4.07-11.83,9.25-8.41,6.84,4.52,8.47,13.89,7.24,22.19-.92,6.21-6.36,8.62-12.16,7.09-6.89-1.82-7.69-7.7-6.76-13.77C2260.05,1769.14,2261.24,1766.9,2262.11,1764.41Z" transform="translate(56.61 75.27)"/><path class="cls-6" d="M2366.76,1769.22c-3.32,2.76-6,11-10.55,6.71-6-5.63-6-15.13-3.34-23.1,2-6,7.74-7.41,13.19-4.91,6.48,3,6.27,8.9,4.31,14.72C2369.6,1764.91,2368.05,1766.92,2366.76,1769.22Z" transform="translate(56.61 75.27)"/><path class="cls-6" d="M2389.68,1843.53c-.42,4.29,3.42,12-2.79,12.18-8.2.19-14.88-6.57-18.61-14.08-2.79-5.63.3-10.71,5.94-12.76,6.7-2.44,10.71,1.93,13.4,7.44C2388.68,1838.47,2389,1841,2389.68,1843.53Z" transform="translate(56.61 75.27)"/><path class="cls-6" d="M2416.81,1799.84c4.21-.95,10.35-7,12.44-1.19,2.77,7.72-1.54,16.19-7.5,22.1-4.46,4.42-10.26,3.08-14-1.62-4.43-5.59-1.55-10.78,2.84-15.07C2412.32,1802.38,2414.62,1801.3,2416.81,1799.84Z" transform="translate(56.61 75.27)"/><path class="cls-6" d="M2323,1824.77c-.24,4.31,3.92,11.88-2.27,12.29-8.19.54-15.15-5.93-19.19-13.28-3-5.51-.15-10.71,5.39-13,6.59-2.73,10.79,1.47,13.71,6.87C2321.77,1819.76,2322.19,1822.26,2323,1824.77Z" transform="translate(56.61 75.27)"/><path class="cls-6" d="M2357.45,1879.29c4.31,0,11.66-4.53,12.39,1.64,1,8.14-5.14,15.43-12.27,19.85-5.34,3.3-10.69.7-13.26-4.71-3.06-6.45.91-10.85,6.15-14C2352.5,1880.77,2355,1880.23,2357.45,1879.29Z" transform="translate(56.61 75.27)"/><path class="cls-6" d="M2436,1866.1c2.05-3.8,1.51-12.42,7.29-10.16,7.63,3,11.18,11.82,11.7,20.2.4,6.26-4.42,9.75-10.41,9.46-7.13-.34-9.13-5.93-9.48-12C2434.92,1871.15,2435.61,1868.71,2436,1866.1Z" transform="translate(56.61 75.27)"/><path class="cls-6" d="M2428.46,1715.93c2.69-3.37,3.66-12,9-8.72,7,4.28,8.94,13.59,8,21.93-.71,6.24-6.07,8.83-11.91,7.5-7-1.59-8-7.44-7.23-13.53C2426.57,1720.73,2427.67,1718.44,2428.46,1715.93Z" transform="translate(56.61 75.27)"/><path class="cls-6" d="M2394.47,1662.82c4.32,0,11.67-4.53,12.4,1.63,1,8.15-5.14,15.44-12.28,19.85-5.33,3.31-10.69.71-13.26-4.71-3.06-6.44.92-10.85,6.15-14C2389.53,1664.29,2392,1663.75,2394.47,1662.82Z" transform="translate(56.61 75.27)"/><path class="cls-6" d="M2310.65,1641.84c2.92-3.31,3.08-12.18,10-8.38,9.18,5,12.74,14.87,12.58,23.49-.11,6.44-6.43,8.72-13.83,6.87-8.81-2.2-10.76-8.38-10.6-14.67C2308.89,1646.69,2310,1644.4,2310.65,1641.84Z" transform="translate(56.61 75.27)"/><path class="cls-4" d="M2676.78,1189.58s20.93,224.6-138.64,277.23c-84.22,27.78-70.33-.27-49-6.49,23.14-6.76,110.22-48.62,123.79-88.35s43.6-101.26,45.69-182.77Z" transform="translate(56.61 75.27)"/><rect class="cls-7" x="915.03" y="2470.43" width="254.12" height="254.12"/><rect class="cls-6" x="1169.15" y="2470.43" width="254.12" height="254.12"/><rect class="cls-5" x="1423.26" y="2470.43" width="254.12" height="254.12"/><rect class="cls-4" x="1677.38" y="2470.43" width="254.12" height="254.12"/><rect class="cls-3" x="1931.5" y="2470.43" width="254.12" height="254.12"/><rect class="cls-9" x="2185.62" y="2470.43" width="254.12" height="254.12"/><path class="cls-6" d="M542.13,1792.73c-10.82-20.49-23-17.55-35.52-28.73s-28.52-15.47-30.8-27.5S470,1684.63,502,1687.33s98.78,22,146,67c31.85,30.36,33,54.52,28.48,65.66s-26.73,6.19-67.6,5.52C566,1824.83,552.48,1812.32,542.13,1792.73Z" transform="translate(56.61 75.27)"/><polygon class="cls-12" points="320.16 1799.81 502.97 1850.3 508.17 1948.48 383.04 1924.45 289.38 1911.14 320.16 1799.81"/><path class="cls-7" d="M681.92,1791.33a6.78,6.78,0,0,0-11.22-2.44c-19.38,19.87-33.32,26-33.32,26s-57.33,31.91-90.09,22.85c-59.28-16.4-82.06-64.54-96.08-104.9-3.68-10.59-13.54-3.53-15.06-1.86a96.68,96.68,0,0,0-22.07,39.93c-16.56,61,30.27,126.84,104.59,147s148-12.94,164.57-74C688.6,1824.24,688.35,1809.15,681.92,1791.33Z" transform="translate(56.61 75.27)"/><path class="cls-5" d="M566.44,1672.11c43-1.36,72.62,8.5,90.1,33.88s20,49.79,40.71,63.37-2.6,36-52.7,27.58-56.5-44.21-73-50.23-74.47-18.23-75.55-32.94C494.3,1690.24,527.72,1673.34,566.44,1672.11Z" transform="translate(56.61 75.27)"/><path class="cls-10" d="M1464.6,1839.83c-19.57-46.64-38.69-150.78-4-177.48,28.75-22.14,91.59-13.2,149.6,42.09,43.86,41.8,63.7,88.86,68.35,136.73,2.3,23.65.68,52.22-40.38,78.2C1557,1970.72,1482.54,1882.59,1464.6,1839.83Z" transform="translate(56.61 75.27)"/></svg>