<?xml version="1.0" encoding="utf-8"?>
<!-- Generator: Adobe Illustrator 22.1.0, SVG Export Plug-In . SVG Version: 6.00 Build 0)  -->
<svg version="1.1" id="Layer_1" xmlns="http://www.w3.org/2000/svg" xmlns:xlink="http://www.w3.org/1999/xlink" x="0px" y="0px"
	 viewBox="0 0 1008 1296" style="enable-background:new 0 0 1008 1296;" xml:space="preserve">
<style type="text/css">
	.st0{fill:#808285;}
	.st1{fill:#324747;}
	.st2{fill:#B8DDB9;}
	.st3{fill:#FFFFFF;}
	.st4{fill:#FEE7A4;}
	.st5{fill:#F48780;}
	.st6{fill:#A6B0D9;}
	.st7{fill:#3A3327;}
	.st8{font-family:'Averta-Bold';}
	.st9{font-size:33.556px;}
	.st10{letter-spacing:6;}
</style>
<rect x="25.5" y="61.4" class="st0" width="957.1" height="1173.1"/>
<path class="st1" d="M413.8,735.9c3.8,12.6-0.3,26.6-8.4,28.8c-6.4,1.7-10.9-1.2-13.2-6.9c-2.7-6.4,6.7-24.8,13.5-26.8
	C409.9,729.7,412.6,731.7,413.8,735.9z"/>
<path class="st1" d="M457.4,725.2c2,5.7,4.2,11.5-2.5,15.9c-5.2,3.4-10.6,3.1-15.5-0.1c-6.4-4.2-4.9-9.9-2.1-15.6
	c2.6-5.4,1.3-15.3,8.1-15.3C452.2,709.9,455,718.7,457.4,725.2z"/>
<path class="st1" d="M298.9,641.4c13.6-7.1,10.2,3.8,10.9,10.3c-1.5,4.2-2.3,8.8-4.5,12.7c-4.2,7.2-10.7,8.2-17.4,3.9
	c-6.9-4.5-5.5-11.1-1.3-16.4C289.9,647.6,294.7,644.8,298.9,641.4z"/>
<path class="st1" d="M303.9,718.1c-3.1-7.9,9.7-25,18.7-24.9c0.4,0,1-0.2,1.3-0.1c6.1,3.2,3.6,9.2,3.3,13.5
	c-0.4,7.6-1.6,16.3-11.2,18.1C310.8,725.8,305.9,724,303.9,718.1z"/>
<path class="st1" d="M254.9,623.2c4.2-0.5,9.8-5.6,13.6,1.1c2.8,4.9-6.7,21.4-13.1,23.8c-6.6,2.4-11.6-0.1-14.3-6.4
	C237.7,633.9,242.4,627.7,254.9,623.2z"/>
<path class="st1" d="M487,740.8c0.6-7.3-4-19.4,4-21.6c9.5-2.5,14.3,8.5,17.3,17.4c2.5,7.2-0.4,12-6.9,13.9
	C494,752.7,489.5,748.3,487,740.8z"/>
<path class="st2" d="M312.8,323.1c0,43.3-2.4,80.6,18.1,90.9c20.5,10.3,43.9,30.5,41.5,45.7c-2.4,15.2-23.3,23.4-53.6,27.2
	c-30.3,3.8-100.7,4.2-101.2,15.1c-0.5,10.9,69,46,84.1,50.4c15.1,4.4,44,20.7,44,35.4c0,20.7-105.6,2.2-105.6,32.7
	c0,30.5,56.8,40.9,71.4,67.3c13,23.5,20.9,30.5,36.6,33.2c12.9,2.2,19.5,6.5,19.5,22.5c0,16.7-74.6,10.1-83.5,23.8
	c-21.3,33,48.5,40.4,70.5,61.7c15.1,14.7,9.8,25.6-14.7,26.1c-24.4,0.5-92,9.1-91.5,23.2c0.5,14.2,19.3,19.7,49.1,29.5
	s19.6,25.8-5,33.4c-26.5,8.1-69.1-4.5-101.5,2.5c-34.1,7.4-15.8-514-25.6-595.4c-5.3-43.9,0.6-35.3,22.2-42.7
	c19.5-6.6,75.8-27.4,101.6-22C300.9,286.1,312.8,307.5,312.8,323.1z"/>
<path class="st3" d="M204.2,309c39.4,9.5,63.8,25.8,73.3,53.2c9.6,27.4,0.8,54.9,25.6,72c26.1,17.9-24.6,33.5-68,13.4
	s-22.9-51.4-44.9-69.5c-12.7-10.5-63-35.1-60.4-48.7C134.3,307.5,168.8,300.5,204.2,309z"/>
<path class="st4" d="M660.3,611.9c-4,9.9-43.8,33.8-60.5,37c-40.4,7.7-55.9,23.2-55.9,23.2c-17.1,40,2.6,73.1,7.2,112.1
	c14.6,125.3,56.8,132.3,24.3,141.9c-32.4,9.6-66.5,22.1-39.7,29.5c59.1,16.3,160.3,52.1,187.1,18c82.8-105.5,63.9-487.7,54.7-487.5
	C737.6,487,679.7,564,660.3,611.9z"/>
<g>
	<path class="st5" d="M878.1,455.8c0,0-89.6-98-128-87.9c-11.8,3.1-17.9,10.2-22.8,16.9c-4.9,6.7-0.8,23.9-11.9,26.6
		c-7.6,1.8-5.3,19-21.1,21.9c-9,1.6-7.4-24.8-21.1-18.6c-12.6,5.6-4,28.2-14,29.7c-9.9,1.5-17.1-22.1-33.4-15.9
		c-6.7,2.5-9,18.7-13.9,18.6c-2.9-0.1-10.4-11.9-22.7-16.2c-5.8-2-13-3.2-20.9,2.8c-16.6,12.5-20.6-15.3-26.5-19
		c-3.2-2-11.5-3.4-19.4,4.4c-12.4,12.1-4.2-14.2-19.5-23.6c-6.9-4.3-28-7.9-30.7-11.8c-2.5-3.6,2.1-11.3,6.7-20.2
		c4.5-8.9,0.2-15.5-1.6-16.8c-20.4-15-22.9-21.4-23-35.1c0-7.7,5.4-16.9,5.7-25.3c0.3-8.4-3.8-17.9-10.2-23.9
		c-8.2-7.7-17-4.7-19.4-8c-3.8-5.3,11.6-5.2,18.6-17.8c4.6-8.3,13.5-32.2,13.5-32.2S378.9,148,314.8,141
		c-43.7,112.7-44.5,306.4,139.3,422.3s328.4,13.9,417.6-97.5L878.1,455.8z"/>
</g>
<path class="st6" d="M359.3,692.8c-6.4-12.7-20.9-14.7-30.8-22.9c-5.8-4.8-12.5-8.6-18.7-12.9c-0.6-6.6,2.8-17.4-10.9-10.3
	c7.8-7.9,3.9-14.2-1.1-22.3c-8.7-14.2-15.5-29.6-23.1-44.4c0.2-1.3,0.3-2.6,0.5-3.9c-0.4-10.2-8.1-18-7.4-29.3
	c0.5-9.4,4.7-18.3,3.2-27.8c4.8-4.2,15-38.3,25.3-42.7c0,0-0.1-0.1-0.1-0.1c2.4,4.1,42.8,21.4,58.8,29.1c16.9,8.2,35,15,52.2,23.1
	c10.8,5.1,21.6,10.2,32.4,15.4c42.6,20.3,136.7-11.3,127.5,61.2c-2.3,3.1-11.4,33.5-11.4,33.5c-4.1,11.3-22.5,20.1-30.9,25.1
	c-22.2,13.4-41.8,31.5-70.6,34c-22.7,2-43.8-0.9-65.2-5.7c-4.9-1.1-8.9,0.5-13.3,1.4C370.7,678.1,364.9,688.4,359.3,692.8z"/>
<path class="st1" d="M549,643.3c-7.5-12-6.7-13.7,7.5-14.7c6.3-0.5,12.8-1.5,18.2,3.2c4,6.6,4.3,12.9-2,18.1c-6.1,5-11.7,1.7-17-2.1
	C553.4,646.2,551.2,644.8,549,643.3z"/>
<path class="st1" d="M237.1,552.7c-7.8,3.1-15.8,5-19.5-5c-2.4-6.4,1.4-11.6,7.4-14.5c5.6-2.7,27,3,26.6,7
	C250.6,548,243.3,550.1,237.1,552.7z"/>
<path class="st1" d="M284,505c8.7,16.7-8.1,9.8-13,14.1c-3.6-0.4-7.3-0.2-10.6-1.3c-7.7-2.7-7.7-9.3-6.7-15.8
	c1.2-7.7,7.6-5.3,11.9-5C272.4,497.2,278,501.8,284,505z"/>
<path class="st1" d="M275.2,576c-0.2,1.3-0.3,2.6-0.5,3.9c-5.8,5.1-11.5,10.3-19.1,12.9c-7.9,2.7-13.3-0.7-15.4-7.1
	c-2.4-7.5,2.7-11.9,9.8-13.7C258.9,569.9,267.1,572.4,275.2,576z"/>
<path class="st1" d="M513.2,691.1c0.2-3.4-6-8.2,1.6-10.7c6.8-2.3,23,6.8,24.7,13.7c1.5,6-0.9,10.9-6.5,13.3
	C525,710.7,517.8,704.7,513.2,691.1z"/>
<path class="st1" d="M571.4,675.3c-0.4-4.8-6.1-12.6,0.7-14c9-1.8,17.7,4.3,23.3,11.8c4.2,5.6,1.8,11.8-4,15.2
	c-6.9,4-12.2,0-16.2-5.6C573.5,680.6,572.7,677.9,571.4,675.3z"/>
<path class="st3" d="M407.8,892.9c-19.6-46.6-38.7-150.8-4-177.5c28.8-22.1,91.6-13.2,149.6,42.1c43.9,41.8,63.7,88.9,68.4,136.7
	c2.3,23.7,0.7,52.2-40.4,78.2C500.2,1023.8,425.7,935.7,407.8,892.9z"/>
<g>
	<path class="st3" d="M404,361.8c-4.3,0.1-7.9-0.6-10.7-2c-4.1-2.1-6.5-5.6-7-10.2c-0.4-3.6,1-7,3.8-9.3c4.7-3.7,12.4-4,21.9-0.7
		c4.8,1.7,10,3.1,15.5,4.3c2.6-3.6,3.6-7.8,3.1-12.5c-0.8-7.3-7.1-10.2-14.4-13.4c-7.4-3.3-15.8-7.1-16.9-16.8
		c-1.2-11,8.4-21,21.4-22.5c13.3-1.5,20.9,9.3,21.2,9.8c1,1.5,0.6,3.4-0.8,4.4c-1.4,1-3.4,0.6-4.4-0.8c-0.3-0.4-5.8-8.1-15.2-7
		c-9.5,1.1-16.6,8-15.7,15.4c0.6,5.6,5.4,8.2,13.2,11.7c7.9,3.6,16.9,7.6,18.1,18.5c0.6,5.3-0.4,10.1-2.8,14.5
		c33,5.9,72.5,3.2,94-7.5c1.6-0.8,3.5-0.1,4.3,1.4c0.8,1.6,0.1,3.5-1.4,4.3c-23.2,11.6-66.2,14.2-101.1,7.5
		c-0.9,0.9-1.9,1.8-2.9,2.6c-6.4,5-14.3,7.4-19.5,8C406.2,361.7,405.1,361.8,404,361.8z M399.6,343.7c-3.3,0.1-5,1.1-5.6,1.6
		c-1.1,0.9-1.6,2.1-1.4,3.6c0.3,2.5,1.4,4.1,3.5,5.2c2.4,1.2,6.1,1.6,10.5,1.1c3.9-0.4,10.2-2.3,15.4-6c-4.2-1-8.3-2.2-12.2-3.6
		C405.4,344.1,402.1,343.7,399.6,343.7z"/>
	<path class="st3" d="M457.8,340.9c-0.2,0-0.5,0-0.7,0c-5.4-0.2-9.5-4.2-11-10.8c-3.4-14.7,3.1-27.9,3.3-28.4
		c0.8-1.6,2.7-2.2,4.3-1.4c1.6,0.8,2.2,2.7,1.4,4.3l0,0c-0.1,0.1-5.7,11.7-2.8,24.2c0.5,2.1,1.8,5.7,5,5.9c3.1,0.1,7.6-3.2,9.5-9.7
		c0.5-1.7,2.3-2.6,4-2.1c1.7,0.5,2.6,2.3,2.1,4C470.4,335.1,464.2,340.8,457.8,340.9z"/>
	<path class="st3" d="M479.6,338.1c-0.6,0-1.2,0-1.8-0.1c-3.3-0.5-6-2.3-7.9-5.2c-6.6-9.9-1.7-30.6-1.2-32.9
		c0.4-1.7,2.1-2.8,3.8-2.3c1.7,0.4,2.8,2.1,2.3,3.8c-1.4,5.6-4,21.5,0.3,27.9c0.9,1.4,2.1,2.2,3.6,2.4c1.5,0.2,3.2-0.5,4.7-1.9
		c2.2-2.1,7.2-9,5.6-27.5c-0.1,0.1-0.2,0.2-0.3,0.3c-1.3,1.2-3.3,1.2-4.5-0.1c-2.1-2.2-2.5-5.2-1.1-7.7c1.3-2.4,3.9-3.7,6.4-3.2
		c1.8,0.4,5,1.9,5.7,8.4c1,9.3,1.3,26.1-7.4,34.3C485.4,336.7,482.5,338,479.6,338.1z"/>
	<path class="st3" d="M497.9,335.2c-1.3,0-2.5-0.7-3-1.9c-0.7-1.6,0.1-3.5,1.7-4.2c2.3-1,6.3-2.8,10.5-5.6
		c-2.1-2.7-3.8-6.6-4.5-11.9c-1.8-14.7,6.1-23.8,14.4-24.9c6.2-0.8,11.2,3,12.2,9.4c1.7,11.8-4.3,21-11.6,27.5
		c7.6,2.5,18-1.5,23.3-5.3c0.3-0.2,0.5-0.4,0.8-0.6c-2.8-3.9-4.4-9.1-4.6-15.1c-0.3-8.4,3.1-15.6,9-19.3c4-2.5,8.5-2.8,12-0.9
		c2.1,1.1,5.7,4.1,5.8,11.2c0.2,8.6-3.8,16.5-12.4,24.3c0.9,0.5,1.7,0.8,2.4,0.9c6,1.7,12.6-1.1,16.4-6.9c5.9-9,7.9-42.9,8.2-55.1
		c0-1.8,1.5-3.2,3.3-3.1c1.8,0,3.1,1.5,3.1,3.3c-0.1,4.7-1.3,46.3-9.2,58.5c-5.3,8.1-14.7,12-23.4,9.5c-2.2-0.6-4.1-1.5-5.9-2.8
		c-0.5,0.4-1.1,0.8-1.6,1.2c-6.3,4.6-20.2,10.1-30.7,5.5c-0.6-0.3-1.3-0.6-1.9-1c-5.1,3.5-10.1,5.9-12.9,7.1
		C498.7,335.1,498.3,335.2,497.9,335.2z M518.5,292.9c-0.2,0-0.5,0-0.6,0.1c-4.2,0.6-10.4,5.9-9,17.8c0.5,3.8,1.6,6.8,3.3,8.9
		c6.5-5.5,12.1-13.1,10.7-22.8C522.3,293.4,520,292.9,518.5,292.9z M553,287.5c-1.1,0-2.4,0.4-3.6,1.2c-4,2.5-6.2,7.6-6,13.6
		c0.2,5.2,1.5,8.8,3.2,11.3c7.5-6.7,11-13.1,10.9-19.9c-0.1-2.9-1-4.9-2.5-5.7C554.4,287.6,553.7,287.4,553,287.5z"/>
	<path class="st3" d="M590.4,320.1c-3.9,0.1-7.4-1.2-10.1-3.9c-4.3-4.3-6.2-11.8-5.2-21.2c0.2-1.7,1.7-3,3.5-2.8
		c1.7,0.2,3,1.7,2.8,3.5c-0.7,7.3,0.5,13.1,3.4,16c1.6,1.6,3.7,2.2,6.3,1.9c1.6-0.2,3.1-0.6,4.3-1.2c1.6-0.8,3.5-0.1,4.3,1.4
		c0.8,1.6,0.1,3.5-1.4,4.3c-1.9,0.9-4.1,1.6-6.4,1.8C591.3,320,590.8,320,590.4,320.1z"/>
	<path class="st3" d="M570.3,283.9c-1.5,0-2.9-1-3.2-2.6c-0.3-1.7,0.8-3.4,2.5-3.7L593,273c1.7-0.3,3.4,0.8,3.7,2.5
		c0.3,1.7-0.8,3.4-2.5,3.7l-23.4,4.6C570.6,283.9,570.4,283.9,570.3,283.9z"/>
	<path class="st3" d="M683.4,305.2c-3.9,0.1-7.6-1.2-10.8-3.7c-5.4-4.4-8.7-12.2-8.6-20.4c0.1-7.6,3-12.4,5.4-15.1
		c3.1-3.5,7.2-5.5,11.2-5.7c0,0,0,0,0,0c6-0.2,10.3,3.9,10.7,10.1c0.6,9-4.6,20.7-15.4,25.6c0.2,0.2,0.4,0.4,0.6,0.6
		c2.6,2.1,5.6,2.8,9,2c8.1-1.9,12.5-15.9,13.2-19.3c0.3-1.7,1.8-2.9,3.5-2.7c1.7,0.2,3,1.8,2.8,3.5c0,0.2-4.4,21.5-18,24.6
		C685.9,305,684.6,305.1,683.4,305.2z M680.9,266.6C680.9,266.6,680.9,266.6,680.9,266.6c-4.3,0.1-10.3,4.7-10.5,14.5
		c-0.1,3.3,0.6,6.7,1.9,9.5c9-3.4,13.3-12.7,12.8-19.8C684.8,267.2,682.7,266.5,680.9,266.6z"/>
	<path class="st3" d="M617.6,315.4c-3.3,0.1-6.7-0.8-9.5-2.6c-5.6-3.6-8.9-10.2-9.2-18.6c-0.3-7.8,2.4-15.1,7-19.4
		c3-2.8,6.6-4.1,10.2-3.7c2.8,0.3,5,1.5,6.5,3.6c3,4,2,9.7,1.9,10.3c-0.3,1.7-2,2.9-3.7,2.5c-1.7-0.3-2.9-2-2.5-3.7
		c0.2-0.9,0.4-3.8-0.7-5.4c-0.3-0.4-0.8-0.9-2.1-1c-2.2-0.2-4.1,1-5.2,2c-3.3,3-5.2,8.6-5,14.5c0.2,6.3,2.4,11.1,6.2,13.5
		c3,1.9,6.7,2.2,10,0.8c11.3-4.8,11-20.7,10.6-31.7c0,0-0.1-0.1-0.1-0.1c-4.1-2.5-5.3-6.9-4.8-10c0.5-2.6,2.2-4.5,4.6-4.9
		c1.5-0.3,2.9,0.1,4,1c2.1,1.8,2.4,4.9,2.5,9.1c0,0,0.1,0,0.1,0c3.3-0.1,8.3-2,14.9-7.3c1.2-0.9,2.7-1,3.9-0.3
		c2.3,1.4,1.9,3.4,0.5,10.7c-1.3,6.2-4.6,22.8-1.3,26c2.9,2.9,6.4,0.6,6.5,0.5c1.4-1,3.4-0.6,4.4,0.8c1,1.4,0.6,3.4-0.8,4.4
		c-2.7,1.9-9.2,4-14.6-1.2c-5.3-5.2-3.3-18.1-0.5-31.8c0,0,0,0,0,0c-5.3,3.3-9.6,4.5-12.9,4.6c0,0-0.1,0-0.1,0
		c0.3,12-0.1,29.7-14.5,35.9C621.9,314.8,619.7,315.3,617.6,315.4z"/>
	<path class="st3" d="M710.8,299.1c-3,0.1-5.8-1.3-7.9-3.9c-3.9-4.8-5.1-13.1-3.1-21.7c2.9-12.4,10.5-18.4,22.1-17.4
		c0-0.2,0-0.4,0-0.7c0.1-1.8,1.5-3.1,3.3-3.1c1.8,0.1,3.1,1.5,3.1,3.3C727.5,278,724.9,298.7,710.8,299.1z M718.9,262.3
		c-6.9,0.2-11,4.2-13,12.6c-1.9,8-0.2,13.8,1.8,16.2c0.9,1.1,1.9,1.6,2.9,1.6c7.7-0.2,10.1-15.8,11-30.3
		C720.6,262.3,719.7,262.3,718.9,262.3z"/>
	<path class="st3" d="M730.1,296.4c-2.3,0.1-3.8-0.8-4.8-1.6c-4.1-3.4-4.1-11-4.2-21.5c0-1.6,0-3.2,0-4.8c0-1.7,1.4-3.2,3.1-3.2
		c0,0,0,0,0,0c1.8,0,3.2,1.4,3.2,3.1c0,1.7,0,3.3,0,4.9c0,6.8,0.1,15.2,1.9,16.7c0.2,0.1,0.5,0.2,1,0.1c4.2-0.7,9.2-16.4,9.8-38.6
		c0.1-1.7,1.5-3.1,3.2-3.1c1.7,0,3.1,1.4,3.1,3.2l0,8.7c3.4-8.7,7.8-13.4,13.2-14.1c3-0.4,5.6,0.5,7.7,2.6c1.7,1.7,2.9,4.3,3.8,7.2
		c2.8-7.3,7.1-13.2,13.6-13.8c2.7-0.2,5.2,0.6,7.1,2.4c4.5,4.3,6.2,13.7,5.4,30.5c-0.1,1.7,0,5.6,1.9,6.4c2.7,1.1,9.5-2.1,15.7-9.1
		c1.2-1.3,3.2-1.4,4.5-0.3c1.3,1.2,1.4,3.2,0.3,4.5c-9.6,10.9-18.3,12.6-22.8,10.8c-2.9-1.2-6.3-4.3-5.9-12.5
		c0.8-18.7-1.8-24.1-3.5-25.6c-0.6-0.6-1.2-0.8-2.1-0.7c-7,0.6-10.9,16-12.5,28.7c-0.2,5.2-0.7,9.3-0.9,10.4
		c-0.2,1.7-1.7,2.9-3.4,2.8c-1.7-0.1-3-1.6-2.9-3.3c0-1.3,0.2-5.4,0.9-10.7c0.4-9.5-0.3-19.8-3.6-23.1c-0.7-0.7-1.4-0.9-2.4-0.8
		c-4.2,0.6-8.2,7.7-10.9,19.6c-2.3,10-3,20-3,20.1c-0.1,1.7-1.5,3-3.3,3c-1.7,0-3.1-1.4-3.1-3.2l0-4.4c-2.3,5.3-5.3,8.2-8.9,8.8
		C731.1,296.4,730.6,296.4,730.1,296.4z"/>
	<g>
		<path class="st3" d="M692.1,325.5l6.7-0.2c6.1-0.2,10.1,3.7,10.3,9.5c0.1,5.7-3.5,9.7-9.7,9.9l-6.8,0.2L692.1,325.5z M699,340.6
			c3.3-0.1,5.4-2.6,5.4-5.7c-0.1-3.2-2.4-5.6-5.3-5.5l-2.3,0.1l0.3,11.2L699,340.6z"/>
		<path class="st3" d="M731.8,340.3l-6.8,0.2l-1,3.5l-4.8,0.1l6.6-19.5l4.4-0.1l7.6,19.2l-4.8,0.1L731.8,340.3z M730.4,336.5
			l-2.3-6.5l-0.1,0l-1.9,6.6L730.4,336.5z"/>
		<path class="st3" d="M749,324l4.6-0.1l0.5,19.4l-4.6,0.1L749,324z"/>
		<path class="st3" d="M777.4,342.6l-4.1-6.1l-1.6,0l0.2,6.2l-4.5,0.1l-0.5-19.4l7.5-0.2c4.8-0.1,7,2.7,7.1,6.5
			c0.1,2.9-1.2,4.9-3.4,5.9l0,0.1l4.7,6.7L777.4,342.6z M771.6,332.5l2.1-0.1c2-0.1,3.1-1.1,3.1-2.6c0-1.5-1.1-2.5-3.1-2.5l-2.2,0.1
			L771.6,332.5z"/>
		<path class="st3" d="M808.7,322.5l-6.1,11.1l0.2,8.4l-4.6,0.1l-0.2-8.4l-6.6-10.8l5.2-0.1l3.6,6.3l0.1,0l3.2-6.5L808.7,322.5z"/>
	</g>
</g>
<path class="st7" d="M288.2,842.2c0,0-41.8,6-66.8-9c-25.1-15-80.4-50.9-68.3-125.3c12.5-77.3,92.7-93.3,92.7-93.3
	s48.7,6.8,58.9,13.6c29,19.3,46,41.5,60.7,70.6c13.5,26.8,1.7,84.6,1.7,84.6L288.2,842.2z"/>
<path class="st4" d="M491.6,1053.2L375.1,942.5l-131-90.4c-4.2-4.3-1.2-7.5,1.3-8.2c15.6-4.1,67.6-30.4,85.7-56.8
	c14.5-21.2,39.8,18.6,27.2-38.4c-3-13.5,11.9-27.8,15.6-33.8c1.4-2.3,4.4-2,5.5,0.6l98.8,284.4l14.6,48.8
	C493,1049.6,492.3,1053.8,491.6,1053.2z"/>
<path class="st1" d="M302.2,586.8c3.3,0.5,8.6-5.5,10.6,2.3c1.8,6.9-8.3,22.5-15.3,23.8c-6.1,1.1-10.8-1.6-12.9-7.4
	C281.8,597.4,288.3,590.6,302.2,586.8z"/>
<text transform="matrix(1 0 0 1 379.5625 1098.3534)"><tspan x="0" y="0" class="st3 st8 st9 st10">40 Main St</tspan><tspan x="-40.4" y="48" class="st3 st8 st9 st10">biddeford me</tspan></text>
<g>
	<rect x="-36" y="1366.5" class="st2" width="180" height="180"/>
	<rect x="144" y="1366.5" class="st7" width="180" height="180"/>
	<rect x="684" y="1366.5" class="st6" width="180" height="180"/>
	<rect x="504" y="1366.5" class="st5" width="180" height="180"/>
	<rect x="324" y="1366.5" class="st4" width="180" height="180"/>
	<rect x="864" y="1366.5" class="st1" width="180" height="180"/>
</g>
</svg>
